<svg width="319" height="206" viewBox="0 0 319 206" fill="none" xmlns="http://www.w3.org/2000/svg">
<path d="M35 22.5C35.2761 22.5 35.5 22.2761 35.5 22C35.5 21.7239 35.2761 21.5 35 21.5V22.5ZM23 22V21.5H22.5V22H23ZM23 81H22.5V81.5H23V81ZM35.3536 81.3536C35.5488 81.1583 35.5488 80.8417 35.3536 80.6464L32.1716 77.4645C31.9763 77.2692 31.6597 77.2692 31.4645 77.4645C31.2692 77.6597 31.2692 77.9763 31.4645 78.1716L34.2929 81L31.4645 83.8284C31.2692 84.0237 31.2692 84.3403 31.4645 84.5355C31.6597 84.7308 31.9763 84.7308 32.1716 84.5355L35.3536 81.3536ZM35 21.5H23V22.5H35V21.5ZM22.5 22L22.5 81H23.5L23.5 22H22.5ZM23 81.5H35V80.5H23V81.5Z" fill="#666677"/>
<path d="M30 131.5C30.2761 131.5 30.5 131.276 30.5 131C30.5 130.724 30.2761 130.5 30 130.5V131.5ZM18 131V130.5H17.5V131H18ZM18 190H17.5V190.5H18V190ZM30.3536 190.354C30.5488 190.158 30.5488 189.842 30.3536 189.646L27.1716 186.464C26.9763 186.269 26.6597 186.269 26.4645 186.464C26.2692 186.66 26.2692 186.976 26.4645 187.172L29.2929 190L26.4645 192.828C26.2692 193.024 26.2692 193.34 26.4645 193.536C26.6597 193.731 26.9763 193.731 27.1716 193.536L30.3536 190.354ZM30 130.5H18V131.5H30V130.5ZM17.5 131L17.5 190H18.5L18.5 131H17.5ZM18 190.5H30V189.5H18V190.5Z" fill="#666677"/>
<path d="M35 22.5C35.2761 22.5 35.5 22.2761 35.5 22C35.5 21.7239 35.2761 21.5 35 21.5V22.5ZM1 22V21.5H0.5V22H1ZM1 131H0.5V131.5H1V131ZM35.3536 131.354C35.5488 131.158 35.5488 130.842 35.3536 130.646L32.1716 127.464C31.9763 127.269 31.6597 127.269 31.4645 127.464C31.2692 127.66 31.2692 127.976 31.4645 128.172L34.2929 131L31.4645 133.828C31.2692 134.024 31.2692 134.34 31.4645 134.536C31.6597 134.731 31.9763 134.731 32.1716 134.536L35.3536 131.354ZM35 21.5L1 21.5V22.5L35 22.5V21.5ZM0.5 22L0.5 131H1.5L1.5 22H0.5ZM1 131.5H35V130.5H1V131.5Z" fill="#666677"/>
<path d="M83.8125 29.3125C83.8125 30.4062 83.5365 31.3281 82.9844 32.0781C82.4427 32.8177 81.6615 33.375 80.6406 33.75C79.6302 34.125 78.4219 34.3125 77.0156 34.3125C75.8177 34.3125 74.7812 34.2188 73.9062 34.0312C73.0312 33.8438 72.2656 33.5781 71.6094 33.2344V30.8438C72.3073 31.1875 73.1406 31.5 74.1094 31.7812C75.0781 32.0625 76.0677 32.2031 77.0781 32.2031C78.5573 32.2031 79.6302 31.9635 80.2969 31.4844C80.9635 31.0052 81.2969 30.3542 81.2969 29.5312C81.2969 29.0625 81.1615 28.651 80.8906 28.2969C80.6302 27.9323 80.1875 27.5833 79.5625 27.25C78.9375 26.9062 78.0729 26.5312 76.9688 26.125C75.875 25.7083 74.9271 25.2969 74.125 24.8906C73.3333 24.474 72.7188 23.9688 72.2812 23.375C71.8542 22.7812 71.6406 22.0104 71.6406 21.0625C71.6406 19.6146 72.224 18.5052 73.3906 17.7344C74.5677 16.9531 76.1094 16.5625 78.0156 16.5625C79.0469 16.5625 80.0104 16.6667 80.9062 16.875C81.8125 17.0729 82.6562 17.3438 83.4375 17.6875L82.5625 19.7656C81.8542 19.4635 81.099 19.2083 80.2969 19C79.4948 18.7917 78.6771 18.6875 77.8438 18.6875C76.6458 18.6875 75.724 18.8854 75.0781 19.2812C74.4427 19.6771 74.125 20.2188 74.125 20.9062C74.125 21.4375 74.2708 21.875 74.5625 22.2188C74.8646 22.5625 75.3438 22.8854 76 23.1875C76.6562 23.4896 77.5208 23.8438 78.5938 24.25C79.6667 24.6458 80.5938 25.0573 81.375 25.4844C82.1562 25.901 82.7552 26.4115 83.1719 27.0156C83.599 27.6094 83.8125 28.375 83.8125 29.3125ZM90.5781 16.875V34H87.9844V16.875H90.5781ZM89.3125 10.4688C89.7396 10.4688 90.1042 10.6094 90.4062 10.8906C90.7188 11.1615 90.875 11.5885 90.875 12.1719C90.875 12.7448 90.7188 13.1719 90.4062 13.4531C90.1042 13.7344 89.7396 13.875 89.3125 13.875C88.8646 13.875 88.4896 13.7344 88.1875 13.4531C87.8958 13.1719 87.75 12.7448 87.75 12.1719C87.75 11.5885 87.8958 11.1615 88.1875 10.8906C88.4896 10.6094 88.8646 10.4688 89.3125 10.4688ZM101.609 32.1875C102.036 32.1875 102.474 32.151 102.922 32.0781C103.37 32.0052 103.734 31.9167 104.016 31.8125V33.8281C103.714 33.9635 103.292 34.0781 102.75 34.1719C102.219 34.2656 101.698 34.3125 101.188 34.3125C100.281 34.3125 99.4583 34.1562 98.7188 33.8438C97.9792 33.5208 97.3854 32.9792 96.9375 32.2188C96.5 31.4583 96.2812 30.4062 96.2812 29.0625V18.9062H93.8438V17.6406L96.2969 16.625L97.3281 12.9062H98.8906V16.875H103.906V18.9062H98.8906V28.9844C98.8906 30.0573 99.1354 30.8594 99.625 31.3906C100.125 31.9219 100.786 32.1875 101.609 32.1875ZM114.078 16.5625C115.536 16.5625 116.786 16.8854 117.828 17.5312C118.87 18.1771 119.667 19.0833 120.219 20.25C120.771 21.4062 121.047 22.7604 121.047 24.3125V25.9219H109.219C109.25 27.9323 109.75 29.4635 110.719 30.5156C111.688 31.5677 113.052 32.0938 114.812 32.0938C115.896 32.0938 116.854 31.9948 117.688 31.7969C118.521 31.599 119.385 31.3073 120.281 30.9219V33.2031C119.417 33.5885 118.557 33.8698 117.703 34.0469C116.859 34.224 115.859 34.3125 114.703 34.3125C113.057 34.3125 111.62 33.9792 110.391 33.3125C109.172 32.6354 108.224 31.6458 107.547 30.3438C106.87 29.0417 106.531 27.4479 106.531 25.5625C106.531 23.7188 106.839 22.125 107.453 20.7812C108.078 19.4271 108.953 18.3854 110.078 17.6562C111.214 16.9271 112.547 16.5625 114.078 16.5625ZM114.047 18.6875C112.661 18.6875 111.557 19.1406 110.734 20.0469C109.911 20.9531 109.422 22.2188 109.266 23.8438H118.328C118.318 22.8229 118.156 21.9271 117.844 21.1562C117.542 20.375 117.078 19.7708 116.453 19.3438C115.828 18.9062 115.026 18.6875 114.047 18.6875ZM125.062 32.375C125.062 31.6458 125.24 31.1302 125.594 30.8281C125.948 30.5156 126.38 30.3594 126.891 30.3594C127.422 30.3594 127.87 30.5156 128.234 30.8281C128.599 31.1302 128.781 31.6458 128.781 32.375C128.781 33.0938 128.599 33.6198 128.234 33.9531C127.87 34.276 127.422 34.4375 126.891 34.4375C126.38 34.4375 125.948 34.276 125.594 33.9531C125.24 33.6198 125.062 33.0938 125.062 32.375ZM140.719 34.3125C139.177 34.3125 137.818 33.9948 136.641 33.3594C135.464 32.724 134.547 31.7552 133.891 30.4531C133.234 29.151 132.906 27.5104 132.906 25.5312C132.906 23.4583 133.25 21.7656 133.938 20.4531C134.635 19.1302 135.594 18.151 136.812 17.5156C138.031 16.8802 139.417 16.5625 140.969 16.5625C141.823 16.5625 142.646 16.651 143.438 16.8281C144.24 16.9948 144.896 17.2083 145.406 17.4688L144.625 19.6406C144.104 19.4323 143.5 19.2448 142.812 19.0781C142.135 18.9115 141.5 18.8281 140.906 18.8281C139.719 18.8281 138.729 19.0833 137.938 19.5938C137.156 20.1042 136.568 20.8542 136.172 21.8438C135.786 22.8333 135.594 24.0521 135.594 25.5C135.594 26.8854 135.781 28.0677 136.156 29.0469C136.542 30.026 137.109 30.776 137.859 31.2969C138.62 31.8073 139.568 32.0625 140.703 32.0625C141.609 32.0625 142.427 31.9688 143.156 31.7812C143.885 31.5833 144.547 31.3542 145.141 31.0938V33.4062C144.568 33.6979 143.927 33.9219 143.219 34.0781C142.521 34.2344 141.688 34.3125 140.719 34.3125ZM160.281 29.3125C160.281 30.4062 160.005 31.3281 159.453 32.0781C158.911 32.8177 158.13 33.375 157.109 33.75C156.099 34.125 154.891 34.3125 153.484 34.3125C152.286 34.3125 151.25 34.2188 150.375 34.0312C149.5 33.8438 148.734 33.5781 148.078 33.2344V30.8438C148.776 31.1875 149.609 31.5 150.578 31.7812C151.547 32.0625 152.536 32.2031 153.547 32.2031C155.026 32.2031 156.099 31.9635 156.766 31.4844C157.432 31.0052 157.766 30.3542 157.766 29.5312C157.766 29.0625 157.63 28.651 157.359 28.2969C157.099 27.9323 156.656 27.5833 156.031 27.25C155.406 26.9062 154.542 26.5312 153.438 26.125C152.344 25.7083 151.396 25.2969 150.594 24.8906C149.802 24.474 149.188 23.9688 148.75 23.375C148.323 22.7812 148.109 22.0104 148.109 21.0625C148.109 19.6146 148.693 18.5052 149.859 17.7344C151.036 16.9531 152.578 16.5625 154.484 16.5625C155.516 16.5625 156.479 16.6667 157.375 16.875C158.281 17.0729 159.125 17.3438 159.906 17.6875L159.031 19.7656C158.323 19.4635 157.568 19.2083 156.766 19C155.964 18.7917 155.146 18.6875 154.312 18.6875C153.115 18.6875 152.193 18.8854 151.547 19.2812C150.911 19.6771 150.594 20.2188 150.594 20.9062C150.594 21.4375 150.74 21.875 151.031 22.2188C151.333 22.5625 151.812 22.8854 152.469 23.1875C153.125 23.4896 153.99 23.8438 155.062 24.25C156.135 24.6458 157.062 25.0573 157.844 25.4844C158.625 25.901 159.224 26.4115 159.641 27.0156C160.068 27.6094 160.281 28.375 160.281 29.3125ZM175.531 29.3125C175.531 30.4062 175.255 31.3281 174.703 32.0781C174.161 32.8177 173.38 33.375 172.359 33.75C171.349 34.125 170.141 34.3125 168.734 34.3125C167.536 34.3125 166.5 34.2188 165.625 34.0312C164.75 33.8438 163.984 33.5781 163.328 33.2344V30.8438C164.026 31.1875 164.859 31.5 165.828 31.7812C166.797 32.0625 167.786 32.2031 168.797 32.2031C170.276 32.2031 171.349 31.9635 172.016 31.4844C172.682 31.0052 173.016 30.3542 173.016 29.5312C173.016 29.0625 172.88 28.651 172.609 28.2969C172.349 27.9323 171.906 27.5833 171.281 27.25C170.656 26.9062 169.792 26.5312 168.688 26.125C167.594 25.7083 166.646 25.2969 165.844 24.8906C165.052 24.474 164.438 23.9688 164 23.375C163.573 22.7812 163.359 22.0104 163.359 21.0625C163.359 19.6146 163.943 18.5052 165.109 17.7344C166.286 16.9531 167.828 16.5625 169.734 16.5625C170.766 16.5625 171.729 16.6667 172.625 16.875C173.531 17.0729 174.375 17.3438 175.156 17.6875L174.281 19.7656C173.573 19.4635 172.818 19.2083 172.016 19C171.214 18.7917 170.396 18.6875 169.562 18.6875C168.365 18.6875 167.443 18.8854 166.797 19.2812C166.161 19.6771 165.844 20.2188 165.844 20.9062C165.844 21.4375 165.99 21.875 166.281 22.2188C166.583 22.5625 167.062 22.8854 167.719 23.1875C168.375 23.4896 169.24 23.8438 170.312 24.25C171.385 24.6458 172.312 25.0573 173.094 25.4844C173.875 25.901 174.474 26.4115 174.891 27.0156C175.318 27.6094 175.531 28.375 175.531 29.3125Z" fill="black"/>
<path d="M63 22V27C63 32 61 34 56 34H50C45 34 43 32 43 27V21C43 16 45 14 50 14H55" stroke="black" stroke-width="1.5" stroke-linecap="round" stroke-linejoin="round"/>
<path d="M63 22H59C56 22 55 21 55 18V14L63 22Z" stroke="black" stroke-width="1.5" stroke-linecap="round" stroke-linejoin="round"/>
<path d="M83.8125 83.3125C83.8125 84.4062 83.5365 85.3281 82.9844 86.0781C82.4427 86.8177 81.6615 87.375 80.6406 87.75C79.6302 88.125 78.4219 88.3125 77.0156 88.3125C75.8177 88.3125 74.7812 88.2188 73.9062 88.0312C73.0312 87.8438 72.2656 87.5781 71.6094 87.2344V84.8438C72.3073 85.1875 73.1406 85.5 74.1094 85.7812C75.0781 86.0625 76.0677 86.2031 77.0781 86.2031C78.5573 86.2031 79.6302 85.9635 80.2969 85.4844C80.9635 85.0052 81.2969 84.3542 81.2969 83.5312C81.2969 83.0625 81.1615 82.651 80.8906 82.2969C80.6302 81.9323 80.1875 81.5833 79.5625 81.25C78.9375 80.9062 78.0729 80.5312 76.9688 80.125C75.875 79.7083 74.9271 79.2969 74.125 78.8906C73.3333 78.474 72.7188 77.9688 72.2812 77.375C71.8542 76.7812 71.6406 76.0104 71.6406 75.0625C71.6406 73.6146 72.224 72.5052 73.3906 71.7344C74.5677 70.9531 76.1094 70.5625 78.0156 70.5625C79.0469 70.5625 80.0104 70.6667 80.9062 70.875C81.8125 71.0729 82.6562 71.3438 83.4375 71.6875L82.5625 73.7656C81.8542 73.4635 81.099 73.2083 80.2969 73C79.4948 72.7917 78.6771 72.6875 77.8438 72.6875C76.6458 72.6875 75.724 72.8854 75.0781 73.2812C74.4427 73.6771 74.125 74.2188 74.125 74.9062C74.125 75.4375 74.2708 75.875 74.5625 76.2188C74.8646 76.5625 75.3438 76.8854 76 77.1875C76.6562 77.4896 77.5208 77.8438 78.5938 78.25C79.6667 78.6458 80.5938 79.0573 81.375 79.4844C82.1562 79.901 82.7552 80.4115 83.1719 81.0156C83.599 81.6094 83.8125 82.375 83.8125 83.3125ZM90.5781 70.875V88H87.9844V70.875H90.5781ZM89.3125 64.4688C89.7396 64.4688 90.1042 64.6094 90.4062 64.8906C90.7188 65.1615 90.875 65.5885 90.875 66.1719C90.875 66.7448 90.7188 67.1719 90.4062 67.4531C90.1042 67.7344 89.7396 67.875 89.3125 67.875C88.8646 67.875 88.4896 67.7344 88.1875 67.4531C87.8958 67.1719 87.75 66.7448 87.75 66.1719C87.75 65.5885 87.8958 65.1615 88.1875 64.8906C88.4896 64.6094 88.8646 64.4688 89.3125 64.4688ZM101.609 86.1875C102.036 86.1875 102.474 86.151 102.922 86.0781C103.37 86.0052 103.734 85.9167 104.016 85.8125V87.8281C103.714 87.9635 103.292 88.0781 102.75 88.1719C102.219 88.2656 101.698 88.3125 101.188 88.3125C100.281 88.3125 99.4583 88.1562 98.7188 87.8438C97.9792 87.5208 97.3854 86.9792 96.9375 86.2188C96.5 85.4583 96.2812 84.4062 96.2812 83.0625V72.9062H93.8438V71.6406L96.2969 70.625L97.3281 66.9062H98.8906V70.875H103.906V72.9062H98.8906V82.9844C98.8906 84.0573 99.1354 84.8594 99.625 85.3906C100.125 85.9219 100.786 86.1875 101.609 86.1875ZM114.078 70.5625C115.536 70.5625 116.786 70.8854 117.828 71.5312C118.87 72.1771 119.667 73.0833 120.219 74.25C120.771 75.4062 121.047 76.7604 121.047 78.3125V79.9219H109.219C109.25 81.9323 109.75 83.4635 110.719 84.5156C111.688 85.5677 113.052 86.0938 114.812 86.0938C115.896 86.0938 116.854 85.9948 117.688 85.7969C118.521 85.599 119.385 85.3073 120.281 84.9219V87.2031C119.417 87.5885 118.557 87.8698 117.703 88.0469C116.859 88.224 115.859 88.3125 114.703 88.3125C113.057 88.3125 111.62 87.9792 110.391 87.3125C109.172 86.6354 108.224 85.6458 107.547 84.3438C106.87 83.0417 106.531 81.4479 106.531 79.5625C106.531 77.7188 106.839 76.125 107.453 74.7812C108.078 73.4271 108.953 72.3854 110.078 71.6562C111.214 70.9271 112.547 70.5625 114.078 70.5625ZM114.047 72.6875C112.661 72.6875 111.557 73.1406 110.734 74.0469C109.911 74.9531 109.422 76.2188 109.266 77.8438H118.328C118.318 76.8229 118.156 75.9271 117.844 75.1562C117.542 74.375 117.078 73.7708 116.453 73.3438C115.828 72.9062 115.026 72.6875 114.047 72.6875ZM125.062 86.375C125.062 85.6458 125.24 85.1302 125.594 84.8281C125.948 84.5156 126.38 84.3594 126.891 84.3594C127.422 84.3594 127.87 84.5156 128.234 84.8281C128.599 85.1302 128.781 85.6458 128.781 86.375C128.781 87.0938 128.599 87.6198 128.234 87.9531C127.87 88.276 127.422 88.4375 126.891 88.4375C126.38 88.4375 125.948 88.276 125.594 87.9531C125.24 87.6198 125.062 87.0938 125.062 86.375ZM140.719 88.3125C139.177 88.3125 137.818 87.9948 136.641 87.3594C135.464 86.724 134.547 85.7552 133.891 84.4531C133.234 83.151 132.906 81.5104 132.906 79.5312C132.906 77.4583 133.25 75.7656 133.938 74.4531C134.635 73.1302 135.594 72.151 136.812 71.5156C138.031 70.8802 139.417 70.5625 140.969 70.5625C141.823 70.5625 142.646 70.651 143.438 70.8281C144.24 70.9948 144.896 71.2083 145.406 71.4688L144.625 73.6406C144.104 73.4323 143.5 73.2448 142.812 73.0781C142.135 72.9115 141.5 72.8281 140.906 72.8281C139.719 72.8281 138.729 73.0833 137.938 73.5938C137.156 74.1042 136.568 74.8542 136.172 75.8438C135.786 76.8333 135.594 78.0521 135.594 79.5C135.594 80.8854 135.781 82.0677 136.156 83.0469C136.542 84.026 137.109 84.776 137.859 85.2969C138.62 85.8073 139.568 86.0625 140.703 86.0625C141.609 86.0625 142.427 85.9688 143.156 85.7812C143.885 85.5833 144.547 85.3542 145.141 85.0938V87.4062C144.568 87.6979 143.927 87.9219 143.219 88.0781C142.521 88.2344 141.688 88.3125 140.719 88.3125ZM160.281 83.3125C160.281 84.4062 160.005 85.3281 159.453 86.0781C158.911 86.8177 158.13 87.375 157.109 87.75C156.099 88.125 154.891 88.3125 153.484 88.3125C152.286 88.3125 151.25 88.2188 150.375 88.0312C149.5 87.8438 148.734 87.5781 148.078 87.2344V84.8438C148.776 85.1875 149.609 85.5 150.578 85.7812C151.547 86.0625 152.536 86.2031 153.547 86.2031C155.026 86.2031 156.099 85.9635 156.766 85.4844C157.432 85.0052 157.766 84.3542 157.766 83.5312C157.766 83.0625 157.63 82.651 157.359 82.2969C157.099 81.9323 156.656 81.5833 156.031 81.25C155.406 80.9062 154.542 80.5312 153.438 80.125C152.344 79.7083 151.396 79.2969 150.594 78.8906C149.802 78.474 149.188 77.9688 148.75 77.375C148.323 76.7812 148.109 76.0104 148.109 75.0625C148.109 73.6146 148.693 72.5052 149.859 71.7344C151.036 70.9531 152.578 70.5625 154.484 70.5625C155.516 70.5625 156.479 70.6667 157.375 70.875C158.281 71.0729 159.125 71.3438 159.906 71.6875L159.031 73.7656C158.323 73.4635 157.568 73.2083 156.766 73C155.964 72.7917 155.146 72.6875 154.312 72.6875C153.115 72.6875 152.193 72.8854 151.547 73.2812C150.911 73.6771 150.594 74.2188 150.594 74.9062C150.594 75.4375 150.74 75.875 151.031 76.2188C151.333 76.5625 151.812 76.8854 152.469 77.1875C153.125 77.4896 153.99 77.8438 155.062 78.25C156.135 78.6458 157.062 79.0573 157.844 79.4844C158.625 79.901 159.224 80.4115 159.641 81.0156C160.068 81.6094 160.281 82.375 160.281 83.3125ZM175.531 83.3125C175.531 84.4062 175.255 85.3281 174.703 86.0781C174.161 86.8177 173.38 87.375 172.359 87.75C171.349 88.125 170.141 88.3125 168.734 88.3125C167.536 88.3125 166.5 88.2188 165.625 88.0312C164.75 87.8438 163.984 87.5781 163.328 87.2344V84.8438C164.026 85.1875 164.859 85.5 165.828 85.7812C166.797 86.0625 167.786 86.2031 168.797 86.2031C170.276 86.2031 171.349 85.9635 172.016 85.4844C172.682 85.0052 173.016 84.3542 173.016 83.5312C173.016 83.0625 172.88 82.651 172.609 82.2969C172.349 81.9323 171.906 81.5833 171.281 81.25C170.656 80.9062 169.792 80.5312 168.688 80.125C167.594 79.7083 166.646 79.2969 165.844 78.8906C165.052 78.474 164.438 77.9688 164 77.375C163.573 76.7812 163.359 76.0104 163.359 75.0625C163.359 73.6146 163.943 72.5052 165.109 71.7344C166.286 70.9531 167.828 70.5625 169.734 70.5625C170.766 70.5625 171.729 70.6667 172.625 70.875C173.531 71.0729 174.375 71.3438 175.156 71.6875L174.281 73.7656C173.573 73.4635 172.818 73.2083 172.016 73C171.214 72.7917 170.396 72.6875 169.562 72.6875C168.365 72.6875 167.443 72.8854 166.797 73.2812C166.161 73.6771 165.844 74.2188 165.844 74.9062C165.844 75.4375 165.99 75.875 166.281 76.2188C166.583 76.5625 167.062 76.8854 167.719 77.1875C168.375 77.4896 169.24 77.8438 170.312 78.25C171.385 78.6458 172.312 79.0573 173.094 79.4844C173.875 79.901 174.474 80.4115 174.891 81.0156C175.318 81.6094 175.531 82.375 175.531 83.3125ZM179.312 86.375C179.312 85.6458 179.49 85.1302 179.844 84.8281C180.198 84.5156 180.63 84.3594 181.141 84.3594C181.672 84.3594 182.12 84.5156 182.484 84.8281C182.849 85.1302 183.031 85.6458 183.031 86.375C183.031 87.0938 182.849 87.6198 182.484 87.9531C182.12 88.276 181.672 88.4375 181.141 88.4375C180.63 88.4375 180.198 88.276 179.844 87.9531C179.49 87.6198 179.312 87.0938 179.312 86.375Z" fill="black"/>
<path d="M206.703 70.5625C208.589 70.5625 210.01 71.0573 210.969 72.0469C211.927 73.026 212.406 74.6042 212.406 76.7812V88H209.844V76.9062C209.844 75.5208 209.542 74.4844 208.938 73.7969C208.344 73.099 207.458 72.75 206.281 72.75C204.625 72.75 203.422 73.2292 202.672 74.1875C201.922 75.1458 201.547 76.5573 201.547 78.4219V88H198.969V76.9062C198.969 75.9792 198.833 75.2083 198.562 74.5938C198.302 73.9792 197.906 73.5208 197.375 73.2188C196.854 72.9062 196.193 72.75 195.391 72.75C194.255 72.75 193.344 72.9844 192.656 73.4531C191.969 73.9219 191.469 74.6198 191.156 75.5469C190.854 76.4635 190.703 77.5938 190.703 78.9375V88H188.109V70.875H190.203L190.594 73.2969H190.734C191.078 72.7031 191.51 72.2031 192.031 71.7969C192.552 71.3906 193.135 71.0833 193.781 70.875C194.427 70.6667 195.115 70.5625 195.844 70.5625C197.146 70.5625 198.234 70.8073 199.109 71.2969C199.995 71.776 200.635 72.5104 201.031 73.5H201.172C201.734 72.5104 202.505 71.776 203.484 71.2969C204.464 70.8073 205.536 70.5625 206.703 70.5625ZM224.141 70.5938C226.182 70.5938 227.698 71.0521 228.688 71.9688C229.677 72.8854 230.172 74.349 230.172 76.3594V88H228.281L227.781 85.4688H227.656C227.177 86.0938 226.677 86.6198 226.156 87.0469C225.635 87.4635 225.031 87.7812 224.344 88C223.667 88.2083 222.833 88.3125 221.844 88.3125C220.802 88.3125 219.875 88.1302 219.062 87.7656C218.26 87.401 217.625 86.849 217.156 86.1094C216.698 85.3698 216.469 84.4323 216.469 83.2969C216.469 81.5885 217.146 80.276 218.5 79.3594C219.854 78.4427 221.917 77.9427 224.688 77.8594L227.641 77.7344V76.6875C227.641 75.2083 227.323 74.1719 226.688 73.5781C226.052 72.9844 225.156 72.6875 224 72.6875C223.104 72.6875 222.25 72.8177 221.438 73.0781C220.625 73.3385 219.854 73.6458 219.125 74L218.328 72.0312C219.099 71.6354 219.984 71.2969 220.984 71.0156C221.984 70.7344 223.036 70.5938 224.141 70.5938ZM227.609 79.5625L225 79.6719C222.865 79.7552 221.359 80.1042 220.484 80.7188C219.609 81.3333 219.172 82.2031 219.172 83.3281C219.172 84.3073 219.469 85.0312 220.062 85.5C220.656 85.9688 221.443 86.2031 222.422 86.2031C223.943 86.2031 225.188 85.7812 226.156 84.9375C227.125 84.0938 227.609 82.8281 227.609 81.1406V79.5625ZM243.562 70.5625C245.698 70.5625 247.401 71.2969 248.672 72.7656C249.943 74.2344 250.578 76.4427 250.578 79.3906C250.578 81.3385 250.286 82.974 249.703 84.2969C249.12 85.6198 248.297 86.6198 247.234 87.2969C246.182 87.974 244.938 88.3125 243.5 88.3125C242.594 88.3125 241.797 88.1927 241.109 87.9531C240.422 87.7135 239.833 87.3906 239.344 86.9844C238.854 86.5781 238.448 86.1354 238.125 85.6562H237.938C237.969 86.0625 238.005 86.5521 238.047 87.125C238.099 87.6979 238.125 88.1979 238.125 88.625V95.6562H235.516V70.875H237.656L238 73.4062H238.125C238.458 72.8854 238.865 72.4115 239.344 71.9844C239.823 71.5469 240.406 71.2031 241.094 70.9531C241.792 70.6927 242.615 70.5625 243.562 70.5625ZM243.109 72.75C241.922 72.75 240.964 72.9792 240.234 73.4375C239.516 73.8958 238.99 74.5833 238.656 75.5C238.323 76.4062 238.146 77.5469 238.125 78.9219V79.4219C238.125 80.8698 238.281 82.0938 238.594 83.0938C238.917 84.0938 239.443 84.8542 240.172 85.375C240.911 85.8958 241.901 86.1562 243.141 86.1562C244.203 86.1562 245.089 85.8698 245.797 85.2969C246.505 84.724 247.031 83.9271 247.375 82.9062C247.729 81.875 247.906 80.6927 247.906 79.3594C247.906 77.3385 247.51 75.7344 246.719 74.5469C245.938 73.349 244.734 72.75 243.109 72.75Z" fill="#5D60EF"/>
<path d="M63 76V81C63 86 61 88 56 88H50C45 88 43 86 43 81V75C43 70 45 68 50 68H55" stroke="black" stroke-width="1.5" stroke-linecap="round" stroke-linejoin="round"/>
<path d="M63 76H59C56 76 55 75 55 72V68L63 76Z" stroke="black" stroke-width="1.5" stroke-linecap="round" stroke-linejoin="round"/>
<path d="M83.8125 137.312C83.8125 138.406 83.5365 139.328 82.9844 140.078C82.4427 140.818 81.6615 141.375 80.6406 141.75C79.6302 142.125 78.4219 142.312 77.0156 142.312C75.8177 142.312 74.7812 142.219 73.9062 142.031C73.0312 141.844 72.2656 141.578 71.6094 141.234V138.844C72.3073 139.188 73.1406 139.5 74.1094 139.781C75.0781 140.062 76.0677 140.203 77.0781 140.203C78.5573 140.203 79.6302 139.964 80.2969 139.484C80.9635 139.005 81.2969 138.354 81.2969 137.531C81.2969 137.062 81.1615 136.651 80.8906 136.297C80.6302 135.932 80.1875 135.583 79.5625 135.25C78.9375 134.906 78.0729 134.531 76.9688 134.125C75.875 133.708 74.9271 133.297 74.125 132.891C73.3333 132.474 72.7188 131.969 72.2812 131.375C71.8542 130.781 71.6406 130.01 71.6406 129.062C71.6406 127.615 72.224 126.505 73.3906 125.734C74.5677 124.953 76.1094 124.562 78.0156 124.562C79.0469 124.562 80.0104 124.667 80.9062 124.875C81.8125 125.073 82.6562 125.344 83.4375 125.688L82.5625 127.766C81.8542 127.464 81.099 127.208 80.2969 127C79.4948 126.792 78.6771 126.688 77.8438 126.688C76.6458 126.688 75.724 126.885 75.0781 127.281C74.4427 127.677 74.125 128.219 74.125 128.906C74.125 129.438 74.2708 129.875 74.5625 130.219C74.8646 130.562 75.3438 130.885 76 131.188C76.6562 131.49 77.5208 131.844 78.5938 132.25C79.6667 132.646 80.5938 133.057 81.375 133.484C82.1562 133.901 82.7552 134.411 83.1719 135.016C83.599 135.609 83.8125 136.375 83.8125 137.312ZM90.5781 124.875V142H87.9844V124.875H90.5781ZM89.3125 118.469C89.7396 118.469 90.1042 118.609 90.4062 118.891C90.7188 119.161 90.875 119.589 90.875 120.172C90.875 120.745 90.7188 121.172 90.4062 121.453C90.1042 121.734 89.7396 121.875 89.3125 121.875C88.8646 121.875 88.4896 121.734 88.1875 121.453C87.8958 121.172 87.75 120.745 87.75 120.172C87.75 119.589 87.8958 119.161 88.1875 118.891C88.4896 118.609 88.8646 118.469 89.3125 118.469ZM101.609 140.188C102.036 140.188 102.474 140.151 102.922 140.078C103.37 140.005 103.734 139.917 104.016 139.812V141.828C103.714 141.964 103.292 142.078 102.75 142.172C102.219 142.266 101.698 142.312 101.188 142.312C100.281 142.312 99.4583 142.156 98.7188 141.844C97.9792 141.521 97.3854 140.979 96.9375 140.219C96.5 139.458 96.2812 138.406 96.2812 137.062V126.906H93.8438V125.641L96.2969 124.625L97.3281 120.906H98.8906V124.875H103.906V126.906H98.8906V136.984C98.8906 138.057 99.1354 138.859 99.625 139.391C100.125 139.922 100.786 140.188 101.609 140.188ZM114.078 124.562C115.536 124.562 116.786 124.885 117.828 125.531C118.87 126.177 119.667 127.083 120.219 128.25C120.771 129.406 121.047 130.76 121.047 132.312V133.922H109.219C109.25 135.932 109.75 137.464 110.719 138.516C111.688 139.568 113.052 140.094 114.812 140.094C115.896 140.094 116.854 139.995 117.688 139.797C118.521 139.599 119.385 139.307 120.281 138.922V141.203C119.417 141.589 118.557 141.87 117.703 142.047C116.859 142.224 115.859 142.312 114.703 142.312C113.057 142.312 111.62 141.979 110.391 141.312C109.172 140.635 108.224 139.646 107.547 138.344C106.87 137.042 106.531 135.448 106.531 133.562C106.531 131.719 106.839 130.125 107.453 128.781C108.078 127.427 108.953 126.385 110.078 125.656C111.214 124.927 112.547 124.562 114.078 124.562ZM114.047 126.688C112.661 126.688 111.557 127.141 110.734 128.047C109.911 128.953 109.422 130.219 109.266 131.844H118.328C118.318 130.823 118.156 129.927 117.844 129.156C117.542 128.375 117.078 127.771 116.453 127.344C115.828 126.906 115.026 126.688 114.047 126.688ZM125.062 140.375C125.062 139.646 125.24 139.13 125.594 138.828C125.948 138.516 126.38 138.359 126.891 138.359C127.422 138.359 127.87 138.516 128.234 138.828C128.599 139.13 128.781 139.646 128.781 140.375C128.781 141.094 128.599 141.62 128.234 141.953C127.87 142.276 127.422 142.438 126.891 142.438C126.38 142.438 125.948 142.276 125.594 141.953C125.24 141.62 125.062 141.094 125.062 140.375ZM190.812 140.375C190.812 139.646 190.99 139.13 191.344 138.828C191.698 138.516 192.13 138.359 192.641 138.359C193.172 138.359 193.62 138.516 193.984 138.828C194.349 139.13 194.531 139.646 194.531 140.375C194.531 141.094 194.349 141.62 193.984 141.953C193.62 142.276 193.172 142.438 192.641 142.438C192.13 142.438 191.698 142.276 191.344 141.953C190.99 141.62 190.812 141.094 190.812 140.375ZM206.469 142.312C204.927 142.312 203.568 141.995 202.391 141.359C201.214 140.724 200.297 139.755 199.641 138.453C198.984 137.151 198.656 135.51 198.656 133.531C198.656 131.458 199 129.766 199.688 128.453C200.385 127.13 201.344 126.151 202.562 125.516C203.781 124.88 205.167 124.562 206.719 124.562C207.573 124.562 208.396 124.651 209.188 124.828C209.99 124.995 210.646 125.208 211.156 125.469L210.375 127.641C209.854 127.432 209.25 127.245 208.562 127.078C207.885 126.911 207.25 126.828 206.656 126.828C205.469 126.828 204.479 127.083 203.688 127.594C202.906 128.104 202.318 128.854 201.922 129.844C201.536 130.833 201.344 132.052 201.344 133.5C201.344 134.885 201.531 136.068 201.906 137.047C202.292 138.026 202.859 138.776 203.609 139.297C204.37 139.807 205.318 140.062 206.453 140.062C207.359 140.062 208.177 139.969 208.906 139.781C209.635 139.583 210.297 139.354 210.891 139.094V141.406C210.318 141.698 209.677 141.922 208.969 142.078C208.271 142.234 207.438 142.312 206.469 142.312ZM226.031 137.312C226.031 138.406 225.755 139.328 225.203 140.078C224.661 140.818 223.88 141.375 222.859 141.75C221.849 142.125 220.641 142.312 219.234 142.312C218.036 142.312 217 142.219 216.125 142.031C215.25 141.844 214.484 141.578 213.828 141.234V138.844C214.526 139.188 215.359 139.5 216.328 139.781C217.297 140.062 218.286 140.203 219.297 140.203C220.776 140.203 221.849 139.964 222.516 139.484C223.182 139.005 223.516 138.354 223.516 137.531C223.516 137.062 223.38 136.651 223.109 136.297C222.849 135.932 222.406 135.583 221.781 135.25C221.156 134.906 220.292 134.531 219.188 134.125C218.094 133.708 217.146 133.297 216.344 132.891C215.552 132.474 214.938 131.969 214.5 131.375C214.073 130.781 213.859 130.01 213.859 129.062C213.859 127.615 214.443 126.505 215.609 125.734C216.786 124.953 218.328 124.562 220.234 124.562C221.266 124.562 222.229 124.667 223.125 124.875C224.031 125.073 224.875 125.344 225.656 125.688L224.781 127.766C224.073 127.464 223.318 127.208 222.516 127C221.714 126.792 220.896 126.688 220.062 126.688C218.865 126.688 217.943 126.885 217.297 127.281C216.661 127.677 216.344 128.219 216.344 128.906C216.344 129.438 216.49 129.875 216.781 130.219C217.083 130.562 217.562 130.885 218.219 131.188C218.875 131.49 219.74 131.844 220.812 132.25C221.885 132.646 222.812 133.057 223.594 133.484C224.375 133.901 224.974 134.411 225.391 135.016C225.818 135.609 226.031 136.375 226.031 137.312ZM241.281 137.312C241.281 138.406 241.005 139.328 240.453 140.078C239.911 140.818 239.13 141.375 238.109 141.75C237.099 142.125 235.891 142.312 234.484 142.312C233.286 142.312 232.25 142.219 231.375 142.031C230.5 141.844 229.734 141.578 229.078 141.234V138.844C229.776 139.188 230.609 139.5 231.578 139.781C232.547 140.062 233.536 140.203 234.547 140.203C236.026 140.203 237.099 139.964 237.766 139.484C238.432 139.005 238.766 138.354 238.766 137.531C238.766 137.062 238.63 136.651 238.359 136.297C238.099 135.932 237.656 135.583 237.031 135.25C236.406 134.906 235.542 134.531 234.438 134.125C233.344 133.708 232.396 133.297 231.594 132.891C230.802 132.474 230.188 131.969 229.75 131.375C229.323 130.781 229.109 130.01 229.109 129.062C229.109 127.615 229.693 126.505 230.859 125.734C232.036 124.953 233.578 124.562 235.484 124.562C236.516 124.562 237.479 124.667 238.375 124.875C239.281 125.073 240.125 125.344 240.906 125.688L240.031 127.766C239.323 127.464 238.568 127.208 237.766 127C236.964 126.792 236.146 126.688 235.312 126.688C234.115 126.688 233.193 126.885 232.547 127.281C231.911 127.677 231.594 128.219 231.594 128.906C231.594 129.438 231.74 129.875 232.031 130.219C232.333 130.562 232.812 130.885 233.469 131.188C234.125 131.49 234.99 131.844 236.062 132.25C237.135 132.646 238.062 133.057 238.844 133.484C239.625 133.901 240.224 134.411 240.641 135.016C241.068 135.609 241.281 136.375 241.281 137.312Z" fill="black"/>
<path d="M152.453 124.562C154.339 124.562 155.76 125.057 156.719 126.047C157.677 127.026 158.156 128.604 158.156 130.781V142H155.594V130.906C155.594 129.521 155.292 128.484 154.688 127.797C154.094 127.099 153.208 126.75 152.031 126.75C150.375 126.75 149.172 127.229 148.422 128.188C147.672 129.146 147.297 130.557 147.297 132.422V142H144.719V130.906C144.719 129.979 144.583 129.208 144.312 128.594C144.052 127.979 143.656 127.521 143.125 127.219C142.604 126.906 141.943 126.75 141.141 126.75C140.005 126.75 139.094 126.984 138.406 127.453C137.719 127.922 137.219 128.62 136.906 129.547C136.604 130.464 136.453 131.594 136.453 132.938V142H133.859V124.875H135.953L136.344 127.297H136.484C136.828 126.703 137.26 126.203 137.781 125.797C138.302 125.391 138.885 125.083 139.531 124.875C140.177 124.667 140.865 124.562 141.594 124.562C142.896 124.562 143.984 124.807 144.859 125.297C145.745 125.776 146.385 126.51 146.781 127.5H146.922C147.484 126.51 148.255 125.776 149.234 125.297C150.214 124.807 151.286 124.562 152.453 124.562ZM166.078 124.875V142H163.484V124.875H166.078ZM164.812 118.469C165.24 118.469 165.604 118.609 165.906 118.891C166.219 119.161 166.375 119.589 166.375 120.172C166.375 120.745 166.219 121.172 165.906 121.453C165.604 121.734 165.24 121.875 164.812 121.875C164.365 121.875 163.99 121.734 163.688 121.453C163.396 121.172 163.25 120.745 163.25 120.172C163.25 119.589 163.396 119.161 163.688 118.891C163.99 118.609 164.365 118.469 164.812 118.469ZM179.688 124.562C181.719 124.562 183.255 125.062 184.297 126.062C185.339 127.052 185.859 128.646 185.859 130.844V142H183.297V131.016C183.297 129.589 182.969 128.521 182.312 127.812C181.667 127.104 180.672 126.75 179.328 126.75C177.432 126.75 176.099 127.286 175.328 128.359C174.557 129.432 174.172 130.99 174.172 133.031V142H171.578V124.875H173.672L174.062 127.344H174.203C174.568 126.74 175.031 126.234 175.594 125.828C176.156 125.411 176.786 125.099 177.484 124.891C178.182 124.672 178.917 124.562 179.688 124.562Z" fill="#6567ED"/>
<path d="M63 130V135C63 140 61 142 56 142H50C45 142 43 140 43 135V129C43 124 45 122 50 122H55" stroke="black" stroke-width="1.5" stroke-linecap="round" stroke-linejoin="round"/>
<path d="M63 130H59C56 130 55 129 55 126V122L63 130Z" stroke="black" stroke-width="1.5" stroke-linecap="round" stroke-linejoin="round"/>
<path d="M83.8125 191.312C83.8125 192.406 83.5365 193.328 82.9844 194.078C82.4427 194.818 81.6615 195.375 80.6406 195.75C79.6302 196.125 78.4219 196.312 77.0156 196.312C75.8177 196.312 74.7812 196.219 73.9062 196.031C73.0312 195.844 72.2656 195.578 71.6094 195.234V192.844C72.3073 193.188 73.1406 193.5 74.1094 193.781C75.0781 194.062 76.0677 194.203 77.0781 194.203C78.5573 194.203 79.6302 193.964 80.2969 193.484C80.9635 193.005 81.2969 192.354 81.2969 191.531C81.2969 191.062 81.1615 190.651 80.8906 190.297C80.6302 189.932 80.1875 189.583 79.5625 189.25C78.9375 188.906 78.0729 188.531 76.9688 188.125C75.875 187.708 74.9271 187.297 74.125 186.891C73.3333 186.474 72.7188 185.969 72.2812 185.375C71.8542 184.781 71.6406 184.01 71.6406 183.062C71.6406 181.615 72.224 180.505 73.3906 179.734C74.5677 178.953 76.1094 178.562 78.0156 178.562C79.0469 178.562 80.0104 178.667 80.9062 178.875C81.8125 179.073 82.6562 179.344 83.4375 179.688L82.5625 181.766C81.8542 181.464 81.099 181.208 80.2969 181C79.4948 180.792 78.6771 180.688 77.8438 180.688C76.6458 180.688 75.724 180.885 75.0781 181.281C74.4427 181.677 74.125 182.219 74.125 182.906C74.125 183.438 74.2708 183.875 74.5625 184.219C74.8646 184.562 75.3438 184.885 76 185.188C76.6562 185.49 77.5208 185.844 78.5938 186.25C79.6667 186.646 80.5938 187.057 81.375 187.484C82.1562 187.901 82.7552 188.411 83.1719 189.016C83.599 189.609 83.8125 190.375 83.8125 191.312ZM90.5781 178.875V196H87.9844V178.875H90.5781ZM89.3125 172.469C89.7396 172.469 90.1042 172.609 90.4062 172.891C90.7188 173.161 90.875 173.589 90.875 174.172C90.875 174.745 90.7188 175.172 90.4062 175.453C90.1042 175.734 89.7396 175.875 89.3125 175.875C88.8646 175.875 88.4896 175.734 88.1875 175.453C87.8958 175.172 87.75 174.745 87.75 174.172C87.75 173.589 87.8958 173.161 88.1875 172.891C88.4896 172.609 88.8646 172.469 89.3125 172.469ZM101.609 194.188C102.036 194.188 102.474 194.151 102.922 194.078C103.37 194.005 103.734 193.917 104.016 193.812V195.828C103.714 195.964 103.292 196.078 102.75 196.172C102.219 196.266 101.698 196.312 101.188 196.312C100.281 196.312 99.4583 196.156 98.7188 195.844C97.9792 195.521 97.3854 194.979 96.9375 194.219C96.5 193.458 96.2812 192.406 96.2812 191.062V180.906H93.8438V179.641L96.2969 178.625L97.3281 174.906H98.8906V178.875H103.906V180.906H98.8906V190.984C98.8906 192.057 99.1354 192.859 99.625 193.391C100.125 193.922 100.786 194.188 101.609 194.188ZM114.078 178.562C115.536 178.562 116.786 178.885 117.828 179.531C118.87 180.177 119.667 181.083 120.219 182.25C120.771 183.406 121.047 184.76 121.047 186.312V187.922H109.219C109.25 189.932 109.75 191.464 110.719 192.516C111.688 193.568 113.052 194.094 114.812 194.094C115.896 194.094 116.854 193.995 117.688 193.797C118.521 193.599 119.385 193.307 120.281 192.922V195.203C119.417 195.589 118.557 195.87 117.703 196.047C116.859 196.224 115.859 196.312 114.703 196.312C113.057 196.312 111.62 195.979 110.391 195.312C109.172 194.635 108.224 193.646 107.547 192.344C106.87 191.042 106.531 189.448 106.531 187.562C106.531 185.719 106.839 184.125 107.453 182.781C108.078 181.427 108.953 180.385 110.078 179.656C111.214 178.927 112.547 178.562 114.078 178.562ZM114.047 180.688C112.661 180.688 111.557 181.141 110.734 182.047C109.911 182.953 109.422 184.219 109.266 185.844H118.328C118.318 184.823 118.156 183.927 117.844 183.156C117.542 182.375 117.078 181.771 116.453 181.344C115.828 180.906 115.026 180.688 114.047 180.688ZM125.062 194.375C125.062 193.646 125.24 193.13 125.594 192.828C125.948 192.516 126.38 192.359 126.891 192.359C127.422 192.359 127.87 192.516 128.234 192.828C128.599 193.13 128.781 193.646 128.781 194.375C128.781 195.094 128.599 195.62 128.234 195.953C127.87 196.276 127.422 196.438 126.891 196.438C126.38 196.438 125.948 196.276 125.594 195.953C125.24 195.62 125.062 195.094 125.062 194.375ZM190.812 194.375C190.812 193.646 190.99 193.13 191.344 192.828C191.698 192.516 192.13 192.359 192.641 192.359C193.172 192.359 193.62 192.516 193.984 192.828C194.349 193.13 194.531 193.646 194.531 194.375C194.531 195.094 194.349 195.62 193.984 195.953C193.62 196.276 193.172 196.438 192.641 196.438C192.13 196.438 191.698 196.276 191.344 195.953C190.99 195.62 190.812 195.094 190.812 194.375ZM206.469 196.312C204.927 196.312 203.568 195.995 202.391 195.359C201.214 194.724 200.297 193.755 199.641 192.453C198.984 191.151 198.656 189.51 198.656 187.531C198.656 185.458 199 183.766 199.688 182.453C200.385 181.13 201.344 180.151 202.562 179.516C203.781 178.88 205.167 178.562 206.719 178.562C207.573 178.562 208.396 178.651 209.188 178.828C209.99 178.995 210.646 179.208 211.156 179.469L210.375 181.641C209.854 181.432 209.25 181.245 208.562 181.078C207.885 180.911 207.25 180.828 206.656 180.828C205.469 180.828 204.479 181.083 203.688 181.594C202.906 182.104 202.318 182.854 201.922 183.844C201.536 184.833 201.344 186.052 201.344 187.5C201.344 188.885 201.531 190.068 201.906 191.047C202.292 192.026 202.859 192.776 203.609 193.297C204.37 193.807 205.318 194.062 206.453 194.062C207.359 194.062 208.177 193.969 208.906 193.781C209.635 193.583 210.297 193.354 210.891 193.094V195.406C210.318 195.698 209.677 195.922 208.969 196.078C208.271 196.234 207.438 196.312 206.469 196.312ZM226.031 191.312C226.031 192.406 225.755 193.328 225.203 194.078C224.661 194.818 223.88 195.375 222.859 195.75C221.849 196.125 220.641 196.312 219.234 196.312C218.036 196.312 217 196.219 216.125 196.031C215.25 195.844 214.484 195.578 213.828 195.234V192.844C214.526 193.188 215.359 193.5 216.328 193.781C217.297 194.062 218.286 194.203 219.297 194.203C220.776 194.203 221.849 193.964 222.516 193.484C223.182 193.005 223.516 192.354 223.516 191.531C223.516 191.062 223.38 190.651 223.109 190.297C222.849 189.932 222.406 189.583 221.781 189.25C221.156 188.906 220.292 188.531 219.188 188.125C218.094 187.708 217.146 187.297 216.344 186.891C215.552 186.474 214.938 185.969 214.5 185.375C214.073 184.781 213.859 184.01 213.859 183.062C213.859 181.615 214.443 180.505 215.609 179.734C216.786 178.953 218.328 178.562 220.234 178.562C221.266 178.562 222.229 178.667 223.125 178.875C224.031 179.073 224.875 179.344 225.656 179.688L224.781 181.766C224.073 181.464 223.318 181.208 222.516 181C221.714 180.792 220.896 180.688 220.062 180.688C218.865 180.688 217.943 180.885 217.297 181.281C216.661 181.677 216.344 182.219 216.344 182.906C216.344 183.438 216.49 183.875 216.781 184.219C217.083 184.562 217.562 184.885 218.219 185.188C218.875 185.49 219.74 185.844 220.812 186.25C221.885 186.646 222.812 187.057 223.594 187.484C224.375 187.901 224.974 188.411 225.391 189.016C225.818 189.609 226.031 190.375 226.031 191.312ZM241.281 191.312C241.281 192.406 241.005 193.328 240.453 194.078C239.911 194.818 239.13 195.375 238.109 195.75C237.099 196.125 235.891 196.312 234.484 196.312C233.286 196.312 232.25 196.219 231.375 196.031C230.5 195.844 229.734 195.578 229.078 195.234V192.844C229.776 193.188 230.609 193.5 231.578 193.781C232.547 194.062 233.536 194.203 234.547 194.203C236.026 194.203 237.099 193.964 237.766 193.484C238.432 193.005 238.766 192.354 238.766 191.531C238.766 191.062 238.63 190.651 238.359 190.297C238.099 189.932 237.656 189.583 237.031 189.25C236.406 188.906 235.542 188.531 234.438 188.125C233.344 187.708 232.396 187.297 231.594 186.891C230.802 186.474 230.188 185.969 229.75 185.375C229.323 184.781 229.109 184.01 229.109 183.062C229.109 181.615 229.693 180.505 230.859 179.734C232.036 178.953 233.578 178.562 235.484 178.562C236.516 178.562 237.479 178.667 238.375 178.875C239.281 179.073 240.125 179.344 240.906 179.688L240.031 181.766C239.323 181.464 238.568 181.208 237.766 181C236.964 180.792 236.146 180.688 235.312 180.688C234.115 180.688 233.193 180.885 232.547 181.281C231.911 181.677 231.594 182.219 231.594 182.906C231.594 183.438 231.74 183.875 232.031 184.219C232.333 184.562 232.812 184.885 233.469 185.188C234.125 185.49 234.99 185.844 236.062 186.25C237.135 186.646 238.062 187.057 238.844 187.484C239.625 187.901 240.224 188.411 240.641 189.016C241.068 189.609 241.281 190.375 241.281 191.312ZM245.062 194.375C245.062 193.646 245.24 193.13 245.594 192.828C245.948 192.516 246.38 192.359 246.891 192.359C247.422 192.359 247.87 192.516 248.234 192.828C248.599 193.13 248.781 193.646 248.781 194.375C248.781 195.094 248.599 195.62 248.234 195.953C247.87 196.276 247.422 196.438 246.891 196.438C246.38 196.438 245.948 196.276 245.594 195.953C245.24 195.62 245.062 195.094 245.062 194.375Z" fill="black"/>
<path d="M152.453 178.562C154.339 178.562 155.76 179.057 156.719 180.047C157.677 181.026 158.156 182.604 158.156 184.781V196H155.594V184.906C155.594 183.521 155.292 182.484 154.688 181.797C154.094 181.099 153.208 180.75 152.031 180.75C150.375 180.75 149.172 181.229 148.422 182.188C147.672 183.146 147.297 184.557 147.297 186.422V196H144.719V184.906C144.719 183.979 144.583 183.208 144.312 182.594C144.052 181.979 143.656 181.521 143.125 181.219C142.604 180.906 141.943 180.75 141.141 180.75C140.005 180.75 139.094 180.984 138.406 181.453C137.719 181.922 137.219 182.62 136.906 183.547C136.604 184.464 136.453 185.594 136.453 186.938V196H133.859V178.875H135.953L136.344 181.297H136.484C136.828 180.703 137.26 180.203 137.781 179.797C138.302 179.391 138.885 179.083 139.531 178.875C140.177 178.667 140.865 178.562 141.594 178.562C142.896 178.562 143.984 178.807 144.859 179.297C145.745 179.776 146.385 180.51 146.781 181.5H146.922C147.484 180.51 148.255 179.776 149.234 179.297C150.214 178.807 151.286 178.562 152.453 178.562ZM166.078 178.875V196H163.484V178.875H166.078ZM164.812 172.469C165.24 172.469 165.604 172.609 165.906 172.891C166.219 173.161 166.375 173.589 166.375 174.172C166.375 174.745 166.219 175.172 165.906 175.453C165.604 175.734 165.24 175.875 164.812 175.875C164.365 175.875 163.99 175.734 163.688 175.453C163.396 175.172 163.25 174.745 163.25 174.172C163.25 173.589 163.396 173.161 163.688 172.891C163.99 172.609 164.365 172.469 164.812 172.469ZM179.688 178.562C181.719 178.562 183.255 179.062 184.297 180.062C185.339 181.052 185.859 182.646 185.859 184.844V196H183.297V185.016C183.297 183.589 182.969 182.521 182.312 181.812C181.667 181.104 180.672 180.75 179.328 180.75C177.432 180.75 176.099 181.286 175.328 182.359C174.557 183.432 174.172 184.99 174.172 187.031V196H171.578V178.875H173.672L174.062 181.344H174.203C174.568 180.74 175.031 180.234 175.594 179.828C176.156 179.411 176.786 179.099 177.484 178.891C178.182 178.672 178.917 178.562 179.688 178.562Z" fill="#6567ED"/>
<path d="M272.453 178.562C274.339 178.562 275.76 179.057 276.719 180.047C277.677 181.026 278.156 182.604 278.156 184.781V196H275.594V184.906C275.594 183.521 275.292 182.484 274.688 181.797C274.094 181.099 273.208 180.75 272.031 180.75C270.375 180.75 269.172 181.229 268.422 182.188C267.672 183.146 267.297 184.557 267.297 186.422V196H264.719V184.906C264.719 183.979 264.583 183.208 264.312 182.594C264.052 181.979 263.656 181.521 263.125 181.219C262.604 180.906 261.943 180.75 261.141 180.75C260.005 180.75 259.094 180.984 258.406 181.453C257.719 181.922 257.219 182.62 256.906 183.547C256.604 184.464 256.453 185.594 256.453 186.938V196H253.859V178.875H255.953L256.344 181.297H256.484C256.828 180.703 257.26 180.203 257.781 179.797C258.302 179.391 258.885 179.083 259.531 178.875C260.177 178.667 260.865 178.562 261.594 178.562C262.896 178.562 263.984 178.807 264.859 179.297C265.745 179.776 266.385 180.51 266.781 181.5H266.922C267.484 180.51 268.255 179.776 269.234 179.297C270.214 178.807 271.286 178.562 272.453 178.562ZM289.891 178.594C291.932 178.594 293.448 179.052 294.438 179.969C295.427 180.885 295.922 182.349 295.922 184.359V196H294.031L293.531 193.469H293.406C292.927 194.094 292.427 194.62 291.906 195.047C291.385 195.464 290.781 195.781 290.094 196C289.417 196.208 288.583 196.312 287.594 196.312C286.552 196.312 285.625 196.13 284.812 195.766C284.01 195.401 283.375 194.849 282.906 194.109C282.448 193.37 282.219 192.432 282.219 191.297C282.219 189.589 282.896 188.276 284.25 187.359C285.604 186.443 287.667 185.943 290.438 185.859L293.391 185.734V184.688C293.391 183.208 293.073 182.172 292.438 181.578C291.802 180.984 290.906 180.688 289.75 180.688C288.854 180.688 288 180.818 287.188 181.078C286.375 181.339 285.604 181.646 284.875 182L284.078 180.031C284.849 179.635 285.734 179.297 286.734 179.016C287.734 178.734 288.786 178.594 289.891 178.594ZM293.359 187.562L290.75 187.672C288.615 187.755 287.109 188.104 286.234 188.719C285.359 189.333 284.922 190.203 284.922 191.328C284.922 192.307 285.219 193.031 285.812 193.5C286.406 193.969 287.193 194.203 288.172 194.203C289.693 194.203 290.938 193.781 291.906 192.938C292.875 192.094 293.359 190.828 293.359 189.141V187.562ZM309.312 178.562C311.448 178.562 313.151 179.297 314.422 180.766C315.693 182.234 316.328 184.443 316.328 187.391C316.328 189.339 316.036 190.974 315.453 192.297C314.87 193.62 314.047 194.62 312.984 195.297C311.932 195.974 310.688 196.312 309.25 196.312C308.344 196.312 307.547 196.193 306.859 195.953C306.172 195.714 305.583 195.391 305.094 194.984C304.604 194.578 304.198 194.135 303.875 193.656H303.688C303.719 194.062 303.755 194.552 303.797 195.125C303.849 195.698 303.875 196.198 303.875 196.625V203.656H301.266V178.875H303.406L303.75 181.406H303.875C304.208 180.885 304.615 180.411 305.094 179.984C305.573 179.547 306.156 179.203 306.844 178.953C307.542 178.693 308.365 178.562 309.312 178.562ZM308.859 180.75C307.672 180.75 306.714 180.979 305.984 181.438C305.266 181.896 304.74 182.583 304.406 183.5C304.073 184.406 303.896 185.547 303.875 186.922V187.422C303.875 188.87 304.031 190.094 304.344 191.094C304.667 192.094 305.193 192.854 305.922 193.375C306.661 193.896 307.651 194.156 308.891 194.156C309.953 194.156 310.839 193.87 311.547 193.297C312.255 192.724 312.781 191.927 313.125 190.906C313.479 189.875 313.656 188.693 313.656 187.359C313.656 185.339 313.26 183.734 312.469 182.547C311.688 181.349 310.484 180.75 308.859 180.75Z" fill="#5D60EF"/>
<path d="M63 184V189C63 194 61 196 56 196H50C45 196 43 194 43 189V183C43 178 45 176 50 176H55" stroke="black" stroke-width="1.5" stroke-linecap="round" stroke-linejoin="round"/>
<path d="M63 184H59C56 184 55 183 55 180V176L63 184Z" stroke="black" stroke-width="1.5" stroke-linecap="round" stroke-linejoin="round"/>
</svg>
