<svg width="510" height="331" viewBox="0 0 510 331" fill="none" xmlns="http://www.w3.org/2000/svg">
<path d="M53 78.75H43C38.59 78.75 37.25 77.41 37.25 73V63C37.25 58.59 38.59 57.25 43 57.25H44.5C46.25 57.25 46.8 57.82 47.5 58.75L49 60.75C49.33 61.19 49.38 61.25 50 61.25H53C57.41 61.25 58.75 62.59 58.75 67V73C58.75 77.41 57.41 78.75 53 78.75ZM43 58.75C39.43 58.75 38.75 59.43 38.75 63V73C38.75 76.57 39.43 77.25 43 77.25H53C56.57 77.25 57.25 76.57 57.25 73V67C57.25 63.43 56.57 62.75 53 62.75H50C48.72 62.75 48.3 62.31 47.8 61.65L46.3 59.65C45.78 58.96 45.63 58.75 44.5 58.75H43V58.75Z" fill="#292D32"/>
<path d="M78.8125 73.3125C78.8125 74.4062 78.5365 75.3281 77.9844 76.0781C77.4427 76.8177 76.6615 77.375 75.6406 77.75C74.6302 78.125 73.4219 78.3125 72.0156 78.3125C70.8177 78.3125 69.7812 78.2188 68.9062 78.0312C68.0312 77.8438 67.2656 77.5781 66.6094 77.2344V74.8438C67.3073 75.1875 68.1406 75.5 69.1094 75.7812C70.0781 76.0625 71.0677 76.2031 72.0781 76.2031C73.5573 76.2031 74.6302 75.9635 75.2969 75.4844C75.9635 75.0052 76.2969 74.3542 76.2969 73.5312C76.2969 73.0625 76.1615 72.651 75.8906 72.2969C75.6302 71.9323 75.1875 71.5833 74.5625 71.25C73.9375 70.9062 73.0729 70.5312 71.9688 70.125C70.875 69.7083 69.9271 69.2969 69.125 68.8906C68.3333 68.474 67.7188 67.9688 67.2812 67.375C66.8542 66.7812 66.6406 66.0104 66.6406 65.0625C66.6406 63.6146 67.224 62.5052 68.3906 61.7344C69.5677 60.9531 71.1094 60.5625 73.0156 60.5625C74.0469 60.5625 75.0104 60.6667 75.9062 60.875C76.8125 61.0729 77.6562 61.3438 78.4375 61.6875L77.5625 63.7656C76.8542 63.4635 76.099 63.2083 75.2969 63C74.4948 62.7917 73.6771 62.6875 72.8438 62.6875C71.6458 62.6875 70.724 62.8854 70.0781 63.2812C69.4427 63.6771 69.125 64.2188 69.125 64.9062C69.125 65.4375 69.2708 65.875 69.5625 66.2188C69.8646 66.5625 70.3438 66.8854 71 67.1875C71.6562 67.4896 72.5208 67.8438 73.5938 68.25C74.6667 68.6458 75.5938 69.0573 76.375 69.4844C77.1562 69.901 77.7552 70.4115 78.1719 71.0156C78.599 71.6094 78.8125 72.375 78.8125 73.3125ZM97.75 69.4062C97.75 70.8125 97.5677 72.0677 97.2031 73.1719C96.8385 74.276 96.3125 75.2083 95.625 75.9688C94.9375 76.7292 94.1042 77.3125 93.125 77.7188C92.1562 78.1146 91.0573 78.3125 89.8281 78.3125C88.6823 78.3125 87.6302 78.1146 86.6719 77.7188C85.724 77.3125 84.901 76.7292 84.2031 75.9688C83.5156 75.2083 82.9792 74.276 82.5938 73.1719C82.2188 72.0677 82.0312 70.8125 82.0312 69.4062C82.0312 67.5312 82.349 65.9375 82.9844 64.625C83.6198 63.3021 84.526 62.2969 85.7031 61.6094C86.8906 60.9115 88.3021 60.5625 89.9375 60.5625C91.5 60.5625 92.8646 60.9115 94.0312 61.6094C95.2083 62.3073 96.1198 63.3177 96.7656 64.6406C97.4219 65.9531 97.75 67.5417 97.75 69.4062ZM84.7188 69.4062C84.7188 70.7812 84.901 71.974 85.2656 72.9844C85.6302 73.9948 86.1927 74.776 86.9531 75.3281C87.7135 75.8802 88.6927 76.1562 89.8906 76.1562C91.0781 76.1562 92.0521 75.8802 92.8125 75.3281C93.5833 74.776 94.151 73.9948 94.5156 72.9844C94.8802 71.974 95.0625 70.7812 95.0625 69.4062C95.0625 68.0417 94.8802 66.8646 94.5156 65.875C94.151 64.875 93.5885 64.1042 92.8281 63.5625C92.0677 63.0208 91.0833 62.75 89.875 62.75C88.0938 62.75 86.7865 63.3385 85.9531 64.5156C85.1302 65.6927 84.7188 67.3229 84.7188 69.4062ZM116.375 60.875V78H114.25L113.875 75.5938H113.734C113.38 76.1875 112.922 76.6875 112.359 77.0938C111.797 77.5 111.161 77.8021 110.453 78C109.755 78.2083 109.01 78.3125 108.219 78.3125C106.865 78.3125 105.729 78.0938 104.812 77.6562C103.896 77.2188 103.203 76.5417 102.734 75.625C102.276 74.7083 102.047 73.5312 102.047 72.0938V60.875H104.672V71.9062C104.672 73.3333 104.995 74.401 105.641 75.1094C106.286 75.8073 107.271 76.1562 108.594 76.1562C109.865 76.1562 110.875 75.9167 111.625 75.4375C112.385 74.9583 112.932 74.2552 113.266 73.3281C113.599 72.3906 113.766 71.2448 113.766 69.8906V60.875H116.375ZM129.641 60.5625C129.984 60.5625 130.344 60.5833 130.719 60.625C131.094 60.6562 131.427 60.7031 131.719 60.7656L131.391 63.1719C131.109 63.099 130.797 63.0417 130.453 63C130.109 62.9583 129.786 62.9375 129.484 62.9375C128.797 62.9375 128.146 63.0781 127.531 63.3594C126.927 63.6302 126.396 64.026 125.938 64.5469C125.479 65.0573 125.12 65.6771 124.859 66.4062C124.599 67.125 124.469 67.9271 124.469 68.8125V78H121.859V60.875H124.016L124.297 64.0312H124.406C124.76 63.3958 125.188 62.8177 125.688 62.2969C126.188 61.7656 126.766 61.3438 127.422 61.0312C128.089 60.7188 128.828 60.5625 129.641 60.5625ZM141.812 78.3125C140.271 78.3125 138.911 77.9948 137.734 77.3594C136.557 76.724 135.641 75.7552 134.984 74.4531C134.328 73.151 134 71.5104 134 69.5312C134 67.4583 134.344 65.7656 135.031 64.4531C135.729 63.1302 136.688 62.151 137.906 61.5156C139.125 60.8802 140.51 60.5625 142.062 60.5625C142.917 60.5625 143.74 60.651 144.531 60.8281C145.333 60.9948 145.99 61.2083 146.5 61.4688L145.719 63.6406C145.198 63.4323 144.594 63.2448 143.906 63.0781C143.229 62.9115 142.594 62.8281 142 62.8281C140.812 62.8281 139.823 63.0833 139.031 63.5938C138.25 64.1042 137.661 64.8542 137.266 65.8438C136.88 66.8333 136.688 68.0521 136.688 69.5C136.688 70.8854 136.875 72.0677 137.25 73.0469C137.635 74.026 138.203 74.776 138.953 75.2969C139.714 75.8073 140.661 76.0625 141.797 76.0625C142.703 76.0625 143.521 75.9688 144.25 75.7812C144.979 75.5833 145.641 75.3542 146.234 75.0938V77.4062C145.661 77.6979 145.021 77.9219 144.312 78.0781C143.615 78.2344 142.781 78.3125 141.812 78.3125ZM156.891 60.5625C158.349 60.5625 159.599 60.8854 160.641 61.5312C161.682 62.1771 162.479 63.0833 163.031 64.25C163.583 65.4062 163.859 66.7604 163.859 68.3125V69.9219H152.031C152.062 71.9323 152.562 73.4635 153.531 74.5156C154.5 75.5677 155.865 76.0938 157.625 76.0938C158.708 76.0938 159.667 75.9948 160.5 75.7969C161.333 75.599 162.198 75.3073 163.094 74.9219V77.2031C162.229 77.5885 161.37 77.8698 160.516 78.0469C159.672 78.224 158.672 78.3125 157.516 78.3125C155.87 78.3125 154.432 77.9792 153.203 77.3125C151.984 76.6354 151.036 75.6458 150.359 74.3438C149.682 73.0417 149.344 71.4479 149.344 69.5625C149.344 67.7188 149.651 66.125 150.266 64.7812C150.891 63.4271 151.766 62.3854 152.891 61.6562C154.026 60.9271 155.359 60.5625 156.891 60.5625ZM156.859 62.6875C155.474 62.6875 154.37 63.1406 153.547 64.0469C152.724 64.9531 152.234 66.2188 152.078 67.8438H161.141C161.13 66.8229 160.969 65.9271 160.656 65.1562C160.354 64.375 159.891 63.7708 159.266 63.3438C158.641 62.9062 157.839 62.6875 156.859 62.6875Z" fill="black"/>
<path d="M89 122.75H79C74.59 122.75 73.25 121.41 73.25 117V107C73.25 102.59 74.59 101.25 79 101.25H80.5C82.25 101.25 82.8 101.82 83.5 102.75L85 104.75C85.33 105.19 85.38 105.25 86 105.25H89C93.41 105.25 94.75 106.59 94.75 111V117C94.75 121.41 93.41 122.75 89 122.75ZM79 102.75C75.43 102.75 74.75 103.43 74.75 107V117C74.75 120.57 75.43 121.25 79 121.25H89C92.57 121.25 93.25 120.57 93.25 117V111C93.25 107.43 92.57 106.75 89 106.75H86C84.72 106.75 84.3 106.31 83.8 105.65L82.3 103.65C81.78 102.96 81.63 102.75 80.5 102.75H79V102.75Z" fill="#292D32"/>
<path d="M113.812 117.312C113.812 118.406 113.536 119.328 112.984 120.078C112.443 120.818 111.661 121.375 110.641 121.75C109.63 122.125 108.422 122.312 107.016 122.312C105.818 122.312 104.781 122.219 103.906 122.031C103.031 121.844 102.266 121.578 101.609 121.234V118.844C102.307 119.188 103.141 119.5 104.109 119.781C105.078 120.062 106.068 120.203 107.078 120.203C108.557 120.203 109.63 119.964 110.297 119.484C110.964 119.005 111.297 118.354 111.297 117.531C111.297 117.062 111.161 116.651 110.891 116.297C110.63 115.932 110.188 115.583 109.562 115.25C108.938 114.906 108.073 114.531 106.969 114.125C105.875 113.708 104.927 113.297 104.125 112.891C103.333 112.474 102.719 111.969 102.281 111.375C101.854 110.781 101.641 110.01 101.641 109.062C101.641 107.615 102.224 106.505 103.391 105.734C104.568 104.953 106.109 104.562 108.016 104.562C109.047 104.562 110.01 104.667 110.906 104.875C111.812 105.073 112.656 105.344 113.438 105.688L112.562 107.766C111.854 107.464 111.099 107.208 110.297 107C109.495 106.792 108.677 106.688 107.844 106.688C106.646 106.688 105.724 106.885 105.078 107.281C104.443 107.677 104.125 108.219 104.125 108.906C104.125 109.438 104.271 109.875 104.562 110.219C104.865 110.562 105.344 110.885 106 111.188C106.656 111.49 107.521 111.844 108.594 112.25C109.667 112.646 110.594 113.057 111.375 113.484C112.156 113.901 112.755 114.411 113.172 115.016C113.599 115.609 113.812 116.375 113.812 117.312ZM123.516 120.188C123.943 120.188 124.38 120.151 124.828 120.078C125.276 120.005 125.641 119.917 125.922 119.812V121.828C125.62 121.964 125.198 122.078 124.656 122.172C124.125 122.266 123.604 122.312 123.094 122.312C122.188 122.312 121.365 122.156 120.625 121.844C119.885 121.521 119.292 120.979 118.844 120.219C118.406 119.458 118.188 118.406 118.188 117.062V106.906H115.75V105.641L118.203 104.625L119.234 100.906H120.797V104.875H125.812V106.906H120.797V116.984C120.797 118.057 121.042 118.859 121.531 119.391C122.031 119.922 122.693 120.188 123.516 120.188ZM126.688 104.875H129.469L133.25 114.812C133.469 115.396 133.672 115.958 133.859 116.5C134.047 117.031 134.214 117.542 134.359 118.031C134.505 118.521 134.62 118.995 134.703 119.453H134.812C134.958 118.932 135.167 118.25 135.438 117.406C135.708 116.552 136 115.682 136.312 114.797L139.891 104.875H142.688L135.234 124.516C134.839 125.568 134.375 126.484 133.844 127.266C133.323 128.047 132.688 128.646 131.938 129.062C131.188 129.49 130.281 129.703 129.219 129.703C128.729 129.703 128.297 129.672 127.922 129.609C127.547 129.557 127.224 129.495 126.953 129.422V127.344C127.182 127.396 127.458 127.443 127.781 127.484C128.115 127.526 128.458 127.547 128.812 127.547C129.458 127.547 130.016 127.422 130.484 127.172C130.964 126.932 131.375 126.578 131.719 126.109C132.062 125.641 132.359 125.083 132.609 124.438L133.547 122.031L126.688 104.875ZM148.031 122H145.422V97.6875H148.031V122ZM160.109 104.562C161.568 104.562 162.818 104.885 163.859 105.531C164.901 106.177 165.698 107.083 166.25 108.25C166.802 109.406 167.078 110.76 167.078 112.312V113.922H155.25C155.281 115.932 155.781 117.464 156.75 118.516C157.719 119.568 159.083 120.094 160.844 120.094C161.927 120.094 162.885 119.995 163.719 119.797C164.552 119.599 165.417 119.307 166.312 118.922V121.203C165.448 121.589 164.589 121.87 163.734 122.047C162.891 122.224 161.891 122.312 160.734 122.312C159.089 122.312 157.651 121.979 156.422 121.312C155.203 120.635 154.255 119.646 153.578 118.344C152.901 117.042 152.562 115.448 152.562 113.562C152.562 111.719 152.87 110.125 153.484 108.781C154.109 107.427 154.984 106.385 156.109 105.656C157.245 104.927 158.578 104.562 160.109 104.562ZM160.078 106.688C158.693 106.688 157.589 107.141 156.766 108.047C155.943 108.953 155.453 110.219 155.297 111.844H164.359C164.349 110.823 164.188 109.927 163.875 109.156C163.573 108.375 163.109 107.771 162.484 107.344C161.859 106.906 161.057 106.688 160.078 106.688ZM182.562 117.312C182.562 118.406 182.286 119.328 181.734 120.078C181.193 120.818 180.411 121.375 179.391 121.75C178.38 122.125 177.172 122.312 175.766 122.312C174.568 122.312 173.531 122.219 172.656 122.031C171.781 121.844 171.016 121.578 170.359 121.234V118.844C171.057 119.188 171.891 119.5 172.859 119.781C173.828 120.062 174.818 120.203 175.828 120.203C177.307 120.203 178.38 119.964 179.047 119.484C179.714 119.005 180.047 118.354 180.047 117.531C180.047 117.062 179.911 116.651 179.641 116.297C179.38 115.932 178.938 115.583 178.312 115.25C177.688 114.906 176.823 114.531 175.719 114.125C174.625 113.708 173.677 113.297 172.875 112.891C172.083 112.474 171.469 111.969 171.031 111.375C170.604 110.781 170.391 110.01 170.391 109.062C170.391 107.615 170.974 106.505 172.141 105.734C173.318 104.953 174.859 104.562 176.766 104.562C177.797 104.562 178.76 104.667 179.656 104.875C180.562 105.073 181.406 105.344 182.188 105.688L181.312 107.766C180.604 107.464 179.849 107.208 179.047 107C178.245 106.792 177.427 106.688 176.594 106.688C175.396 106.688 174.474 106.885 173.828 107.281C173.193 107.677 172.875 108.219 172.875 108.906C172.875 109.438 173.021 109.875 173.312 110.219C173.615 110.562 174.094 110.885 174.75 111.188C175.406 111.49 176.271 111.844 177.344 112.25C178.417 112.646 179.344 113.057 180.125 113.484C180.906 113.901 181.505 114.411 181.922 115.016C182.349 115.609 182.562 116.375 182.562 117.312ZM189.328 97.6875V104.953C189.328 105.37 189.318 105.792 189.297 106.219C189.276 106.635 189.24 107.021 189.188 107.375H189.359C189.714 106.771 190.161 106.266 190.703 105.859C191.255 105.443 191.88 105.13 192.578 104.922C193.276 104.703 194.016 104.594 194.797 104.594C196.172 104.594 197.318 104.812 198.234 105.25C199.161 105.688 199.854 106.365 200.312 107.281C200.781 108.198 201.016 109.385 201.016 110.844V122H198.453V111.016C198.453 109.589 198.125 108.521 197.469 107.812C196.823 107.104 195.828 106.75 194.484 106.75C193.214 106.75 192.198 106.995 191.438 107.484C190.688 107.964 190.146 108.672 189.812 109.609C189.49 110.547 189.328 111.693 189.328 113.047V122H186.734V97.6875H189.328ZM212.953 104.562C214.411 104.562 215.661 104.885 216.703 105.531C217.745 106.177 218.542 107.083 219.094 108.25C219.646 109.406 219.922 110.76 219.922 112.312V113.922H208.094C208.125 115.932 208.625 117.464 209.594 118.516C210.562 119.568 211.927 120.094 213.688 120.094C214.771 120.094 215.729 119.995 216.562 119.797C217.396 119.599 218.26 119.307 219.156 118.922V121.203C218.292 121.589 217.432 121.87 216.578 122.047C215.734 122.224 214.734 122.312 213.578 122.312C211.932 122.312 210.495 121.979 209.266 121.312C208.047 120.635 207.099 119.646 206.422 118.344C205.745 117.042 205.406 115.448 205.406 113.562C205.406 111.719 205.714 110.125 206.328 108.781C206.953 107.427 207.828 106.385 208.953 105.656C210.089 104.927 211.422 104.562 212.953 104.562ZM212.922 106.688C211.536 106.688 210.432 107.141 209.609 108.047C208.786 108.953 208.297 110.219 208.141 111.844H217.203C217.193 110.823 217.031 109.927 216.719 109.156C216.417 108.375 215.953 107.771 215.328 107.344C214.703 106.906 213.901 106.688 212.922 106.688ZM230.922 104.562C232.38 104.562 233.63 104.885 234.672 105.531C235.714 106.177 236.51 107.083 237.062 108.25C237.615 109.406 237.891 110.76 237.891 112.312V113.922H226.062C226.094 115.932 226.594 117.464 227.562 118.516C228.531 119.568 229.896 120.094 231.656 120.094C232.74 120.094 233.698 119.995 234.531 119.797C235.365 119.599 236.229 119.307 237.125 118.922V121.203C236.26 121.589 235.401 121.87 234.547 122.047C233.703 122.224 232.703 122.312 231.547 122.312C229.901 122.312 228.464 121.979 227.234 121.312C226.016 120.635 225.068 119.646 224.391 118.344C223.714 117.042 223.375 115.448 223.375 113.562C223.375 111.719 223.682 110.125 224.297 108.781C224.922 107.427 225.797 106.385 226.922 105.656C228.057 104.927 229.391 104.562 230.922 104.562ZM230.891 106.688C229.505 106.688 228.401 107.141 227.578 108.047C226.755 108.953 226.266 110.219 226.109 111.844H235.172C235.161 110.823 235 109.927 234.688 109.156C234.385 108.375 233.922 107.771 233.297 107.344C232.672 106.906 231.87 106.688 230.891 106.688ZM247.828 120.188C248.255 120.188 248.693 120.151 249.141 120.078C249.589 120.005 249.953 119.917 250.234 119.812V121.828C249.932 121.964 249.51 122.078 248.969 122.172C248.438 122.266 247.917 122.312 247.406 122.312C246.5 122.312 245.677 122.156 244.938 121.844C244.198 121.521 243.604 120.979 243.156 120.219C242.719 119.458 242.5 118.406 242.5 117.062V106.906H240.062V105.641L242.516 104.625L243.547 100.906H245.109V104.875H250.125V106.906H245.109V116.984C245.109 118.057 245.354 118.859 245.844 119.391C246.344 119.922 247.005 120.188 247.828 120.188ZM264.781 117.312C264.781 118.406 264.505 119.328 263.953 120.078C263.411 120.818 262.63 121.375 261.609 121.75C260.599 122.125 259.391 122.312 257.984 122.312C256.786 122.312 255.75 122.219 254.875 122.031C254 121.844 253.234 121.578 252.578 121.234V118.844C253.276 119.188 254.109 119.5 255.078 119.781C256.047 120.062 257.036 120.203 258.047 120.203C259.526 120.203 260.599 119.964 261.266 119.484C261.932 119.005 262.266 118.354 262.266 117.531C262.266 117.062 262.13 116.651 261.859 116.297C261.599 115.932 261.156 115.583 260.531 115.25C259.906 114.906 259.042 114.531 257.938 114.125C256.844 113.708 255.896 113.297 255.094 112.891C254.302 112.474 253.688 111.969 253.25 111.375C252.823 110.781 252.609 110.01 252.609 109.062C252.609 107.615 253.193 106.505 254.359 105.734C255.536 104.953 257.078 104.562 258.984 104.562C260.016 104.562 260.979 104.667 261.875 104.875C262.781 105.073 263.625 105.344 264.406 105.688L263.531 107.766C262.823 107.464 262.068 107.208 261.266 107C260.464 106.792 259.646 106.688 258.812 106.688C257.615 106.688 256.693 106.885 256.047 107.281C255.411 107.677 255.094 108.219 255.094 108.906C255.094 109.438 255.24 109.875 255.531 110.219C255.833 110.562 256.312 110.885 256.969 111.188C257.625 111.49 258.49 111.844 259.562 112.25C260.635 112.646 261.562 113.057 262.344 113.484C263.125 113.901 263.724 114.411 264.141 115.016C264.568 115.609 264.781 116.375 264.781 117.312Z" fill="black"/>
<path d="M89 279.75H79C74.59 279.75 73.25 278.41 73.25 274V264C73.25 259.59 74.59 258.25 79 258.25H80.5C82.25 258.25 82.8 258.82 83.5 259.75L85 261.75C85.33 262.19 85.38 262.25 86 262.25H89C93.41 262.25 94.75 263.59 94.75 268V274C94.75 278.41 93.41 279.75 89 279.75ZM79 259.75C75.43 259.75 74.75 260.43 74.75 264V274C74.75 277.57 75.43 278.25 79 278.25H89C92.57 278.25 93.25 277.57 93.25 274V268C93.25 264.43 92.57 263.75 89 263.75H86C84.72 263.75 84.3 263.31 83.8 262.65L82.3 260.65C81.78 259.96 81.63 259.75 80.5 259.75H79V259.75Z" fill="#292D32"/>
<path d="M114.812 274.312C114.812 275.406 114.536 276.328 113.984 277.078C113.443 277.818 112.661 278.375 111.641 278.75C110.63 279.125 109.422 279.312 108.016 279.312C106.818 279.312 105.781 279.219 104.906 279.031C104.031 278.844 103.266 278.578 102.609 278.234V275.844C103.307 276.188 104.141 276.5 105.109 276.781C106.078 277.062 107.068 277.203 108.078 277.203C109.557 277.203 110.63 276.964 111.297 276.484C111.964 276.005 112.297 275.354 112.297 274.531C112.297 274.062 112.161 273.651 111.891 273.297C111.63 272.932 111.188 272.583 110.562 272.25C109.938 271.906 109.073 271.531 107.969 271.125C106.875 270.708 105.927 270.297 105.125 269.891C104.333 269.474 103.719 268.969 103.281 268.375C102.854 267.781 102.641 267.01 102.641 266.062C102.641 264.615 103.224 263.505 104.391 262.734C105.568 261.953 107.109 261.562 109.016 261.562C110.047 261.562 111.01 261.667 111.906 261.875C112.812 262.073 113.656 262.344 114.438 262.688L113.562 264.766C112.854 264.464 112.099 264.208 111.297 264C110.495 263.792 109.677 263.688 108.844 263.688C107.646 263.688 106.724 263.885 106.078 264.281C105.443 264.677 105.125 265.219 105.125 265.906C105.125 266.438 105.271 266.875 105.562 267.219C105.865 267.562 106.344 267.885 107 268.188C107.656 268.49 108.521 268.844 109.594 269.25C110.667 269.646 111.594 270.057 112.375 270.484C113.156 270.901 113.755 271.411 114.172 272.016C114.599 272.609 114.812 273.375 114.812 274.312ZM124.516 277.188C124.943 277.188 125.38 277.151 125.828 277.078C126.276 277.005 126.641 276.917 126.922 276.812V278.828C126.62 278.964 126.198 279.078 125.656 279.172C125.125 279.266 124.604 279.312 124.094 279.312C123.188 279.312 122.365 279.156 121.625 278.844C120.885 278.521 120.292 277.979 119.844 277.219C119.406 276.458 119.188 275.406 119.188 274.062V263.906H116.75V262.641L119.203 261.625L120.234 257.906H121.797V261.875H126.812V263.906H121.797V273.984C121.797 275.057 122.042 275.859 122.531 276.391C123.031 276.922 123.693 277.188 124.516 277.188ZM127.688 261.875H130.469L134.25 271.812C134.469 272.396 134.672 272.958 134.859 273.5C135.047 274.031 135.214 274.542 135.359 275.031C135.505 275.521 135.62 275.995 135.703 276.453H135.812C135.958 275.932 136.167 275.25 136.438 274.406C136.708 273.552 137 272.682 137.312 271.797L140.891 261.875H143.688L136.234 281.516C135.839 282.568 135.375 283.484 134.844 284.266C134.323 285.047 133.688 285.646 132.938 286.062C132.188 286.49 131.281 286.703 130.219 286.703C129.729 286.703 129.297 286.672 128.922 286.609C128.547 286.557 128.224 286.495 127.953 286.422V284.344C128.182 284.396 128.458 284.443 128.781 284.484C129.115 284.526 129.458 284.547 129.812 284.547C130.458 284.547 131.016 284.422 131.484 284.172C131.964 283.932 132.375 283.578 132.719 283.109C133.062 282.641 133.359 282.083 133.609 281.438L134.547 279.031L127.688 261.875ZM149.031 279H146.422V254.688H149.031V279ZM161.109 261.562C162.568 261.562 163.818 261.885 164.859 262.531C165.901 263.177 166.698 264.083 167.25 265.25C167.802 266.406 168.078 267.76 168.078 269.312V270.922H156.25C156.281 272.932 156.781 274.464 157.75 275.516C158.719 276.568 160.083 277.094 161.844 277.094C162.927 277.094 163.885 276.995 164.719 276.797C165.552 276.599 166.417 276.307 167.312 275.922V278.203C166.448 278.589 165.589 278.87 164.734 279.047C163.891 279.224 162.891 279.312 161.734 279.312C160.089 279.312 158.651 278.979 157.422 278.312C156.203 277.635 155.255 276.646 154.578 275.344C153.901 274.042 153.562 272.448 153.562 270.562C153.562 268.719 153.87 267.125 154.484 265.781C155.109 264.427 155.984 263.385 157.109 262.656C158.245 261.927 159.578 261.562 161.109 261.562ZM161.078 263.688C159.693 263.688 158.589 264.141 157.766 265.047C156.943 265.953 156.453 267.219 156.297 268.844H165.359C165.349 267.823 165.188 266.927 164.875 266.156C164.573 265.375 164.109 264.771 163.484 264.344C162.859 263.906 162.057 263.688 161.078 263.688ZM183.562 274.312C183.562 275.406 183.286 276.328 182.734 277.078C182.193 277.818 181.411 278.375 180.391 278.75C179.38 279.125 178.172 279.312 176.766 279.312C175.568 279.312 174.531 279.219 173.656 279.031C172.781 278.844 172.016 278.578 171.359 278.234V275.844C172.057 276.188 172.891 276.5 173.859 276.781C174.828 277.062 175.818 277.203 176.828 277.203C178.307 277.203 179.38 276.964 180.047 276.484C180.714 276.005 181.047 275.354 181.047 274.531C181.047 274.062 180.911 273.651 180.641 273.297C180.38 272.932 179.938 272.583 179.312 272.25C178.688 271.906 177.823 271.531 176.719 271.125C175.625 270.708 174.677 270.297 173.875 269.891C173.083 269.474 172.469 268.969 172.031 268.375C171.604 267.781 171.391 267.01 171.391 266.062C171.391 264.615 171.974 263.505 173.141 262.734C174.318 261.953 175.859 261.562 177.766 261.562C178.797 261.562 179.76 261.667 180.656 261.875C181.562 262.073 182.406 262.344 183.188 262.688L182.312 264.766C181.604 264.464 180.849 264.208 180.047 264C179.245 263.792 178.427 263.688 177.594 263.688C176.396 263.688 175.474 263.885 174.828 264.281C174.193 264.677 173.875 265.219 173.875 265.906C173.875 266.438 174.021 266.875 174.312 267.219C174.615 267.562 175.094 267.885 175.75 268.188C176.406 268.49 177.271 268.844 178.344 269.25C179.417 269.646 180.344 270.057 181.125 270.484C181.906 270.901 182.505 271.411 182.922 272.016C183.349 272.609 183.562 273.375 183.562 274.312ZM190.328 254.688V261.953C190.328 262.37 190.318 262.792 190.297 263.219C190.276 263.635 190.24 264.021 190.188 264.375H190.359C190.714 263.771 191.161 263.266 191.703 262.859C192.255 262.443 192.88 262.13 193.578 261.922C194.276 261.703 195.016 261.594 195.797 261.594C197.172 261.594 198.318 261.812 199.234 262.25C200.161 262.688 200.854 263.365 201.312 264.281C201.781 265.198 202.016 266.385 202.016 267.844V279H199.453V268.016C199.453 266.589 199.125 265.521 198.469 264.812C197.823 264.104 196.828 263.75 195.484 263.75C194.214 263.75 193.198 263.995 192.438 264.484C191.688 264.964 191.146 265.672 190.812 266.609C190.49 267.547 190.328 268.693 190.328 270.047V279H187.734V254.688H190.328ZM213.953 261.562C215.411 261.562 216.661 261.885 217.703 262.531C218.745 263.177 219.542 264.083 220.094 265.25C220.646 266.406 220.922 267.76 220.922 269.312V270.922H209.094C209.125 272.932 209.625 274.464 210.594 275.516C211.562 276.568 212.927 277.094 214.688 277.094C215.771 277.094 216.729 276.995 217.562 276.797C218.396 276.599 219.26 276.307 220.156 275.922V278.203C219.292 278.589 218.432 278.87 217.578 279.047C216.734 279.224 215.734 279.312 214.578 279.312C212.932 279.312 211.495 278.979 210.266 278.312C209.047 277.635 208.099 276.646 207.422 275.344C206.745 274.042 206.406 272.448 206.406 270.562C206.406 268.719 206.714 267.125 207.328 265.781C207.953 264.427 208.828 263.385 209.953 262.656C211.089 261.927 212.422 261.562 213.953 261.562ZM213.922 263.688C212.536 263.688 211.432 264.141 210.609 265.047C209.786 265.953 209.297 267.219 209.141 268.844H218.203C218.193 267.823 218.031 266.927 217.719 266.156C217.417 265.375 216.953 264.771 216.328 264.344C215.703 263.906 214.901 263.688 213.922 263.688ZM231.922 261.562C233.38 261.562 234.63 261.885 235.672 262.531C236.714 263.177 237.51 264.083 238.062 265.25C238.615 266.406 238.891 267.76 238.891 269.312V270.922H227.062C227.094 272.932 227.594 274.464 228.562 275.516C229.531 276.568 230.896 277.094 232.656 277.094C233.74 277.094 234.698 276.995 235.531 276.797C236.365 276.599 237.229 276.307 238.125 275.922V278.203C237.26 278.589 236.401 278.87 235.547 279.047C234.703 279.224 233.703 279.312 232.547 279.312C230.901 279.312 229.464 278.979 228.234 278.312C227.016 277.635 226.068 276.646 225.391 275.344C224.714 274.042 224.375 272.448 224.375 270.562C224.375 268.719 224.682 267.125 225.297 265.781C225.922 264.427 226.797 263.385 227.922 262.656C229.057 261.927 230.391 261.562 231.922 261.562ZM231.891 263.688C230.505 263.688 229.401 264.141 228.578 265.047C227.755 265.953 227.266 267.219 227.109 268.844H236.172C236.161 267.823 236 266.927 235.688 266.156C235.385 265.375 234.922 264.771 234.297 264.344C233.672 263.906 232.87 263.688 231.891 263.688ZM248.828 277.188C249.255 277.188 249.693 277.151 250.141 277.078C250.589 277.005 250.953 276.917 251.234 276.812V278.828C250.932 278.964 250.51 279.078 249.969 279.172C249.438 279.266 248.917 279.312 248.406 279.312C247.5 279.312 246.677 279.156 245.938 278.844C245.198 278.521 244.604 277.979 244.156 277.219C243.719 276.458 243.5 275.406 243.5 274.062V263.906H241.062V262.641L243.516 261.625L244.547 257.906H246.109V261.875H251.125V263.906H246.109V273.984C246.109 275.057 246.354 275.859 246.844 276.391C247.344 276.922 248.005 277.188 248.828 277.188ZM265.781 274.312C265.781 275.406 265.505 276.328 264.953 277.078C264.411 277.818 263.63 278.375 262.609 278.75C261.599 279.125 260.391 279.312 258.984 279.312C257.786 279.312 256.75 279.219 255.875 279.031C255 278.844 254.234 278.578 253.578 278.234V275.844C254.276 276.188 255.109 276.5 256.078 276.781C257.047 277.062 258.036 277.203 259.047 277.203C260.526 277.203 261.599 276.964 262.266 276.484C262.932 276.005 263.266 275.354 263.266 274.531C263.266 274.062 263.13 273.651 262.859 273.297C262.599 272.932 262.156 272.583 261.531 272.25C260.906 271.906 260.042 271.531 258.938 271.125C257.844 270.708 256.896 270.297 256.094 269.891C255.302 269.474 254.688 268.969 254.25 268.375C253.823 267.781 253.609 267.01 253.609 266.062C253.609 264.615 254.193 263.505 255.359 262.734C256.536 261.953 258.078 261.562 259.984 261.562C261.016 261.562 261.979 261.667 262.875 261.875C263.781 262.073 264.625 262.344 265.406 262.688L264.531 264.766C263.823 264.464 263.068 264.208 262.266 264C261.464 263.792 260.646 263.688 259.812 263.688C258.615 263.688 257.693 263.885 257.047 264.281C256.411 264.677 256.094 265.219 256.094 265.906C256.094 266.438 256.24 266.875 256.531 267.219C256.833 267.562 257.312 267.885 257.969 268.188C258.625 268.49 259.49 268.844 260.562 269.25C261.635 269.646 262.562 270.057 263.344 270.484C264.125 270.901 264.724 271.411 265.141 272.016C265.568 272.609 265.781 273.375 265.781 274.312Z" fill="black"/>
<path d="M17 34.75H7C2.59 34.75 1.25 33.41 1.25 29V19C1.25 14.59 2.59 13.25 7 13.25H8.5C10.25 13.25 10.8 13.82 11.5 14.75L13 16.75C13.33 17.19 13.38 17.25 14 17.25H17C21.41 17.25 22.75 18.59 22.75 23V29C22.75 33.41 21.41 34.75 17 34.75ZM7 14.75C3.43 14.75 2.75 15.43 2.75 19V29C2.75 32.57 3.43 33.25 7 33.25H17C20.57 33.25 21.25 32.57 21.25 29V23C21.25 19.43 20.57 18.75 17 18.75H14C12.72 18.75 12.3 18.31 11.8 17.65L10.3 15.65C9.78 14.96 9.63 14.75 8.5 14.75H7V14.75Z" fill="black"/>
<path d="M39.7812 16.5625C41.9167 16.5625 43.6198 17.2969 44.8906 18.7656C46.1615 20.2344 46.7969 22.4427 46.7969 25.3906C46.7969 27.3385 46.5052 28.974 45.9219 30.2969C45.3385 31.6198 44.5156 32.6198 43.4531 33.2969C42.401 33.974 41.1562 34.3125 39.7188 34.3125C38.8125 34.3125 38.0156 34.1927 37.3281 33.9531C36.6406 33.7135 36.0521 33.3906 35.5625 32.9844C35.0729 32.5781 34.6667 32.1354 34.3438 31.6562H34.1562C34.1875 32.0625 34.224 32.5521 34.2656 33.125C34.3177 33.6979 34.3438 34.1979 34.3438 34.625V41.6562H31.7344V16.875H33.875L34.2188 19.4062H34.3438C34.6771 18.8854 35.0833 18.4115 35.5625 17.9844C36.0417 17.5469 36.625 17.2031 37.3125 16.9531C38.0104 16.6927 38.8333 16.5625 39.7812 16.5625ZM39.3281 18.75C38.1406 18.75 37.1823 18.9792 36.4531 19.4375C35.7344 19.8958 35.2083 20.5833 34.875 21.5C34.5417 22.4062 34.3646 23.5469 34.3438 24.9219V25.4219C34.3438 26.8698 34.5 28.0938 34.8125 29.0938C35.1354 30.0938 35.6615 30.8542 36.3906 31.375C37.1302 31.8958 38.1198 32.1562 39.3594 32.1562C40.4219 32.1562 41.3073 31.8698 42.0156 31.2969C42.724 30.724 43.25 29.9271 43.5938 28.9062C43.9479 27.875 44.125 26.6927 44.125 25.3594C44.125 23.3385 43.7292 21.7344 42.9375 20.5469C42.1562 19.349 40.9531 18.75 39.3281 18.75ZM59.1094 16.5625C59.4531 16.5625 59.8125 16.5833 60.1875 16.625C60.5625 16.6562 60.8958 16.7031 61.1875 16.7656L60.8594 19.1719C60.5781 19.099 60.2656 19.0417 59.9219 19C59.5781 18.9583 59.2552 18.9375 58.9531 18.9375C58.2656 18.9375 57.6146 19.0781 57 19.3594C56.3958 19.6302 55.8646 20.026 55.4062 20.5469C54.9479 21.0573 54.5885 21.6771 54.3281 22.4062C54.0677 23.125 53.9375 23.9271 53.9375 24.8125V34H51.3281V16.875H53.4844L53.7656 20.0312H53.875C54.2292 19.3958 54.6562 18.8177 55.1562 18.2969C55.6562 17.7656 56.2344 17.3438 56.8906 17.0312C57.5573 16.7188 58.2969 16.5625 59.1094 16.5625ZM79.1875 25.4062C79.1875 26.8125 79.0052 28.0677 78.6406 29.1719C78.276 30.276 77.75 31.2083 77.0625 31.9688C76.375 32.7292 75.5417 33.3125 74.5625 33.7188C73.5938 34.1146 72.4948 34.3125 71.2656 34.3125C70.1198 34.3125 69.0677 34.1146 68.1094 33.7188C67.1615 33.3125 66.3385 32.7292 65.6406 31.9688C64.9531 31.2083 64.4167 30.276 64.0312 29.1719C63.6562 28.0677 63.4688 26.8125 63.4688 25.4062C63.4688 23.5312 63.7865 21.9375 64.4219 20.625C65.0573 19.3021 65.9635 18.2969 67.1406 17.6094C68.3281 16.9115 69.7396 16.5625 71.375 16.5625C72.9375 16.5625 74.3021 16.9115 75.4688 17.6094C76.6458 18.3073 77.5573 19.3177 78.2031 20.6406C78.8594 21.9531 79.1875 23.5417 79.1875 25.4062ZM66.1562 25.4062C66.1562 26.7812 66.3385 27.974 66.7031 28.9844C67.0677 29.9948 67.6302 30.776 68.3906 31.3281C69.151 31.8802 70.1302 32.1562 71.3281 32.1562C72.5156 32.1562 73.4896 31.8802 74.25 31.3281C75.0208 30.776 75.5885 29.9948 75.9531 28.9844C76.3177 27.974 76.5 26.7812 76.5 25.4062C76.5 24.0417 76.3177 22.8646 75.9531 21.875C75.5885 20.875 75.026 20.1042 74.2656 19.5625C73.5052 19.0208 72.5208 18.75 71.3125 18.75C69.5312 18.75 68.224 19.3385 67.3906 20.5156C66.5677 21.6927 66.1562 23.3229 66.1562 25.4062ZM81.6094 41.6875C81.0781 41.6875 80.6146 41.6458 80.2188 41.5625C79.8229 41.4896 79.4792 41.401 79.1875 41.2969V39.1875C79.5104 39.2917 79.8385 39.3698 80.1719 39.4219C80.5052 39.4844 80.8802 39.5156 81.2969 39.5156C82.0052 39.5156 82.5781 39.3177 83.0156 38.9219C83.4531 38.526 83.6719 37.8073 83.6719 36.7656V16.875H86.2656V36.7031C86.2656 37.7448 86.099 38.6354 85.7656 39.375C85.4323 40.125 84.9219 40.6979 84.2344 41.0938C83.5469 41.4896 82.6719 41.6875 81.6094 41.6875ZM83.4375 12.1719C83.4375 11.5885 83.5833 11.1615 83.875 10.8906C84.1771 10.6094 84.5521 10.4688 85 10.4688C85.4271 10.4688 85.7917 10.6094 86.0938 10.8906C86.4062 11.1615 86.5625 11.5885 86.5625 12.1719C86.5625 12.7448 86.4062 13.1719 86.0938 13.4531C85.7917 13.7344 85.4271 13.875 85 13.875C84.5521 13.875 84.1771 13.7344 83.875 13.4531C83.5833 13.1719 83.4375 12.7448 83.4375 12.1719ZM98.3594 16.5625C99.8177 16.5625 101.068 16.8854 102.109 17.5312C103.151 18.1771 103.948 19.0833 104.5 20.25C105.052 21.4062 105.328 22.7604 105.328 24.3125V25.9219H93.5C93.5312 27.9323 94.0312 29.4635 95 30.5156C95.9688 31.5677 97.3333 32.0938 99.0938 32.0938C100.177 32.0938 101.135 31.9948 101.969 31.7969C102.802 31.599 103.667 31.3073 104.562 30.9219V33.2031C103.698 33.5885 102.839 33.8698 101.984 34.0469C101.141 34.224 100.141 34.3125 98.9844 34.3125C97.3385 34.3125 95.901 33.9792 94.6719 33.3125C93.4531 32.6354 92.5052 31.6458 91.8281 30.3438C91.151 29.0417 90.8125 27.4479 90.8125 25.5625C90.8125 23.7188 91.1198 22.125 91.7344 20.7812C92.3594 19.4271 93.2344 18.3854 94.3594 17.6562C95.4948 16.9271 96.8281 16.5625 98.3594 16.5625ZM98.3281 18.6875C96.9427 18.6875 95.8385 19.1406 95.0156 20.0469C94.1927 20.9531 93.7031 22.2188 93.5469 23.8438H102.609C102.599 22.8229 102.438 21.9271 102.125 21.1562C101.823 20.375 101.359 19.7708 100.734 19.3438C100.109 18.9062 99.3073 18.6875 98.3281 18.6875ZM116.594 34.3125C115.052 34.3125 113.693 33.9948 112.516 33.3594C111.339 32.724 110.422 31.7552 109.766 30.4531C109.109 29.151 108.781 27.5104 108.781 25.5312C108.781 23.4583 109.125 21.7656 109.812 20.4531C110.51 19.1302 111.469 18.151 112.688 17.5156C113.906 16.8802 115.292 16.5625 116.844 16.5625C117.698 16.5625 118.521 16.651 119.312 16.8281C120.115 16.9948 120.771 17.2083 121.281 17.4688L120.5 19.6406C119.979 19.4323 119.375 19.2448 118.688 19.0781C118.01 18.9115 117.375 18.8281 116.781 18.8281C115.594 18.8281 114.604 19.0833 113.812 19.5938C113.031 20.1042 112.443 20.8542 112.047 21.8438C111.661 22.8333 111.469 24.0521 111.469 25.5C111.469 26.8854 111.656 28.0677 112.031 29.0469C112.417 30.026 112.984 30.776 113.734 31.2969C114.495 31.8073 115.443 32.0625 116.578 32.0625C117.484 32.0625 118.302 31.9688 119.031 31.7812C119.76 31.5833 120.422 31.3542 121.016 31.0938V33.4062C120.443 33.6979 119.802 33.9219 119.094 34.0781C118.396 34.2344 117.562 34.3125 116.594 34.3125ZM130.609 32.1875C131.036 32.1875 131.474 32.151 131.922 32.0781C132.37 32.0052 132.734 31.9167 133.016 31.8125V33.8281C132.714 33.9635 132.292 34.0781 131.75 34.1719C131.219 34.2656 130.698 34.3125 130.188 34.3125C129.281 34.3125 128.458 34.1562 127.719 33.8438C126.979 33.5208 126.385 32.9792 125.938 32.2188C125.5 31.4583 125.281 30.4062 125.281 29.0625V18.9062H122.844V17.6406L125.297 16.625L126.328 12.9062H127.891V16.875H132.906V18.9062H127.891V28.9844C127.891 30.0573 128.135 30.8594 128.625 31.3906C129.125 31.9219 129.786 32.1875 130.609 32.1875Z" fill="black"/>
<path d="M53 235.75H43C38.59 235.75 37.25 234.41 37.25 230V220C37.25 215.59 38.59 214.25 43 214.25H44.5C46.25 214.25 46.8 214.82 47.5 215.75L49 217.75C49.33 218.19 49.38 218.25 50 218.25H53C57.41 218.25 58.75 219.59 58.75 224V230C58.75 234.41 57.41 235.75 53 235.75ZM43 215.75C39.43 215.75 38.75 216.43 38.75 220V230C38.75 233.57 39.43 234.25 43 234.25H53C56.57 234.25 57.25 233.57 57.25 230V224C57.25 220.43 56.57 219.75 53 219.75H50C48.72 219.75 48.3 219.31 47.8 218.65L46.3 216.65C45.78 215.96 45.63 215.75 44.5 215.75H43V215.75Z" fill="#292D32"/>
<path d="M70.3281 210.688V216.766C70.3281 217.464 70.3073 218.141 70.2656 218.797C70.2344 219.453 70.2083 219.964 70.1875 220.328H70.3281C70.7969 219.557 71.474 218.906 72.3594 218.375C73.2448 217.844 74.375 217.578 75.75 217.578C77.8958 217.578 79.6042 218.323 80.875 219.812C82.1562 221.292 82.7969 223.495 82.7969 226.422C82.7969 228.349 82.5052 229.974 81.9219 231.297C81.3385 232.62 80.5156 233.62 79.4531 234.297C78.3906 234.974 77.1354 235.312 75.6875 235.312C74.3333 235.312 73.2188 235.062 72.3438 234.562C71.4792 234.052 70.8125 233.432 70.3438 232.703H70.1406L69.6094 235H67.7344V210.688H70.3281ZM75.3281 219.75C74.0885 219.75 73.1042 219.995 72.375 220.484C71.6458 220.964 71.1198 221.693 70.7969 222.672C70.4844 223.641 70.3281 224.87 70.3281 226.359V226.5C70.3281 228.656 70.6875 230.307 71.4062 231.453C72.125 232.589 73.4323 233.156 75.3281 233.156C76.9219 233.156 78.1146 232.573 78.9062 231.406C79.7083 230.24 80.1094 228.573 80.1094 226.406C80.1094 224.198 79.7135 222.536 78.9219 221.422C78.1406 220.307 76.9427 219.75 75.3281 219.75ZM101.469 217.875V235H99.3438L98.9688 232.594H98.8281C98.474 233.188 98.0156 233.688 97.4531 234.094C96.8906 234.5 96.2552 234.802 95.5469 235C94.849 235.208 94.1042 235.312 93.3125 235.312C91.9583 235.312 90.8229 235.094 89.9062 234.656C88.9896 234.219 88.2969 233.542 87.8281 232.625C87.3698 231.708 87.1406 230.531 87.1406 229.094V217.875H89.7656V228.906C89.7656 230.333 90.0885 231.401 90.7344 232.109C91.3802 232.807 92.3646 233.156 93.6875 233.156C94.9583 233.156 95.9688 232.917 96.7188 232.438C97.4792 231.958 98.026 231.255 98.3594 230.328C98.6927 229.391 98.8594 228.245 98.8594 226.891V217.875H101.469ZM109.547 217.875V235H106.953V217.875H109.547ZM108.281 211.469C108.708 211.469 109.073 211.609 109.375 211.891C109.688 212.161 109.844 212.589 109.844 213.172C109.844 213.745 109.688 214.172 109.375 214.453C109.073 214.734 108.708 214.875 108.281 214.875C107.833 214.875 107.458 214.734 107.156 214.453C106.865 214.172 106.719 213.745 106.719 213.172C106.719 212.589 106.865 212.161 107.156 211.891C107.458 211.609 107.833 211.469 108.281 211.469ZM117.656 235H115.047V210.688H117.656V235ZM129.234 235.312C127.068 235.312 125.349 234.573 124.078 233.094C122.818 231.615 122.188 229.417 122.188 226.5C122.188 223.552 122.833 221.328 124.125 219.828C125.417 218.318 127.135 217.562 129.281 217.562C130.188 217.562 130.979 217.682 131.656 217.922C132.333 218.161 132.917 218.484 133.406 218.891C133.896 219.286 134.307 219.74 134.641 220.25H134.828C134.786 219.927 134.745 219.484 134.703 218.922C134.661 218.359 134.641 217.901 134.641 217.547V210.688H137.234V235H135.141L134.75 232.562H134.641C134.318 233.073 133.906 233.536 133.406 233.953C132.917 234.37 132.328 234.703 131.641 234.953C130.964 235.193 130.161 235.312 129.234 235.312ZM129.641 233.156C131.474 233.156 132.771 232.635 133.531 231.594C134.292 230.552 134.672 229.005 134.672 226.953V226.484C134.672 224.307 134.307 222.635 133.578 221.469C132.859 220.302 131.547 219.719 129.641 219.719C128.047 219.719 126.854 220.333 126.062 221.562C125.271 222.781 124.875 224.448 124.875 226.562C124.875 228.667 125.266 230.292 126.047 231.438C126.839 232.583 128.036 233.156 129.641 233.156Z" fill="black"/>
<path d="M142.328 146.875V164H139.734V146.875H142.328ZM141.062 140.469C141.49 140.469 141.854 140.609 142.156 140.891C142.469 141.161 142.625 141.589 142.625 142.172C142.625 142.745 142.469 143.172 142.156 143.453C141.854 143.734 141.49 143.875 141.062 143.875C140.615 143.875 140.24 143.734 139.938 143.453C139.646 143.172 139.5 142.745 139.5 142.172C139.5 141.589 139.646 141.161 139.938 140.891C140.24 140.609 140.615 140.469 141.062 140.469ZM155.938 146.562C157.969 146.562 159.505 147.062 160.547 148.062C161.589 149.052 162.109 150.646 162.109 152.844V164H159.547V153.016C159.547 151.589 159.219 150.521 158.562 149.812C157.917 149.104 156.922 148.75 155.578 148.75C153.682 148.75 152.349 149.286 151.578 150.359C150.807 151.432 150.422 152.99 150.422 155.031V164H147.828V146.875H149.922L150.312 149.344H150.453C150.818 148.74 151.281 148.234 151.844 147.828C152.406 147.411 153.036 147.099 153.734 146.891C154.432 146.672 155.167 146.562 155.938 146.562ZM173.547 164.312C171.38 164.312 169.661 163.573 168.391 162.094C167.13 160.615 166.5 158.417 166.5 155.5C166.5 152.552 167.146 150.328 168.438 148.828C169.729 147.318 171.448 146.562 173.594 146.562C174.5 146.562 175.292 146.682 175.969 146.922C176.646 147.161 177.229 147.484 177.719 147.891C178.208 148.286 178.62 148.74 178.953 149.25H179.141C179.099 148.927 179.057 148.484 179.016 147.922C178.974 147.359 178.953 146.901 178.953 146.547V139.688H181.547V164H179.453L179.062 161.562H178.953C178.63 162.073 178.219 162.536 177.719 162.953C177.229 163.37 176.641 163.703 175.953 163.953C175.276 164.193 174.474 164.312 173.547 164.312ZM173.953 162.156C175.786 162.156 177.083 161.635 177.844 160.594C178.604 159.552 178.984 158.005 178.984 155.953V155.484C178.984 153.307 178.62 151.635 177.891 150.469C177.172 149.302 175.859 148.719 173.953 148.719C172.359 148.719 171.167 149.333 170.375 150.562C169.583 151.781 169.188 153.448 169.188 155.562C169.188 157.667 169.578 159.292 170.359 160.438C171.151 161.583 172.349 162.156 173.953 162.156ZM193.641 146.562C195.099 146.562 196.349 146.885 197.391 147.531C198.432 148.177 199.229 149.083 199.781 150.25C200.333 151.406 200.609 152.76 200.609 154.312V155.922H188.781C188.812 157.932 189.312 159.464 190.281 160.516C191.25 161.568 192.615 162.094 194.375 162.094C195.458 162.094 196.417 161.995 197.25 161.797C198.083 161.599 198.948 161.307 199.844 160.922V163.203C198.979 163.589 198.12 163.87 197.266 164.047C196.422 164.224 195.422 164.312 194.266 164.312C192.62 164.312 191.182 163.979 189.953 163.312C188.734 162.635 187.786 161.646 187.109 160.344C186.432 159.042 186.094 157.448 186.094 155.562C186.094 153.719 186.401 152.125 187.016 150.781C187.641 149.427 188.516 148.385 189.641 147.656C190.776 146.927 192.109 146.562 193.641 146.562ZM193.609 148.688C192.224 148.688 191.12 149.141 190.297 150.047C189.474 150.953 188.984 152.219 188.828 153.844H197.891C197.88 152.823 197.719 151.927 197.406 151.156C197.104 150.375 196.641 149.771 196.016 149.344C195.391 148.906 194.589 148.688 193.609 148.688ZM209.094 155.234L203.172 146.875H206.141L210.656 153.469L215.156 146.875H218.094L212.172 155.234L218.422 164H215.453L210.656 157.016L205.828 164H202.891L209.094 155.234ZM221.375 162.375C221.375 161.646 221.552 161.13 221.906 160.828C222.26 160.516 222.693 160.359 223.203 160.359C223.734 160.359 224.182 160.516 224.547 160.828C224.911 161.13 225.094 161.646 225.094 162.375C225.094 163.094 224.911 163.62 224.547 163.953C224.182 164.276 223.734 164.438 223.203 164.438C222.693 164.438 222.26 164.276 221.906 163.953C221.552 163.62 221.375 163.094 221.375 162.375ZM241.25 159.312C241.25 160.406 240.974 161.328 240.422 162.078C239.88 162.818 239.099 163.375 238.078 163.75C237.068 164.125 235.859 164.312 234.453 164.312C233.255 164.312 232.219 164.219 231.344 164.031C230.469 163.844 229.703 163.578 229.047 163.234V160.844C229.745 161.188 230.578 161.5 231.547 161.781C232.516 162.062 233.505 162.203 234.516 162.203C235.995 162.203 237.068 161.964 237.734 161.484C238.401 161.005 238.734 160.354 238.734 159.531C238.734 159.062 238.599 158.651 238.328 158.297C238.068 157.932 237.625 157.583 237 157.25C236.375 156.906 235.51 156.531 234.406 156.125C233.312 155.708 232.365 155.297 231.562 154.891C230.771 154.474 230.156 153.969 229.719 153.375C229.292 152.781 229.078 152.01 229.078 151.062C229.078 149.615 229.661 148.505 230.828 147.734C232.005 146.953 233.547 146.562 235.453 146.562C236.484 146.562 237.448 146.667 238.344 146.875C239.25 147.073 240.094 147.344 240.875 147.688L240 149.766C239.292 149.464 238.536 149.208 237.734 149C236.932 148.792 236.115 148.688 235.281 148.688C234.083 148.688 233.161 148.885 232.516 149.281C231.88 149.677 231.562 150.219 231.562 150.906C231.562 151.438 231.708 151.875 232 152.219C232.302 152.562 232.781 152.885 233.438 153.188C234.094 153.49 234.958 153.844 236.031 154.25C237.104 154.646 238.031 155.057 238.812 155.484C239.594 155.901 240.193 156.411 240.609 157.016C241.036 157.609 241.25 158.375 241.25 159.312ZM252.281 164.312C250.74 164.312 249.38 163.995 248.203 163.359C247.026 162.724 246.109 161.755 245.453 160.453C244.797 159.151 244.469 157.51 244.469 155.531C244.469 153.458 244.812 151.766 245.5 150.453C246.198 149.13 247.156 148.151 248.375 147.516C249.594 146.88 250.979 146.562 252.531 146.562C253.385 146.562 254.208 146.651 255 146.828C255.802 146.995 256.458 147.208 256.969 147.469L256.188 149.641C255.667 149.432 255.062 149.245 254.375 149.078C253.698 148.911 253.062 148.828 252.469 148.828C251.281 148.828 250.292 149.083 249.5 149.594C248.719 150.104 248.13 150.854 247.734 151.844C247.349 152.833 247.156 154.052 247.156 155.5C247.156 156.885 247.344 158.068 247.719 159.047C248.104 160.026 248.672 160.776 249.422 161.297C250.182 161.807 251.13 162.062 252.266 162.062C253.172 162.062 253.99 161.969 254.719 161.781C255.448 161.583 256.109 161.354 256.703 161.094V163.406C256.13 163.698 255.49 163.922 254.781 164.078C254.083 164.234 253.25 164.312 252.281 164.312ZM271.844 159.312C271.844 160.406 271.568 161.328 271.016 162.078C270.474 162.818 269.693 163.375 268.672 163.75C267.661 164.125 266.453 164.312 265.047 164.312C263.849 164.312 262.812 164.219 261.938 164.031C261.062 163.844 260.297 163.578 259.641 163.234V160.844C260.339 161.188 261.172 161.5 262.141 161.781C263.109 162.062 264.099 162.203 265.109 162.203C266.589 162.203 267.661 161.964 268.328 161.484C268.995 161.005 269.328 160.354 269.328 159.531C269.328 159.062 269.193 158.651 268.922 158.297C268.661 157.932 268.219 157.583 267.594 157.25C266.969 156.906 266.104 156.531 265 156.125C263.906 155.708 262.958 155.297 262.156 154.891C261.365 154.474 260.75 153.969 260.312 153.375C259.885 152.781 259.672 152.01 259.672 151.062C259.672 149.615 260.255 148.505 261.422 147.734C262.599 146.953 264.141 146.562 266.047 146.562C267.078 146.562 268.042 146.667 268.938 146.875C269.844 147.073 270.688 147.344 271.469 147.688L270.594 149.766C269.885 149.464 269.13 149.208 268.328 149C267.526 148.792 266.708 148.688 265.875 148.688C264.677 148.688 263.755 148.885 263.109 149.281C262.474 149.677 262.156 150.219 262.156 150.906C262.156 151.438 262.302 151.875 262.594 152.219C262.896 152.562 263.375 152.885 264.031 153.188C264.688 153.49 265.552 153.844 266.625 154.25C267.698 154.646 268.625 155.057 269.406 155.484C270.188 155.901 270.786 156.411 271.203 157.016C271.63 157.609 271.844 158.375 271.844 159.312ZM287.094 159.312C287.094 160.406 286.818 161.328 286.266 162.078C285.724 162.818 284.943 163.375 283.922 163.75C282.911 164.125 281.703 164.312 280.297 164.312C279.099 164.312 278.062 164.219 277.188 164.031C276.312 163.844 275.547 163.578 274.891 163.234V160.844C275.589 161.188 276.422 161.5 277.391 161.781C278.359 162.062 279.349 162.203 280.359 162.203C281.839 162.203 282.911 161.964 283.578 161.484C284.245 161.005 284.578 160.354 284.578 159.531C284.578 159.062 284.443 158.651 284.172 158.297C283.911 157.932 283.469 157.583 282.844 157.25C282.219 156.906 281.354 156.531 280.25 156.125C279.156 155.708 278.208 155.297 277.406 154.891C276.615 154.474 276 153.969 275.562 153.375C275.135 152.781 274.922 152.01 274.922 151.062C274.922 149.615 275.505 148.505 276.672 147.734C277.849 146.953 279.391 146.562 281.297 146.562C282.328 146.562 283.292 146.667 284.188 146.875C285.094 147.073 285.938 147.344 286.719 147.688L285.844 149.766C285.135 149.464 284.38 149.208 283.578 149C282.776 148.792 281.958 148.688 281.125 148.688C279.927 148.688 279.005 148.885 278.359 149.281C277.724 149.677 277.406 150.219 277.406 150.906C277.406 151.438 277.552 151.875 277.844 152.219C278.146 152.562 278.625 152.885 279.281 153.188C279.938 153.49 280.802 153.844 281.875 154.25C282.948 154.646 283.875 155.057 284.656 155.484C285.438 155.901 286.036 156.411 286.453 157.016C286.88 157.609 287.094 158.375 287.094 159.312Z" fill="#5D60EF"/>
<path d="M130 152V157C130 162 128 164 123 164H117C112 164 110 162 110 157V151C110 146 112 144 117 144H122" stroke="#5D60EF" stroke-width="1.5" stroke-linecap="round" stroke-linejoin="round"/>
<path d="M130 152H126C123 152 122 151 122 148V144L130 152Z" stroke="#5D60EF" stroke-width="1.5" stroke-linecap="round" stroke-linejoin="round"/>
<path d="M142.328 303.875V321H139.734V303.875H142.328ZM141.062 297.469C141.49 297.469 141.854 297.609 142.156 297.891C142.469 298.161 142.625 298.589 142.625 299.172C142.625 299.745 142.469 300.172 142.156 300.453C141.854 300.734 141.49 300.875 141.062 300.875C140.615 300.875 140.24 300.734 139.938 300.453C139.646 300.172 139.5 299.745 139.5 299.172C139.5 298.589 139.646 298.161 139.938 297.891C140.24 297.609 140.615 297.469 141.062 297.469ZM155.938 303.562C157.969 303.562 159.505 304.062 160.547 305.062C161.589 306.052 162.109 307.646 162.109 309.844V321H159.547V310.016C159.547 308.589 159.219 307.521 158.562 306.812C157.917 306.104 156.922 305.75 155.578 305.75C153.682 305.75 152.349 306.286 151.578 307.359C150.807 308.432 150.422 309.99 150.422 312.031V321H147.828V303.875H149.922L150.312 306.344H150.453C150.818 305.74 151.281 305.234 151.844 304.828C152.406 304.411 153.036 304.099 153.734 303.891C154.432 303.672 155.167 303.562 155.938 303.562ZM173.547 321.312C171.38 321.312 169.661 320.573 168.391 319.094C167.13 317.615 166.5 315.417 166.5 312.5C166.5 309.552 167.146 307.328 168.438 305.828C169.729 304.318 171.448 303.562 173.594 303.562C174.5 303.562 175.292 303.682 175.969 303.922C176.646 304.161 177.229 304.484 177.719 304.891C178.208 305.286 178.62 305.74 178.953 306.25H179.141C179.099 305.927 179.057 305.484 179.016 304.922C178.974 304.359 178.953 303.901 178.953 303.547V296.688H181.547V321H179.453L179.062 318.562H178.953C178.63 319.073 178.219 319.536 177.719 319.953C177.229 320.37 176.641 320.703 175.953 320.953C175.276 321.193 174.474 321.312 173.547 321.312ZM173.953 319.156C175.786 319.156 177.083 318.635 177.844 317.594C178.604 316.552 178.984 315.005 178.984 312.953V312.484C178.984 310.307 178.62 308.635 177.891 307.469C177.172 306.302 175.859 305.719 173.953 305.719C172.359 305.719 171.167 306.333 170.375 307.562C169.583 308.781 169.188 310.448 169.188 312.562C169.188 314.667 169.578 316.292 170.359 317.438C171.151 318.583 172.349 319.156 173.953 319.156ZM193.641 303.562C195.099 303.562 196.349 303.885 197.391 304.531C198.432 305.177 199.229 306.083 199.781 307.25C200.333 308.406 200.609 309.76 200.609 311.312V312.922H188.781C188.812 314.932 189.312 316.464 190.281 317.516C191.25 318.568 192.615 319.094 194.375 319.094C195.458 319.094 196.417 318.995 197.25 318.797C198.083 318.599 198.948 318.307 199.844 317.922V320.203C198.979 320.589 198.12 320.87 197.266 321.047C196.422 321.224 195.422 321.312 194.266 321.312C192.62 321.312 191.182 320.979 189.953 320.312C188.734 319.635 187.786 318.646 187.109 317.344C186.432 316.042 186.094 314.448 186.094 312.562C186.094 310.719 186.401 309.125 187.016 307.781C187.641 306.427 188.516 305.385 189.641 304.656C190.776 303.927 192.109 303.562 193.641 303.562ZM193.609 305.688C192.224 305.688 191.12 306.141 190.297 307.047C189.474 307.953 188.984 309.219 188.828 310.844H197.891C197.88 309.823 197.719 308.927 197.406 308.156C197.104 307.375 196.641 306.771 196.016 306.344C195.391 305.906 194.589 305.688 193.609 305.688ZM209.094 312.234L203.172 303.875H206.141L210.656 310.469L215.156 303.875H218.094L212.172 312.234L218.422 321H215.453L210.656 314.016L205.828 321H202.891L209.094 312.234ZM221.375 319.375C221.375 318.646 221.552 318.13 221.906 317.828C222.26 317.516 222.693 317.359 223.203 317.359C223.734 317.359 224.182 317.516 224.547 317.828C224.911 318.13 225.094 318.646 225.094 319.375C225.094 320.094 224.911 320.62 224.547 320.953C224.182 321.276 223.734 321.438 223.203 321.438C222.693 321.438 222.26 321.276 221.906 320.953C221.552 320.62 221.375 320.094 221.375 319.375ZM237.031 321.312C235.49 321.312 234.13 320.995 232.953 320.359C231.776 319.724 230.859 318.755 230.203 317.453C229.547 316.151 229.219 314.51 229.219 312.531C229.219 310.458 229.562 308.766 230.25 307.453C230.948 306.13 231.906 305.151 233.125 304.516C234.344 303.88 235.729 303.562 237.281 303.562C238.135 303.562 238.958 303.651 239.75 303.828C240.552 303.995 241.208 304.208 241.719 304.469L240.938 306.641C240.417 306.432 239.812 306.245 239.125 306.078C238.448 305.911 237.812 305.828 237.219 305.828C236.031 305.828 235.042 306.083 234.25 306.594C233.469 307.104 232.88 307.854 232.484 308.844C232.099 309.833 231.906 311.052 231.906 312.5C231.906 313.885 232.094 315.068 232.469 316.047C232.854 317.026 233.422 317.776 234.172 318.297C234.932 318.807 235.88 319.062 237.016 319.062C237.922 319.062 238.74 318.969 239.469 318.781C240.198 318.583 240.859 318.354 241.453 318.094V320.406C240.88 320.698 240.24 320.922 239.531 321.078C238.833 321.234 238 321.312 237.031 321.312ZM256.594 316.312C256.594 317.406 256.318 318.328 255.766 319.078C255.224 319.818 254.443 320.375 253.422 320.75C252.411 321.125 251.203 321.312 249.797 321.312C248.599 321.312 247.562 321.219 246.688 321.031C245.812 320.844 245.047 320.578 244.391 320.234V317.844C245.089 318.188 245.922 318.5 246.891 318.781C247.859 319.062 248.849 319.203 249.859 319.203C251.339 319.203 252.411 318.964 253.078 318.484C253.745 318.005 254.078 317.354 254.078 316.531C254.078 316.062 253.943 315.651 253.672 315.297C253.411 314.932 252.969 314.583 252.344 314.25C251.719 313.906 250.854 313.531 249.75 313.125C248.656 312.708 247.708 312.297 246.906 311.891C246.115 311.474 245.5 310.969 245.062 310.375C244.635 309.781 244.422 309.01 244.422 308.062C244.422 306.615 245.005 305.505 246.172 304.734C247.349 303.953 248.891 303.562 250.797 303.562C251.828 303.562 252.792 303.667 253.688 303.875C254.594 304.073 255.438 304.344 256.219 304.688L255.344 306.766C254.635 306.464 253.88 306.208 253.078 306C252.276 305.792 251.458 305.688 250.625 305.688C249.427 305.688 248.505 305.885 247.859 306.281C247.224 306.677 246.906 307.219 246.906 307.906C246.906 308.438 247.052 308.875 247.344 309.219C247.646 309.562 248.125 309.885 248.781 310.188C249.438 310.49 250.302 310.844 251.375 311.25C252.448 311.646 253.375 312.057 254.156 312.484C254.938 312.901 255.536 313.411 255.953 314.016C256.38 314.609 256.594 315.375 256.594 316.312ZM271.844 316.312C271.844 317.406 271.568 318.328 271.016 319.078C270.474 319.818 269.693 320.375 268.672 320.75C267.661 321.125 266.453 321.312 265.047 321.312C263.849 321.312 262.812 321.219 261.938 321.031C261.062 320.844 260.297 320.578 259.641 320.234V317.844C260.339 318.188 261.172 318.5 262.141 318.781C263.109 319.062 264.099 319.203 265.109 319.203C266.589 319.203 267.661 318.964 268.328 318.484C268.995 318.005 269.328 317.354 269.328 316.531C269.328 316.062 269.193 315.651 268.922 315.297C268.661 314.932 268.219 314.583 267.594 314.25C266.969 313.906 266.104 313.531 265 313.125C263.906 312.708 262.958 312.297 262.156 311.891C261.365 311.474 260.75 310.969 260.312 310.375C259.885 309.781 259.672 309.01 259.672 308.062C259.672 306.615 260.255 305.505 261.422 304.734C262.599 303.953 264.141 303.562 266.047 303.562C267.078 303.562 268.042 303.667 268.938 303.875C269.844 304.073 270.688 304.344 271.469 304.688L270.594 306.766C269.885 306.464 269.13 306.208 268.328 306C267.526 305.792 266.708 305.688 265.875 305.688C264.677 305.688 263.755 305.885 263.109 306.281C262.474 306.677 262.156 307.219 262.156 307.906C262.156 308.438 262.302 308.875 262.594 309.219C262.896 309.562 263.375 309.885 264.031 310.188C264.688 310.49 265.552 310.844 266.625 311.25C267.698 311.646 268.625 312.057 269.406 312.484C270.188 312.901 270.786 313.411 271.203 314.016C271.63 314.609 271.844 315.375 271.844 316.312Z" fill="#5D60EF"/>
<path d="M130 309V314C130 319 128 321 123 321H117C112 321 110 319 110 314V308C110 303 112 301 117 301H122" stroke="#5D60EF" stroke-width="1.5" stroke-linecap="round" stroke-linejoin="round"/>
<path d="M130 309H126C123 309 122 308 122 305V301L130 309Z" stroke="#5D60EF" stroke-width="1.5" stroke-linecap="round" stroke-linejoin="round"/>
<path d="M508.003 26.52C508.831 26.52 509.503 25.8484 509.503 25.02C509.503 24.1916 508.831 23.52 508.003 23.52V26.52ZM152.936 23.9594C152.351 24.5451 152.351 25.4949 152.936 26.0807L162.482 35.6266C163.068 36.2124 164.018 36.2124 164.604 35.6266C165.189 35.0408 165.189 34.0911 164.604 33.5053L156.118 25.02L164.604 16.5347C165.189 15.949 165.189 14.9992 164.604 14.4134C164.018 13.8276 163.068 13.8276 162.482 14.4134L152.936 23.9594ZM508.003 23.52L153.997 23.52V26.52L508.003 26.52V23.52Z" fill="#666677"/>
<path d="M371.539 5.57812L368.484 17H367.148L364.883 9.3125C364.815 9.09375 364.75 8.875 364.688 8.65625C364.63 8.43229 364.576 8.22135 364.523 8.02344C364.471 7.82031 364.427 7.64323 364.391 7.49219C364.359 7.33594 364.336 7.21875 364.32 7.14062C364.31 7.21875 364.289 7.33333 364.258 7.48438C364.232 7.63542 364.195 7.8099 364.148 8.00781C364.107 8.20573 364.055 8.41667 363.992 8.64062C363.935 8.86458 363.872 9.09115 363.805 9.32031L361.602 17H360.266L357.234 5.57812H358.617L360.453 12.7422C360.516 12.9818 360.573 13.2188 360.625 13.4531C360.682 13.6823 360.732 13.9062 360.773 14.125C360.82 14.3438 360.862 14.5573 360.898 14.7656C360.935 14.974 360.969 15.1771 361 15.375C361.026 15.1719 361.06 14.9609 361.102 14.7422C361.143 14.5182 361.188 14.2917 361.234 14.0625C361.286 13.8333 361.341 13.6016 361.398 13.3672C361.461 13.1328 361.526 12.8984 361.594 12.6641L363.648 5.57812H365.016L367.156 12.7188C367.229 12.9635 367.297 13.2057 367.359 13.4453C367.422 13.6849 367.477 13.9193 367.523 14.1484C367.576 14.3724 367.62 14.5885 367.656 14.7969C367.698 15 367.734 15.1927 367.766 15.375C367.802 15.1198 367.846 14.8516 367.898 14.5703C367.951 14.2891 368.01 13.9948 368.078 13.6875C368.151 13.3802 368.229 13.0625 368.312 12.7344L370.148 5.57812H371.539ZM376.445 8.28125C377.174 8.28125 377.799 8.44271 378.32 8.76562C378.841 9.08854 379.24 9.54167 379.516 10.125C379.792 10.7031 379.93 11.3802 379.93 12.1562V12.9609H374.016C374.031 13.9661 374.281 14.7318 374.766 15.2578C375.25 15.7839 375.932 16.0469 376.812 16.0469C377.354 16.0469 377.833 15.9974 378.25 15.8984C378.667 15.7995 379.099 15.6536 379.547 15.4609V16.6016C379.115 16.7943 378.685 16.9349 378.258 17.0234C377.836 17.112 377.336 17.1562 376.758 17.1562C375.935 17.1562 375.216 16.9896 374.602 16.6562C373.992 16.3177 373.518 15.8229 373.18 15.1719C372.841 14.5208 372.672 13.724 372.672 12.7812C372.672 11.8594 372.826 11.0625 373.133 10.3906C373.445 9.71354 373.883 9.19271 374.445 8.82812C375.013 8.46354 375.68 8.28125 376.445 8.28125ZM376.43 9.34375C375.737 9.34375 375.185 9.57031 374.773 10.0234C374.362 10.4766 374.117 11.1094 374.039 11.9219H378.57C378.565 11.4115 378.484 10.9635 378.328 10.5781C378.177 10.1875 377.945 9.88542 377.633 9.67188C377.32 9.45312 376.919 9.34375 376.43 9.34375ZM389.492 8.29688C390.513 8.29688 391.271 8.52604 391.766 8.98438C392.26 9.44271 392.508 10.1745 392.508 11.1797V17H391.562L391.312 15.7344H391.25C391.01 16.0469 390.76 16.3099 390.5 16.5234C390.24 16.7318 389.938 16.8906 389.594 17C389.255 17.1042 388.839 17.1562 388.344 17.1562C387.823 17.1562 387.359 17.0651 386.953 16.8828C386.552 16.7005 386.234 16.4245 386 16.0547C385.771 15.6849 385.656 15.2161 385.656 14.6484C385.656 13.7943 385.995 13.138 386.672 12.6797C387.349 12.2214 388.38 11.9714 389.766 11.9297L391.242 11.8672V11.3438C391.242 10.6042 391.083 10.0859 390.766 9.78906C390.448 9.49219 390 9.34375 389.422 9.34375C388.974 9.34375 388.547 9.40885 388.141 9.53906C387.734 9.66927 387.349 9.82292 386.984 10L386.586 9.01562C386.971 8.81771 387.414 8.64844 387.914 8.50781C388.414 8.36719 388.94 8.29688 389.492 8.29688ZM391.227 12.7812L389.922 12.8359C388.854 12.8776 388.102 13.0521 387.664 13.3594C387.227 13.6667 387.008 14.1016 387.008 14.6641C387.008 15.1536 387.156 15.5156 387.453 15.75C387.75 15.9844 388.143 16.1016 388.633 16.1016C389.393 16.1016 390.016 15.8906 390.5 15.4688C390.984 15.0469 391.227 14.4141 391.227 13.5703V12.7812ZM399.07 8.28125C399.242 8.28125 399.422 8.29167 399.609 8.3125C399.797 8.32812 399.964 8.35156 400.109 8.38281L399.945 9.58594C399.805 9.54948 399.648 9.52083 399.477 9.5C399.305 9.47917 399.143 9.46875 398.992 9.46875C398.648 9.46875 398.323 9.53906 398.016 9.67969C397.714 9.8151 397.448 10.013 397.219 10.2734C396.99 10.5286 396.81 10.8385 396.68 11.2031C396.549 11.5625 396.484 11.9635 396.484 12.4062V17H395.18V8.4375H396.258L396.398 10.0156H396.453C396.63 9.69792 396.844 9.40885 397.094 9.14844C397.344 8.88281 397.633 8.67188 397.961 8.51562C398.294 8.35938 398.664 8.28125 399.07 8.28125ZM405.023 8.28125C405.753 8.28125 406.378 8.44271 406.898 8.76562C407.419 9.08854 407.818 9.54167 408.094 10.125C408.37 10.7031 408.508 11.3802 408.508 12.1562V12.9609H402.594C402.609 13.9661 402.859 14.7318 403.344 15.2578C403.828 15.7839 404.51 16.0469 405.391 16.0469C405.932 16.0469 406.411 15.9974 406.828 15.8984C407.245 15.7995 407.677 15.6536 408.125 15.4609V16.6016C407.693 16.7943 407.263 16.9349 406.836 17.0234C406.414 17.112 405.914 17.1562 405.336 17.1562C404.513 17.1562 403.794 16.9896 403.18 16.6562C402.57 16.3177 402.096 15.8229 401.758 15.1719C401.419 14.5208 401.25 13.724 401.25 12.7812C401.25 11.8594 401.404 11.0625 401.711 10.3906C402.023 9.71354 402.461 9.19271 403.023 8.82812C403.591 8.46354 404.258 8.28125 405.023 8.28125ZM405.008 9.34375C404.315 9.34375 403.763 9.57031 403.352 10.0234C402.94 10.4766 402.695 11.1094 402.617 11.9219H407.148C407.143 11.4115 407.062 10.9635 406.906 10.5781C406.755 10.1875 406.523 9.88542 406.211 9.67188C405.898 9.45312 405.497 9.34375 405.008 9.34375ZM416.164 4.84375V8.47656C416.164 8.6849 416.159 8.89583 416.148 9.10938C416.138 9.31771 416.12 9.51042 416.094 9.6875H416.18C416.357 9.38542 416.581 9.13281 416.852 8.92969C417.128 8.72135 417.44 8.5651 417.789 8.46094C418.138 8.35156 418.508 8.29688 418.898 8.29688C419.586 8.29688 420.159 8.40625 420.617 8.625C421.081 8.84375 421.427 9.18229 421.656 9.64062C421.891 10.099 422.008 10.6927 422.008 11.4219V17H420.727V11.5078C420.727 10.7943 420.562 10.2604 420.234 9.90625C419.911 9.55208 419.414 9.375 418.742 9.375C418.107 9.375 417.599 9.4974 417.219 9.74219C416.844 9.98177 416.573 10.3359 416.406 10.8047C416.245 11.2734 416.164 11.8464 416.164 12.5234V17H414.867V4.84375H416.164ZM427.977 8.28125C428.706 8.28125 429.331 8.44271 429.852 8.76562C430.372 9.08854 430.771 9.54167 431.047 10.125C431.323 10.7031 431.461 11.3802 431.461 12.1562V12.9609H425.547C425.562 13.9661 425.812 14.7318 426.297 15.2578C426.781 15.7839 427.464 16.0469 428.344 16.0469C428.885 16.0469 429.365 15.9974 429.781 15.8984C430.198 15.7995 430.63 15.6536 431.078 15.4609V16.6016C430.646 16.7943 430.216 16.9349 429.789 17.0234C429.367 17.112 428.867 17.1562 428.289 17.1562C427.466 17.1562 426.747 16.9896 426.133 16.6562C425.523 16.3177 425.049 15.8229 424.711 15.1719C424.372 14.5208 424.203 13.724 424.203 12.7812C424.203 11.8594 424.357 11.0625 424.664 10.3906C424.977 9.71354 425.414 9.19271 425.977 8.82812C426.544 8.46354 427.211 8.28125 427.977 8.28125ZM427.961 9.34375C427.268 9.34375 426.716 9.57031 426.305 10.0234C425.893 10.4766 425.648 11.1094 425.57 11.9219H430.102C430.096 11.4115 430.016 10.9635 429.859 10.5781C429.708 10.1875 429.477 9.88542 429.164 9.67188C428.852 9.45312 428.451 9.34375 427.961 9.34375ZM437.555 8.28125C437.727 8.28125 437.906 8.29167 438.094 8.3125C438.281 8.32812 438.448 8.35156 438.594 8.38281L438.43 9.58594C438.289 9.54948 438.133 9.52083 437.961 9.5C437.789 9.47917 437.628 9.46875 437.477 9.46875C437.133 9.46875 436.807 9.53906 436.5 9.67969C436.198 9.8151 435.932 10.013 435.703 10.2734C435.474 10.5286 435.294 10.8385 435.164 11.2031C435.034 11.5625 434.969 11.9635 434.969 12.4062V17H433.664V8.4375H434.742L434.883 10.0156H434.938C435.115 9.69792 435.328 9.40885 435.578 9.14844C435.828 8.88281 436.117 8.67188 436.445 8.51562C436.779 8.35938 437.148 8.28125 437.555 8.28125ZM443.508 8.28125C444.237 8.28125 444.862 8.44271 445.383 8.76562C445.904 9.08854 446.302 9.54167 446.578 10.125C446.854 10.7031 446.992 11.3802 446.992 12.1562V12.9609H441.078C441.094 13.9661 441.344 14.7318 441.828 15.2578C442.312 15.7839 442.995 16.0469 443.875 16.0469C444.417 16.0469 444.896 15.9974 445.312 15.8984C445.729 15.7995 446.161 15.6536 446.609 15.4609V16.6016C446.177 16.7943 445.747 16.9349 445.32 17.0234C444.898 17.112 444.398 17.1562 443.82 17.1562C442.997 17.1562 442.279 16.9896 441.664 16.6562C441.055 16.3177 440.581 15.8229 440.242 15.1719C439.904 14.5208 439.734 13.724 439.734 12.7812C439.734 11.8594 439.888 11.0625 440.195 10.3906C440.508 9.71354 440.945 9.19271 441.508 8.82812C442.076 8.46354 442.742 8.28125 443.508 8.28125ZM443.492 9.34375C442.799 9.34375 442.247 9.57031 441.836 10.0234C441.424 10.4766 441.18 11.1094 441.102 11.9219H445.633C445.628 11.4115 445.547 10.9635 445.391 10.5781C445.24 10.1875 445.008 9.88542 444.695 9.67188C444.383 9.45312 443.982 9.34375 443.492 9.34375ZM454.648 8.4375V17H453.352V8.4375H454.648ZM454.016 5.23438C454.229 5.23438 454.411 5.30469 454.562 5.44531C454.719 5.58073 454.797 5.79427 454.797 6.08594C454.797 6.3724 454.719 6.58594 454.562 6.72656C454.411 6.86719 454.229 6.9375 454.016 6.9375C453.792 6.9375 453.604 6.86719 453.453 6.72656C453.307 6.58594 453.234 6.3724 453.234 6.08594C453.234 5.79427 453.307 5.58073 453.453 5.44531C453.604 5.30469 453.792 5.23438 454.016 5.23438ZM461.453 8.28125C462.469 8.28125 463.237 8.53125 463.758 9.03125C464.279 9.52604 464.539 10.3229 464.539 11.4219V17H463.258V11.5078C463.258 10.7943 463.094 10.2604 462.766 9.90625C462.443 9.55208 461.945 9.375 461.273 9.375C460.326 9.375 459.659 9.64323 459.273 10.1797C458.888 10.7161 458.695 11.4948 458.695 12.5156V17H457.398V8.4375H458.445L458.641 9.67188H458.711C458.893 9.36979 459.125 9.11719 459.406 8.91406C459.688 8.70573 460.003 8.54948 460.352 8.44531C460.701 8.33594 461.068 8.28125 461.453 8.28125ZM472.664 4.84375V7.88281C472.664 8.23177 472.654 8.57031 472.633 8.89844C472.617 9.22656 472.604 9.48177 472.594 9.66406H472.664C472.898 9.27865 473.237 8.95312 473.68 8.6875C474.122 8.42188 474.688 8.28906 475.375 8.28906C476.448 8.28906 477.302 8.66146 477.938 9.40625C478.578 10.1458 478.898 11.2474 478.898 12.7109C478.898 13.6745 478.753 14.487 478.461 15.1484C478.169 15.8099 477.758 16.3099 477.227 16.6484C476.695 16.987 476.068 17.1562 475.344 17.1562C474.667 17.1562 474.109 17.0312 473.672 16.7812C473.24 16.526 472.906 16.2161 472.672 15.8516H472.57L472.305 17H471.367V4.84375H472.664ZM475.164 9.375C474.544 9.375 474.052 9.4974 473.688 9.74219C473.323 9.98177 473.06 10.3464 472.898 10.8359C472.742 11.3203 472.664 11.9349 472.664 12.6797V12.75C472.664 13.8281 472.844 14.6536 473.203 15.2266C473.562 15.7943 474.216 16.0781 475.164 16.0781C475.961 16.0781 476.557 15.7865 476.953 15.2031C477.354 14.6198 477.555 13.7865 477.555 12.7031C477.555 11.599 477.357 10.7682 476.961 10.2109C476.57 9.65365 475.971 9.375 475.164 9.375ZM484.367 8.29688C485.388 8.29688 486.146 8.52604 486.641 8.98438C487.135 9.44271 487.383 10.1745 487.383 11.1797V17H486.438L486.188 15.7344H486.125C485.885 16.0469 485.635 16.3099 485.375 16.5234C485.115 16.7318 484.812 16.8906 484.469 17C484.13 17.1042 483.714 17.1562 483.219 17.1562C482.698 17.1562 482.234 17.0651 481.828 16.8828C481.427 16.7005 481.109 16.4245 480.875 16.0547C480.646 15.6849 480.531 15.2161 480.531 14.6484C480.531 13.7943 480.87 13.138 481.547 12.6797C482.224 12.2214 483.255 11.9714 484.641 11.9297L486.117 11.8672V11.3438C486.117 10.6042 485.958 10.0859 485.641 9.78906C485.323 9.49219 484.875 9.34375 484.297 9.34375C483.849 9.34375 483.422 9.40885 483.016 9.53906C482.609 9.66927 482.224 9.82292 481.859 10L481.461 9.01562C481.846 8.81771 482.289 8.64844 482.789 8.50781C483.289 8.36719 483.815 8.29688 484.367 8.29688ZM486.102 12.7812L484.797 12.8359C483.729 12.8776 482.977 13.0521 482.539 13.3594C482.102 13.6667 481.883 14.1016 481.883 14.6641C481.883 15.1536 482.031 15.5156 482.328 15.75C482.625 15.9844 483.018 16.1016 483.508 16.1016C484.268 16.1016 484.891 15.8906 485.375 15.4688C485.859 15.0469 486.102 14.4141 486.102 13.5703V12.7812ZM495.594 14.6562C495.594 15.2031 495.456 15.6641 495.18 16.0391C494.909 16.4089 494.518 16.6875 494.008 16.875C493.503 17.0625 492.898 17.1562 492.195 17.1562C491.596 17.1562 491.078 17.1094 490.641 17.0156C490.203 16.9219 489.82 16.7891 489.492 16.6172V15.4219C489.841 15.5938 490.258 15.75 490.742 15.8906C491.227 16.0312 491.721 16.1016 492.227 16.1016C492.966 16.1016 493.503 15.9818 493.836 15.7422C494.169 15.5026 494.336 15.1771 494.336 14.7656C494.336 14.5312 494.268 14.3255 494.133 14.1484C494.003 13.9661 493.781 13.7917 493.469 13.625C493.156 13.4531 492.724 13.2656 492.172 13.0625C491.625 12.8542 491.151 12.6484 490.75 12.4453C490.354 12.237 490.047 11.9844 489.828 11.6875C489.615 11.3906 489.508 11.0052 489.508 10.5312C489.508 9.80729 489.799 9.2526 490.383 8.86719C490.971 8.47656 491.742 8.28125 492.695 8.28125C493.211 8.28125 493.693 8.33333 494.141 8.4375C494.594 8.53646 495.016 8.67188 495.406 8.84375L494.969 9.88281C494.615 9.73177 494.237 9.60417 493.836 9.5C493.435 9.39583 493.026 9.34375 492.609 9.34375C492.01 9.34375 491.549 9.44271 491.227 9.64062C490.909 9.83854 490.75 10.1094 490.75 10.4531C490.75 10.7188 490.823 10.9375 490.969 11.1094C491.12 11.2812 491.359 11.4427 491.688 11.5938C492.016 11.7448 492.448 11.9219 492.984 12.125C493.521 12.3229 493.984 12.5286 494.375 12.7422C494.766 12.9505 495.065 13.2057 495.273 13.5078C495.487 13.8047 495.594 14.1875 495.594 14.6562ZM498.977 4.84375V8.47656C498.977 8.6849 498.971 8.89583 498.961 9.10938C498.951 9.31771 498.932 9.51042 498.906 9.6875H498.992C499.169 9.38542 499.393 9.13281 499.664 8.92969C499.94 8.72135 500.253 8.5651 500.602 8.46094C500.951 8.35156 501.32 8.29688 501.711 8.29688C502.398 8.29688 502.971 8.40625 503.43 8.625C503.893 8.84375 504.24 9.18229 504.469 9.64062C504.703 10.099 504.82 10.6927 504.82 11.4219V17H503.539V11.5078C503.539 10.7943 503.375 10.2604 503.047 9.90625C502.724 9.55208 502.227 9.375 501.555 9.375C500.919 9.375 500.411 9.4974 500.031 9.74219C499.656 9.98177 499.385 10.3359 499.219 10.8047C499.057 11.2734 498.977 11.8464 498.977 12.5234V17H497.68V4.84375H498.977Z" fill="#666677"/>
<path d="M297 155.5C296.724 155.5 296.5 155.276 296.5 155C296.5 154.724 296.724 154.5 297 154.5V155.5ZM326 155V154.5H326.5V155H326ZM326 314H326.5V314.5H326V314ZM296.646 314.354C296.451 314.158 296.451 313.842 296.646 313.646L299.828 310.464C300.024 310.269 300.34 310.269 300.536 310.464C300.731 310.66 300.731 310.976 300.536 311.172L297.707 314L300.536 316.828C300.731 317.024 300.731 317.34 300.536 317.536C300.34 317.731 300.024 317.731 299.828 317.536L296.646 314.354ZM297 154.5H326V155.5H297V154.5ZM326.5 155V314H325.5V155H326.5ZM326 314.5H297V313.5H326V314.5Z" fill="#666677"/>
</svg>
