<svg width="1246" height="709" viewBox="0 0 1246 709" fill="none" xmlns="http://www.w3.org/2000/svg">
<rect x="1" width="1245" height="709" fill="url(#paint0_linear_1372_1033)"/>
<path d="M42.7655 223.5L21.2091 168.599C36.2063 170.953 53.1259 172.963 71.5073 174.376C79.0556 174.956 86.8505 175.436 94.86 175.797C111.677 176.555 129.439 176.791 147.853 176.343C157.711 176.103 167.756 175.667 177.942 175.01C196.573 173.809 215.677 171.867 234.976 169.033C247.494 167.195 260.094 164.981 272.7 162.351C291.178 158.494 309.671 153.742 327.938 147.962C334.407 145.916 340.847 143.74 347.249 141.43C362.641 135.876 377.81 129.543 392.607 122.35C400.659 118.437 408.601 114.269 416.409 109.833C431.322 101.362 445.748 91.9145 459.522 81.4004C472.414 71.5596 484.734 60.7843 496.347 49C496.746 49 498.112 50.5416 500.389 53.3799C506.021 60.3987 517.227 75.3469 533.173 94.52C537.86 100.156 542.957 106.157 548.442 112.429C558.74 124.205 570.407 136.936 583.302 150C588.408 155.173 593.707 160.398 599.189 165.636C609.621 175.604 620.719 185.62 632.422 195.419C637.26 199.469 642.201 203.483 647.242 207.44C658.167 216.018 669.558 224.332 681.373 232.192C685.659 235.043 690.001 237.835 694.396 240.557C704.879 247.051 715.667 253.151 726.731 258.735C732.203 261.497 737.743 264.132 743.347 266.626C755.482 272.027 767.918 276.764 780.622 280.686C787.286 282.744 794.024 284.577 800.831 286.164C813.479 289.113 826.363 291.211 839.453 292.317C846.432 292.907 853.469 293.215 860.56 293.219C871.662 293.226 882.896 292.49 894.242 290.927C900.496 290.066 906.784 288.953 913.104 287.576C922.174 285.6 931.309 283.078 940.498 279.97C946.612 277.902 952.751 275.575 958.911 272.976C967.257 269.455 975.642 265.436 984.06 260.889C989.287 258.066 994.527 255.039 999.778 251.801C1007.84 246.831 1015.92 241.365 1024.03 235.377C1030.01 230.961 1036 226.261 1041.99 221.267C1050.66 214.049 1059.34 206.217 1068.04 197.739C1072.68 193.218 1077.32 188.512 1081.96 183.618C1089.44 175.733 1096.93 167.359 1104.42 158.476C1107.56 154.741 1110.71 150.916 1113.86 147C1119.27 140.272 1124.67 133.275 1130.08 126L1148.43 161.5L1113.86 147C1110.71 150.916 1107.56 154.741 1104.42 158.476L1113.4 197.739L1081.96 183.618C1077.32 188.512 1072.68 193.218 1068.04 197.739L1077.47 243L1041.99 221.267C1036 226.261 1030.01 230.961 1024.03 235.377L1030.32 275.5L999.778 251.801C994.527 255.039 989.287 258.066 984.06 260.889L985.407 297.5L958.911 272.976C952.751 275.575 946.612 277.902 940.498 279.97L938.702 318L913.104 287.576C906.784 288.953 900.496 290.066 894.242 290.927L876.727 326L860.56 293.219C853.469 293.215 846.432 292.907 839.453 292.317L814.304 320L800.831 286.164C794.024 284.577 787.286 282.744 780.622 280.686L749.185 307L743.347 266.626C737.743 264.132 732.203 261.497 726.731 258.735L698.887 270.5L694.396 240.557C690.001 237.835 685.659 235.043 681.373 232.192L645.895 244L647.242 207.44C642.201 203.483 637.26 199.469 632.422 195.419L596.944 212L599.189 165.636C593.707 160.398 588.408 155.173 583.302 150L536.765 164.5L548.442 112.429C542.957 106.157 537.86 100.156 533.173 94.52L486.916 102.5L500.389 53.3799C498.112 50.5416 496.746 49 496.347 49C484.734 60.7843 472.414 71.5596 459.522 81.4004L455.48 144L416.409 109.833C408.601 114.269 400.659 118.437 392.607 122.35L388.116 175.01L347.249 141.43C340.847 143.74 334.407 145.916 327.938 147.962L295.604 206.5L272.7 162.351C260.094 164.981 247.494 167.195 234.976 169.033L205.785 216.5L177.942 175.01C167.756 175.667 157.711 176.103 147.853 176.343L116.416 223.5L94.86 175.797C86.8505 175.436 79.0556 174.956 71.5073 174.376L42.7655 223.5Z" fill="#F6B48E"/>
<path d="M1 165C7.25984 166.26 14.0132 167.469 21.2091 168.599M1136.3 117.5C1134.23 120.374 1132.15 123.208 1130.08 126M21.2091 168.599L42.7655 223.5L71.5073 174.376M21.2091 168.599C36.2063 170.953 53.1259 172.963 71.5073 174.376M71.5073 174.376C79.0556 174.956 86.8505 175.436 94.86 175.797M94.86 175.797L116.416 223.5L147.853 176.343M94.86 175.797C111.677 176.555 129.439 176.791 147.853 176.343M147.853 176.343C157.711 176.103 167.756 175.667 177.942 175.01M177.942 175.01L205.785 216.5L234.976 169.033M177.942 175.01C196.573 173.809 215.677 171.867 234.976 169.033M234.976 169.033C247.494 167.195 260.094 164.981 272.7 162.351M272.7 162.351L295.604 206.5L327.938 147.962M272.7 162.351C291.178 158.494 309.671 153.742 327.938 147.962M327.938 147.962C334.407 145.916 340.847 143.74 347.249 141.43M347.249 141.43L388.116 175.01L392.607 122.35M347.249 141.43C362.641 135.876 377.81 129.543 392.607 122.35M392.607 122.35C400.659 118.437 408.601 114.269 416.409 109.833M416.409 109.833L455.48 144L459.522 81.4004M416.409 109.833C431.322 101.362 445.748 91.9145 459.522 81.4004M459.522 81.4004C472.414 71.5596 484.734 60.7843 496.347 49C496.746 49 498.112 50.5416 500.389 53.3799M500.389 53.3799L486.916 102.5L533.173 94.52M500.389 53.3799C506.021 60.3987 517.227 75.3469 533.173 94.52M533.173 94.52C537.86 100.156 542.957 106.157 548.442 112.429M548.442 112.429L536.765 164.5L583.302 150M548.442 112.429C558.74 124.205 570.407 136.936 583.302 150M583.302 150C588.408 155.173 593.707 160.398 599.189 165.636M599.189 165.636L596.944 212L632.422 195.419M599.189 165.636C609.621 175.604 620.719 185.62 632.422 195.419M632.422 195.419C637.26 199.469 642.201 203.483 647.242 207.44M647.242 207.44L645.895 244L681.373 232.192M647.242 207.44C658.167 216.018 669.558 224.332 681.373 232.192M681.373 232.192C685.659 235.043 690.001 237.835 694.396 240.557M694.396 240.557L698.887 270.5L726.731 258.735M694.396 240.557C704.879 247.051 715.667 253.151 726.731 258.735M726.731 258.735C732.203 261.497 737.743 264.132 743.347 266.626M743.347 266.626L749.185 307L780.622 280.686M743.347 266.626C755.482 272.027 767.918 276.764 780.622 280.686M780.622 280.686C787.286 282.744 794.024 284.577 800.831 286.164M800.831 286.164L814.304 320L839.453 292.317M800.831 286.164C813.479 289.113 826.363 291.211 839.453 292.317M839.453 292.317C846.432 292.907 853.469 293.215 860.56 293.219M860.56 293.219L876.727 326L894.242 290.927M860.56 293.219C871.662 293.226 882.896 292.49 894.242 290.927M894.242 290.927C900.496 290.066 906.784 288.953 913.104 287.576M913.104 287.576L938.702 318L940.498 279.97M913.104 287.576C922.174 285.6 931.309 283.078 940.498 279.97M940.498 279.97C946.612 277.902 952.751 275.575 958.911 272.976M958.911 272.976L985.407 297.5L984.06 260.889M958.911 272.976C967.257 269.455 975.642 265.436 984.06 260.889M984.06 260.889C989.287 258.066 994.527 255.039 999.778 251.801M999.778 251.801L1030.32 275.5L1024.03 235.377M999.778 251.801C1007.84 246.831 1015.92 241.365 1024.03 235.377M1024.03 235.377C1030.01 230.961 1036 226.261 1041.99 221.267M1041.99 221.267L1077.47 243L1068.04 197.739M1041.99 221.267C1050.66 214.049 1059.34 206.217 1068.04 197.739M1068.04 197.739C1072.68 193.218 1077.32 188.512 1081.96 183.618M1081.96 183.618L1113.4 197.739L1104.42 158.476M1081.96 183.618C1089.44 175.733 1096.93 167.359 1104.42 158.476M1104.42 158.476C1107.56 154.741 1110.71 150.916 1113.86 147M1113.86 147L1148.43 161.5L1130.08 126M1113.86 147C1119.27 140.272 1124.67 133.275 1130.08 126" stroke="#F6B48E"/>
<path d="M1 165C7.25984 166.26 14.0132 167.469 21.2091 168.599C36.2063 170.953 53.1259 172.963 71.5073 174.376C79.0556 174.956 86.8505 175.436 94.86 175.797C111.677 176.555 129.439 176.791 147.853 176.343C157.711 176.103 167.756 175.667 177.942 175.01C196.573 173.809 215.677 171.867 234.976 169.033C247.494 167.195 260.094 164.981 272.7 162.351C291.178 158.494 309.671 153.742 327.938 147.962C334.407 145.916 340.847 143.74 347.249 141.43C362.641 135.876 377.81 129.543 392.607 122.35C400.659 118.437 408.601 114.269 416.409 109.833C431.322 101.362 445.748 91.9144 459.522 81.4004C472.414 71.5596 484.734 60.7843 496.347 49C496.746 49 498.112 50.5416 500.389 53.3799C506.021 60.3987 517.227 75.3469 533.173 94.52C537.86 100.156 542.957 106.157 548.442 112.429C558.74 124.205 570.407 136.936 583.302 150C588.408 155.173 593.707 160.398 599.189 165.636C609.621 175.604 620.719 185.62 632.422 195.419C637.26 199.469 642.201 203.483 647.242 207.44C658.167 216.018 669.558 224.332 681.373 232.192C685.659 235.043 690.001 237.835 694.396 240.557C704.879 247.051 715.667 253.151 726.731 258.735C732.203 261.497 737.743 264.132 743.347 266.626C755.482 272.027 767.918 276.764 780.622 280.686C787.286 282.744 794.024 284.577 800.831 286.164C813.479 289.113 826.363 291.211 839.453 292.317C846.432 292.907 853.469 293.215 860.56 293.219C871.662 293.226 882.896 292.489 894.242 290.927C900.496 290.066 906.784 288.953 913.104 287.576C922.174 285.6 931.309 283.078 940.498 279.97C946.612 277.902 952.751 275.575 958.911 272.976C967.257 269.455 975.642 265.436 984.06 260.889C989.287 258.066 994.527 255.039 999.778 251.801C1007.84 246.831 1015.92 241.365 1024.03 235.377C1030.01 230.961 1036 226.261 1041.99 221.267C1050.66 214.049 1059.34 206.217 1068.04 197.739C1072.68 193.218 1077.32 188.512 1081.96 183.618C1089.44 175.733 1096.93 167.359 1104.42 158.476C1107.56 154.741 1110.71 150.916 1113.86 147C1119.27 140.272 1124.67 133.275 1130.08 126C1132.15 123.208 1133.92 120.855 1136.3 117.5C1165.5 76.3712 1177.8 40.9 1191 0.5" stroke="#F6B48E" stroke-width="3"/>
<path d="M1174 122.5L1139 114L1154 90L1174 122.5Z" fill="#F6B48E"/>
<path d="M1204.5 75.5L1163.5 73L1175.5 44.5L1204.5 75.5Z" fill="#F6B48E"/>
<path d="M1189 7.5L1180.5 30.5L1221 25L1189 7.5Z" fill="#F6B48E"/>
<path d="M288.789 642.922C290.808 636.894 299.393 643.282 304.789 639.922C310.493 636.372 316.603 632.392 314.789 625.922C313.48 621.252 308.523 621.537 305.289 617.922C287.502 598.04 313.749 577.022 315.789 550.422C317.268 531.144 315.066 520.18 316.789 500.922C317.403 494.071 316.626 489.952 318.789 483.422L318.833 483.29C320.098 479.473 320.86 477.173 323.289 473.922C328.263 467.269 334.274 466.962 341.789 463.422C355.478 456.975 364.075 455.449 378.789 451.922C397.99 447.321 425.214 463.841 428.789 444.422C429.736 439.281 429.005 436.142 427.83 431.095L427.789 430.922C426.067 423.523 422.577 420.272 419.289 413.422C415.737 406.02 413.572 401.948 410.289 394.422C407.593 388.241 405.902 384.827 403.789 378.422C400.717 369.11 402.469 362.793 398.289 353.922C395.819 348.679 395.932 342.747 390.289 341.422C387.413 340.747 385.725 342.081 382.789 342.422C372.493 343.619 366.589 342.756 356.289 343.922C344.263 345.284 337.832 348.216 325.789 349.422C312.771 350.727 305.048 352.824 292.289 349.922C286.449 348.594 283.446 346.893 277.789 344.922C266.242 340.898 254.226 345.113 248.289 334.422C244.544 327.676 253.424 313.175 250.683 311.259C248.44 314.101 245.587 316.026 244.289 313.922C241.738 314.449 239.852 314.014 237.789 312.422C235.987 311.031 234.789 307.422 234.789 307.422L229.789 308.422C227.989 309.972 224.989 309.472 223.789 307.422C223 306.074 223.789 304.984 223.789 303.422C225.385 301.87 225.876 300.07 225.289 297.922C224.139 293.71 218.645 299.62 214.289 299.922C211.562 300.111 208.512 302.367 207.289 299.922C206.678 298.7 207.163 297.783 207.289 296.422C208.492 283.53 226.865 290.373 237.789 283.422C240.394 281.765 241.274 279.585 244.289 278.922C247.394 278.241 249.538 278.831 252.289 280.422C254.776 281.86 255.741 283.421 257.241 285.844L257.289 285.922C261.104 292.086 254.027 296.087 258.789 304.422C260.789 307.922 307.289 304.922 336.289 316.922C343.026 319.71 346.931 312.893 353.789 310.422C374.471 302.971 385.461 295.516 407.289 292.922C413.893 292.138 418.033 294.177 424.289 291.922C429.588 290.013 435.072 289.422 436.289 283.922C436.669 282.207 436.271 281.18 436.289 279.422C436.341 274.537 438.222 271.593 436.789 266.922C435.551 262.884 434.505 259.932 430.789 257.922C427.011 255.878 423.665 259.776 419.789 257.922C418.028 257.08 416.637 256.681 415.789 254.922C415.274 253.852 415.279 253.11 415.289 251.922C415.303 250.312 416.141 249.526 416.289 247.922C416.379 246.95 416.816 246.244 416.289 245.422C415.722 244.537 414.357 245.308 413.789 244.422C413.263 243.6 413.204 242.118 413.789 241.922L415.289 241.422C415.289 241.422 415.763 240.044 415.289 239.422C414.802 238.782 413.777 239.563 413.289 238.922C412.825 238.313 413.034 237.688 413.275 236.966L413.289 236.922C413.639 235.874 414.933 235.968 415.289 234.922C415.673 233.798 415.471 232.895 414.789 231.922C414.038 230.85 412.575 231.47 411.789 230.422C410.735 229.016 411.439 227.644 411.789 225.922C412.957 220.182 422.843 222.703 423.789 216.922C424.01 215.573 423.664 214.783 423.789 213.422C424.341 207.417 436.776 197.419 431.289 199.922C430.254 200.395 429.906 201.199 428.789 201.422C425.534 202.073 426.677 195.483 428.789 192.922C430.719 190.584 433.391 191.81 436.289 190.922C439.655 189.892 441.328 188.562 444.789 187.922C452.176 186.558 456.482 189.183 463.789 190.922C468.538 192.053 471.417 192.253 475.789 194.422C483.335 198.167 487.482 201.909 491.289 209.422C497.308 221.298 490.617 230.235 488.789 243.422C487.591 252.072 489.53 258.089 484.789 265.422C482.614 268.787 477.167 268.965 477.789 272.922C478.306 276.207 481.574 276.503 484.289 278.422C493.972 285.268 502.765 281.959 513.289 287.422C519.298 290.541 522.355 292.886 527.789 296.922C548.585 312.366 544.912 346.279 570.789 347.422C572.35 347.491 573.39 346.728 574.789 347.422C576.44 348.241 575.987 350.12 577.289 351.422C578.592 352.725 579.815 352.818 581.289 353.922C587.272 358.401 587.73 363.647 591.789 369.922C599.557 381.931 606.398 387.483 611.289 400.922C611.923 402.663 611.726 403.905 612.789 405.422C614.346 407.644 617.483 406.545 618.789 408.922C620.012 411.147 617.285 413.378 618.789 415.422C620.253 417.412 623.073 415.646 624.789 417.422C627.367 420.091 623.26 423.542 624.789 426.922C625.594 428.701 628.529 429.115 627.789 430.922C627.157 432.466 625.202 431.535 623.789 432.422C617.838 436.163 625.044 443.506 623.789 450.422C622.721 456.316 619.71 459.004 618.789 464.922C617.828 471.099 621.289 475.922 619.289 480.922C618.782 482.191 617.076 481.383 615.789 480.922C612.989 479.921 613.07 470.961 612.789 473.922C612.734 474.506 612.867 474.842 612.789 475.422C612.547 477.248 611.371 477.932 610.289 479.422C609.555 480.434 609.404 481.357 608.289 481.922C607.07 482.541 606.072 482.395 604.789 481.922C601.308 480.64 603.855 476.013 604.789 472.422C605.559 469.465 607.059 468.22 608.289 465.422C609.136 463.497 610.237 462.525 610.289 460.422C610.329 458.813 609.842 457.935 609.289 456.422C608.359 453.874 607.331 452.654 605.789 450.422C604.368 448.365 604.081 446.423 601.789 445.422C599.821 444.563 598.37 444.89 596.289 445.422C592.535 446.383 592.53 450.906 588.789 451.922L588.598 451.975C586.432 452.564 584.788 453.012 582.789 451.922C581.577 451.261 580.951 450.634 580.289 449.422C578.042 445.301 589.26 445.593 588.789 440.922C588.281 435.882 580.74 438.631 577.289 434.922C575.259 432.74 575.213 430.699 573.289 428.422C571.144 425.882 569.129 425.285 566.789 422.922C559.836 415.902 560.309 408.759 554.289 400.922C550.585 396.1 547.944 393.863 543.789 389.422C538.601 383.876 531.512 382.918 530.289 375.422C529.944 373.302 532.245 370.811 530.289 369.922C529.401 369.518 528.763 370 527.789 369.922C519.091 369.232 522.014 352.749 513.289 352.922C511.299 352.962 510.158 353.234 508.289 353.922C498.013 357.709 498.752 371.242 502.789 381.422C503.691 383.697 505.207 384.546 505.789 386.922C506.585 390.169 502.875 392.683 504.789 395.422C505.752 396.799 507.322 396.549 508.289 397.922C509.977 400.317 507.136 402.73 508.289 405.422C509.216 407.584 511.712 407.643 512.289 409.922C512.942 412.497 509.559 413.869 510.289 416.422C511.052 419.091 513.467 419.403 515.789 420.922C517.107 421.784 518.502 421.559 519.289 422.922C520.07 424.275 518.851 425.423 519.289 426.922C519.838 428.796 521.741 429.048 522.289 430.922C522.728 432.422 521.683 433.483 522.289 434.922C522.668 435.822 523.348 436.051 523.789 436.922C524.936 439.187 521.852 441.783 523.789 443.422C524.732 444.22 525.866 443.602 526.789 444.422C528.541 445.979 525.618 448.393 526.789 450.422C527.927 452.395 530.813 451.47 531.789 453.422L534.289 458.422C535.266 460.375 536.789 458.422 536.789 458.422C536.789 458.422 540.671 459.403 541.289 461.422C541.575 462.356 541.289 463.922 541.289 463.922C541.289 463.922 560.424 515.297 587.789 516.422C589.35 516.487 590.26 516.106 591.789 516.422C595.713 517.235 599.289 523.422 599.289 523.422L606.289 529.922C609.023 532.461 617.927 534.406 624.789 538.422C635.686 544.8 640.663 550.197 649.789 558.922C657.28 566.084 660.985 570.605 667.789 578.422C678.741 591.004 686.412 597.218 694.289 611.922C698.297 619.403 707.851 625.11 702.789 631.922C701.298 633.93 698.617 633.563 697.789 635.922C697.272 637.396 698.965 638.894 697.789 639.922C696.761 640.822 695.528 639.344 694.289 639.922C691.635 641.161 695.377 644.703 694.289 647.422C692.344 652.287 687.363 652.116 682.289 653.422C674.123 655.525 663.311 659.469 660.789 651.422C659.972 648.814 663.07 645.929 660.789 644.422C658.774 643.091 657.187 645.633 654.789 645.922C645.066 647.095 637.401 643.949 631.789 635.922C629.937 633.273 629.707 631.327 628.289 628.422C598.66 567.697 562.16 540.251 501.289 510.922C487.08 504.076 479.401 498.175 463.789 495.922C435.967 491.908 422.599 512.322 394.789 516.422C387.792 517.454 383.276 515.602 376.789 518.422C362.044 524.833 357.443 540.015 359.789 555.922C360.837 563.025 364.563 566.096 366.789 572.922C374.369 596.164 390.116 621.121 370.289 635.422C363.428 640.371 352.46 650.449 349.789 642.422C349.231 640.745 350.404 639.295 349.289 637.922C347.689 635.952 345.315 637.67 342.789 637.922C331.893 639.012 329.396 649.7 318.789 652.422C307.805 655.242 293.989 661.456 289.789 650.922L289.789 650.92C288.623 647.997 287.79 645.907 288.789 642.922Z" fill="black"/>
<path d="M223.789 303.422C225.385 301.87 225.876 300.07 225.289 297.922C224.139 293.71 218.645 299.62 214.289 299.922C211.562 300.111 208.512 302.367 207.289 299.922C206.678 298.7 207.163 297.783 207.289 296.422C208.492 283.53 226.865 290.373 237.789 283.422C240.394 281.765 241.274 279.585 244.289 278.922C247.394 278.241 249.538 278.831 252.289 280.422C254.802 281.876 255.762 283.454 257.289 285.922C261.104 292.086 254.027 296.087 258.789 304.422C260.789 307.922 307.289 304.922 336.289 316.922C343.026 319.71 346.931 312.893 353.789 310.422C374.471 302.971 385.461 295.516 407.289 292.922C413.893 292.138 418.033 294.177 424.289 291.922C429.588 290.013 435.072 289.422 436.289 283.922C436.669 282.207 436.271 281.18 436.289 279.422C436.341 274.537 438.222 271.593 436.789 266.922C435.551 262.884 434.505 259.932 430.789 257.922C427.011 255.878 423.665 259.776 419.789 257.922C418.028 257.08 416.637 256.681 415.789 254.922C415.274 253.852 415.279 253.11 415.289 251.922C415.303 250.312 416.141 249.526 416.289 247.922C416.379 246.95 416.816 246.244 416.289 245.422C415.722 244.537 414.357 245.308 413.789 244.422C413.263 243.6 413.204 242.118 413.789 241.922C414.375 241.727 414.704 241.618 415.289 241.422C415.289 241.422 415.763 240.044 415.289 239.422C414.802 238.782 413.777 239.563 413.289 238.922C412.816 238.301 413.042 237.663 413.289 236.922C413.639 235.874 414.933 235.968 415.289 234.922C415.673 233.798 415.471 232.895 414.789 231.922C414.038 230.85 412.575 231.47 411.789 230.422C410.735 229.016 411.439 227.644 411.789 225.922C412.957 220.182 422.843 222.703 423.789 216.922C424.01 215.573 423.664 214.783 423.789 213.422C424.341 207.417 436.776 197.419 431.289 199.922C430.254 200.395 429.906 201.199 428.789 201.422C425.534 202.073 426.677 195.483 428.789 192.922C430.719 190.584 433.391 191.81 436.289 190.922C439.655 189.892 441.328 188.562 444.789 187.922C452.176 186.558 456.482 189.183 463.789 190.922C468.538 192.053 471.417 192.253 475.789 194.422C483.335 198.167 487.482 201.909 491.289 209.422C497.308 221.298 490.617 230.235 488.789 243.422C487.591 252.072 489.53 258.089 484.789 265.422C482.614 268.787 477.167 268.965 477.789 272.922C478.306 276.207 481.574 276.503 484.289 278.422C493.972 285.268 502.765 281.959 513.289 287.422C519.298 290.541 522.355 292.886 527.789 296.922C548.584 312.366 544.912 346.279 570.789 347.422C572.35 347.491 573.39 346.728 574.789 347.422C576.44 348.241 575.987 350.12 577.289 351.422C578.592 352.725 579.815 352.818 581.289 353.922C587.272 358.401 587.73 363.647 591.789 369.922C599.557 381.931 606.398 387.483 611.289 400.922C611.923 402.663 611.726 403.905 612.789 405.422C614.346 407.644 617.483 406.545 618.789 408.922C620.012 411.147 617.285 413.378 618.789 415.422C620.253 417.412 623.073 415.646 624.789 417.422C627.367 420.091 623.26 423.542 624.789 426.922C625.594 428.701 628.529 429.115 627.789 430.922C627.157 432.466 625.202 431.535 623.789 432.422C617.838 436.163 625.044 443.506 623.789 450.422C622.721 456.316 619.71 459.004 618.789 464.922C617.828 471.099 621.289 475.922 619.289 480.922C618.782 482.191 617.076 481.383 615.789 480.922C612.989 479.921 613.07 470.961 612.789 473.922C612.734 474.506 612.867 474.842 612.789 475.422C612.547 477.248 611.371 477.932 610.289 479.422C609.555 480.434 609.404 481.357 608.289 481.922C607.07 482.541 606.072 482.395 604.789 481.922C601.308 480.64 603.855 476.013 604.789 472.422C605.559 469.465 607.059 468.22 608.289 465.422C609.136 463.497 610.237 462.525 610.289 460.422C610.329 458.813 609.842 457.935 609.289 456.422C608.359 453.874 607.331 452.654 605.789 450.422C604.368 448.365 604.081 446.423 601.789 445.422C599.821 444.563 598.37 444.89 596.289 445.422C592.535 446.383 592.53 450.906 588.789 451.922C586.528 452.537 584.846 453.044 582.789 451.922C581.577 451.261 580.951 450.634 580.289 449.422C578.041 445.301 589.26 445.593 588.789 440.922C588.281 435.882 580.74 438.631 577.289 434.922C575.259 432.74 575.213 430.699 573.289 428.422C571.144 425.882 569.129 425.285 566.789 422.922C559.836 415.902 560.309 408.759 554.289 400.922C550.585 396.1 547.944 393.863 543.789 389.422C538.601 383.876 531.512 382.918 530.289 375.422C529.944 373.302 532.245 370.811 530.289 369.922C529.401 369.518 528.763 370 527.789 369.922C519.091 369.232 522.014 352.749 513.289 352.922C511.299 352.962 510.158 353.234 508.289 353.922C498.013 357.709 498.752 371.242 502.789 381.422C503.691 383.697 505.207 384.546 505.789 386.922C506.585 390.169 502.875 392.683 504.789 395.422C505.752 396.799 507.322 396.549 508.289 397.922C509.977 400.317 507.136 402.73 508.289 405.422C509.216 407.584 511.712 407.643 512.289 409.922C512.942 412.497 509.559 413.869 510.289 416.422C511.052 419.091 513.467 419.403 515.789 420.922C517.107 421.784 518.502 421.559 519.289 422.922C520.07 424.275 518.851 425.423 519.289 426.922C519.838 428.796 521.741 429.048 522.289 430.922C522.728 432.422 521.683 433.483 522.289 434.922C522.668 435.822 523.348 436.051 523.789 436.922C524.936 439.187 521.852 441.783 523.789 443.422C524.732 444.22 525.866 443.602 526.789 444.422C528.541 445.979 525.619 448.393 526.789 450.422C527.927 452.395 530.813 451.47 531.789 453.422C532.766 455.375 533.313 456.47 534.289 458.422C535.266 460.375 536.789 458.422 536.789 458.422C536.789 458.422 540.671 459.403 541.289 461.422C541.575 462.356 541.289 463.922 541.289 463.922C541.289 463.922 560.424 515.297 587.789 516.422C589.35 516.487 590.26 516.106 591.789 516.422C595.713 517.235 599.289 523.422 599.289 523.422C602.023 525.961 603.556 527.384 606.289 529.922C609.023 532.461 617.927 534.406 624.789 538.422C635.686 544.8 640.663 550.197 649.789 558.922C657.28 566.084 660.985 570.605 667.789 578.422C678.741 591.004 686.412 597.218 694.289 611.922C698.297 619.403 707.851 625.11 702.789 631.922C701.298 633.93 698.617 633.563 697.789 635.922C697.272 637.396 698.965 638.894 697.789 639.922C696.761 640.822 695.528 639.344 694.289 639.922C691.635 641.161 695.377 644.703 694.289 647.422C692.344 652.287 687.363 652.116 682.289 653.422C674.123 655.525 663.311 659.469 660.789 651.422C659.972 648.814 663.07 645.929 660.789 644.422C658.774 643.091 657.187 645.633 654.789 645.922C645.066 647.095 637.401 643.949 631.789 635.922C629.937 633.273 629.707 631.327 628.289 628.422C598.66 567.697 562.16 540.251 501.289 510.922C487.08 504.076 479.401 498.175 463.789 495.922C435.967 491.908 422.599 512.322 394.789 516.422C387.792 517.454 383.276 515.602 376.789 518.422C362.044 524.833 357.443 540.015 359.789 555.922C360.837 563.025 364.563 566.096 366.789 572.922C374.369 596.164 390.116 621.121 370.289 635.422C363.428 640.371 352.46 650.449 349.789 642.422C349.231 640.745 350.404 639.295 349.289 637.922C347.689 635.952 345.315 637.67 342.789 637.922C331.893 639.012 329.396 649.7 318.789 652.422C307.805 655.242 293.989 661.456 289.789 650.922C288.623 647.998 287.79 645.908 288.789 642.922C290.808 636.894 299.393 643.282 304.789 639.922C310.493 636.372 316.603 632.392 314.789 625.922C313.48 621.252 308.523 621.537 305.289 617.922C287.502 598.04 313.749 577.022 315.789 550.422C317.268 531.144 315.066 520.18 316.789 500.922C317.403 494.071 316.626 489.952 318.789 483.422C320.08 479.526 320.832 477.21 323.289 473.922C328.263 467.269 334.274 466.962 341.789 463.422C355.478 456.975 364.075 455.449 378.789 451.922C397.99 447.321 425.214 463.841 428.789 444.422C429.747 439.223 428.988 436.071 427.789 430.922C426.067 423.523 422.577 420.272 419.289 413.422C415.737 406.02 413.572 401.948 410.289 394.422C407.593 388.241 405.902 384.827 403.789 378.422C400.717 369.11 402.469 362.793 398.289 353.922C395.819 348.679 395.932 342.747 390.289 341.422C387.413 340.747 385.725 342.081 382.789 342.422C372.493 343.619 366.589 342.756 356.289 343.922C344.263 345.284 337.832 348.216 325.789 349.422C312.771 350.727 305.048 352.824 292.289 349.922C286.449 348.594 283.446 346.893 277.789 344.922C266.242 340.898 254.226 345.113 248.289 334.422C243.929 326.57 256.677 308.209 248.289 311.422C246.569 312.081 245.852 312.946 244.289 313.922M223.789 303.422C223.789 304.984 223 306.074 223.789 307.422C224.989 309.472 227.989 309.972 229.789 308.422M223.789 303.422C225.156 303.032 227.289 302.422 227.289 302.422L229.789 299.922L234.789 297.922L236.789 300.922L233.789 304.922C233.789 304.922 231.352 307.056 229.789 308.422M229.789 308.422C231.742 308.032 234.789 307.422 234.789 307.422M234.789 307.422C234.789 307.422 239.136 298.909 244.289 297.922C246.015 297.592 247.477 296.754 248.789 297.922C250.11 299.098 247.782 301.498 249.289 302.422C250.288 303.035 251.141 302.192 252.289 302.422C257.654 303.497 247.162 318.578 244.289 313.922M234.789 307.422C234.789 307.422 235.987 311.031 237.789 312.422C239.852 314.014 241.738 314.449 244.289 313.922" stroke="black"/>
<path d="M222.789 628.42C222.438 627.337 220.994 627.02 221.289 625.92C221.543 624.978 222.75 625.234 223.289 624.42C223.946 623.43 224.011 622.587 223.789 621.42C223.428 619.521 221.867 619.038 220.289 617.92C218.864 616.911 217.524 617.155 216.289 615.92C213.528 613.159 212.796 607.667 216.289 605.92C218.036 605.047 219.394 605.451 221.289 605.92C226.979 607.328 228.789 618.92 228.789 618.92L234.289 613.42C234.289 613.42 225.382 606.683 222.789 600.42C221.412 597.094 222.787 594.416 220.789 591.42C219.013 588.756 217.084 587.985 214.289 586.42C211.378 584.791 208.938 585.449 206.289 583.42C203.622 581.378 202.712 579.464 201.289 576.42C198.391 570.219 200.864 565.742 200.289 558.92C199.481 549.315 199.481 543.807 197.289 534.42C196.179 529.667 195.427 527.019 193.789 522.42C191.415 515.752 179.997 509.161 186.289 505.92C187.89 505.096 189.483 506.159 190.789 504.92C192.631 503.173 191.425 500.878 190.789 498.42C190.043 495.535 187.469 494.823 186.789 491.92C186.3 489.829 185.979 488.41 186.789 486.42C187.623 484.375 189.678 484.329 190.789 482.42C194.743 475.633 180.054 473.737 179.289 465.92C179.137 464.366 178.04 462.858 179.289 461.92C180.227 461.217 181.4 462.683 182.289 461.92C183.327 461.031 183.06 459.549 182.289 458.42C181.381 457.091 179.725 458.15 178.289 457.42C173.72 455.098 175.091 449.983 174.289 444.92C173.465 439.713 175.157 436.621 174.289 431.42C173.221 425.018 170.564 422 168.289 415.92C164.156 404.873 162.501 398.438 158.289 387.42C153.758 375.565 152.977 367.881 145.789 357.42C141.17 350.698 139.121 345.495 131.789 341.92C129.735 340.919 126.094 342.197 126.289 339.92C126.364 339.05 126.964 338.731 127.289 337.92C128.457 335.011 131.023 330.566 127.955 329.92C127.319 329.786 126.922 330.073 126.289 329.92C123.625 329.279 126.11 325.576 126.789 322.92C128.537 316.087 131.957 311.175 138.789 309.42C140.127 309.077 140.945 309.236 142.289 308.92C148.525 307.455 149.251 301.057 155.289 298.92C158.286 297.86 160.238 298.31 163.289 297.42C169.663 295.563 171.844 291.01 178.289 289.42C181.723 288.573 183.754 288.358 187.289 288.42C198.212 288.612 202.583 296.026 212.789 299.92C230.358 306.624 240.68 309.72 259.289 312.42C276.691 314.945 286.722 313.164 304.289 313.92C308.586 314.105 312.744 317.886 315.289 314.42C315.806 313.717 315.506 312.807 316.289 312.42C317.564 311.792 316.047 315.23 317.289 315.92C318.532 316.611 319.943 316.062 320.789 314.92C321.382 314.121 320.719 313.237 321.289 312.42C322.525 310.652 324.659 312.587 326.789 312.92C331.428 313.645 333.656 315.666 338.289 316.42C342.149 317.049 344.49 315.995 348.289 316.92C350.51 317.461 351.509 319.074 353.789 318.92C355.968 318.774 357.526 318.201 358.789 316.42C359.831 314.952 360.469 313.588 359.789 311.92C358.684 309.208 353.755 314.456 352.289 311.92C351.695 310.892 352.092 310.069 351.789 308.92C349.127 298.821 337.201 300.242 326.789 299.42C323.87 299.19 320.831 301.911 319.289 299.42C318.563 298.246 319.264 297.217 318.789 295.92C316.641 290.053 309.018 296.422 302.789 295.92C289.524 294.852 282.987 289.134 269.789 287.42C260.293 286.187 254.243 289.816 245.289 286.42C241.778 285.088 240.148 283.603 236.789 281.92C229.912 278.475 225.457 277.757 218.789 273.92C213.438 270.841 211.343 267.62 205.789 264.92C201.513 262.842 196.026 265.347 194.289 260.92C193.995 260.171 193.764 259.725 193.789 258.92C193.875 256.202 197.916 257.748 200.289 256.42C203.672 254.529 206.173 253.443 207.789 249.92C209.418 246.371 205.526 243.103 207.789 239.92C209.87 236.995 213.189 238.229 216.289 236.42L216.365 236.377C219.797 234.374 221.918 233.137 224.289 229.92C227.091 226.119 227.552 223.16 228.274 218.517L228.289 218.42C229.071 213.4 228.8 210.399 227.789 205.42C226.381 198.484 224.503 194.607 220.289 188.92C218.068 185.923 217.113 183.615 213.789 181.92C211.299 180.65 209.056 182.058 206.789 180.42C205.894 179.774 205.651 179.111 204.789 178.42C200.064 174.632 192.369 172.705 189.289 177.92C188.755 178.826 189.004 179.649 188.289 180.42C186.829 181.995 184.927 180.628 182.789 180.42C177.873 179.942 173.694 172.425 170.789 176.42C169.178 178.637 172.879 182.523 170.289 183.42C169.367 183.74 168.693 183.05 167.789 183.42C166.633 183.895 166.904 185.355 165.789 185.92C164.57 186.539 162.483 184.567 162.289 185.92C162.202 186.532 162.483 186.884 162.789 187.42C163.2 188.14 163.947 188.166 164.289 188.92C164.693 189.809 165.052 190.811 164.289 191.42C163.68 191.908 162.977 191.792 162.289 191.42C161.364 190.92 162.063 189.633 161.289 188.92C160.274 187.985 159.113 188.028 157.789 188.42C156.063 188.931 155.536 190.282 154.789 191.92C152.725 196.45 159.963 198.453 160.289 203.42C160.47 206.176 160.92 208.192 159.289 210.42C157.944 212.258 154.842 211.211 154.289 213.42C154.1 214.178 154.723 214.771 154.289 215.42C153.64 216.395 152.311 215.993 151.289 215.42C149.578 214.461 151.158 212.348 150.789 210.42C150 206.289 147.727 204.521 146.789 200.42C145.439 194.52 147.962 190.859 146.789 184.92C145.182 176.782 140.065 173.738 137.289 165.92C133.574 155.453 132.698 149.021 132.289 137.92C132.081 132.258 132.875 129.086 132.789 123.42C132.659 114.794 127.963 109.571 130.789 101.42C131.277 100.015 132.565 99.3816 132.289 97.9204C132.057 96.6918 130.922 96.499 130.289 95.4204C128.501 92.3696 132.66 87.491 129.289 86.4204C128.173 86.0657 127.435 86.6659 126.289 86.4204C121.103 85.3089 125.418 78.1875 124.789 72.9204C124.066 66.8602 125.393 62.9403 122.789 57.4204C121.007 53.641 119.346 51.7698 116.289 48.9204C111.878 44.808 104.474 47.2115 102.789 41.4204C101.97 38.6018 105 36.3061 103.289 33.9204C102.561 32.9043 102.015 32.1673 100.789 31.9204C98.2936 31.4177 99.7593 38.0379 97.2894 37.4204C94.8195 36.8029 96.9683 33.46 96.7894 30.9204C96.5694 27.7978 94.5895 25.5489 96.2894 22.9204C96.8893 21.9929 97.8223 21.9213 98.2894 20.9204C98.8674 19.6818 99.3272 18.3099 98.2894 17.4204C97.3999 16.6579 96.4177 17.1047 95.2894 17.4204C93.0251 18.0539 91.9546 19.6652 91.2894 21.9204C90.8475 23.4187 91.8696 24.47 91.2894 25.9204C90.6741 27.4587 89.0538 27.4504 88.2894 28.9204C87.1183 31.1725 87.6127 32.9738 88.2894 35.4204C88.5697 36.4339 88.8569 36.962 89.2894 37.9204C90.1164 39.7528 91.2222 40.4917 91.7894 42.4204C92.6726 45.4235 92.3516 47.4758 91.2894 50.4204C90.8449 51.6525 90.5508 52.3545 89.7894 53.4204C87.5054 56.618 82.0321 54.1925 80.7894 57.9204C80.2337 59.5876 79.6138 61.1142 80.7894 62.4204C82.0957 63.8718 83.917 62.9744 85.7894 62.4204C87.5558 61.8978 88.1251 60.7099 89.7894 59.9204C96.3193 56.8229 105.137 53.9167 108.289 60.4204C109.242 62.3849 108.987 63.7584 109.289 65.9204C110.318 73.2687 110.656 77.6274 109.289 84.9204C108.731 87.8998 107.947 89.4614 107.289 92.4204C105.036 102.551 105.511 108.544 105.289 118.92C105.202 123.02 104.441 125.409 105.289 129.42C106.032 132.933 107.645 134.518 108.789 137.92C111.072 144.708 111.253 148.835 112.289 155.92C113.622 165.034 112.065 170.483 114.289 179.42C115.796 185.475 119.063 188.224 119.789 194.42C120.153 197.523 122.715 201.323 119.789 202.42C118.692 202.832 117.872 201.972 116.789 202.42C114.257 203.468 116.736 206.716 116.289 209.42C114.908 217.778 112.811 222.963 106.789 228.92C101.326 234.325 95.0917 232.881 89.2894 237.92C84.7767 241.84 80.8831 244.044 79.7894 249.92C79.3607 252.224 80.0188 253.589 79.7894 255.92C79.3299 260.592 77.683 262.938 76.2894 267.42C72.7515 278.801 69.6057 284.841 66.7894 296.42C62.8802 312.494 61.6663 321.883 61.2894 338.42C61.2094 341.934 60.915 343.926 61.2894 347.42C61.6076 350.39 62.3882 351.961 62.7894 354.92C63.8127 362.469 61.6095 366.833 62.2894 374.42C62.6419 378.354 65.6639 380.945 63.7894 384.42C63.326 385.28 62.8374 385.612 62.2894 386.42C58.6463 391.792 58.8282 396.013 57.7894 402.42C56.3207 411.479 57.6482 416.744 57.7894 425.92C58.015 440.575 63.4513 449.367 59.2894 463.42C58.2185 467.036 57.2619 468.949 55.7894 472.42C52.2772 480.701 46.0329 483.956 45.2894 492.92C45.128 494.866 44.7279 496.05 45.2894 497.92C46.2828 501.229 50.6574 500.657 51.7894 503.92C52.1157 504.861 52.4494 505.438 52.2894 506.42C52.0232 508.056 50.0043 507.926 49.2894 509.42C48.6102 510.841 47.7424 512.245 48.7894 513.42C49.8284 514.587 51.9615 514.745 52.7894 513.42C53.3069 512.592 52.272 511.748 52.7894 510.92C53.6173 509.596 56.7894 509.92 56.7894 510.92C56.7894 511.92 57.9762 513.742 56.7894 514.42C56.1113 514.808 55.4561 514.587 54.7894 514.42C54.1228 514.254 53.171 518.328 54.7894 519.42C55.4567 519.871 56.1542 519.426 56.7894 519.92C57.8787 520.769 56.3936 522.37 57.2894 523.42C58.4366 524.766 60.2511 523.049 61.7894 523.92C65.1871 525.846 58.3406 532.088 61.7894 533.92C63.1797 534.659 64.8229 533.178 65.7894 534.42C66.6286 535.499 65.1283 536.724 65.7894 537.92C66.9267 539.978 69.8649 539.771 71.7894 538.42C74.3515 536.622 68.4327 531.7 71.2894 530.42C72.5368 529.862 73.4741 530.792 74.7894 530.42C79.4906 529.091 69.6996 519.594 74.2894 517.92C75.9404 517.318 77.3112 518.871 78.7894 517.92C81.0889 516.442 76.7862 512.781 78.7894 510.92C80.6496 509.193 83.1945 509.487 85.2894 510.92C88.3513 513.015 82.7117 517.752 85.2894 520.42C87.0055 522.197 91.4287 519.954 91.2894 522.42C91.2034 523.943 89.5792 524.116 88.7894 525.42C86.0591 529.93 84.3156 536.131 88.7894 538.92C90.8052 540.177 93.0583 541.547 94.7894 539.92C96.2195 538.577 93.8538 536.258 95.2894 534.92C96.1929 534.078 97.3304 534.698 98.2894 533.92C100.266 532.316 96.8921 529.118 98.7894 527.42C100.131 526.22 101.9 527.565 103.289 526.42C105.87 524.296 99.2813 519.377 102.289 517.92C104.512 516.844 106.259 518.514 108.289 519.92C113.359 523.43 105.663 532.898 111.289 535.42C113.613 536.462 115.432 536.881 117.789 535.92C119.457 535.241 120.331 534.444 121.289 532.92C123.164 529.941 117.455 525.049 120.789 523.92C121.899 523.545 122.713 524.382 123.789 523.92C126.302 522.844 122.749 519.448 123.789 516.92C124.326 515.618 125.36 515.261 125.789 513.92C126.266 512.433 124.465 510.748 125.789 509.92C126.617 509.403 127.416 509.484 128.289 509.92C130.036 510.794 127.844 513.019 128.289 514.92C128.629 516.368 128.526 517.637 129.789 518.42C131.815 519.677 133.478 516.91 134.789 514.92C136.309 512.615 133.75 509.782 135.789 507.92C138.965 505.021 141.558 511.599 144.289 514.92C148.92 520.552 147.807 525.768 150.789 532.42C154.149 539.914 156.957 543.657 160.789 550.92C166.209 561.193 169.546 566.819 174.289 577.42C178.406 586.622 181.66 591.568 183.789 601.42C184.624 605.28 184.182 607.63 185.289 611.42C187.403 618.653 195.594 620.392 195.289 627.92C195.234 629.3 195.154 630.089 194.789 631.42C193.581 635.833 189.384 636.353 187.289 640.42C186.609 641.742 185.459 642.47 185.789 643.92C186.162 645.558 187.74 645.772 189.289 646.42C192.357 647.704 195.938 643.158 197.789 645.92C198.985 647.705 196.623 649.617 197.789 651.42C199.131 653.494 201.369 652.927 203.789 653.42C207.807 654.24 210.302 654.376 214.289 653.42C217.182 652.728 218.922 652.221 221.289 650.42C223.838 648.481 225.304 646.968 226.289 643.92C227.19 641.133 227.493 639.091 226.289 636.42C225.437 634.528 223.416 634.399 222.789 632.42C222.318 630.931 223.271 629.906 222.789 628.42Z" fill="#F6958E"/>
<path d="M821.833 633.609C813.833 633.609 811.833 630.276 811.833 628.609C811.833 628.609 832.99 609.057 844.333 594.609C856.04 579.696 874 532.5 874 532.5C874 532.5 1033.88 511.546 995.333 466.109C991.312 461.37 988.363 459.364 983.833 455.109L983.608 454.898C976.998 448.69 973.221 445.142 966.333 439.109C959.242 432.9 953.401 431.214 947.833 423.609L947.655 423.366C944.611 419.211 942.733 416.647 941.333 411.609C938.855 402.696 943.73 397.342 944.333 388.109C944.969 378.367 945.654 372.783 944.333 363.109C942.728 351.36 938.58 345.514 935.333 334.109C930.158 315.936 912.27 302.054 923.833 287.109C930.352 278.683 938.337 278.794 948.333 275.109C958.908 271.211 965.273 270.284 976.333 268.109C976.333 268.109 996.69 266.663 1009.33 263.609C1020.56 260.898 1037.33 254.109 1037.33 254.109L1041.83 250.609L1042.33 242.609C1042.33 242.609 1051.57 244.32 1056.33 241.609C1064.79 236.799 1047.76 221.834 1057.33 220.109C1064.64 218.794 1072.33 228.109 1076.33 228.109C1077.71 228.109 1076.86 225.99 1076.83 224.609C1076.7 218.812 1063.71 219.284 1066.33 214.109C1066.9 212.994 1067.39 212.432 1068.33 211.609C1070.76 209.49 1074.3 212.104 1076.33 209.609C1077.27 208.457 1078.27 207.531 1077.83 206.109C1077.37 204.604 1076.35 205.695 1074.83 206.109C1073.77 206.4 1072.4 205.819 1071.33 206.109C1070.14 206.434 1068.44 207.214 1067.33 206.109C1065.83 204.609 1075.33 201.109 1077.83 200.609C1079.04 200.367 1080.8 198.253 1080.33 197.109C1079.96 196.205 1079.28 195.373 1078.33 195.609C1074.33 196.609 1073.08 197.595 1069.83 199.109C1065.52 201.118 1063.49 203.127 1058.83 204.109C1055.75 204.76 1053.55 203.518 1050.83 205.109C1048.44 206.512 1048.41 208.774 1046.33 210.609C1037.98 217.972 1028.96 211.039 1017.83 211.109C1011.58 211.149 1007.98 209.992 1001.83 211.109C996.973 211.993 994.631 213.934 989.833 215.109C985.031 216.286 981.753 214.896 977.333 217.109C974.714 218.421 973.819 220.061 971.333 221.609C960.406 228.415 951.688 226.436 938.833 227.109C932.983 227.416 923.833 227.109 923.833 227.109C923.833 227.109 917.073 226.893 912.833 227.609C909.236 228.217 905.548 233.329 903.833 230.109C903.006 228.558 902.833 227.054 903.833 225.609C904.389 224.807 905.195 224.848 905.833 224.109C907.625 222.036 905.12 219.567 906.333 217.109C907.75 214.237 911.531 215.035 912.833 212.109C913.944 209.612 912.833 205.109 912.833 205.109C912.833 205.109 914.315 203.419 914.833 202.109C915.484 200.465 914.166 197.443 915.333 197.609C916.499 197.776 918.933 196.709 919.333 191.109C917.733 177.909 909.333 171.276 905.333 169.609C902.166 164.942 893.533 155.909 884.333 157.109C861.133 162.709 848.666 189.109 845.333 201.609C844.166 206.775 842.933 218.009 847.333 221.609C846.133 231.209 836.833 237.942 832.333 240.109C812.833 249.775 773.133 271.409 770.333 280.609C761.333 279.609 696.333 339.109 692.333 342.109C686.733 342.109 681.999 349.109 680.333 352.609C680.333 352.609 675.833 367.109 679.333 373.109C680.36 374.87 684.333 374.609 684.333 374.609C683.166 382.109 680.433 398.009 678.833 401.609C677.233 405.209 680.5 405.443 682.333 405.109L684.333 400.109C684.166 401.443 683.933 404.509 684.333 406.109C684.733 407.709 687.833 406.776 689.333 406.109L695.333 386.109L696.833 387.109C695.398 389.388 698.833 395.109 701.333 394.109C703.833 393.109 703.333 387.609 703.333 387.609H705.333C705.666 387.443 707.133 388.309 710.333 393.109C716.733 397.909 720.333 395.109 721.333 393.109L711.333 380.109C711.166 378.776 710.933 375.109 711.333 371.109C714.833 372.609 744.833 362.109 748.333 357.609C753.133 356.809 786.333 325.943 802.333 310.609H833.833L881.333 371.609V380.609C861.733 397.009 860.833 420.109 862.833 429.609C865 432.443 868.033 438.809 862.833 441.609C855.833 448.609 841.333 498.109 841.333 505.109C833.833 508.109 834.833 512.609 833.833 514.109C807.833 524.109 764.333 591.609 758.833 600.609C749.333 605.609 742 620.609 739.833 628.609L746.333 645.609H762.333V637.609L770.333 642.609C781.5 642.943 805.633 643.609 812.833 643.609C821.833 643.609 831.833 633.609 821.833 633.609Z" fill="black"/>
<path fill-rule="evenodd" clip-rule="evenodd" d="M908.833 653.108L900.833 654.108C900.833 654.108 903.643 647.241 902.333 643.108C902.269 642.908 902.209 642.714 902.151 642.525C901.652 640.905 901.275 639.685 899.833 638.608C898.083 637.302 896.48 637.217 894.333 637.608C891.958 638.041 890.832 639.474 889.478 641.198C889.121 641.652 888.748 642.127 888.333 642.608C886.385 644.865 885.413 646.33 884.333 649.108C882.629 653.491 883.333 661.108 883.333 661.108C883.333 661.108 876.322 668.694 870.333 670.608C864.567 672.451 859.96 673.826 854.833 670.608C854.501 670.4 854.17 670.23 853.853 670.068C852.939 669.6 852.15 669.196 851.833 668.108C851.5 666.968 851.617 666.056 852.333 665.108C852.854 664.418 853.59 664.448 854.364 664.48C855.03 664.508 855.723 664.536 856.333 664.108C857.894 663.011 857.444 661.382 856.957 659.62C856.546 658.131 856.108 656.548 856.833 655.108C857.503 653.777 858.451 653.088 859.427 652.378C860.259 651.774 861.112 651.154 861.833 650.108C864.341 646.471 864.051 643.059 863.735 639.337C863.531 636.938 863.316 634.41 863.833 631.608C864.649 627.185 865.76 623.878 866.882 620.538C867.934 617.405 868.996 614.244 869.833 610.108C873.529 591.828 872.66 579.932 871.438 563.191C871.239 560.474 871.032 557.629 870.833 554.608C870.249 545.751 868.915 538.843 867.596 532.013C866.162 524.586 864.746 517.253 864.333 507.608C864.217 504.904 863.758 502.474 863.324 500.177C862.412 495.349 861.61 491.104 864.333 486.108C866.91 481.379 869.531 479.05 874.333 476.608C877.417 475.04 879.393 474.482 882.833 474.108C887.299 473.623 890.354 474.823 893.848 476.195C895.51 476.848 897.272 477.54 899.333 478.108C910.543 481.199 919.025 487.073 927.105 492.669C938.479 500.546 949.058 507.872 965.333 506.108L965.677 506.071C968.021 505.818 969.446 505.664 971.833 505.108C990.297 500.811 991.831 483.922 993.532 465.185C994.333 456.362 995.172 447.129 997.833 438.608C999.12 434.485 999.606 430.765 1000.07 427.236C1000.84 421.319 1001.54 415.941 1005.83 410.108C1008.04 407.103 1009.42 405.44 1012.33 403.108C1015 400.973 1016.69 399.949 1019.83 398.608C1022.36 397.531 1024.31 397.208 1026.49 396.846C1027.66 396.652 1028.9 396.447 1030.33 396.108C1031.51 395.831 1032.52 395.671 1033.48 395.519C1035.24 395.241 1036.81 394.992 1038.83 394.108C1039.11 393.988 1039.38 393.868 1039.66 393.75C1044.92 391.462 1049.75 389.36 1050.33 383.608C1050.47 382.274 1050 381.239 1049.53 380.22C1049.03 379.116 1048.53 378.032 1048.83 376.608C1049.01 375.765 1049.42 375.198 1049.83 374.634C1050.25 374.055 1050.67 373.478 1050.83 372.608C1051.39 369.605 1048.19 370.54 1044.48 371.624C1040.57 372.767 1036.08 374.078 1034.83 371.108C1034.71 370.824 1034.58 370.535 1034.45 370.244C1033.66 368.503 1032.85 366.708 1034.33 365.608C1034.49 365.492 1034.65 365.444 1034.8 365.397C1034.99 365.34 1035.17 365.285 1035.33 365.108C1036.01 364.376 1035.59 363.259 1034.83 362.608C1034.59 362.395 1034.32 362.362 1034.06 362.329C1033.82 362.299 1033.58 362.268 1033.33 362.108C1032.46 361.533 1032.81 360.607 1033.18 359.618C1033.52 358.709 1033.89 357.746 1033.33 356.957C1033.14 356.681 1032.85 356.539 1032.57 356.404C1032.21 356.224 1031.87 356.059 1031.83 355.61C1031.8 355.206 1032.05 354.986 1032.31 354.748C1032.51 354.572 1032.72 354.387 1032.83 354.11C1033.35 352.846 1033.33 351.882 1032.83 350.61C1032.4 349.498 1031.39 349.247 1030.35 348.986C1029.41 348.75 1028.44 348.507 1027.83 347.61C1026.33 345.376 1028.41 343.961 1030.76 342.363C1032.81 340.971 1035.07 339.44 1035.33 337.11C1035.37 336.803 1035.42 336.521 1035.48 336.252C1035.63 335.503 1035.75 334.863 1035.33 334.11C1035.08 333.66 1034.7 333.484 1034.31 333.304C1033.97 333.142 1033.61 332.978 1033.33 332.61C1032.32 331.272 1032.77 329.964 1033.28 328.488C1033.49 327.893 1033.7 327.272 1033.83 326.61C1034.76 321.982 1036.09 319.447 1038.83 315.61C1040.32 313.526 1042.05 312.379 1043.77 311.241C1045.57 310.045 1047.35 308.859 1048.83 306.61C1052.34 301.273 1051.63 296.362 1050.86 290.972C1050.37 287.61 1049.87 284.063 1050.33 280.11C1050.68 277.199 1051.11 274.902 1051.54 272.648C1052.03 270.039 1052.51 267.488 1052.83 264.11C1053.11 261.19 1053.81 258.421 1054.48 255.779C1056.04 249.625 1057.43 244.164 1052.83 239.11C1051.62 237.778 1050.88 237.035 1049.33 236.11C1047.18 234.82 1045.27 234.855 1043.19 234.894C1041.85 234.919 1040.43 234.945 1038.83 234.61C1037.83 234.399 1037.03 234.154 1036.26 233.917C1035.21 233.596 1034.21 233.29 1032.83 233.11C1032.19 233.026 1031.6 232.912 1031.03 232.803C1029.21 232.455 1027.69 232.163 1025.83 233.11C1025.55 233.255 1025.35 233.422 1025.15 233.586C1024.92 233.781 1024.69 233.971 1024.33 234.11C1023.24 234.533 1022.22 234.872 1021.33 234.11C1020.3 233.222 1021.65 233.099 1022.15 231.831C1023 231.354 1023.48 231.086 1024.33 230.609C1024.91 230.287 1025.83 230.109 1026.33 229.609C1026.6 229.518 1026.92 229.247 1027.33 229.109C1028.26 228.801 1029.83 229.109 1029.83 229.109C1029.83 229.109 1031.36 228.999 1032.33 229.109C1033.75 229.27 1034.46 230.497 1035.83 230.109C1037.3 229.694 1037.53 228.5 1038.33 227.11C1038.73 226.412 1038.81 225.915 1038.83 225.11C1038.86 223.875 1039.36 222.869 1038.83 221.609C1037.93 219.472 1035.71 219.711 1033.5 219C1031.24 218.271 1027.16 219.628 1027.5 218C1027.75 216.81 1030.16 216.743 1032 216.5C1034.14 216.217 1036.4 216.6 1037.5 217C1037.21 216.909 1037.76 217.094 1037.5 217C1037.35 216.953 1037.66 217.053 1037.5 217C1038.5 217.307 1040.83 218.609 1040.83 218.609C1040.83 218.609 1042.02 219.383 1042.33 219.61C1042.38 219.647 1042.43 219.684 1042.48 219.721C1042.92 220.05 1043.34 220.358 1043.83 220.11C1044.5 219.775 1044.33 219.609 1044.33 219.109C1044.3 219.018 1044.34 218.139 1044.33 218.109C1044.02 217.34 1044.33 216.938 1044.33 216.109C1044.33 214.609 1039.83 211.609 1038.83 211.109C1038.09 210.739 1037.83 210.109 1037.33 209.609C1036.83 209.109 1036.92 207.745 1037.83 207.109C1038.64 206.548 1038.43 207.876 1039.33 208.109C1039.5 208.153 1039.83 209.109 1040.33 209.109C1040.83 209.109 1040.98 209.28 1042.48 210.28C1043.7 211.089 1043.97 212.337 1045.33 212.61C1045.51 212.646 1045.69 212.688 1045.86 212.729C1046.57 212.902 1047.17 213.048 1047.83 212.61C1048.67 212.048 1048.12 211.415 1047.33 210.609C1046.76 210.024 1046.5 209.824 1046.33 209.109C1046.28 208.901 1045.88 207.816 1045.83 207.609C1045.33 205.55 1045.33 204.109 1046.33 202.61C1046.92 201.735 1047.84 201.277 1048.83 201.61C1050.33 202.109 1048.99 203.067 1048.83 204.609C1048.68 206.146 1049.55 209.278 1050.83 209.61C1051.59 209.805 1052.08 209.815 1052.83 209.61C1054.03 209.284 1054.92 206.435 1054.83 205.11C1054.74 203.793 1054.83 203.61 1055.83 202.11C1056.37 201.297 1057.52 201.183 1057.83 202.11C1058.33 203.61 1058.06 204.354 1057.33 206.61C1056.83 208.161 1057.06 210.122 1057.33 211.61C1057.95 214.985 1059.28 217.129 1060.75 219.498C1061.6 220.867 1062.5 222.31 1063.33 224.11C1064.11 225.78 1064.84 227.192 1065.53 228.522C1067 231.363 1068.27 233.826 1069.33 237.61C1070.97 243.475 1070.58 247.984 1070.16 252.875C1069.9 255.983 1069.62 259.246 1069.83 263.11C1069.83 263.11 1060.76 295.074 1074.33 302.61C1076.07 303.572 1077.66 303.803 1079.23 304.032C1080.9 304.273 1082.55 304.512 1084.33 305.61C1088.83 308.373 1090.57 311.346 1092.83 316.11C1095.15 320.983 1095.2 324.633 1095.27 329.442C1095.28 330.441 1095.3 331.49 1095.33 332.61C1095.35 333.268 1095.27 333.835 1095.19 334.373C1095.05 335.272 1094.93 336.089 1095.33 337.11C1096.12 339.082 1098.04 338.796 1100.12 338.484C1101.95 338.212 1103.9 337.92 1105.33 339.11C1107.04 340.532 1107.64 341.893 1108.46 343.761C1108.58 344.033 1108.7 344.315 1108.83 344.61C1110.39 348.067 1111.03 350.323 1110.83 354.11C1110.66 357.565 1110.08 359.626 1108.33 362.61C1106.51 365.705 1104.84 367.151 1101.83 369.11C1099.34 370.732 1097.75 371.537 1094.83 372.11C1093.72 372.328 1092.62 371.997 1091.59 371.688C1090.14 371.251 1088.83 370.858 1087.83 372.11C1086.77 373.441 1087.57 374.677 1088.45 376.06C1089.05 376.986 1089.68 377.979 1089.83 379.11C1089.99 380.31 1089.9 381.276 1089.8 382.228C1089.7 383.273 1089.6 384.303 1089.83 385.61C1090.84 391.167 1095.01 393.09 1099.61 395.21C1102.59 396.582 1105.74 398.036 1108.33 400.61C1112.76 405.007 1115.32 408.293 1118.56 412.445C1119.56 413.731 1120.63 415.099 1121.83 416.61C1124.25 419.641 1125.76 422.806 1127.19 425.802C1129.61 430.887 1131.79 435.484 1137.83 438.11C1138.53 438.413 1139.17 438.525 1139.78 438.631C1140.66 438.784 1141.48 438.926 1142.33 439.61C1143.9 440.869 1144.43 442.141 1144.83 444.11C1144.98 444.813 1144.92 445.37 1144.85 445.936C1144.8 446.448 1144.74 446.968 1144.83 447.61C1145.25 450.447 1146.96 451.89 1148.82 453.464C1150.03 454.485 1151.3 455.562 1152.33 457.11C1155.57 461.975 1157 465.208 1159.21 470.201C1159.41 470.655 1159.62 471.124 1159.83 471.61C1160.45 472.989 1161.12 474.16 1161.76 475.264C1163.17 477.689 1164.39 479.797 1164.33 483.11C1164.28 486.141 1164.04 488.107 1162.33 490.61C1160.01 494.012 1156.62 493.922 1152.82 493.821C1150.9 493.77 1148.88 493.716 1146.83 494.11C1139.08 495.6 1134.7 496.361 1126.83 497.11C1118.86 497.868 1108.42 497.417 1100.93 497.093C1095.45 496.856 1091.54 496.687 1091.33 497.11C1091.13 497.513 1091.21 498.113 1091.29 498.77C1091.41 499.741 1091.55 500.837 1090.83 501.61C1089.5 503.047 1086.41 503.986 1085.83 502.11C1085.75 501.847 1085.81 501.615 1085.86 501.39C1085.91 501.135 1085.97 500.888 1085.83 500.61C1085.31 499.562 1083.48 499.635 1082.83 500.61C1082.61 500.947 1082.7 501.282 1082.8 501.625C1082.9 501.944 1082.99 502.269 1082.83 502.61C1082.3 503.75 1081.07 503.514 1079.79 503.272C1079.47 503.211 1079.15 503.15 1078.83 503.11L1078.75 503.099C1077.57 502.95 1076.79 502.851 1075.83 502.11C1075.46 501.821 1075.29 501.471 1075.12 501.125C1074.93 500.755 1074.75 500.389 1074.33 500.11C1073.57 499.607 1072.91 499.612 1072.11 499.618C1071.87 499.62 1071.61 499.622 1071.33 499.61C1069.34 499.522 1068.14 499.895 1066.35 500.449C1066.19 500.501 1066.01 500.555 1065.83 500.61C1062.91 501.507 1061.22 502.205 1058.83 504.11C1055.19 507.012 1052.22 509.453 1052.33 514.11C1052.44 518.462 1055.15 520.649 1058.5 523.345C1058.61 523.433 1058.72 523.521 1058.83 523.61C1059.29 523.975 1059.73 524.187 1060.16 524.389C1060.77 524.677 1061.34 524.946 1061.83 525.61C1062.6 526.653 1062.48 527.665 1062.35 528.767C1062.27 529.497 1062.17 530.266 1062.33 531.11C1063.03 534.81 1064.48 537.151 1066.1 539.758C1066.99 541.201 1067.94 542.727 1068.83 544.61C1068.83 544.61 1076.08 562.017 1081.83 572.61C1084.37 577.285 1086.61 580.709 1088.89 584.19C1090.93 587.305 1092.99 590.465 1095.33 594.61C1096.78 597.181 1097.78 599.433 1098.74 601.583C1100.21 604.901 1101.58 607.977 1104.33 611.61C1105.05 612.561 1105.68 613.469 1106.27 614.329C1108.2 617.149 1109.78 619.454 1113.33 621.11C1114.99 621.882 1116.58 621.749 1118.12 621.62C1119.92 621.47 1121.64 621.325 1123.33 622.61C1123.64 622.847 1123.46 623.168 1123.28 623.482C1122.96 624.055 1122.64 624.61 1125.33 624.61H1138.83L1150.83 625.61C1152.13 625.727 1153.61 625.913 1155.23 626.117C1158.2 626.49 1161.65 626.924 1165.33 627.11C1167.12 627.2 1168.85 627.665 1170.49 628.106C1173.85 629.012 1176.85 629.822 1179.33 627.11C1180.95 625.345 1180.54 623.339 1180.11 621.249C1179.74 619.398 1179.35 617.482 1180.33 615.61C1181.69 613.042 1182.82 611.563 1185.33 610.11C1186.7 609.318 1188.01 609.344 1189.32 609.371C1190.64 609.397 1191.96 609.424 1193.33 608.61C1196.46 606.757 1197.8 604.59 1198.83 601.11C1199.12 600.156 1199.33 598.61 1199.33 598.61C1199.33 598.61 1201.59 598.049 1202.83 598.61C1204.36 599.298 1204.96 600.473 1205.33 602.11C1205.55 603.061 1205.33 604.61 1205.33 604.61C1205.33 604.61 1203.11 605.692 1201.83 606.61C1201.36 606.946 1200.9 607.236 1200.45 607.515C1198.95 608.438 1197.67 609.231 1197.33 611.11C1197.14 612.152 1197.35 612.866 1197.6 613.748C1197.68 614.015 1197.76 614.298 1197.83 614.61C1199.15 620.037 1201.36 623.577 1206.33 626.11C1207.98 626.95 1208.99 627.393 1210.83 627.61C1211.98 627.745 1212.83 627.578 1213.74 627.4C1214.37 627.275 1215.03 627.145 1215.83 627.11C1216.32 627.088 1216.75 627.024 1217.16 626.964C1218.05 626.831 1218.83 626.715 1219.83 627.11C1220.74 627.47 1221.21 627.957 1221.8 628.571C1221.97 628.741 1222.14 628.921 1222.33 629.11C1222.52 629.289 1222.69 629.459 1222.87 629.622C1223.99 630.696 1224.82 631.492 1225.33 633.11C1225.86 634.786 1225.8 635.914 1225.33 637.61C1225.31 637.704 1225.28 637.796 1225.26 637.886C1224.96 639.003 1224.74 639.807 1223.83 640.61C1222.94 641.398 1222.05 641.449 1221.01 641.51C1220.64 641.531 1220.25 641.554 1219.83 641.61C1218.58 641.779 1217.67 641.729 1216.65 641.673C1216.1 641.642 1215.52 641.61 1214.83 641.61C1213.32 641.61 1212.02 641.45 1210.79 641.299C1208.52 641.02 1206.49 640.77 1203.83 641.61C1201.26 642.424 1199.79 643.864 1198.22 645.4C1197.11 646.484 1195.96 647.616 1194.33 648.61C1187.58 652.735 1176.14 651.964 1166.5 651.315C1154.98 650.539 1146.04 649.937 1150.83 658.11C1151.68 659.551 1153.38 660.492 1154.94 661.35C1157.12 662.55 1159 663.588 1157.83 665.61C1156.96 667.121 1155.59 667.351 1154.03 667.612C1153.33 667.731 1152.58 667.856 1151.83 668.11C1148.25 669.321 1142.74 668.429 1138.05 667.669C1132.03 666.695 1127.36 665.939 1129.83 670.11C1130.16 670.665 1130.62 671.018 1131.05 671.355C1131.64 671.813 1132.19 672.241 1132.33 673.11C1132.57 674.61 1131.1 674.36 1129.35 674.063C1127.67 673.777 1125.73 673.448 1124.83 674.61C1124.58 674.94 1124.47 675.263 1124.36 675.58C1124.25 675.927 1124.13 676.268 1123.83 676.61C1122.99 677.559 1121.78 677.078 1120.57 676.599C1119.36 676.118 1118.15 675.639 1117.33 676.61C1116.9 677.118 1116.83 677.642 1116.76 678.183C1116.69 678.646 1116.63 679.121 1116.33 679.61C1113.71 683.976 1103.33 678.61 1103.33 678.61C1103.33 678.61 1102.33 677.086 1101.33 676.61C1100.23 676.083 1099.35 676.49 1098.37 676.937C1097.75 677.22 1097.1 677.519 1096.33 677.61C1095.51 677.707 1094.73 677.902 1093.99 678.088C1092.1 678.56 1090.43 678.977 1088.83 677.61C1088.5 677.324 1088.34 676.98 1088.18 676.647C1087.99 676.24 1087.81 675.85 1087.33 675.61C1086.46 675.173 1085.44 674.847 1084.83 675.61C1084.55 675.961 1084.64 676.316 1084.75 676.701C1084.82 676.985 1084.9 677.284 1084.83 677.61C1084.45 679.516 1082.29 678.611 1080.06 677.676C1077.81 676.733 1075.48 675.758 1074.83 677.61C1074.62 678.222 1074.75 678.77 1074.89 679.306C1075.03 679.899 1075.17 680.477 1074.83 681.11C1074.23 682.236 1072.97 681.717 1071.68 681.181C1070.41 680.654 1069.1 680.111 1068.33 681.11C1067.73 681.898 1068.01 682.75 1068.29 683.616C1068.56 684.45 1068.84 685.297 1068.33 686.11C1066.68 688.759 1062.68 688.169 1060.33 686.11C1059.99 685.812 1059.82 685.475 1059.65 685.147C1059.46 684.766 1059.27 684.396 1058.83 684.11C1057.52 683.256 1055.79 682.879 1054.83 684.11C1054.58 684.433 1054.58 684.774 1054.57 685.119C1054.56 685.451 1054.56 685.786 1054.33 686.11C1053.45 687.376 1052 686.744 1050.52 686.098C1050.13 685.924 1049.73 685.749 1049.33 685.61C1046.72 684.682 1045.12 683.57 1043.83 681.11C1043.56 680.583 1043.56 679.988 1043.57 679.431C1043.58 678.656 1043.58 677.955 1042.83 677.61C1042.12 677.284 1041.48 677.176 1040.83 677.61C1040.4 677.896 1040.47 678.362 1040.54 678.846C1040.6 679.296 1040.66 679.761 1040.33 680.11C1039.4 681.104 1037.8 681.076 1036.83 680.11C1036.3 679.581 1036.49 678.968 1036.7 678.311C1036.87 677.766 1037.05 677.191 1036.83 676.61C1035.55 673.129 1030.03 674.064 1027.33 676.61C1026.76 677.153 1026.54 677.758 1026.32 678.365C1026.11 678.965 1025.9 679.566 1025.33 680.11C1023.23 682.141 1021.08 680.714 1018.65 679.105C1017.02 678.027 1015.27 676.868 1013.33 676.61C1010.74 676.264 1008.32 677.12 1006.06 677.924C1002.9 679.042 1000.03 680.061 997.333 677.61C996.55 676.898 996.19 676.128 995.829 675.357C995.47 674.59 995.11 673.821 994.333 673.11C992.385 671.327 989.48 672.232 986.793 673.07C983.902 673.971 981.263 674.793 980.333 672.11C980.003 671.158 980.15 670.358 980.3 669.549C980.44 668.789 980.581 668.021 980.333 667.11C979.404 663.705 975.735 665.013 971.88 666.387C968.043 667.755 964.022 669.188 962.333 666.11C961.011 663.701 962.933 661.043 964.703 658.595C966.564 656.022 968.256 653.681 965.833 652.11C964.769 651.42 963.75 651.456 962.701 651.493C961.785 651.526 960.845 651.559 959.833 651.11C955.884 649.357 955.056 645.962 954.113 642.095C953.759 640.645 953.389 639.129 952.833 637.608C948.511 625.8 951.91 616.445 955.521 606.504C958.254 598.981 961.109 591.122 960.833 581.61C960.794 580.293 960.784 579.11 960.775 577.998C960.745 574.483 960.721 571.678 959.833 567.61C954.232 541.946 904.333 529.61 904.333 529.61C904.333 529.61 903.928 542.421 903.333 550.61C902.005 568.871 895.644 578.878 897.333 597.11C897.715 601.234 897.671 603.634 898.833 607.61C900.871 614.585 907.378 616.406 908.333 623.61C909.117 629.531 905.198 632.637 905.333 638.608C905.464 644.432 908.833 653.108 908.833 653.108ZM1102.83 438.11C1100.34 437.884 1050.33 485.61 1053.83 489.61C1057.45 493.749 1064.4 489.975 1068.33 485.61C1068.63 485.278 1068.82 484.974 1069.01 484.676C1069.23 484.322 1069.45 483.977 1069.83 483.61C1072.26 481.275 1075.01 481.543 1078.33 482.11C1079.21 482.259 1079.9 482.798 1080.54 483.305C1081.43 484 1082.23 484.632 1083.33 484.11C1083.91 483.836 1084.13 483.349 1084.36 482.857C1084.57 482.383 1084.79 481.905 1085.33 481.61C1086.7 480.859 1088.17 480.572 1089.33 481.61C1089.72 481.955 1089.84 482.333 1089.97 482.741C1090.06 483.017 1090.15 483.307 1090.33 483.61C1095.46 492.062 1115.33 479.61 1115.33 479.61C1115.33 479.61 1130.33 479.919 1130.33 473.61C1130.33 462.11 1108.33 438.608 1102.83 438.11Z" fill="#F6958E"/>
<defs>
<linearGradient id="paint0_linear_1372_1033" x1="1246" y1="355" x2="1.00001" y2="355" gradientUnits="userSpaceOnUse">
<stop stop-color="#DFB6F6"/>
<stop offset="0.505208" stop-color="#DFB6F6"/>
<stop offset="1" stop-color="#BBE9F6"/>
</linearGradient>
</defs>
</svg>
