<svg width="18" height="8" viewBox="0 0 18 8" fill="none" xmlns="http://www.w3.org/2000/svg">
<path d="M9 7C10.6569 7 12 5.65685 12 4C12 2.34315 10.6569 1 9 1C7.34315 1 6 2.34315 6 4C6 5.65685 7.34315 7 9 7Z" stroke="#000080" stroke-width="1.5" stroke-linecap="round" stroke-linejoin="round"/>
<path d="M1 3C0.447715 3 4.82823e-08 3.44772 0 4C-4.82823e-08 4.55228 0.447715 5 1 5L1 3ZM1 5L6 5L6 3L1 3L1 5Z" fill="#000080"/>
<path d="M13 3H12V5H13V3ZM17 5C17.5523 5 18 4.55228 18 4C18 3.44772 17.5523 3 17 3V5ZM13 5H17V3H13V5Z" fill="#000080"/>
</svg>
