<svg width="16" height="16" viewBox="0 0 16 16" fill="none" xmlns="http://www.w3.org/2000/svg">
<path d="M12.6654 10.6667V4.33333C12.6654 3.6 12.0654 3 11.332 3H8.33203" stroke="#000080" stroke-width="1.5" stroke-linecap="round" stroke-linejoin="round"/>
<path d="M10 1.33337L8 3.00004L10 4.66671" stroke="#000080" stroke-width="1.5" stroke-linecap="round" stroke-linejoin="round"/>
<path d="M3.33203 6V10.6667" stroke="#000080" stroke-width="1.5" stroke-linecap="round" stroke-linejoin="round"/>
<path d="M3.4987 5.66671C4.69531 5.66671 5.66536 4.69666 5.66536 3.50004C5.66536 2.30342 4.69531 1.33337 3.4987 1.33337C2.30208 1.33337 1.33203 2.30342 1.33203 3.50004C1.33203 4.69666 2.30208 5.66671 3.4987 5.66671Z" stroke="#000080" stroke-width="1.5" stroke-linecap="round" stroke-linejoin="round"/>
<path d="M3.33203 14.6666C4.4366 14.6666 5.33203 13.7712 5.33203 12.6666C5.33203 11.5621 4.4366 10.6666 3.33203 10.6666C2.22746 10.6666 1.33203 11.5621 1.33203 12.6666C1.33203 13.7712 2.22746 14.6666 3.33203 14.6666Z" stroke="#000080" stroke-width="1.5" stroke-linecap="round" stroke-linejoin="round"/>
<path d="M12.668 14.6666C13.7725 14.6666 14.668 13.7712 14.668 12.6666C14.668 11.5621 13.7725 10.6666 12.668 10.6666C11.5634 10.6666 10.668 11.5621 10.668 12.6666C10.668 13.7712 11.5634 14.6666 12.668 14.6666Z" stroke="#000080" stroke-width="1.5" stroke-linecap="round" stroke-linejoin="round"/>
</svg>
