<svg width="101" height="46" viewBox="0 0 101 46" fill="none" xmlns="http://www.w3.org/2000/svg">
<path d="M0.944 0.199997H11.184L17.2 42.696H17.968L23.984 0.199997H34.224V45H29.232V2.504H28.464L22.448 45H12.72L6.704 2.504H5.936V45H0.944V0.199997ZM40.8355 40.008H44.6755V5.192H40.8355V0.199997H58.9475C61.0808 0.199997 62.9582 0.498664 64.5795 1.096C66.2435 1.69333 67.6302 2.504 68.7395 3.528C69.8915 4.552 70.7448 5.78933 71.2995 7.24C71.8968 8.648 72.1955 10.184 72.1955 11.848V12.616C72.1955 13.8533 72.0035 14.984 71.6195 16.008C71.2355 17.032 70.7022 17.9493 70.0195 18.76C69.3368 19.5707 68.5262 20.2747 67.5875 20.872C66.6915 21.4267 65.7102 21.8533 64.6435 22.152V22.92C66.7768 23.5173 68.5688 24.6693 70.0195 26.376C71.4702 28.04 72.1955 30.088 72.1955 32.52V33.288C72.1955 34.952 71.8968 36.5093 71.2995 37.96C70.7448 39.368 69.8915 40.6053 68.7395 41.672C67.6302 42.696 66.2435 43.5067 64.5795 44.104C62.9582 44.7013 61.0808 45 58.9475 45H40.8355V40.008ZM50.0515 40.008H58.5635C61.0808 40.008 63.1288 39.3893 64.7075 38.152C66.2862 36.872 67.0755 35.1227 67.0755 32.904V32.52C67.0755 30.216 66.3288 28.4027 64.8355 27.08C63.3422 25.7147 61.3155 25.032 58.7555 25.032H50.0515V40.008ZM50.0515 20.04H58.7555C61.3155 20.04 63.3422 19.3787 64.8355 18.056C66.3288 16.7333 67.0755 14.92 67.0755 12.616V12.232C67.0755 10.056 66.2862 8.34933 64.7075 7.112C63.1288 5.832 61.0808 5.192 58.5635 5.192H50.0515V20.04ZM91.479 41.416C91.479 40.1787 91.9057 39.1333 92.759 38.28C93.655 37.384 94.7217 36.936 95.959 36.936C97.1963 36.936 98.2417 37.384 99.095 38.28C99.991 39.1333 100.439 40.1787 100.439 41.416C100.439 42.6533 99.991 43.72 99.095 44.616C98.2417 45.4693 97.1963 45.896 95.959 45.896C94.7217 45.896 93.655 45.4693 92.759 44.616C91.9057 43.72 91.479 42.6533 91.479 41.416Z" fill="#FBFFFC"/>
</svg>
