<svg width="351" height="182" viewBox="0 0 351 182" fill="none" xmlns="http://www.w3.org/2000/svg">
<path d="M268.352 31.7646L260.039 46.1623" stroke="#292D32" stroke-width="2" stroke-miterlimit="10" stroke-linecap="round" stroke-linejoin="round"/>
<path d="M306.746 53.9316L298.434 68.3293" stroke="#292D32" stroke-width="2" stroke-miterlimit="10" stroke-linecap="round" stroke-linejoin="round"/>
<path fill-rule="evenodd" clip-rule="evenodd" d="M239.205 112.075L245.487 115.702C245.966 115.979 246.577 115.815 246.853 115.336C247.129 114.858 246.966 114.247 246.487 113.97L239.205 109.766L239.205 112.075Z" fill="#292D32"/>
<path fill-rule="evenodd" clip-rule="evenodd" d="M239.205 86.4797L270.969 104.819C271.447 105.095 272.059 104.931 272.335 104.453C272.611 103.974 272.447 103.363 271.969 103.086L239.205 84.1703L239.205 86.4797Z" fill="#292D32"/>
<path fill-rule="evenodd" clip-rule="evenodd" d="M264.696 38.0984C264.68 38.0889 264.663 38.0799 264.646 38.0713C256.319 33.8771 249.012 32.0077 242.062 34.2672C239.976 34.9453 237.947 35.9873 235.952 37.4223C236.274 38.0138 236.586 38.6113 236.889 39.2146C238.811 37.7987 240.734 36.8019 242.68 36.1692C248.859 34.1605 255.552 35.7335 263.721 39.8447L302.067 61.9836C309.724 66.9783 314.432 71.9875 315.779 78.3483C317.132 84.7412 315.153 92.7876 308.679 104L291.556 133.66C285.855 143.534 280.528 149.958 273.843 152.345C267.211 154.713 258.92 153.208 247.003 146.328L218.207 129.703C216.991 129 215.841 128.303 214.757 127.609C214.126 128 213.487 128.38 212.841 128.749C214.199 129.643 215.654 130.538 217.207 131.435L246.003 148.06C258.082 155.034 267.042 156.898 274.516 154.229C281.938 151.578 287.573 144.559 293.288 134.66L310.412 105C316.961 93.657 319.245 85.0641 317.736 77.9341C316.221 70.7782 310.948 65.3845 303.136 60.2933C303.121 60.2835 303.106 60.2741 303.09 60.2651L264.696 38.0984Z" fill="#292D32"/>
<path d="M43.9355 53.9316L52.248 68.3293" stroke="#292D32" stroke-width="2" stroke-miterlimit="10" stroke-linecap="round" stroke-linejoin="round"/>
<path d="M82.3301 31.7646L90.6426 46.1623" stroke="#292D32" stroke-width="2" stroke-miterlimit="10" stroke-linecap="round" stroke-linejoin="round"/>
<path d="M69.6152 109.494L108.009 87.3275" stroke="#292D32" stroke-width="2" stroke-miterlimit="10" stroke-linecap="round" stroke-linejoin="round"/>
<path d="M80.6992 128.691L104.695 114.837" stroke="#292D32" stroke-width="2" stroke-miterlimit="10" stroke-linecap="round" stroke-linejoin="round"/>
<path fill-rule="evenodd" clip-rule="evenodd" d="M47.591 60.2643C47.5745 60.2738 47.5583 60.2838 47.5424 60.2942C39.7466 65.4084 34.4743 70.8017 32.9558 77.9506C31.4426 85.0749 33.7202 93.6562 40.2694 105L57.3932 134.659C63.1083 144.558 68.7428 151.577 76.1648 154.228C83.6394 156.897 92.5994 155.033 104.678 148.059L133.278 131.547C132.685 131.126 132.1 130.693 131.523 130.251L103.678 146.327C91.7611 153.207 83.4695 154.713 76.8374 152.344C70.1529 149.957 64.826 143.533 59.1252 133.659L42.0015 104C35.5278 92.7869 33.5557 84.7528 34.9122 78.3662C36.2621 72.0107 40.9706 67.0014 48.6157 61.982L86.9613 39.8432C95.1157 35.7088 101.808 34.136 107.99 36.1502C110.815 37.0709 113.592 38.7594 116.39 41.3816C116.737 40.7971 117.094 40.219 117.461 39.6475C114.582 37.0114 111.657 35.2415 108.609 34.2486C101.655 31.9826 94.3471 33.8524 86.0322 38.0719C86.0162 38.08 86.0003 38.0886 85.9847 38.0976L47.591 60.2643Z" fill="#292D32"/>
<path d="M153.791 87.583H181.499" stroke="#292D32" stroke-width="2" stroke-miterlimit="10" stroke-linecap="round" stroke-linejoin="round"/>
<path d="M153.791 43.0283L133.01 22.2471" stroke="#292D32" stroke-width="2" stroke-miterlimit="10" stroke-linecap="round" stroke-linejoin="round"/>
<path d="M153.57 22.4688L132.789 43.25" stroke="#292D32" stroke-width="2" stroke-miterlimit="10" stroke-linecap="round" stroke-linejoin="round"/>
<path d="M153.791 65.417H198.124" stroke="#292D32" stroke-width="2" stroke-miterlimit="10" stroke-linecap="round" stroke-linejoin="round"/>
<path d="M170.416 21.083H203.666C222.12 22.0805 231.374 28.8968 231.374 54.2776V98.6663" stroke="#292D32" stroke-width="2" stroke-miterlimit="10" stroke-linecap="round" stroke-linejoin="round"/>
<path d="M131.625 59.9307V98.5561C131.625 120.778 137.167 131.917 164.875 131.917H181.5C182.442 131.917 197.238 131.917 198.125 131.917" stroke="#292D32" stroke-width="2" stroke-miterlimit="10" stroke-linecap="round" stroke-linejoin="round"/>
<path d="M231.375 98.667L198.125 131.917V115.292C198.125 104.209 203.667 98.667 214.75 98.667H231.375Z" stroke="#292D32" stroke-width="2" stroke-linecap="round" stroke-linejoin="round"/>
</svg>
