<svg width="343" height="195" viewBox="0 0 343 195" fill="none" xmlns="http://www.w3.org/2000/svg">
<rect width="343" height="195" fill="url(#paint0_linear_611_622)"/>
<path d="M90.0781 108.969C90.0781 113.031 89.0938 116.562 87.125 119.562C85.1562 122.562 82.2812 124.875 78.5 126.5C74.75 128.125 70.1875 128.938 64.8125 128.938C62.4375 128.938 60.1094 128.781 57.8281 128.469C55.5781 128.156 53.4062 127.703 51.3125 127.109C49.25 126.484 47.2812 125.719 45.4062 124.812V111.312C48.6562 112.75 52.0312 114.047 55.5312 115.203C59.0312 116.359 62.5 116.938 65.9375 116.938C68.3125 116.938 70.2188 116.625 71.6562 116C73.125 115.375 74.1875 114.516 74.8438 113.422C75.5 112.328 75.8281 111.078 75.8281 109.672C75.8281 107.953 75.25 106.484 74.0938 105.266C72.9375 104.047 71.3438 102.906 69.3125 101.844C67.3125 100.781 65.0469 99.6406 62.5156 98.4219C60.9219 97.6719 59.1875 96.7656 57.3125 95.7031C55.4375 94.6094 53.6562 93.2812 51.9688 91.7188C50.2812 90.1562 48.8906 88.2656 47.7969 86.0469C46.7344 83.7969 46.2031 81.1094 46.2031 77.9844C46.2031 73.8906 47.1406 70.3906 49.0156 67.4844C50.8906 64.5781 53.5625 62.3594 57.0312 60.8281C60.5312 59.2656 64.6562 58.4844 69.4062 58.4844C72.9688 58.4844 76.3594 58.9062 79.5781 59.75C82.8281 60.5625 86.2188 61.75 89.75 63.3125L85.0625 74.6094C81.9062 73.3281 79.0781 72.3438 76.5781 71.6562C74.0781 70.9375 71.5312 70.5781 68.9375 70.5781C67.125 70.5781 65.5781 70.875 64.2969 71.4688C63.0156 72.0312 62.0469 72.8438 61.3906 73.9062C60.7344 74.9375 60.4062 76.1406 60.4062 77.5156C60.4062 79.1406 60.875 80.5156 61.8125 81.6406C62.7812 82.7344 64.2188 83.7969 66.125 84.8281C68.0625 85.8594 70.4688 87.0625 73.3438 88.4375C76.8438 90.0938 79.8281 91.8281 82.2969 93.6406C84.7969 95.4219 86.7188 97.5312 88.0625 99.9688C89.4062 102.375 90.0781 105.375 90.0781 108.969Z" fill="#5D60EF"/>
<path d="M215.078 108.969C215.078 113.031 214.094 116.562 212.125 119.562C210.156 122.562 207.281 124.875 203.5 126.5C199.75 128.125 195.188 128.938 189.812 128.938C187.438 128.938 185.109 128.781 182.828 128.469C180.578 128.156 178.406 127.703 176.312 127.109C174.25 126.484 172.281 125.719 170.406 124.812V111.312C173.656 112.75 177.031 114.047 180.531 115.203C184.031 116.359 187.5 116.938 190.938 116.938C193.312 116.938 195.219 116.625 196.656 116C198.125 115.375 199.188 114.516 199.844 113.422C200.5 112.328 200.828 111.078 200.828 109.672C200.828 107.953 200.25 106.484 199.094 105.266C197.938 104.047 196.344 102.906 194.312 101.844C192.312 100.781 190.047 99.6406 187.516 98.4219C185.922 97.6719 184.188 96.7656 182.312 95.7031C180.438 94.6094 178.656 93.2812 176.969 91.7188C175.281 90.1562 173.891 88.2656 172.797 86.0469C171.734 83.7969 171.203 81.1094 171.203 77.9844C171.203 73.8906 172.141 70.3906 174.016 67.4844C175.891 64.5781 178.562 62.3594 182.031 60.8281C185.531 59.2656 189.656 58.4844 194.406 58.4844C197.969 58.4844 201.359 58.9062 204.578 59.75C207.828 60.5625 211.219 61.75 214.75 63.3125L210.062 74.6094C206.906 73.3281 204.078 72.3438 201.578 71.6562C199.078 70.9375 196.531 70.5781 193.938 70.5781C192.125 70.5781 190.578 70.875 189.297 71.4688C188.016 72.0312 187.047 72.8438 186.391 73.9062C185.734 74.9375 185.406 76.1406 185.406 77.5156C185.406 79.1406 185.875 80.5156 186.812 81.6406C187.781 82.7344 189.219 83.7969 191.125 84.8281C193.062 85.8594 195.469 87.0625 198.344 88.4375C201.844 90.0938 204.828 91.8281 207.297 93.6406C209.797 95.4219 211.719 97.5312 213.062 99.9688C214.406 102.375 215.078 105.375 215.078 108.969Z" fill="#5D60EF"/>
<path d="M273.078 108.969C273.078 113.031 272.094 116.562 270.125 119.562C268.156 122.562 265.281 124.875 261.5 126.5C257.75 128.125 253.188 128.938 247.812 128.938C245.438 128.938 243.109 128.781 240.828 128.469C238.578 128.156 236.406 127.703 234.312 127.109C232.25 126.484 230.281 125.719 228.406 124.812V111.312C231.656 112.75 235.031 114.047 238.531 115.203C242.031 116.359 245.5 116.938 248.938 116.938C251.312 116.938 253.219 116.625 254.656 116C256.125 115.375 257.188 114.516 257.844 113.422C258.5 112.328 258.828 111.078 258.828 109.672C258.828 107.953 258.25 106.484 257.094 105.266C255.938 104.047 254.344 102.906 252.312 101.844C250.312 100.781 248.047 99.6406 245.516 98.4219C243.922 97.6719 242.188 96.7656 240.312 95.7031C238.438 94.6094 236.656 93.2812 234.969 91.7188C233.281 90.1562 231.891 88.2656 230.797 86.0469C229.734 83.7969 229.203 81.1094 229.203 77.9844C229.203 73.8906 230.141 70.3906 232.016 67.4844C233.891 64.5781 236.562 62.3594 240.031 60.8281C243.531 59.2656 247.656 58.4844 252.406 58.4844C255.969 58.4844 259.359 58.9062 262.578 59.75C265.828 60.5625 269.219 61.75 272.75 63.3125L268.062 74.6094C264.906 73.3281 262.078 72.3438 259.578 71.6562C257.078 70.9375 254.531 70.5781 251.938 70.5781C250.125 70.5781 248.578 70.875 247.297 71.4688C246.016 72.0312 245.047 72.8438 244.391 73.9062C243.734 74.9375 243.406 76.1406 243.406 77.5156C243.406 79.1406 243.875 80.5156 244.812 81.6406C245.781 82.7344 247.219 83.7969 249.125 84.8281C251.062 85.8594 253.469 87.0625 256.344 88.4375C259.844 90.0938 262.828 91.8281 265.297 93.6406C267.797 95.4219 269.719 97.5312 271.062 99.9688C272.406 102.375 273.078 105.375 273.078 108.969Z" fill="#5D60EF"/>
<path d="M149.578 128L144.609 111.688H119.625L114.656 128H99L123.188 59.1875H140.953L165.234 128H149.578ZM141.141 99.5L136.172 83.5625C135.859 82.5 135.438 81.1406 134.906 79.4844C134.406 77.7969 133.891 76.0938 133.359 74.375C132.859 72.625 132.453 71.1094 132.141 69.8281C131.828 71.1094 131.391 72.7031 130.828 74.6094C130.297 76.4844 129.781 78.2656 129.281 79.9531C128.781 81.6406 128.422 82.8438 128.203 83.5625L123.281 99.5H141.141Z" fill="#5D60EF"/>
<line x1="41" y1="64" x2="56" y2="64" stroke="#5D60EF" stroke-width="2" stroke-linecap="round"/>
<line x1="48" y1="68" x2="65" y2="68" stroke="#5D60EF" stroke-width="2" stroke-linecap="round"/>
<line x1="41" y1="72" x2="58" y2="72" stroke="#5D60EF" stroke-width="2" stroke-linecap="round"/>
<line x1="41" y1="76" x2="58" y2="76" stroke="#5D60EF" stroke-width="2" stroke-linecap="round"/>
<line x1="41" y1="60" x2="58" y2="60" stroke="#5D60EF" stroke-width="2" stroke-linecap="round"/>
<line x1="61" y1="64" x2="65" y2="64" stroke="#5D60EF" stroke-width="2" stroke-linecap="round"/>
<line x1="41" y1="68" x2="45" y2="68" stroke="#5D60EF" stroke-width="2" stroke-linecap="round"/>
<line x1="61" y1="72" x2="65" y2="72" stroke="#5D60EF" stroke-width="2" stroke-linecap="round"/>
<line x1="41" y1="80" x2="45" y2="80" stroke="#5D60EF" stroke-width="2" stroke-linecap="round"/>
<line x1="48" y1="80" x2="52" y2="80" stroke="#5D60EF" stroke-width="2" stroke-linecap="round"/>
<circle cx="2.45" cy="2.45" r="2.45" transform="matrix(1 0 0 -1 74 125.9)" fill="#5D60EF"/>
<line y1="-1" x2="40.0167" y2="-1" transform="matrix(0 1 1 0 77.2666 123.45)" stroke="#5D60EF" stroke-width="2"/>
<line y1="-1" x2="56.35" y2="-1" transform="matrix(1 0 0 -1 76.4502 161.833)" stroke="#5D60EF" stroke-width="2"/>
<line x1="1" y1="-1" x2="7.16667" y2="-1" transform="matrix(1 -8.74228e-08 -8.74228e-08 -1 141.783 161.833)" stroke="#5D60EF" stroke-width="2" stroke-linecap="round"/>
<rect x="1" y="-1" width="51.9" height="12.7" rx="6.35" transform="matrix(1 0 0 -1 131.983 168)" stroke="#5D60EF" stroke-width="2"/>
<line x1="253" y1="119.779" x2="268" y2="119.779" stroke="#5D60EF" stroke-width="2" stroke-linecap="round"/>
<line x1="260" y1="123.779" x2="277" y2="123.779" stroke="#5D60EF" stroke-width="2" stroke-linecap="round"/>
<line x1="253" y1="127.779" x2="270" y2="127.779" stroke="#5D60EF" stroke-width="2" stroke-linecap="round"/>
<line x1="253" y1="131.779" x2="270" y2="131.779" stroke="#5D60EF" stroke-width="2" stroke-linecap="round"/>
<line x1="253" y1="115.779" x2="270" y2="115.779" stroke="#5D60EF" stroke-width="2" stroke-linecap="round"/>
<line x1="273" y1="119.779" x2="277" y2="119.779" stroke="#5D60EF" stroke-width="2" stroke-linecap="round"/>
<line x1="253" y1="123.779" x2="257" y2="123.779" stroke="#5D60EF" stroke-width="2" stroke-linecap="round"/>
<line x1="273" y1="127.779" x2="277" y2="127.779" stroke="#5D60EF" stroke-width="2" stroke-linecap="round"/>
<line x1="253" y1="135.779" x2="257" y2="135.779" stroke="#5D60EF" stroke-width="2" stroke-linecap="round"/>
<line x1="260" y1="135.779" x2="264" y2="135.779" stroke="#5D60EF" stroke-width="2" stroke-linecap="round"/>
<path d="M276.513 107.544L279.311 96.3139C279.713 94.6976 281.8 94.2531 282.826 95.5648L291.602 106.777C292.628 108.089 291.696 110.007 290.03 110.01L278.456 110.028C277.155 110.03 276.198 108.807 276.513 107.544Z" stroke="#5D60EF" stroke-width="2"/>
<path fill-rule="evenodd" clip-rule="evenodd" d="M281.148 93.7793H247C245.343 93.7793 244 95.1225 244 96.7793V152.779C244 154.436 245.343 155.779 247 155.779H290C291.657 155.779 293 154.436 293 152.779V108.922L291 106.367V152.779C291 153.332 290.552 153.779 290 153.779H247C246.448 153.779 246 153.332 246 152.779V96.7793C246 96.227 246.448 95.7793 247 95.7793H282.713L281.148 93.7793Z" fill="#5D60EF"/>
<circle cx="121" cy="78" r="3" fill="#5D60EF"/>
<circle cx="296" cy="30" r="3" fill="#5D60EF"/>
<line x1="121" y1="78" x2="121" y2="29" stroke="#5D60EF" stroke-width="2"/>
<line x1="121" y1="30" x2="296" y2="30" stroke="#5D60EF" stroke-width="2"/>
<line x1="122" y1="52" x2="156" y2="52" stroke="#5D60EF" stroke-width="2" stroke-linecap="round"/>
<circle cx="134" cy="41" r="7" stroke="#5D60EF" stroke-width="2"/>
<circle cx="152" cy="41" r="7" stroke="#5D60EF" stroke-width="2"/>
<circle cx="171" cy="41" r="7" stroke="#5D60EF" stroke-width="2"/>
<path d="M207.964 78.7771L208.59 77.2861C209.129 77.4955 209.618 77.6032 210.056 77.6092C210.491 77.6224 210.871 77.515 211.196 77.2869C211.524 77.0691 211.791 76.7152 211.997 76.2254L213.372 72.9516C213.689 72.1952 214.134 71.6703 214.707 71.3768C215.286 71.0863 215.997 71.0375 216.84 71.2303L216.894 71.1007C216.155 70.6209 215.69 70.0739 215.499 69.4598C215.315 68.8487 215.38 68.1686 215.695 67.4195L217.074 64.1348C217.283 63.6378 217.355 63.1936 217.29 62.8022C217.226 62.4107 217.037 62.0644 216.723 61.763C216.412 61.4545 215.987 61.1832 215.45 60.9491L216.067 59.4797C216.957 59.8619 217.67 60.3137 218.205 60.835C218.741 61.3563 219.07 61.9438 219.194 62.5974C219.328 63.2468 219.232 63.9604 218.905 64.7384L217.526 68.0231C217.308 68.5417 217.233 69.0018 217.302 69.4035C217.374 69.7979 217.577 70.1503 217.913 70.4607C218.256 70.7742 218.719 71.0534 219.303 71.2984L218.676 72.7895C218.093 72.5445 217.569 72.4093 217.105 72.384C216.649 72.3617 216.255 72.4631 215.923 72.6881C215.591 72.9132 215.319 73.2778 215.108 73.7821L213.701 77.1316C213.38 77.8951 212.933 78.457 212.358 78.8172C211.783 79.1774 211.122 79.3489 210.375 79.3318C209.625 79.322 208.821 79.1371 207.964 78.7771Z" fill="#5D60EF"/>
<defs>
<linearGradient id="paint0_linear_611_622" x1="343" y1="98" x2="-1.37132e-07" y2="98" gradientUnits="userSpaceOnUse">
<stop stop-color="#CECAFB"/>
<stop offset="1" stop-color="#FFAEC7"/>
</linearGradient>
</defs>
</svg>
