<svg width="24" height="24" viewBox="0 0 24 24" fill="none" xmlns="http://www.w3.org/2000/svg">
<path d="M2.29001 7.77998V17.51C2.29001 19.41 3.64001 20.19 5.28001 19.25L7.63001 17.91C8.14001 17.62 8.99001 17.59 9.52001 17.86L14.77 20.49C15.3 20.75 16.15 20.73 16.66 20.44L20.99 17.96C21.54 17.64 22 16.86 22 16.22V6.48998C22 4.58998 20.65 3.80998 19.01 4.74998L16.66 6.08998C16.15 6.37998 15.3 6.40998 14.77 6.13998L9.52001 3.51998C8.99001 3.25998 8.14001 3.27998 7.63001 3.56998L3.30001 6.04998C2.74001 6.36998 2.29001 7.14998 2.29001 7.77998Z" stroke="#ffffff" stroke-width="1.5" stroke-linecap="round" stroke-linejoin="round"/>
<path d="M8.56 4V17" stroke="#ffffff" stroke-width="1.5" stroke-linecap="round" stroke-linejoin="round"/>
<path d="M15.73 6.62012V20.0001" stroke="#ffffff" stroke-width="1.5" stroke-linecap="round" stroke-linejoin="round"/>
</svg>
