<svg width="262" height="145" viewBox="0 0 262 145" fill="none" xmlns="http://www.w3.org/2000/svg">
<path d="M50.0781 83.9688C50.0781 88.0312 49.0938 91.5625 47.125 94.5625C45.1562 97.5625 42.2812 99.875 38.5 101.5C34.75 103.125 30.1875 103.938 24.8125 103.938C22.4375 103.938 20.1094 103.781 17.8281 103.469C15.5781 103.156 13.4062 102.703 11.3125 102.109C9.25 101.484 7.28125 100.719 5.40625 99.8125V86.3125C8.65625 87.75 12.0312 89.0469 15.5312 90.2031C19.0312 91.3594 22.5 91.9375 25.9375 91.9375C28.3125 91.9375 30.2188 91.625 31.6562 91C33.125 90.375 34.1875 89.5156 34.8438 88.4219C35.5 87.3281 35.8281 86.0781 35.8281 84.6719C35.8281 82.9531 35.25 81.4844 34.0938 80.2656C32.9375 79.0469 31.3438 77.9062 29.3125 76.8438C27.3125 75.7812 25.0469 74.6406 22.5156 73.4219C20.9219 72.6719 19.1875 71.7656 17.3125 70.7031C15.4375 69.6094 13.6562 68.2812 11.9688 66.7188C10.2812 65.1562 8.89062 63.2656 7.79688 61.0469C6.73438 58.7969 6.20312 56.1094 6.20312 52.9844C6.20312 48.8906 7.14062 45.3906 9.01562 42.4844C10.8906 39.5781 13.5625 37.3594 17.0312 35.8281C20.5312 34.2656 24.6562 33.4844 29.4062 33.4844C32.9688 33.4844 36.3594 33.9062 39.5781 34.75C42.8281 35.5625 46.2188 36.75 49.75 38.3125L45.0625 49.6094C41.9062 48.3281 39.0781 47.3438 36.5781 46.6562C34.0781 45.9375 31.5312 45.5781 28.9375 45.5781C27.125 45.5781 25.5781 45.875 24.2969 46.4688C23.0156 47.0312 22.0469 47.8438 21.3906 48.9062C20.7344 49.9375 20.4062 51.1406 20.4062 52.5156C20.4062 54.1406 20.875 55.5156 21.8125 56.6406C22.7812 57.7344 24.2188 58.7969 26.125 59.8281C28.0625 60.8594 30.4688 62.0625 33.3438 63.4375C36.8438 65.0938 39.8281 66.8281 42.2969 68.6406C44.7969 70.4219 46.7188 72.5312 48.0625 74.9688C49.4062 77.375 50.0781 80.375 50.0781 83.9688Z" fill="#5D60EF"/>
<path d="M175.078 83.9688C175.078 88.0312 174.094 91.5625 172.125 94.5625C170.156 97.5625 167.281 99.875 163.5 101.5C159.75 103.125 155.188 103.938 149.812 103.938C147.438 103.938 145.109 103.781 142.828 103.469C140.578 103.156 138.406 102.703 136.312 102.109C134.25 101.484 132.281 100.719 130.406 99.8125V86.3125C133.656 87.75 137.031 89.0469 140.531 90.2031C144.031 91.3594 147.5 91.9375 150.938 91.9375C153.312 91.9375 155.219 91.625 156.656 91C158.125 90.375 159.188 89.5156 159.844 88.4219C160.5 87.3281 160.828 86.0781 160.828 84.6719C160.828 82.9531 160.25 81.4844 159.094 80.2656C157.938 79.0469 156.344 77.9062 154.312 76.8438C152.312 75.7812 150.047 74.6406 147.516 73.4219C145.922 72.6719 144.188 71.7656 142.312 70.7031C140.438 69.6094 138.656 68.2812 136.969 66.7188C135.281 65.1562 133.891 63.2656 132.797 61.0469C131.734 58.7969 131.203 56.1094 131.203 52.9844C131.203 48.8906 132.141 45.3906 134.016 42.4844C135.891 39.5781 138.562 37.3594 142.031 35.8281C145.531 34.2656 149.656 33.4844 154.406 33.4844C157.969 33.4844 161.359 33.9062 164.578 34.75C167.828 35.5625 171.219 36.75 174.75 38.3125L170.062 49.6094C166.906 48.3281 164.078 47.3438 161.578 46.6562C159.078 45.9375 156.531 45.5781 153.938 45.5781C152.125 45.5781 150.578 45.875 149.297 46.4688C148.016 47.0312 147.047 47.8438 146.391 48.9062C145.734 49.9375 145.406 51.1406 145.406 52.5156C145.406 54.1406 145.875 55.5156 146.812 56.6406C147.781 57.7344 149.219 58.7969 151.125 59.8281C153.062 60.8594 155.469 62.0625 158.344 63.4375C161.844 65.0938 164.828 66.8281 167.297 68.6406C169.797 70.4219 171.719 72.5312 173.062 74.9688C174.406 77.375 175.078 80.375 175.078 83.9688Z" fill="#5D60EF"/>
<path d="M233.078 83.9688C233.078 88.0312 232.094 91.5625 230.125 94.5625C228.156 97.5625 225.281 99.875 221.5 101.5C217.75 103.125 213.188 103.938 207.812 103.938C205.438 103.938 203.109 103.781 200.828 103.469C198.578 103.156 196.406 102.703 194.312 102.109C192.25 101.484 190.281 100.719 188.406 99.8125V86.3125C191.656 87.75 195.031 89.0469 198.531 90.2031C202.031 91.3594 205.5 91.9375 208.938 91.9375C211.312 91.9375 213.219 91.625 214.656 91C216.125 90.375 217.188 89.5156 217.844 88.4219C218.5 87.3281 218.828 86.0781 218.828 84.6719C218.828 82.9531 218.25 81.4844 217.094 80.2656C215.938 79.0469 214.344 77.9062 212.312 76.8438C210.312 75.7812 208.047 74.6406 205.516 73.4219C203.922 72.6719 202.188 71.7656 200.312 70.7031C198.438 69.6094 196.656 68.2812 194.969 66.7188C193.281 65.1562 191.891 63.2656 190.797 61.0469C189.734 58.7969 189.203 56.1094 189.203 52.9844C189.203 48.8906 190.141 45.3906 192.016 42.4844C193.891 39.5781 196.562 37.3594 200.031 35.8281C203.531 34.2656 207.656 33.4844 212.406 33.4844C215.969 33.4844 219.359 33.9062 222.578 34.75C225.828 35.5625 229.219 36.75 232.75 38.3125L228.062 49.6094C224.906 48.3281 222.078 47.3438 219.578 46.6562C217.078 45.9375 214.531 45.5781 211.938 45.5781C210.125 45.5781 208.578 45.875 207.297 46.4688C206.016 47.0312 205.047 47.8438 204.391 48.9062C203.734 49.9375 203.406 51.1406 203.406 52.5156C203.406 54.1406 203.875 55.5156 204.812 56.6406C205.781 57.7344 207.219 58.7969 209.125 59.8281C211.062 60.8594 213.469 62.0625 216.344 63.4375C219.844 65.0938 222.828 66.8281 225.297 68.6406C227.797 70.4219 229.719 72.5312 231.062 74.9688C232.406 77.375 233.078 80.375 233.078 83.9688Z" fill="#5D60EF"/>
<path d="M109.578 103L104.609 86.6875H79.625L74.6562 103H59L83.1875 34.1875H100.953L125.234 103H109.578ZM101.141 74.5L96.1719 58.5625C95.8594 57.5 95.4375 56.1406 94.9062 54.4844C94.4062 52.7969 93.8906 51.0938 93.3594 49.375C92.8594 47.625 92.4531 46.1094 92.1406 44.8281C91.8281 46.1094 91.3906 47.7031 90.8281 49.6094C90.2969 51.4844 89.7812 53.2656 89.2812 54.9531C88.7812 56.6406 88.4219 57.8438 88.2031 58.5625L83.2812 74.5H101.141Z" fill="#5D60EF"/>
<line x1="1" y1="39" x2="16" y2="39" stroke="black" stroke-width="2" stroke-linecap="round"/>
<line x1="8" y1="43" x2="25" y2="43" stroke="black" stroke-width="2" stroke-linecap="round"/>
<line x1="1" y1="47" x2="18" y2="47" stroke="black" stroke-width="2" stroke-linecap="round"/>
<line x1="1" y1="51" x2="18" y2="51" stroke="black" stroke-width="2" stroke-linecap="round"/>
<line x1="1" y1="35" x2="18" y2="35" stroke="black" stroke-width="2" stroke-linecap="round"/>
<line x1="21" y1="39" x2="25" y2="39" stroke="black" stroke-width="2" stroke-linecap="round"/>
<line x1="1" y1="43" x2="5" y2="43" stroke="black" stroke-width="2" stroke-linecap="round"/>
<line x1="21" y1="47" x2="25" y2="47" stroke="black" stroke-width="2" stroke-linecap="round"/>
<line x1="1" y1="55" x2="5" y2="55" stroke="black" stroke-width="2" stroke-linecap="round"/>
<line x1="8" y1="55" x2="12" y2="55" stroke="black" stroke-width="2" stroke-linecap="round"/>
<circle cx="2.45" cy="2.45" r="2.45" transform="matrix(1 0 0 -1 34 100.9)" fill="black"/>
<line y1="-1" x2="40.0167" y2="-1" transform="matrix(0 1 1 0 37.2666 98.45)" stroke="black" stroke-width="2"/>
<line y1="-1" x2="56.35" y2="-1" transform="matrix(1 0 0 -1 36.4502 136.833)" stroke="black" stroke-width="2"/>
<line x1="1" y1="-1" x2="7.16667" y2="-1" transform="matrix(1 -8.74228e-08 -8.74228e-08 -1 101.783 136.833)" stroke="black" stroke-width="2" stroke-linecap="round"/>
<rect x="1" y="-1" width="51.9" height="12.7" rx="6.35" transform="matrix(1 0 0 -1 91.9834 143)" stroke="black" stroke-width="2"/>
<line x1="213" y1="94.7793" x2="228" y2="94.7793" stroke="black" stroke-width="2" stroke-linecap="round"/>
<line x1="220" y1="98.7793" x2="237" y2="98.7793" stroke="black" stroke-width="2" stroke-linecap="round"/>
<line x1="213" y1="102.779" x2="230" y2="102.779" stroke="black" stroke-width="2" stroke-linecap="round"/>
<line x1="213" y1="106.779" x2="230" y2="106.779" stroke="black" stroke-width="2" stroke-linecap="round"/>
<line x1="213" y1="90.7793" x2="230" y2="90.7793" stroke="black" stroke-width="2" stroke-linecap="round"/>
<line x1="233" y1="94.7793" x2="237" y2="94.7793" stroke="black" stroke-width="2" stroke-linecap="round"/>
<line x1="213" y1="98.7793" x2="217" y2="98.7793" stroke="black" stroke-width="2" stroke-linecap="round"/>
<line x1="233" y1="102.779" x2="237" y2="102.779" stroke="black" stroke-width="2" stroke-linecap="round"/>
<line x1="213" y1="110.779" x2="217" y2="110.779" stroke="black" stroke-width="2" stroke-linecap="round"/>
<line x1="220" y1="110.779" x2="224" y2="110.779" stroke="black" stroke-width="2" stroke-linecap="round"/>
<path d="M236.513 82.5442L239.311 71.3139C239.713 69.6976 241.8 69.2531 242.826 70.5648L251.602 81.777C252.628 83.0887 251.696 85.0071 250.03 85.0097L238.456 85.0277C237.155 85.0297 236.198 83.8073 236.513 82.5442Z" stroke="black" stroke-width="2"/>
<path fill-rule="evenodd" clip-rule="evenodd" d="M241.148 68.7793H207C205.343 68.7793 204 70.1224 204 71.7793V127.779C204 129.436 205.343 130.779 207 130.779H250C251.657 130.779 253 129.436 253 127.779V83.9219L251 81.3666V127.779C251 128.332 250.552 128.779 250 128.779H207C206.448 128.779 206 128.332 206 127.779V71.7793C206 71.227 206.448 70.7793 207 70.7793H242.713L241.148 68.7793Z" fill="black"/>
<circle cx="81" cy="53" r="3" fill="black"/>
<circle cx="256" cy="5" r="3" fill="black"/>
<line x1="81" y1="53" x2="81" y2="4" stroke="black" stroke-width="2"/>
<line x1="81" y1="5" x2="256" y2="5" stroke="black" stroke-width="2"/>
<line x1="82" y1="27" x2="116" y2="27" stroke="black" stroke-width="2" stroke-linecap="round"/>
<circle cx="94" cy="16" r="7" stroke="black" stroke-width="2"/>
<circle cx="112" cy="16" r="7" stroke="black" stroke-width="2"/>
<circle cx="131" cy="16" r="7" stroke="black" stroke-width="2"/>
<path d="M167.964 53.7771L168.59 52.2861C169.129 52.4955 169.618 52.6032 170.056 52.6092C170.491 52.6224 170.871 52.515 171.196 52.2869C171.524 52.0691 171.791 51.7152 171.997 51.2254L173.372 47.9515C173.689 47.1952 174.134 46.6703 174.707 46.3768C175.286 46.0863 175.997 46.0375 176.84 46.2303L176.894 46.1007C176.155 45.6209 175.69 45.0739 175.499 44.4598C175.315 43.8487 175.38 43.1686 175.695 42.4195L177.074 39.1348C177.283 38.6378 177.355 38.1935 177.29 37.8021C177.226 37.4107 177.037 37.0644 176.723 36.763C176.412 36.4545 175.987 36.1832 175.45 35.9491L176.067 34.4797C176.957 34.8619 177.67 35.3137 178.205 35.835C178.741 36.3563 179.07 36.9438 179.194 37.5973C179.328 38.2468 179.232 38.9604 178.905 39.7384L177.526 43.0231C177.308 43.5417 177.233 44.0018 177.302 44.4035C177.374 44.7979 177.577 45.1503 177.913 45.4607C178.256 45.7742 178.719 46.0534 179.303 46.2984L178.676 47.7895C178.093 47.5445 177.569 47.4093 177.105 47.384C176.649 47.3617 176.255 47.4631 175.923 47.6881C175.591 47.9132 175.319 48.2778 175.108 48.7821L173.701 52.1316C173.38 52.8951 172.933 53.457 172.358 53.8172C171.783 54.1774 171.122 54.3489 170.375 54.3318C169.625 54.322 168.821 54.1371 167.964 53.7771Z" fill="black"/>
</svg>
