<svg width="1280" height="720" viewBox="0 0 1280 720" fill="none" xmlns="http://www.w3.org/2000/svg">
<rect width="1280" height="720" fill="url(#paint0_linear_1445_1171)"/>
<g filter="url(#filter0_d_1445_1171)">
<path d="M382.745 336V317.663H368.436V336H360.508V293.88H368.436V310.799H382.745V293.88H390.672V336H382.745ZM407.332 303.258V324.592C407.332 326.375 407.665 327.729 408.331 328.652C408.997 329.555 410.007 330.006 411.36 330.006C412.671 330.006 413.928 329.469 415.131 328.395C416.356 327.299 417.645 325.827 418.998 323.979V303.258H426.861V336H420.062L419.868 331.166C419.181 332.004 418.483 332.767 417.774 333.454C417.065 334.142 416.291 334.732 415.453 335.227C414.637 335.699 413.734 336.064 412.746 336.322C411.779 336.602 410.705 336.741 409.524 336.741C407.848 336.741 406.376 336.473 405.108 335.936C403.862 335.377 402.82 334.593 401.983 333.583C401.145 332.573 400.511 331.37 400.081 329.974C399.673 328.556 399.469 326.977 399.469 325.236V303.258H407.332ZM460.247 336V313.699C460.247 312.883 460.225 312.174 460.182 311.572C460.139 310.949 460.053 310.434 459.925 310.025C459.796 309.617 459.602 309.316 459.344 309.123C459.108 308.908 458.775 308.801 458.345 308.801C457.679 308.801 457.024 309.252 456.38 310.154C455.735 311.057 455.005 312.593 454.188 314.763V336H447.453V313.699C447.453 312.883 447.431 312.174 447.388 311.572C447.345 310.949 447.26 310.434 447.131 310.025C447.002 309.617 446.808 309.316 446.551 309.123C446.293 308.908 445.949 308.801 445.519 308.801C444.961 308.801 444.338 309.252 443.65 310.154C442.963 311.057 442.2 312.593 441.362 314.763V336H434.562V303.258H440.395L440.524 308.027C440.997 307.061 441.469 306.233 441.942 305.546C442.415 304.858 442.92 304.3 443.457 303.87C443.994 303.419 444.563 303.097 445.165 302.903C445.788 302.71 446.486 302.613 447.26 302.613C449.086 302.613 450.471 303.097 451.417 304.063C452.384 305.009 452.931 306.33 453.06 308.027C453.576 307.061 454.081 306.233 454.575 305.546C455.091 304.858 455.617 304.3 456.154 303.87C456.713 303.419 457.303 303.097 457.927 302.903C458.571 302.71 459.28 302.613 460.053 302.613C462.438 302.613 464.2 303.451 465.339 305.127C466.477 306.781 467.047 309.241 467.047 312.507V336H460.247ZM495.276 336L495.082 331.714C494.395 332.444 493.675 333.121 492.923 333.744C492.171 334.346 491.344 334.872 490.442 335.323C489.539 335.774 488.551 336.118 487.477 336.354C486.424 336.612 485.264 336.741 483.997 336.741C482.321 336.741 480.849 336.494 479.581 336C478.314 335.506 477.25 334.818 476.391 333.938C475.532 333.057 474.876 331.993 474.425 330.747C473.996 329.501 473.781 328.126 473.781 326.622C473.781 325.075 474.103 323.646 474.747 322.336C475.414 321.025 476.413 319.897 477.745 318.952C479.098 318.007 480.774 317.266 482.772 316.729C484.791 316.191 487.155 315.923 489.862 315.923H494.148V313.957C494.148 313.119 494.03 312.367 493.793 311.701C493.557 311.014 493.17 310.434 492.633 309.961C492.118 309.488 491.441 309.123 490.603 308.865C489.765 308.607 488.734 308.479 487.509 308.479C485.576 308.479 483.664 308.704 481.773 309.155C479.904 309.585 478.088 310.197 476.327 310.992V304.708C477.895 304.085 479.7 303.569 481.741 303.161C483.803 302.753 485.941 302.549 488.154 302.549C490.581 302.549 492.665 302.785 494.406 303.258C496.146 303.709 497.575 304.396 498.692 305.32C499.831 306.244 500.668 307.404 501.206 308.801C501.743 310.176 502.011 311.787 502.011 313.635V336H495.276ZM494.148 321.53H489.346C488.014 321.53 486.886 321.659 485.962 321.917C485.039 322.175 484.287 322.529 483.706 322.98C483.126 323.432 482.697 323.958 482.417 324.56C482.16 325.14 482.031 325.763 482.031 326.429C482.031 327.761 482.46 328.781 483.32 329.49C484.179 330.178 485.35 330.521 486.832 330.521C487.928 330.521 489.067 330.124 490.248 329.329C491.43 328.534 492.73 327.396 494.148 325.913V321.53ZM531.884 336V314.666C531.884 311.078 530.552 309.284 527.888 309.284C526.556 309.284 525.277 309.821 524.053 310.896C522.85 311.97 521.571 313.431 520.218 315.278V336H512.355V303.258H519.154L519.348 308.092C520.014 307.254 520.701 306.491 521.41 305.804C522.141 305.116 522.925 304.536 523.763 304.063C524.601 303.569 525.503 303.193 526.47 302.936C527.437 302.678 528.522 302.549 529.725 302.549C531.401 302.549 532.861 302.828 534.108 303.387C535.354 303.924 536.396 304.697 537.234 305.707C538.071 306.695 538.694 307.898 539.103 309.316C539.532 310.713 539.747 312.281 539.747 314.021V336H531.884ZM608.484 336L602.554 322.465C601.996 321.176 601.211 320.209 600.202 319.564C599.213 318.898 598.042 318.565 596.689 318.565H595.174V336H587.247V293.88H599.525C601.845 293.88 603.951 294.084 605.841 294.492C607.732 294.879 609.343 295.534 610.675 296.458C612.007 297.382 613.028 298.585 613.737 300.067C614.467 301.55 614.833 303.365 614.833 305.514C614.833 307.061 614.607 308.436 614.156 309.639C613.705 310.842 613.071 311.884 612.254 312.765C611.438 313.624 610.46 314.322 609.322 314.859C608.205 315.396 606.98 315.772 605.648 315.987C606.679 316.202 607.625 316.793 608.484 317.76C609.343 318.705 610.203 320.08 611.062 321.885L617.797 336H608.484ZM606.518 306.287C606.518 304.225 605.863 302.742 604.552 301.84C603.242 300.938 601.276 300.486 598.655 300.486H595.174V312.378H598.397C599.622 312.378 600.728 312.249 601.716 311.991C602.726 311.733 603.585 311.347 604.294 310.831C605.003 310.315 605.551 309.682 605.938 308.93C606.325 308.156 606.518 307.275 606.518 306.287ZM653.696 317.115C653.696 317.652 653.675 318.351 653.632 319.21C653.611 320.069 653.568 320.875 653.503 321.627H631.976C631.976 323.066 632.191 324.334 632.62 325.43C633.071 326.525 633.694 327.449 634.489 328.201C635.306 328.932 636.273 329.49 637.39 329.877C638.528 330.264 639.785 330.457 641.16 330.457C642.75 330.457 644.447 330.339 646.252 330.103C648.078 329.845 649.969 329.437 651.924 328.878V335.13C651.086 335.366 650.173 335.581 649.185 335.774C648.196 335.968 647.187 336.14 646.155 336.29C645.124 336.44 644.082 336.548 643.029 336.612C641.977 336.698 640.956 336.741 639.968 336.741C637.476 336.741 635.241 336.387 633.265 335.678C631.288 334.969 629.612 333.927 628.237 332.552C626.862 331.155 625.81 329.437 625.079 327.396C624.349 325.354 623.984 322.991 623.984 320.306C623.984 317.642 624.349 315.225 625.079 313.055C625.81 310.863 626.841 308.994 628.173 307.447C629.505 305.879 631.116 304.676 633.007 303.838C634.919 302.979 637.046 302.549 639.388 302.549C641.708 302.549 643.76 302.914 645.543 303.645C647.326 304.354 648.819 305.353 650.023 306.642C651.226 307.931 652.139 309.467 652.762 311.25C653.385 313.033 653.696 314.988 653.696 317.115ZM645.704 315.987C645.726 314.698 645.565 313.581 645.221 312.636C644.877 311.669 644.404 310.874 643.803 310.251C643.223 309.628 642.535 309.166 641.74 308.865C640.967 308.564 640.129 308.414 639.227 308.414C637.25 308.414 635.628 309.08 634.361 310.412C633.093 311.723 632.341 313.581 632.105 315.987H645.704ZM689.789 326.364C689.789 328.233 689.37 329.834 688.532 331.166C687.716 332.477 686.62 333.551 685.245 334.389C683.891 335.205 682.345 335.796 680.604 336.161C678.886 336.548 677.124 336.741 675.319 336.741C672.913 336.741 670.743 336.623 668.809 336.387C666.876 336.172 665.05 335.85 663.331 335.42V328.33C665.35 329.168 667.359 329.78 669.357 330.167C671.377 330.532 673.278 330.715 675.061 330.715C677.124 330.715 678.66 330.393 679.67 329.748C680.701 329.082 681.217 328.223 681.217 327.17C681.217 326.676 681.109 326.225 680.894 325.816C680.68 325.408 680.271 325.021 679.67 324.656C679.09 324.27 678.263 323.883 677.188 323.496C676.114 323.088 674.707 322.637 672.967 322.143C671.355 321.691 669.937 321.187 668.713 320.628C667.51 320.048 666.511 319.371 665.716 318.598C664.921 317.824 664.319 316.933 663.911 315.923C663.524 314.892 663.331 313.688 663.331 312.313C663.331 310.981 663.632 309.725 664.233 308.543C664.835 307.361 665.726 306.33 666.908 305.449C668.111 304.547 669.604 303.838 671.388 303.322C673.171 302.807 675.255 302.549 677.639 302.549C679.702 302.549 681.528 302.656 683.118 302.871C684.708 303.086 686.115 303.322 687.34 303.58V309.993C685.471 309.392 683.709 308.973 682.055 308.736C680.422 308.479 678.8 308.35 677.188 308.35C675.577 308.35 674.277 308.64 673.289 309.22C672.322 309.8 671.839 310.605 671.839 311.637C671.839 312.131 671.935 312.571 672.129 312.958C672.322 313.345 672.698 313.721 673.257 314.086C673.837 314.451 674.632 314.838 675.641 315.246C676.673 315.633 678.026 316.062 679.702 316.535C681.593 317.072 683.182 317.652 684.472 318.275C685.761 318.877 686.792 319.564 687.565 320.338C688.36 321.111 688.93 321.992 689.273 322.98C689.617 323.969 689.789 325.097 689.789 326.364ZM729.877 319.371C729.877 321.949 729.512 324.312 728.782 326.461C728.051 328.588 726.999 330.414 725.624 331.939C724.249 333.465 722.562 334.646 720.564 335.484C718.566 336.322 716.289 336.741 713.732 336.741C711.304 336.741 709.134 336.387 707.222 335.678C705.31 334.969 703.688 333.916 702.356 332.52C701.024 331.102 700.003 329.34 699.294 327.234C698.585 325.107 698.231 322.637 698.231 319.822C698.231 317.223 698.596 314.859 699.327 312.732C700.079 310.605 701.142 308.79 702.517 307.286C703.914 305.782 705.611 304.622 707.609 303.806C709.607 302.968 711.863 302.549 714.376 302.549C716.826 302.549 719.006 302.914 720.918 303.645C722.831 304.354 724.453 305.417 725.785 306.835C727.117 308.253 728.126 310.015 728.814 312.12C729.523 314.204 729.877 316.621 729.877 319.371ZM721.692 319.564C721.692 316.17 721.047 313.624 719.758 311.927C718.491 310.208 716.611 309.349 714.119 309.349C712.744 309.349 711.573 309.617 710.606 310.154C709.639 310.691 708.844 311.433 708.221 312.378C707.598 313.302 707.136 314.387 706.835 315.633C706.556 316.879 706.417 318.211 706.417 319.629C706.417 323.045 707.104 325.623 708.479 327.363C709.854 329.082 711.734 329.941 714.119 329.941C715.429 329.941 716.568 329.684 717.535 329.168C718.501 328.631 719.286 327.9 719.887 326.977C720.489 326.031 720.94 324.925 721.241 323.657C721.542 322.39 721.692 321.025 721.692 319.564ZM745.796 303.258V324.592C745.796 326.375 746.129 327.729 746.795 328.652C747.461 329.555 748.471 330.006 749.824 330.006C751.135 330.006 752.392 329.469 753.595 328.395C754.82 327.299 756.109 325.827 757.462 323.979V303.258H765.325V336H758.526L758.332 331.166C757.645 332.004 756.947 332.767 756.238 333.454C755.529 334.142 754.755 334.732 753.917 335.227C753.101 335.699 752.198 336.064 751.21 336.322C750.243 336.602 749.169 336.741 747.988 336.741C746.312 336.741 744.84 336.473 743.572 335.936C742.326 335.377 741.284 334.593 740.447 333.583C739.609 332.573 738.975 331.37 738.545 329.974C738.137 328.556 737.933 326.977 737.933 325.236V303.258H745.796ZM796.681 315.987C796.724 314.763 796.659 313.721 796.487 312.861C796.337 312.002 796.079 311.293 795.714 310.734C795.37 310.176 794.94 309.768 794.425 309.51C793.909 309.252 793.318 309.123 792.652 309.123C791.492 309.123 790.289 309.606 789.043 310.573C787.818 311.519 786.465 313.087 784.982 315.278V336H776.926V303.258H784.048L784.338 308.027C784.875 307.189 785.476 306.438 786.142 305.771C786.83 305.105 787.582 304.536 788.398 304.063C789.236 303.569 790.16 303.193 791.17 302.936C792.18 302.678 793.286 302.549 794.489 302.549C796.143 302.549 797.604 302.839 798.872 303.419C800.161 303.978 801.235 304.815 802.095 305.933C802.975 307.05 803.62 308.457 804.028 310.154C804.458 311.83 804.641 313.774 804.576 315.987H796.681ZM839.702 334.743C838.155 335.366 836.554 335.828 834.9 336.129C833.246 336.43 831.516 336.58 829.711 336.58C827.112 336.58 824.781 336.226 822.718 335.517C820.656 334.808 818.905 333.755 817.465 332.358C816.026 330.962 814.919 329.232 814.146 327.17C813.394 325.107 813.018 322.723 813.018 320.016C813.018 317.395 813.426 315.021 814.243 312.894C815.081 310.767 816.252 308.951 817.755 307.447C819.259 305.943 821.064 304.783 823.169 303.967C825.296 303.15 827.66 302.742 830.259 302.742C832.386 302.742 834.169 302.86 835.609 303.097C837.07 303.312 838.38 303.591 839.541 303.935V311.572C838.209 310.906 836.758 310.391 835.19 310.025C833.643 309.66 832.171 309.478 830.775 309.478C829.314 309.478 828.003 309.725 826.843 310.219C825.683 310.713 824.706 311.4 823.911 312.281C823.116 313.162 822.503 314.236 822.074 315.504C821.666 316.75 821.461 318.125 821.461 319.629C821.461 321.197 821.687 322.604 822.138 323.851C822.589 325.097 823.223 326.16 824.04 327.041C824.878 327.9 825.877 328.566 827.037 329.039C828.197 329.49 829.486 329.716 830.904 329.716C831.591 329.716 832.311 329.673 833.063 329.587C833.836 329.479 834.599 329.34 835.351 329.168C836.125 328.975 836.877 328.76 837.607 328.523C838.359 328.287 839.057 328.029 839.702 327.75V334.743ZM879.339 317.115C879.339 317.652 879.318 318.351 879.275 319.21C879.253 320.069 879.21 320.875 879.146 321.627H857.618C857.618 323.066 857.833 324.334 858.263 325.43C858.714 326.525 859.337 327.449 860.132 328.201C860.948 328.932 861.915 329.49 863.032 329.877C864.171 330.264 865.428 330.457 866.803 330.457C868.393 330.457 870.09 330.339 871.895 330.103C873.721 329.845 875.612 329.437 877.567 328.878V335.13C876.729 335.366 875.816 335.581 874.827 335.774C873.839 335.968 872.829 336.14 871.798 336.29C870.767 336.44 869.725 336.548 868.672 336.612C867.619 336.698 866.599 336.741 865.611 336.741C863.118 336.741 860.884 336.387 858.907 335.678C856.931 334.969 855.255 333.927 853.88 332.552C852.505 331.155 851.452 329.437 850.722 327.396C849.991 325.354 849.626 322.991 849.626 320.306C849.626 317.642 849.991 315.225 850.722 313.055C851.452 310.863 852.484 308.994 853.816 307.447C855.148 305.879 856.759 304.676 858.65 303.838C860.562 302.979 862.689 302.549 865.031 302.549C867.351 302.549 869.403 302.914 871.186 303.645C872.969 304.354 874.462 305.353 875.665 306.642C876.868 307.931 877.781 309.467 878.405 311.25C879.028 313.033 879.339 314.988 879.339 317.115ZM871.347 315.987C871.368 314.698 871.207 313.581 870.864 312.636C870.52 311.669 870.047 310.874 869.446 310.251C868.865 309.628 868.178 309.166 867.383 308.865C866.61 308.564 865.772 308.414 864.869 308.414C862.893 308.414 861.271 309.08 860.003 310.412C858.736 311.723 857.984 313.581 857.747 315.987H871.347ZM915.432 326.364C915.432 328.233 915.013 329.834 914.175 331.166C913.358 332.477 912.263 333.551 910.888 334.389C909.534 335.205 907.987 335.796 906.247 336.161C904.528 336.548 902.766 336.741 900.962 336.741C898.556 336.741 896.386 336.623 894.452 336.387C892.518 336.172 890.692 335.85 888.974 335.42V328.33C890.993 329.168 893.002 329.78 895 330.167C897.019 330.532 898.921 330.715 900.704 330.715C902.766 330.715 904.303 330.393 905.312 329.748C906.344 329.082 906.859 328.223 906.859 327.17C906.859 326.676 906.752 326.225 906.537 325.816C906.322 325.408 905.914 325.021 905.312 324.656C904.732 324.27 903.905 323.883 902.831 323.496C901.757 323.088 900.349 322.637 898.609 322.143C896.998 321.691 895.58 321.187 894.355 320.628C893.152 320.048 892.153 319.371 891.358 318.598C890.563 317.824 889.962 316.933 889.554 315.923C889.167 314.892 888.974 313.688 888.974 312.313C888.974 310.981 889.274 309.725 889.876 308.543C890.477 307.361 891.369 306.33 892.551 305.449C893.754 304.547 895.247 303.838 897.03 303.322C898.813 302.807 900.897 302.549 903.282 302.549C905.345 302.549 907.171 302.656 908.761 302.871C910.35 303.086 911.758 303.322 912.982 303.58V309.993C911.113 309.392 909.351 308.973 907.697 308.736C906.064 308.479 904.442 308.35 902.831 308.35C901.22 308.35 899.92 308.64 898.932 309.22C897.965 309.8 897.481 310.605 897.481 311.637C897.481 312.131 897.578 312.571 897.771 312.958C897.965 313.345 898.341 313.721 898.899 314.086C899.479 314.451 900.274 314.838 901.284 315.246C902.315 315.633 903.669 316.062 905.345 316.535C907.235 317.072 908.825 317.652 910.114 318.275C911.403 318.877 912.434 319.564 913.208 320.338C914.003 321.111 914.572 321.992 914.916 322.98C915.26 323.969 915.432 325.097 915.432 326.364ZM310.285 413L307.965 404.686H293.269L290.885 413H283.021L295.493 370.88H306.579L319.051 413H310.285ZM300.714 378.614L295.171 398.208H306.192L300.714 378.614ZM335.549 373.587H326.3V367.464H343.606V406.877H353.048V413H325.172V406.877H335.549V373.587ZM373.156 373.587H363.907V367.464H381.213V406.877H390.656V413H362.78V406.877H373.156V373.587ZM429.681 396.371C429.681 398.949 429.315 401.312 428.585 403.461C427.854 405.588 426.802 407.414 425.427 408.939C424.052 410.465 422.365 411.646 420.367 412.484C418.369 413.322 416.092 413.741 413.535 413.741C411.107 413.741 408.937 413.387 407.025 412.678C405.113 411.969 403.491 410.916 402.159 409.52C400.827 408.102 399.807 406.34 399.098 404.234C398.389 402.107 398.034 399.637 398.034 396.822C398.034 394.223 398.399 391.859 399.13 389.732C399.882 387.605 400.945 385.79 402.32 384.286C403.717 382.782 405.414 381.622 407.412 380.806C409.41 379.968 411.666 379.549 414.18 379.549C416.629 379.549 418.809 379.914 420.722 380.645C422.634 381.354 424.256 382.417 425.588 383.835C426.92 385.253 427.93 387.015 428.617 389.12C429.326 391.204 429.681 393.621 429.681 396.371ZM421.495 396.564C421.495 393.17 420.851 390.624 419.561 388.927C418.294 387.208 416.414 386.349 413.922 386.349C412.547 386.349 411.376 386.617 410.409 387.154C409.442 387.691 408.647 388.433 408.024 389.378C407.401 390.302 406.939 391.387 406.639 392.633C406.359 393.879 406.22 395.211 406.22 396.629C406.22 400.045 406.907 402.623 408.282 404.363C409.657 406.082 411.537 406.941 413.922 406.941C415.232 406.941 416.371 406.684 417.338 406.168C418.305 405.631 419.089 404.9 419.69 403.977C420.292 403.031 420.743 401.925 421.044 400.657C421.345 399.39 421.495 398.025 421.495 396.564ZM464.291 411.743C462.744 412.366 461.143 412.828 459.489 413.129C457.835 413.43 456.105 413.58 454.3 413.58C451.701 413.58 449.37 413.226 447.307 412.517C445.245 411.808 443.494 410.755 442.054 409.358C440.615 407.962 439.508 406.232 438.735 404.17C437.983 402.107 437.607 399.723 437.607 397.016C437.607 394.395 438.015 392.021 438.832 389.894C439.67 387.767 440.84 385.951 442.344 384.447C443.848 382.943 445.653 381.783 447.758 380.967C449.885 380.15 452.249 379.742 454.848 379.742C456.975 379.742 458.758 379.86 460.198 380.097C461.659 380.312 462.969 380.591 464.129 380.935V388.572C462.797 387.906 461.347 387.391 459.779 387.025C458.232 386.66 456.76 386.478 455.364 386.478C453.903 386.478 452.592 386.725 451.432 387.219C450.272 387.713 449.295 388.4 448.5 389.281C447.705 390.162 447.092 391.236 446.663 392.504C446.254 393.75 446.05 395.125 446.05 396.629C446.05 398.197 446.276 399.604 446.727 400.851C447.178 402.097 447.812 403.16 448.629 404.041C449.466 404.9 450.465 405.566 451.626 406.039C452.786 406.49 454.075 406.716 455.493 406.716C456.18 406.716 456.9 406.673 457.652 406.587C458.425 406.479 459.188 406.34 459.94 406.168C460.713 405.975 461.465 405.76 462.196 405.523C462.948 405.287 463.646 405.029 464.291 404.75V411.743ZM495.936 413L495.742 408.714C495.055 409.444 494.335 410.121 493.583 410.744C492.831 411.346 492.004 411.872 491.102 412.323C490.199 412.774 489.211 413.118 488.137 413.354C487.084 413.612 485.924 413.741 484.657 413.741C482.981 413.741 481.509 413.494 480.241 413C478.974 412.506 477.91 411.818 477.051 410.938C476.192 410.057 475.536 408.993 475.085 407.747C474.656 406.501 474.441 405.126 474.441 403.622C474.441 402.075 474.763 400.646 475.408 399.336C476.074 398.025 477.073 396.897 478.405 395.952C479.758 395.007 481.434 394.266 483.432 393.729C485.451 393.191 487.815 392.923 490.522 392.923H494.808V390.957C494.808 390.119 494.69 389.367 494.453 388.701C494.217 388.014 493.83 387.434 493.293 386.961C492.778 386.488 492.101 386.123 491.263 385.865C490.425 385.607 489.394 385.479 488.169 385.479C486.236 385.479 484.324 385.704 482.433 386.155C480.564 386.585 478.748 387.197 476.987 387.992V381.708C478.555 381.085 480.36 380.569 482.401 380.161C484.463 379.753 486.601 379.549 488.814 379.549C491.241 379.549 493.325 379.785 495.066 380.258C496.806 380.709 498.235 381.396 499.352 382.32C500.491 383.244 501.328 384.404 501.866 385.801C502.403 387.176 502.671 388.787 502.671 390.635V413H495.936ZM494.808 398.53H490.006C488.674 398.53 487.546 398.659 486.622 398.917C485.699 399.175 484.947 399.529 484.366 399.98C483.786 400.432 483.357 400.958 483.077 401.56C482.82 402.14 482.691 402.763 482.691 403.429C482.691 404.761 483.12 405.781 483.98 406.49C484.839 407.178 486.01 407.521 487.492 407.521C488.588 407.521 489.727 407.124 490.908 406.329C492.09 405.534 493.39 404.396 494.808 402.913V398.53ZM540.02 412.678C538.602 413 537.174 413.258 535.734 413.451C534.295 413.645 532.931 413.741 531.642 413.741C529.493 413.741 527.635 413.516 526.066 413.064C524.519 412.613 523.23 411.926 522.199 411.002C521.189 410.078 520.437 408.907 519.943 407.489C519.471 406.05 519.234 404.342 519.234 402.365V386.381H510.436V380.258H519.234V371.879L527.291 369.784V380.258H540.02V386.381H527.291V401.785C527.291 403.654 527.721 405.072 528.58 406.039C529.439 406.984 530.879 407.457 532.898 407.457C534.187 407.457 535.444 407.35 536.669 407.135C537.894 406.92 539.011 406.673 540.02 406.394V412.678ZM569.893 371.299C569.893 372.008 569.764 372.674 569.506 373.297C569.249 373.92 568.883 374.468 568.411 374.94C567.96 375.392 567.422 375.757 566.799 376.036C566.176 376.294 565.5 376.423 564.769 376.423C564.039 376.423 563.351 376.294 562.707 376.036C562.084 375.757 561.536 375.392 561.063 374.94C560.612 374.468 560.257 373.92 560 373.297C559.742 372.674 559.613 372.008 559.613 371.299C559.613 370.59 559.742 369.924 560 369.301C560.257 368.678 560.612 368.13 561.063 367.657C561.536 367.185 562.084 366.819 562.707 366.562C563.351 366.282 564.039 366.143 564.769 366.143C565.5 366.143 566.176 366.282 566.799 366.562C567.422 366.819 567.96 367.185 568.411 367.657C568.883 368.13 569.249 368.678 569.506 369.301C569.764 369.924 569.893 370.59 569.893 371.299ZM561.192 386.381H551.943V380.258H569.249V406.877H578.691V413H550.815V406.877H561.192V386.381ZM617.716 396.371C617.716 398.949 617.351 401.312 616.62 403.461C615.89 405.588 614.837 407.414 613.462 408.939C612.087 410.465 610.401 411.646 608.403 412.484C606.405 413.322 604.127 413.741 601.571 413.741C599.143 413.741 596.973 413.387 595.061 412.678C593.149 411.969 591.527 410.916 590.195 409.52C588.863 408.102 587.842 406.34 587.133 404.234C586.424 402.107 586.07 399.637 586.07 396.822C586.07 394.223 586.435 391.859 587.165 389.732C587.917 387.605 588.981 385.79 590.356 384.286C591.752 382.782 593.45 381.622 595.448 380.806C597.446 379.968 599.701 379.549 602.215 379.549C604.664 379.549 606.845 379.914 608.757 380.645C610.669 381.354 612.291 382.417 613.623 383.835C614.955 385.253 615.965 387.015 616.653 389.12C617.362 391.204 617.716 393.621 617.716 396.371ZM609.531 396.564C609.531 393.17 608.886 390.624 607.597 388.927C606.329 387.208 604.45 386.349 601.957 386.349C600.582 386.349 599.411 386.617 598.445 387.154C597.478 387.691 596.683 388.433 596.06 389.378C595.437 390.302 594.975 391.387 594.674 392.633C594.395 393.879 594.255 395.211 594.255 396.629C594.255 400.045 594.943 402.623 596.318 404.363C597.693 406.082 599.573 406.941 601.957 406.941C603.268 406.941 604.407 406.684 605.373 406.168C606.34 405.631 607.124 404.9 607.726 403.977C608.327 403.031 608.779 401.925 609.079 400.657C609.38 399.39 609.531 398.025 609.531 396.564ZM645.365 413V391.666C645.365 388.078 644.033 386.284 641.369 386.284C640.037 386.284 638.759 386.821 637.534 387.896C636.331 388.97 635.053 390.431 633.699 392.278V413H625.836V380.258H632.636L632.829 385.092C633.495 384.254 634.183 383.491 634.892 382.804C635.622 382.116 636.406 381.536 637.244 381.063C638.082 380.569 638.984 380.193 639.951 379.936C640.918 379.678 642.003 379.549 643.206 379.549C644.882 379.549 646.343 379.828 647.589 380.387C648.835 380.924 649.877 381.697 650.715 382.707C651.553 383.695 652.176 384.898 652.584 386.316C653.014 387.713 653.229 389.281 653.229 391.021V413H645.365ZM729.442 400.271C729.442 402.569 729.012 404.567 728.153 406.265C727.315 407.962 726.133 409.369 724.608 410.486C723.082 411.582 721.267 412.398 719.161 412.936C717.056 413.473 714.757 413.741 712.265 413.741C710.052 413.741 707.914 413.612 705.852 413.354C703.789 413.097 701.748 412.667 699.729 412.065V404.234C700.717 404.578 701.748 404.9 702.823 405.201C703.897 405.502 704.971 405.771 706.045 406.007C707.141 406.222 708.226 406.394 709.3 406.522C710.374 406.651 711.416 406.716 712.426 406.716C713.93 406.716 715.208 406.587 716.261 406.329C717.314 406.071 718.173 405.717 718.839 405.266C719.505 404.814 719.989 404.277 720.289 403.654C720.59 403.031 720.741 402.344 720.741 401.592C720.741 400.561 720.44 399.701 719.838 399.014C719.258 398.305 718.485 397.682 717.518 397.145C716.551 396.607 715.445 396.124 714.199 395.694C712.974 395.265 711.717 394.803 710.428 394.309C709.16 393.814 707.904 393.256 706.658 392.633C705.433 392.01 704.337 391.236 703.37 390.312C702.404 389.389 701.619 388.293 701.018 387.025C700.438 385.736 700.148 384.189 700.148 382.385C700.148 380.73 700.449 379.162 701.05 377.68C701.652 376.197 702.597 374.908 703.886 373.812C705.175 372.695 706.829 371.814 708.849 371.17C710.868 370.504 713.307 370.171 716.164 370.171C717.002 370.171 717.872 370.214 718.775 370.3C719.699 370.364 720.601 370.461 721.482 370.59C722.384 370.697 723.243 370.837 724.06 371.009C724.898 371.159 725.66 371.32 726.348 371.492V378.743C725.66 378.485 724.909 378.249 724.092 378.034C723.276 377.819 722.427 377.637 721.546 377.486C720.687 377.314 719.817 377.186 718.936 377.1C718.055 377.014 717.217 376.971 716.422 376.971C715.026 376.971 713.844 377.089 712.877 377.325C711.91 377.54 711.116 377.852 710.493 378.26C709.869 378.646 709.418 379.13 709.139 379.71C708.86 380.29 708.72 380.935 708.72 381.644C708.72 382.524 709.01 383.287 709.59 383.932C710.192 384.555 710.976 385.124 711.943 385.64C712.931 386.134 714.037 386.606 715.262 387.058C716.508 387.487 717.776 387.96 719.065 388.476C720.375 388.97 721.643 389.539 722.868 390.184C724.114 390.828 725.22 391.612 726.187 392.536C727.175 393.46 727.959 394.556 728.539 395.823C729.141 397.069 729.442 398.552 729.442 400.271ZM768.145 396.371C768.145 398.949 767.779 401.312 767.049 403.461C766.318 405.588 765.266 407.414 763.891 408.939C762.516 410.465 760.829 411.646 758.831 412.484C756.833 413.322 754.556 413.741 751.999 413.741C749.571 413.741 747.401 413.387 745.489 412.678C743.577 411.969 741.955 410.916 740.623 409.52C739.291 408.102 738.271 406.34 737.562 404.234C736.853 402.107 736.498 399.637 736.498 396.822C736.498 394.223 736.863 391.859 737.594 389.732C738.346 387.605 739.409 385.79 740.784 384.286C742.181 382.782 743.878 381.622 745.876 380.806C747.874 379.968 750.13 379.549 752.644 379.549C755.093 379.549 757.273 379.914 759.186 380.645C761.098 381.354 762.72 382.417 764.052 383.835C765.384 385.253 766.394 387.015 767.081 389.12C767.79 391.204 768.145 393.621 768.145 396.371ZM759.959 396.564C759.959 393.17 759.314 390.624 758.025 388.927C756.758 387.208 754.878 386.349 752.386 386.349C751.011 386.349 749.84 386.617 748.873 387.154C747.906 387.691 747.111 388.433 746.488 389.378C745.865 390.302 745.403 391.387 745.103 392.633C744.823 393.879 744.684 395.211 744.684 396.629C744.684 400.045 745.371 402.623 746.746 404.363C748.121 406.082 750.001 406.941 752.386 406.941C753.696 406.941 754.835 406.684 755.802 406.168C756.769 405.631 757.553 404.9 758.154 403.977C758.756 403.031 759.207 401.925 759.508 400.657C759.809 399.39 759.959 398.025 759.959 396.564ZM786.835 373.587H777.586V367.464H794.891V406.877H804.334V413H776.458V406.877H786.835V373.587ZM821.67 380.258V401.592C821.67 403.375 822.003 404.729 822.669 405.652C823.335 406.555 824.345 407.006 825.699 407.006C827.009 407.006 828.266 406.469 829.469 405.395C830.694 404.299 831.983 402.827 833.336 400.979V380.258H841.2V413H834.4L834.206 408.166C833.519 409.004 832.821 409.767 832.112 410.454C831.403 411.142 830.629 411.732 829.791 412.227C828.975 412.699 828.073 413.064 827.084 413.322C826.118 413.602 825.043 413.741 823.862 413.741C822.186 413.741 820.714 413.473 819.447 412.936C818.201 412.377 817.159 411.593 816.321 410.583C815.483 409.573 814.849 408.37 814.419 406.974C814.011 405.556 813.807 403.977 813.807 402.236V380.258H821.67ZM878.484 412.678C877.066 413 875.638 413.258 874.198 413.451C872.759 413.645 871.395 413.741 870.106 413.741C867.957 413.741 866.099 413.516 864.53 413.064C862.983 412.613 861.694 411.926 860.663 411.002C859.653 410.078 858.901 408.907 858.407 407.489C857.935 406.05 857.698 404.342 857.698 402.365V386.381H848.9V380.258H857.698V371.879L865.755 369.784V380.258H878.484V386.381H865.755V401.785C865.755 403.654 866.185 405.072 867.044 406.039C867.903 406.984 869.343 407.457 871.362 407.457C872.651 407.457 873.908 407.35 875.133 407.135C876.357 406.92 877.475 406.673 878.484 406.394V412.678ZM908.357 371.299C908.357 372.008 908.228 372.674 907.97 373.297C907.713 373.92 907.347 374.468 906.875 374.94C906.424 375.392 905.886 375.757 905.263 376.036C904.64 376.294 903.964 376.423 903.233 376.423C902.503 376.423 901.815 376.294 901.171 376.036C900.548 375.757 900 375.392 899.527 374.94C899.076 374.468 898.721 373.92 898.464 373.297C898.206 372.674 898.077 372.008 898.077 371.299C898.077 370.59 898.206 369.924 898.464 369.301C898.721 368.678 899.076 368.13 899.527 367.657C900 367.185 900.548 366.819 901.171 366.562C901.815 366.282 902.503 366.143 903.233 366.143C903.964 366.143 904.64 366.282 905.263 366.562C905.886 366.819 906.424 367.185 906.875 367.657C907.347 368.13 907.713 368.678 907.97 369.301C908.228 369.924 908.357 370.59 908.357 371.299ZM899.656 386.381H890.407V380.258H907.713V406.877H917.155V413H889.279V406.877H899.656V386.381ZM956.18 396.371C956.18 398.949 955.815 401.312 955.084 403.461C954.354 405.588 953.301 407.414 951.926 408.939C950.551 410.465 948.865 411.646 946.867 412.484C944.869 413.322 942.591 413.741 940.035 413.741C937.607 413.741 935.437 413.387 933.525 412.678C931.613 411.969 929.991 410.916 928.659 409.52C927.327 408.102 926.306 406.34 925.597 404.234C924.888 402.107 924.534 399.637 924.534 396.822C924.534 394.223 924.899 391.859 925.629 389.732C926.381 387.605 927.445 385.79 928.82 384.286C930.216 382.782 931.914 381.622 933.912 380.806C935.91 379.968 938.165 379.549 940.679 379.549C943.128 379.549 945.309 379.914 947.221 380.645C949.133 381.354 950.755 382.417 952.087 383.835C953.419 385.253 954.429 387.015 955.117 389.12C955.826 391.204 956.18 393.621 956.18 396.371ZM947.995 396.564C947.995 393.17 947.35 390.624 946.061 388.927C944.793 387.208 942.914 386.349 940.421 386.349C939.046 386.349 937.875 386.617 936.909 387.154C935.942 387.691 935.147 388.433 934.524 389.378C933.901 390.302 933.439 391.387 933.138 392.633C932.859 393.879 932.719 395.211 932.719 396.629C932.719 400.045 933.407 402.623 934.782 404.363C936.157 406.082 938.037 406.941 940.421 406.941C941.732 406.941 942.871 406.684 943.837 406.168C944.804 405.631 945.588 404.9 946.19 403.977C946.791 403.031 947.243 401.925 947.543 400.657C947.844 399.39 947.995 398.025 947.995 396.564ZM983.829 413V391.666C983.829 388.078 982.497 386.284 979.833 386.284C978.501 386.284 977.223 386.821 975.998 387.896C974.795 388.97 973.517 390.431 972.163 392.278V413H964.3V380.258H971.1L971.293 385.092C971.959 384.254 972.647 383.491 973.356 382.804C974.086 382.116 974.87 381.536 975.708 381.063C976.546 380.569 977.448 380.193 978.415 379.936C979.382 379.678 980.467 379.549 981.67 379.549C983.346 379.549 984.807 379.828 986.053 380.387C987.299 380.924 988.341 381.697 989.179 382.707C990.017 383.695 990.64 384.898 991.048 386.316C991.478 387.713 991.693 389.281 991.693 391.021V413H983.829Z" fill="#F8F8F8" fill-opacity="0.95" shape-rendering="crispEdges"/>
</g>
<path d="M479.34 244.172C479.34 244.906 479.281 245.609 479.164 246.281C479.055 246.953 478.875 247.578 478.625 248.156C478.375 248.734 478.051 249.262 477.652 249.738C477.254 250.207 476.766 250.609 476.188 250.945C475.609 251.281 474.938 251.543 474.172 251.73C473.406 251.91 472.535 252 471.559 252H468.277V236.684H472.227C474.617 236.684 476.398 237.301 477.57 238.535C478.75 239.762 479.34 241.641 479.34 244.172ZM477.148 244.324C477.148 243.238 477.047 242.32 476.844 241.57C476.641 240.82 476.332 240.215 475.918 239.754C475.504 239.293 474.984 238.961 474.359 238.758C473.734 238.547 473 238.441 472.156 238.441H470.363V250.195H471.922C475.406 250.195 477.148 248.238 477.148 244.324ZM490.829 252L490.782 250.418C490.141 251.051 489.489 251.508 488.825 251.789C488.169 252.07 487.477 252.211 486.751 252.211C486.079 252.211 485.505 252.125 485.028 251.953C484.552 251.781 484.157 251.547 483.845 251.25C483.54 250.945 483.313 250.59 483.165 250.184C483.024 249.777 482.954 249.336 482.954 248.859C482.954 247.68 483.391 246.758 484.266 246.094C485.149 245.422 486.45 245.086 488.169 245.086H490.606V244.055C490.606 243.359 490.384 242.805 489.938 242.391C489.493 241.969 488.813 241.758 487.899 241.758C487.235 241.758 486.579 241.832 485.93 241.98C485.29 242.129 484.626 242.34 483.938 242.613V240.773C484.196 240.68 484.481 240.59 484.794 240.504C485.114 240.41 485.45 240.328 485.802 240.258C486.153 240.188 486.52 240.133 486.903 240.094C487.286 240.047 487.673 240.023 488.063 240.023C488.774 240.023 489.415 240.102 489.985 240.258C490.555 240.414 491.036 240.652 491.427 240.973C491.825 241.293 492.13 241.695 492.341 242.18C492.552 242.664 492.657 243.234 492.657 243.891V252H490.829ZM490.606 246.645H488.016C487.509 246.645 487.071 246.695 486.704 246.797C486.337 246.898 486.036 247.043 485.802 247.23C485.567 247.418 485.391 247.645 485.274 247.91C485.165 248.168 485.11 248.461 485.11 248.789C485.11 249.016 485.145 249.234 485.216 249.445C485.286 249.648 485.399 249.832 485.555 249.996C485.712 250.152 485.915 250.277 486.165 250.371C486.415 250.465 486.72 250.512 487.079 250.512C487.548 250.512 488.083 250.371 488.684 250.09C489.294 249.801 489.934 249.348 490.606 248.73V246.645ZM507.146 251.836C506.685 251.953 506.209 252.035 505.716 252.082C505.224 252.137 504.724 252.164 504.216 252.164C502.74 252.164 501.638 251.832 500.912 251.168C500.185 250.496 499.822 249.469 499.822 248.086V241.945H496.529V240.234H499.822V237L501.861 236.473V240.234H507.146V241.945H501.861V247.922C501.861 248.766 502.084 249.398 502.529 249.82C502.982 250.234 503.646 250.441 504.521 250.441C504.896 250.441 505.306 250.414 505.752 250.359C506.197 250.297 506.662 250.203 507.146 250.078V251.836ZM519.62 252L519.573 250.418C518.932 251.051 518.28 251.508 517.616 251.789C516.959 252.07 516.268 252.211 515.541 252.211C514.87 252.211 514.295 252.125 513.819 251.953C513.342 251.781 512.948 251.547 512.635 251.25C512.33 250.945 512.104 250.59 511.955 250.184C511.815 249.777 511.745 249.336 511.745 248.859C511.745 247.68 512.182 246.758 513.057 246.094C513.94 245.422 515.241 245.086 516.959 245.086H519.397V244.055C519.397 243.359 519.174 242.805 518.729 242.391C518.284 241.969 517.604 241.758 516.69 241.758C516.026 241.758 515.37 241.832 514.721 241.98C514.08 242.129 513.416 242.34 512.729 242.613V240.773C512.987 240.68 513.272 240.59 513.584 240.504C513.905 240.41 514.241 240.328 514.592 240.258C514.944 240.188 515.311 240.133 515.694 240.094C516.077 240.047 516.463 240.023 516.854 240.023C517.565 240.023 518.205 240.102 518.776 240.258C519.346 240.414 519.827 240.652 520.217 240.973C520.616 241.293 520.92 241.695 521.131 242.18C521.342 242.664 521.448 243.234 521.448 243.891V252H519.62ZM519.397 246.645H516.807C516.299 246.645 515.862 246.695 515.495 246.797C515.127 246.898 514.827 247.043 514.592 247.23C514.358 247.418 514.182 247.645 514.065 247.91C513.955 248.168 513.901 248.461 513.901 248.789C513.901 249.016 513.936 249.234 514.006 249.445C514.077 249.648 514.19 249.832 514.346 249.996C514.502 250.152 514.705 250.277 514.955 250.371C515.205 250.465 515.51 250.512 515.87 250.512C516.338 250.512 516.873 250.371 517.475 250.09C518.084 249.801 518.725 249.348 519.397 248.73V246.645ZM536.511 245.906C536.511 246.883 536.374 247.758 536.101 248.531C535.835 249.297 535.452 249.949 534.952 250.488C534.46 251.02 533.859 251.43 533.148 251.719C532.437 252 531.636 252.141 530.745 252.141C530.05 252.141 529.339 252.074 528.612 251.941C527.886 251.809 527.167 251.598 526.456 251.309V235.441H528.495V240L528.402 242.18C528.987 241.391 529.612 240.836 530.277 240.516C530.948 240.188 531.667 240.023 532.433 240.023C533.105 240.023 533.695 240.164 534.202 240.445C534.71 240.727 535.136 241.125 535.48 241.641C535.823 242.148 536.081 242.766 536.253 243.492C536.425 244.211 536.511 245.016 536.511 245.906ZM534.425 246C534.425 245.383 534.378 244.816 534.284 244.301C534.198 243.785 534.058 243.344 533.862 242.977C533.667 242.609 533.417 242.324 533.112 242.121C532.808 241.91 532.445 241.805 532.023 241.805C531.765 241.805 531.503 241.848 531.237 241.934C530.972 242.012 530.695 242.148 530.405 242.344C530.124 242.531 529.823 242.785 529.503 243.105C529.191 243.418 528.855 243.809 528.495 244.277V249.984C528.894 250.141 529.3 250.266 529.714 250.359C530.128 250.445 530.523 250.488 530.898 250.488C531.366 250.488 531.812 250.414 532.234 250.266C532.663 250.117 533.038 249.871 533.359 249.527C533.687 249.176 533.945 248.715 534.132 248.145C534.327 247.566 534.425 246.852 534.425 246ZM548.41 252L548.363 250.418C547.723 251.051 547.07 251.508 546.406 251.789C545.75 252.07 545.059 252.211 544.332 252.211C543.66 252.211 543.086 252.125 542.609 251.953C542.133 251.781 541.738 251.547 541.426 251.25C541.121 250.945 540.895 250.59 540.746 250.184C540.605 249.777 540.535 249.336 540.535 248.859C540.535 247.68 540.973 246.758 541.848 246.094C542.73 245.422 544.031 245.086 545.75 245.086H548.188V244.055C548.188 243.359 547.965 242.805 547.52 242.391C547.074 241.969 546.395 241.758 545.48 241.758C544.816 241.758 544.16 241.832 543.512 241.98C542.871 242.129 542.207 242.34 541.52 242.613V240.773C541.777 240.68 542.062 240.59 542.375 240.504C542.695 240.41 543.031 240.328 543.383 240.258C543.734 240.188 544.102 240.133 544.484 240.094C544.867 240.047 545.254 240.023 545.645 240.023C546.355 240.023 546.996 240.102 547.566 240.258C548.137 240.414 548.617 240.652 549.008 240.973C549.406 241.293 549.711 241.695 549.922 242.18C550.133 242.664 550.238 243.234 550.238 243.891V252H548.41ZM548.188 246.645H545.598C545.09 246.645 544.652 246.695 544.285 246.797C543.918 246.898 543.617 247.043 543.383 247.23C543.148 247.418 542.973 247.645 542.855 247.91C542.746 248.168 542.691 248.461 542.691 248.789C542.691 249.016 542.727 249.234 542.797 249.445C542.867 249.648 542.98 249.832 543.137 249.996C543.293 250.152 543.496 250.277 543.746 250.371C543.996 250.465 544.301 250.512 544.66 250.512C545.129 250.512 545.664 250.371 546.266 250.09C546.875 249.801 547.516 249.348 548.188 248.73V246.645ZM564.563 248.789C564.563 249.203 564.493 249.574 564.352 249.902C564.212 250.23 564.02 250.523 563.778 250.781C563.536 251.031 563.255 251.246 562.934 251.426C562.614 251.605 562.27 251.754 561.903 251.871C561.544 251.988 561.173 252.074 560.79 252.129C560.407 252.184 560.032 252.211 559.665 252.211C558.868 252.211 558.134 252.176 557.462 252.105C556.798 252.035 556.145 251.922 555.505 251.766V249.891C556.192 250.086 556.876 250.234 557.555 250.336C558.235 250.438 558.911 250.488 559.583 250.488C560.559 250.488 561.282 250.355 561.751 250.09C562.22 249.824 562.454 249.445 562.454 248.953C562.454 248.742 562.415 248.555 562.337 248.391C562.266 248.219 562.134 248.059 561.938 247.91C561.743 247.754 561.438 247.594 561.024 247.43C560.618 247.266 560.059 247.078 559.348 246.867C558.817 246.711 558.325 246.535 557.872 246.34C557.427 246.137 557.04 245.898 556.712 245.625C556.384 245.352 556.126 245.031 555.938 244.664C555.751 244.297 555.657 243.863 555.657 243.363C555.657 243.035 555.731 242.676 555.88 242.285C556.036 241.895 556.298 241.531 556.665 241.195C557.032 240.859 557.528 240.582 558.153 240.363C558.778 240.137 559.559 240.023 560.497 240.023C560.958 240.023 561.47 240.051 562.032 240.105C562.595 240.152 563.18 240.238 563.79 240.363V242.18C563.149 242.023 562.54 241.91 561.962 241.84C561.391 241.762 560.895 241.723 560.473 241.723C559.966 241.723 559.536 241.762 559.184 241.84C558.841 241.918 558.559 242.027 558.341 242.168C558.13 242.301 557.977 242.461 557.884 242.648C557.79 242.828 557.743 243.023 557.743 243.234C557.743 243.445 557.782 243.637 557.86 243.809C557.946 243.98 558.098 244.148 558.317 244.312C558.544 244.469 558.856 244.629 559.255 244.793C559.653 244.949 560.173 245.121 560.813 245.309C561.509 245.512 562.095 245.727 562.571 245.953C563.048 246.172 563.434 246.418 563.731 246.691C564.028 246.965 564.239 247.273 564.364 247.617C564.497 247.961 564.563 248.352 564.563 248.789ZM579.58 245.496C579.58 245.785 579.576 246.027 579.568 246.223C579.56 246.418 579.548 246.602 579.533 246.773H571.271C571.271 247.977 571.607 248.902 572.279 249.551C572.951 250.191 573.92 250.512 575.185 250.512C575.529 250.512 575.873 250.5 576.216 250.477C576.56 250.445 576.892 250.406 577.213 250.359C577.533 250.312 577.838 250.262 578.127 250.207C578.423 250.145 578.697 250.078 578.947 250.008V251.684C578.392 251.84 577.763 251.965 577.06 252.059C576.365 252.16 575.642 252.211 574.892 252.211C573.884 252.211 573.017 252.074 572.291 251.801C571.564 251.527 570.966 251.133 570.498 250.617C570.037 250.094 569.693 249.457 569.466 248.707C569.248 247.949 569.138 247.094 569.138 246.141C569.138 245.312 569.255 244.531 569.49 243.797C569.732 243.055 570.08 242.406 570.533 241.852C570.994 241.289 571.556 240.844 572.22 240.516C572.884 240.188 573.638 240.023 574.482 240.023C575.302 240.023 576.029 240.152 576.662 240.41C577.295 240.668 577.826 241.035 578.255 241.512C578.693 241.98 579.021 242.555 579.24 243.234C579.466 243.906 579.58 244.66 579.58 245.496ZM577.459 245.203C577.482 244.68 577.431 244.203 577.306 243.773C577.181 243.336 576.986 242.961 576.72 242.648C576.463 242.336 576.138 242.094 575.748 241.922C575.357 241.742 574.904 241.652 574.388 241.652C573.943 241.652 573.537 241.738 573.17 241.91C572.802 242.082 572.486 242.324 572.22 242.637C571.955 242.949 571.74 243.324 571.576 243.762C571.412 244.199 571.31 244.68 571.271 245.203H577.459ZM608.241 247.852C608.241 248.578 608.093 249.215 607.796 249.762C607.499 250.309 607.085 250.766 606.554 251.133C606.023 251.492 605.382 251.762 604.632 251.941C603.89 252.121 603.07 252.211 602.171 252.211C601.765 252.211 601.359 252.195 600.952 252.164C600.554 252.133 600.167 252.094 599.792 252.047C599.425 252 599.077 251.945 598.749 251.883C598.421 251.82 598.124 251.754 597.859 251.684V249.668C598.445 249.887 599.101 250.059 599.827 250.184C600.562 250.309 601.394 250.371 602.323 250.371C602.995 250.371 603.566 250.32 604.034 250.219C604.511 250.109 604.898 249.953 605.195 249.75C605.499 249.539 605.718 249.285 605.851 248.988C605.991 248.691 606.062 248.352 606.062 247.969C606.062 247.555 605.945 247.203 605.71 246.914C605.484 246.617 605.183 246.355 604.808 246.129C604.433 245.895 604.003 245.684 603.519 245.496C603.042 245.301 602.554 245.102 602.054 244.898C601.554 244.695 601.062 244.477 600.577 244.242C600.101 244 599.675 243.719 599.3 243.398C598.925 243.07 598.62 242.688 598.386 242.25C598.159 241.812 598.046 241.293 598.046 240.691C598.046 240.168 598.155 239.652 598.374 239.145C598.593 238.637 598.933 238.188 599.394 237.797C599.855 237.398 600.445 237.078 601.163 236.836C601.89 236.594 602.753 236.473 603.753 236.473C604.011 236.473 604.288 236.484 604.585 236.508C604.89 236.531 605.195 236.566 605.499 236.613C605.812 236.652 606.116 236.699 606.413 236.754C606.718 236.809 606.999 236.867 607.257 236.93V238.805C606.655 238.633 606.054 238.504 605.452 238.418C604.851 238.324 604.269 238.277 603.706 238.277C602.511 238.277 601.632 238.477 601.07 238.875C600.507 239.273 600.226 239.809 600.226 240.48C600.226 240.895 600.339 241.25 600.566 241.547C600.8 241.844 601.105 242.109 601.48 242.344C601.855 242.578 602.28 242.793 602.757 242.988C603.241 243.176 603.734 243.371 604.234 243.574C604.734 243.777 605.222 244 605.698 244.242C606.183 244.484 606.613 244.773 606.988 245.109C607.363 245.438 607.663 245.824 607.89 246.27C608.124 246.715 608.241 247.242 608.241 247.852ZM623.293 240.234L619.285 250.758C618.871 251.828 618.441 252.75 617.996 253.523C617.559 254.297 617.078 254.93 616.555 255.422C616.031 255.922 615.457 256.289 614.832 256.523C614.207 256.758 613.508 256.875 612.734 256.875C612.531 256.875 612.348 256.871 612.184 256.863C612.02 256.855 611.84 256.844 611.645 256.828V254.977C611.816 255 612.004 255.02 612.207 255.035C612.41 255.059 612.625 255.07 612.852 255.07C613.227 255.07 613.574 255.016 613.895 254.906C614.223 254.797 614.531 254.617 614.82 254.367C615.109 254.125 615.387 253.809 615.652 253.418C615.918 253.027 616.176 252.555 616.426 252L611.727 240.234H614.047L617.023 248.016L617.621 249.844L618.301 247.969L621.055 240.234H623.293ZM636.54 248.789C636.54 249.203 636.47 249.574 636.329 249.902C636.188 250.23 635.997 250.523 635.755 250.781C635.512 251.031 635.231 251.246 634.911 251.426C634.591 251.605 634.247 251.754 633.88 251.871C633.52 251.988 633.149 252.074 632.766 252.129C632.384 252.184 632.009 252.211 631.641 252.211C630.845 252.211 630.11 252.176 629.438 252.105C628.774 252.035 628.122 251.922 627.481 251.766V249.891C628.169 250.086 628.852 250.234 629.532 250.336C630.212 250.438 630.887 250.488 631.559 250.488C632.536 250.488 633.259 250.355 633.727 250.09C634.196 249.824 634.43 249.445 634.43 248.953C634.43 248.742 634.391 248.555 634.313 248.391C634.243 248.219 634.11 248.059 633.915 247.91C633.72 247.754 633.415 247.594 633.001 247.43C632.595 247.266 632.036 247.078 631.325 246.867C630.794 246.711 630.302 246.535 629.848 246.34C629.403 246.137 629.016 245.898 628.688 245.625C628.36 245.352 628.102 245.031 627.915 244.664C627.727 244.297 627.634 243.863 627.634 243.363C627.634 243.035 627.708 242.676 627.856 242.285C628.012 241.895 628.274 241.531 628.641 241.195C629.009 240.859 629.505 240.582 630.13 240.363C630.755 240.137 631.536 240.023 632.473 240.023C632.934 240.023 633.446 240.051 634.009 240.105C634.571 240.152 635.157 240.238 635.766 240.363V242.18C635.126 242.023 634.516 241.91 633.938 241.84C633.368 241.762 632.872 241.723 632.45 241.723C631.942 241.723 631.512 241.762 631.161 241.84C630.817 241.918 630.536 242.027 630.317 242.168C630.106 242.301 629.954 242.461 629.86 242.648C629.766 242.828 629.72 243.023 629.72 243.234C629.72 243.445 629.759 243.637 629.837 243.809C629.923 243.98 630.075 244.148 630.294 244.312C630.52 244.469 630.833 244.629 631.231 244.793C631.63 244.949 632.149 245.121 632.79 245.309C633.485 245.512 634.071 245.727 634.548 245.953C635.024 246.172 635.411 246.418 635.708 246.691C636.005 246.965 636.216 247.273 636.341 247.617C636.473 247.961 636.54 248.352 636.54 248.789ZM651.099 251.836C650.638 251.953 650.162 252.035 649.67 252.082C649.177 252.137 648.677 252.164 648.17 252.164C646.693 252.164 645.591 251.832 644.865 251.168C644.138 250.496 643.775 249.469 643.775 248.086V241.945H640.482V240.234H643.775V237L645.814 236.473V240.234H651.099V241.945H645.814V247.922C645.814 248.766 646.037 249.398 646.482 249.82C646.935 250.234 647.599 250.441 648.474 250.441C648.849 250.441 649.259 250.414 649.705 250.359C650.15 250.297 650.615 250.203 651.099 250.078V251.836ZM665.952 245.496C665.952 245.785 665.948 246.027 665.94 246.223C665.932 246.418 665.92 246.602 665.905 246.773H657.643C657.643 247.977 657.979 248.902 658.651 249.551C659.323 250.191 660.291 250.512 661.557 250.512C661.901 250.512 662.245 250.5 662.588 250.477C662.932 250.445 663.264 250.406 663.584 250.359C663.905 250.312 664.209 250.262 664.498 250.207C664.795 250.145 665.069 250.078 665.319 250.008V251.684C664.764 251.84 664.135 251.965 663.432 252.059C662.737 252.16 662.014 252.211 661.264 252.211C660.256 252.211 659.389 252.074 658.663 251.801C657.936 251.527 657.338 251.133 656.87 250.617C656.409 250.094 656.065 249.457 655.838 248.707C655.62 247.949 655.51 247.094 655.51 246.141C655.51 245.312 655.627 244.531 655.862 243.797C656.104 243.055 656.452 242.406 656.905 241.852C657.366 241.289 657.928 240.844 658.592 240.516C659.256 240.188 660.01 240.023 660.854 240.023C661.674 240.023 662.401 240.152 663.034 240.41C663.666 240.668 664.198 241.035 664.627 241.512C665.065 241.98 665.393 242.555 665.612 243.234C665.838 243.906 665.952 244.66 665.952 245.496ZM663.83 245.203C663.854 244.68 663.803 244.203 663.678 243.773C663.553 243.336 663.358 242.961 663.092 242.648C662.834 242.336 662.51 242.094 662.12 241.922C661.729 241.742 661.276 241.652 660.76 241.652C660.315 241.652 659.909 241.738 659.541 241.91C659.174 242.082 658.858 242.324 658.592 242.637C658.327 242.949 658.112 243.324 657.948 243.762C657.784 244.199 657.682 244.68 657.643 245.203H663.83ZM678.8 252V243.551C678.8 243.184 678.784 242.883 678.753 242.648C678.73 242.414 678.687 242.23 678.624 242.098C678.57 241.957 678.495 241.859 678.402 241.805C678.316 241.75 678.206 241.723 678.073 241.723C677.917 241.723 677.773 241.77 677.64 241.863C677.507 241.957 677.363 242.109 677.206 242.32C677.058 242.531 676.89 242.812 676.702 243.164C676.523 243.508 676.308 243.934 676.058 244.441V252H674.195V243.773C674.195 243.344 674.179 242.996 674.148 242.73C674.124 242.465 674.081 242.258 674.019 242.109C673.964 241.961 673.89 241.859 673.796 241.805C673.702 241.75 673.589 241.723 673.456 241.723C673.316 241.723 673.183 241.762 673.058 241.84C672.933 241.918 672.792 242.059 672.636 242.262C672.488 242.465 672.32 242.742 672.132 243.094C671.945 243.445 671.722 243.895 671.464 244.441V252H669.589V240.234H671.148L671.241 242.473C671.445 242.027 671.64 241.648 671.827 241.336C672.023 241.023 672.222 240.773 672.425 240.586C672.628 240.391 672.843 240.25 673.07 240.164C673.304 240.07 673.562 240.023 673.843 240.023C674.476 240.023 674.956 240.23 675.284 240.645C675.613 241.059 675.777 241.699 675.777 242.566C675.964 242.16 676.148 241.801 676.327 241.488C676.507 241.168 676.698 240.902 676.902 240.691C677.113 240.473 677.343 240.309 677.593 240.199C677.843 240.082 678.132 240.023 678.46 240.023C679.937 240.023 680.675 241.16 680.675 243.434V252H678.8ZM694.121 248.789C694.121 249.203 694.051 249.574 693.91 249.902C693.77 250.23 693.578 250.523 693.336 250.781C693.094 251.031 692.812 251.246 692.492 251.426C692.172 251.605 691.828 251.754 691.461 251.871C691.102 251.988 690.73 252.074 690.348 252.129C689.965 252.184 689.59 252.211 689.223 252.211C688.426 252.211 687.691 252.176 687.02 252.105C686.355 252.035 685.703 251.922 685.062 251.766V249.891C685.75 250.086 686.434 250.234 687.113 250.336C687.793 250.438 688.469 250.488 689.141 250.488C690.117 250.488 690.84 250.355 691.309 250.09C691.777 249.824 692.012 249.445 692.012 248.953C692.012 248.742 691.973 248.555 691.895 248.391C691.824 248.219 691.691 248.059 691.496 247.91C691.301 247.754 690.996 247.594 690.582 247.43C690.176 247.266 689.617 247.078 688.906 246.867C688.375 246.711 687.883 246.535 687.43 246.34C686.984 246.137 686.598 245.898 686.27 245.625C685.941 245.352 685.684 245.031 685.496 244.664C685.309 244.297 685.215 243.863 685.215 243.363C685.215 243.035 685.289 242.676 685.438 242.285C685.594 241.895 685.855 241.531 686.223 241.195C686.59 240.859 687.086 240.582 687.711 240.363C688.336 240.137 689.117 240.023 690.055 240.023C690.516 240.023 691.027 240.051 691.59 240.105C692.152 240.152 692.738 240.238 693.348 240.363V242.18C692.707 242.023 692.098 241.91 691.52 241.84C690.949 241.762 690.453 241.723 690.031 241.723C689.523 241.723 689.094 241.762 688.742 241.84C688.398 241.918 688.117 242.027 687.898 242.168C687.688 242.301 687.535 242.461 687.441 242.648C687.348 242.828 687.301 243.023 687.301 243.234C687.301 243.445 687.34 243.637 687.418 243.809C687.504 243.98 687.656 244.148 687.875 244.312C688.102 244.469 688.414 244.629 688.812 244.793C689.211 244.949 689.73 245.121 690.371 245.309C691.066 245.512 691.652 245.727 692.129 245.953C692.605 246.172 692.992 246.418 693.289 246.691C693.586 246.965 693.797 247.273 693.922 247.617C694.055 247.961 694.121 248.352 694.121 248.789ZM721.998 236.684V247.324C721.998 247.98 721.9 248.605 721.705 249.199C721.509 249.785 721.212 250.297 720.814 250.734C720.416 251.172 719.916 251.52 719.314 251.777C718.712 252.035 718.005 252.164 717.193 252.164C716.888 252.164 716.576 252.141 716.255 252.094C715.943 252.055 715.638 252 715.341 251.93C715.052 251.852 714.779 251.762 714.521 251.66C714.263 251.551 714.041 251.434 713.853 251.309V249.211C714.337 249.562 714.873 249.84 715.459 250.043C716.052 250.246 716.638 250.348 717.216 250.348C718.068 250.348 718.724 250.09 719.185 249.574C719.646 249.051 719.877 248.301 719.877 247.324V238.488H714.052V236.684H721.998ZM738.233 246.023C738.233 246.938 738.104 247.777 737.846 248.543C737.588 249.301 737.217 249.953 736.733 250.5C736.248 251.039 735.659 251.461 734.963 251.766C734.268 252.062 733.479 252.211 732.596 252.211C731.752 252.211 730.995 252.082 730.323 251.824C729.659 251.559 729.092 251.172 728.623 250.664C728.163 250.156 727.807 249.527 727.557 248.777C727.315 248.027 727.194 247.164 727.194 246.188C727.194 245.273 727.323 244.441 727.58 243.691C727.838 242.934 728.209 242.285 728.694 241.746C729.178 241.199 729.768 240.777 730.463 240.48C731.159 240.176 731.948 240.023 732.83 240.023C733.674 240.023 734.428 240.156 735.092 240.422C735.764 240.68 736.33 241.062 736.791 241.57C737.26 242.07 737.616 242.695 737.858 243.445C738.108 244.195 738.233 245.055 738.233 246.023ZM736.147 246.117C736.147 245.391 736.065 244.758 735.901 244.219C735.745 243.672 735.518 243.219 735.221 242.859C734.924 242.492 734.561 242.219 734.131 242.039C733.709 241.852 733.237 241.758 732.713 241.758C732.104 241.758 731.58 241.879 731.143 242.121C730.713 242.355 730.358 242.672 730.077 243.07C729.803 243.469 729.6 243.934 729.467 244.465C729.342 244.988 729.28 245.539 729.28 246.117C729.28 246.844 729.358 247.48 729.514 248.027C729.678 248.574 729.909 249.031 730.205 249.398C730.502 249.758 730.862 250.031 731.284 250.219C731.705 250.398 732.182 250.488 732.713 250.488C733.323 250.488 733.842 250.371 734.272 250.137C734.709 249.895 735.065 249.574 735.338 249.176C735.62 248.777 735.823 248.316 735.948 247.793C736.08 247.262 736.147 246.703 736.147 246.117ZM751.843 252H750.015L749.945 250.102C749.593 250.508 749.257 250.848 748.937 251.121C748.624 251.387 748.312 251.602 747.999 251.766C747.687 251.93 747.37 252.043 747.05 252.105C746.737 252.176 746.405 252.211 746.054 252.211C744.843 252.211 743.929 251.855 743.312 251.145C742.695 250.434 742.386 249.359 742.386 247.922V240.234H744.425V247.758C744.425 249.562 745.105 250.465 746.464 250.465C746.714 250.465 746.956 250.43 747.191 250.359C747.433 250.281 747.683 250.152 747.941 249.973C748.206 249.785 748.487 249.535 748.784 249.223C749.089 248.91 749.429 248.516 749.804 248.039V240.234H751.843V252ZM757.262 240.234H759.125L759.184 242.402C759.879 241.566 760.562 240.961 761.234 240.586C761.914 240.211 762.598 240.023 763.285 240.023C764.504 240.023 765.426 240.418 766.051 241.207C766.684 241.996 766.977 243.168 766.93 244.723H764.867C764.891 243.691 764.738 242.945 764.41 242.484C764.09 242.016 763.617 241.781 762.992 241.781C762.719 241.781 762.441 241.832 762.16 241.934C761.887 242.027 761.602 242.184 761.305 242.402C761.016 242.613 760.707 242.887 760.379 243.223C760.051 243.559 759.699 243.965 759.324 244.441V252H757.262V240.234ZM771.177 240.234H772.993L773.075 242.133C773.419 241.727 773.751 241.391 774.071 241.125C774.391 240.852 774.704 240.633 775.009 240.469C775.321 240.305 775.638 240.191 775.958 240.129C776.278 240.059 776.61 240.023 776.954 240.023C778.165 240.023 779.079 240.383 779.696 241.102C780.321 241.812 780.634 242.887 780.634 244.324V252H778.595V244.488C778.595 243.566 778.423 242.887 778.079 242.449C777.735 242.004 777.223 241.781 776.544 241.781C776.294 241.781 776.048 241.82 775.805 241.898C775.571 241.969 775.325 242.098 775.067 242.285C774.809 242.465 774.528 242.711 774.223 243.023C773.927 243.336 773.591 243.727 773.216 244.195V252H771.177V240.234ZM793.13 252L793.084 250.418C792.443 251.051 791.791 251.508 791.127 251.789C790.47 252.07 789.779 252.211 789.052 252.211C788.38 252.211 787.806 252.125 787.33 251.953C786.853 251.781 786.459 251.547 786.146 251.25C785.841 250.945 785.615 250.59 785.466 250.184C785.326 249.777 785.255 249.336 785.255 248.859C785.255 247.68 785.693 246.758 786.568 246.094C787.451 245.422 788.752 245.086 790.47 245.086H792.908V244.055C792.908 243.359 792.685 242.805 792.24 242.391C791.795 241.969 791.115 241.758 790.201 241.758C789.537 241.758 788.88 241.832 788.232 241.98C787.591 242.129 786.927 242.34 786.24 242.613V240.773C786.498 240.68 786.783 240.59 787.095 240.504C787.416 240.41 787.752 240.328 788.103 240.258C788.455 240.188 788.822 240.133 789.205 240.094C789.587 240.047 789.974 240.023 790.365 240.023C791.076 240.023 791.716 240.102 792.287 240.258C792.857 240.414 793.337 240.652 793.728 240.973C794.127 241.293 794.431 241.695 794.642 242.18C794.853 242.664 794.959 243.234 794.959 243.891V252H793.13ZM792.908 246.645H790.318C789.81 246.645 789.373 246.695 789.005 246.797C788.638 246.898 788.337 247.043 788.103 247.23C787.869 247.418 787.693 247.645 787.576 247.91C787.466 248.168 787.412 248.461 787.412 248.789C787.412 249.016 787.447 249.234 787.517 249.445C787.587 249.648 787.701 249.832 787.857 249.996C788.013 250.152 788.216 250.277 788.466 250.371C788.716 250.465 789.021 250.512 789.38 250.512C789.849 250.512 790.384 250.371 790.986 250.09C791.595 249.801 792.236 249.348 792.908 248.73V246.645ZM803.975 237.117H800.495V235.441H806.038V250.301H809.541V252H800.108V250.301H803.975V237.117Z" fill="#F8F8F8" fill-opacity="0.8"/>
<rect x="1217.33" y="657.332" width="62.6667" height="62.6667" rx="31.3333" fill="#FD5B50"/>
<path d="M1217.33 532H1280V594.667H1267.33C1239.72 594.667 1217.33 572.281 1217.33 544.667V532Z" fill="#F8F0F0" fill-opacity="0.4"/>
<rect x="1154.67" y="594.668" width="62.6667" height="62.6667" fill="#FD5750" fill-opacity="0.4"/>
<path d="M1154.67 657.332H1217.33V688.665C1217.33 705.97 1203.3 719.999 1186 719.999V719.999C1168.69 719.999 1154.67 705.97 1154.67 688.665V657.332Z" fill="#B55081" fill-opacity="0.4"/>
<path d="M1154.67 552C1154.67 540.954 1163.62 532 1174.67 532H1217.33V544.667C1217.33 572.281 1194.95 594.667 1167.33 594.667H1154.67V552Z" fill="#B55081" fill-opacity="0.4"/>
<path d="M1217.33 626.001C1217.33 608.696 1231.36 594.668 1248.67 594.668H1280V657.335H1248.67C1231.36 657.335 1217.33 643.306 1217.33 626.001V626.001Z" fill="#F58FC1" fill-opacity="0.4"/>
<path d="M1092 719.999C1092 685.389 1120.06 657.332 1154.67 657.332V657.332V657.332C1154.67 691.942 1126.61 719.999 1092 719.999V719.999V719.999Z" fill="#F58FC1" fill-opacity="0.4"/>
<rect width="62.6667" height="62.6667" rx="31.3333" transform="matrix(-1 0 0 1 62.666 657)" fill="#FD4B50"/>
<path d="M62.666 532H-0.000652313V594.667H12.666C40.2802 594.667 62.666 572.281 62.666 544.667V532Z" fill="#F8F0F0" fill-opacity="0.4"/>
<rect width="62.6667" height="62.6667" transform="matrix(-1 0 0 1 125.334 594.668)" fill="#FD5750" fill-opacity="0.4"/>
<path d="M125.334 657.332H62.6673V688.665C62.6673 705.97 76.6957 719.999 94.0007 719.999V719.999C111.306 719.999 125.334 705.97 125.334 688.665V657.332Z" fill="#B55081" fill-opacity="0.4"/>
<path d="M125.334 552C125.334 540.954 116.38 532 105.334 532H62.6673V544.667C62.6673 572.281 85.0531 594.667 112.667 594.667H125.334V552Z" fill="#B55081" fill-opacity="0.4"/>
<path d="M62.666 626.001C62.666 608.696 48.6376 594.668 31.3327 594.668H-0.000652313V657.335H31.3327C48.6376 657.335 62.666 643.306 62.666 626.001V626.001Z" fill="#F58FC1" fill-opacity="0.4"/>
<path d="M188 719.999C188 685.389 159.943 657.332 125.333 657.332V657.332V657.332C125.333 691.942 153.39 719.999 188 719.999V719.999V719.999Z" fill="#F58FC1" fill-opacity="0.4"/>
<rect width="62.6664" height="62.6667" rx="31.3332" transform="matrix(1 -8.74228e-08 -8.74228e-08 -1 1217.33 62.668)" fill="#FD7A50" fill-opacity="0.4"/>
<path d="M1217.33 188L1280 188L1280 125.333L1267.33 125.333C1239.72 125.333 1217.33 147.719 1217.33 175.333L1217.33 188Z" fill="#F8F0F0" fill-opacity="0.6"/>
<rect width="62.6664" height="62.6667" transform="matrix(1 -8.74228e-08 -8.74228e-08 -1 1154.67 125.332)" fill="#FD5750" fill-opacity="0.6"/>
<path d="M1154.67 62.668L1217.33 62.668L1217.33 31.3345C1217.33 14.0297 1203.3 0.00129656 1186 0.00129807V0.00129807C1168.69 0.00129959 1154.67 14.0296 1154.67 31.3345L1154.67 62.668Z" fill="#B55081" fill-opacity="0.6"/>
<path d="M1154.67 168C1154.67 179.046 1163.62 188 1174.67 188L1217.33 188L1217.33 175.333C1217.33 147.719 1194.95 125.333 1167.33 125.333L1154.67 125.333L1154.67 168Z" fill="#B55081" fill-opacity="0.6"/>
<path d="M1217.33 93.9987C1217.33 111.304 1231.36 125.332 1248.67 125.332L1280 125.332L1280 62.6654L1248.67 62.6654C1231.36 62.6654 1217.33 76.6938 1217.33 93.9987V93.9987Z" fill="#F58FC1" fill-opacity="0.6"/>
<path d="M1092 0.00130081C1092 34.611 1120.06 62.668 1154.67 62.668V62.668V62.668C1154.67 28.0583 1126.61 0.00129779 1092 0.00130081V0.00130081V0.00130081Z" fill="#F58FC1" fill-opacity="0.6"/>
<rect x="62.666" y="62.668" width="62.6667" height="62.6667" rx="31.3333" transform="rotate(180 62.666 62.668)" fill="#FD2B4F" fill-opacity="0.6"/>
<path d="M62.666 188L-0.000652313 188L-0.000657792 125.333L12.666 125.333C40.2802 125.333 62.666 147.719 62.666 175.333L62.666 188Z" fill="#F8F0F0" fill-opacity="0.6"/>
<rect x="125.334" y="125.332" width="62.6667" height="62.6667" transform="rotate(180 125.334 125.332)" fill="#FD5750" fill-opacity="0.6"/>
<path d="M125.334 62.668L62.6673 62.668L62.6673 31.3347C62.6673 14.0297 76.6957 0.00130506 94.0006 0.00130355V0.00130355C111.306 0.00130204 125.334 14.0297 125.334 31.3346L125.334 62.668Z" fill="#B55081" fill-opacity="0.6"/>
<path d="M125.334 168C125.334 179.046 116.38 188 105.334 188L62.6673 188L62.6673 175.333C62.6673 147.719 85.0531 125.333 112.667 125.333L125.334 125.333L125.334 168Z" fill="#B55081" fill-opacity="0.6"/>
<path d="M62.666 93.9987C62.666 111.304 48.6376 125.332 31.3327 125.332L-0.000652313 125.332L-0.000657792 62.6654L31.3327 62.6654C48.6376 62.6654 62.666 76.6938 62.666 93.9987V93.9987Z" fill="#F58FC1" fill-opacity="0.6"/>
<path d="M188 0.00130081C188 34.6111 159.943 62.668 125.333 62.668V62.668V62.668C125.333 28.0581 153.39 0.00130384 188 0.00130081V0.00130081V0.00130081Z" fill="#F58FC1" fill-opacity="0.6"/>
<g filter="url(#filter1_d_1445_1171)">
<path fill-rule="evenodd" clip-rule="evenodd" d="M531 459C525.477 459 521 463.477 521 469V504C521 509.523 525.477 514 531 514H748C753.523 514 758 509.523 758 504V469C758 463.477 753.523 459 748 459H531ZM553.896 491H557.08L560.996 478.236H558.438L556.299 485.775L555.576 488.441L554.883 485.922L552.725 478.236H550L553.896 491ZM571.957 488.109C572.178 487.458 572.289 486.742 572.289 485.961C572.289 485.128 572.182 484.395 571.967 483.764C571.758 483.126 571.452 482.592 571.049 482.162C570.645 481.732 570.154 481.41 569.574 481.195C568.995 480.974 568.334 480.863 567.592 480.863C566.83 480.863 566.146 480.99 565.541 481.244C564.936 481.492 564.421 481.843 563.998 482.299C563.581 482.755 563.259 483.305 563.031 483.949C562.81 484.594 562.699 485.31 562.699 486.098C562.699 486.951 562.807 487.699 563.021 488.344C563.236 488.982 563.546 489.516 563.949 489.945C564.353 490.368 564.844 490.688 565.424 490.902C566.003 491.117 566.661 491.225 567.396 491.225C568.171 491.225 568.861 491.098 569.467 490.844C570.072 490.59 570.583 490.232 571 489.77C571.417 489.307 571.736 488.754 571.957 488.109ZM569.223 483.705C569.613 484.219 569.809 484.991 569.809 486.02C569.809 486.462 569.763 486.876 569.672 487.26C569.581 487.644 569.444 487.979 569.262 488.266C569.079 488.546 568.842 488.767 568.549 488.93C568.256 489.086 567.911 489.164 567.514 489.164C566.791 489.164 566.221 488.904 565.805 488.383C565.388 487.855 565.18 487.074 565.18 486.039C565.18 485.609 565.222 485.206 565.307 484.828C565.398 484.451 565.538 484.122 565.727 483.842C565.915 483.555 566.156 483.331 566.449 483.168C566.742 483.005 567.097 482.924 567.514 482.924C568.269 482.924 568.839 483.184 569.223 483.705ZM575.75 479.057H578.553V489.145H575.408V491H583.855V489.145H580.994V477.201H575.75V479.057ZM592.189 487.553C591.955 487.449 591.701 487.396 591.428 487.396C591.167 487.396 590.923 487.449 590.695 487.553C590.467 487.65 590.269 487.787 590.1 487.963C589.93 488.132 589.797 488.334 589.699 488.568C589.602 488.803 589.553 489.053 589.553 489.32C589.553 489.581 589.602 489.828 589.699 490.062C589.797 490.29 589.93 490.492 590.1 490.668C590.269 490.837 590.467 490.971 590.695 491.068C590.923 491.173 591.167 491.225 591.428 491.225C591.701 491.225 591.955 491.173 592.189 491.068C592.424 490.971 592.626 490.837 592.795 490.668C592.971 490.492 593.107 490.29 593.205 490.062C593.303 489.828 593.352 489.581 593.352 489.32C593.352 489.053 593.303 488.803 593.205 488.568C593.107 488.334 592.971 488.132 592.795 487.963C592.626 487.787 592.424 487.65 592.189 487.553ZM615.381 486.303L617.842 491H620.898L617.08 484.457L620.498 478.236H617.676L615.439 482.68L613.125 478.236H610.303L613.74 484.457L610.059 491H612.959L615.381 486.303ZM623.441 478.236V480.199H626.254V489.018H623.441V491H631.508V489.018H628.695V480.199H631.508V478.236H623.441ZM635.438 478.236V480.199H638.25V489.018H635.438V491H643.504V489.018H640.691V480.199H643.504V478.236H635.438ZM647.434 478.236V480.199H650.246V489.018H647.434V491H655.5V489.018H652.688V480.199H655.5V478.236H647.434ZM661.119 492.816C660.781 492.875 660.416 492.898 660.025 492.885V494.438C660.911 494.438 661.682 494.32 662.34 494.086C663.004 493.858 663.557 493.546 664 493.148C664.443 492.751 664.775 492.286 664.996 491.752C665.217 491.218 665.328 490.648 665.328 490.043C665.328 489.691 665.283 489.356 665.191 489.037C665.1 488.712 664.967 488.425 664.791 488.178C664.615 487.924 664.4 487.725 664.146 487.582C663.893 487.432 663.606 487.357 663.287 487.357C663.033 487.357 662.805 487.403 662.604 487.494C662.408 487.585 662.242 487.706 662.105 487.855C661.969 488.005 661.865 488.178 661.793 488.373C661.721 488.562 661.686 488.757 661.686 488.959C661.686 489.167 661.712 489.346 661.764 489.496C661.822 489.639 661.894 489.77 661.979 489.887C662.063 489.997 662.151 490.105 662.242 490.209C662.34 490.307 662.431 490.411 662.516 490.521C662.6 490.626 662.669 490.746 662.721 490.883C662.779 491.013 662.809 491.173 662.809 491.361C662.809 491.628 662.737 491.859 662.594 492.055C662.451 492.25 662.252 492.41 661.998 492.533C661.751 492.663 661.458 492.758 661.119 492.816ZM683.217 489.242V491H691.879V488.803H686.498L688.354 487.035C688.842 486.573 689.275 486.133 689.652 485.717C690.036 485.3 690.359 484.883 690.619 484.467C690.88 484.05 691.078 483.624 691.215 483.188C691.352 482.745 691.42 482.27 691.42 481.762C691.42 481.15 691.319 480.609 691.117 480.141C690.922 479.672 690.642 479.281 690.277 478.969C689.919 478.656 689.486 478.422 688.979 478.266C688.471 478.103 687.904 478.021 687.279 478.021C686.472 478.021 685.72 478.178 685.023 478.49C684.333 478.796 683.712 479.206 683.158 479.721L684.418 481.342C684.802 480.977 685.209 480.688 685.639 480.473C686.068 480.251 686.534 480.141 687.035 480.141C687.328 480.141 687.589 480.189 687.816 480.287C688.044 480.378 688.233 480.505 688.383 480.668C688.533 480.824 688.646 481.013 688.725 481.234C688.803 481.449 688.842 481.677 688.842 481.918C688.842 482.211 688.812 482.494 688.754 482.768C688.695 483.041 688.572 483.34 688.383 483.666C688.201 483.985 687.937 484.35 687.592 484.76C687.253 485.17 686.801 485.658 686.234 486.225L683.217 489.242ZM704.09 487.377C704.318 486.55 704.432 485.613 704.432 484.564C704.432 483.406 704.311 482.413 704.07 481.586C703.829 480.759 703.494 480.082 703.064 479.555C702.641 479.027 702.133 478.64 701.541 478.393C700.949 478.145 700.301 478.021 699.598 478.021C698.79 478.021 698.068 478.171 697.43 478.471C696.792 478.77 696.255 479.206 695.818 479.779C695.382 480.346 695.047 481.042 694.812 481.869C694.585 482.696 694.471 483.633 694.471 484.682C694.471 485.834 694.591 486.824 694.832 487.65C695.073 488.477 695.408 489.158 695.838 489.691C696.268 490.219 696.779 490.606 697.371 490.854C697.964 491.101 698.611 491.225 699.314 491.225C700.128 491.225 700.851 491.075 701.482 490.775C702.114 490.476 702.648 490.043 703.084 489.477C703.527 488.904 703.862 488.204 704.09 487.377ZM696.873 484.975V484.604C696.873 483.809 696.938 483.122 697.068 482.543C697.205 481.964 697.387 481.482 697.615 481.098C697.85 480.714 698.123 480.43 698.436 480.248C698.748 480.059 699.087 479.965 699.451 479.965C699.959 479.965 700.398 480.121 700.77 480.434C701.147 480.74 701.45 481.215 701.678 481.859L696.893 485.316C696.88 485.199 696.873 485.085 696.873 484.975ZM702.02 484.311C702.026 484.421 702.029 484.532 702.029 484.643C702.029 485.43 701.964 486.117 701.834 486.703C701.704 487.283 701.521 487.764 701.287 488.148C701.059 488.526 700.786 488.809 700.467 488.998C700.154 489.187 699.816 489.281 699.451 489.281C698.95 489.281 698.51 489.128 698.133 488.822C697.755 488.516 697.462 488.048 697.254 487.416L702.01 483.979C702.01 484.083 702.013 484.193 702.02 484.311ZM707.209 489.242V491H715.871V488.803H710.49L712.346 487.035C712.834 486.573 713.267 486.133 713.645 485.717C714.029 485.3 714.351 484.883 714.611 484.467C714.872 484.05 715.07 483.624 715.207 483.188C715.344 482.745 715.412 482.27 715.412 481.762C715.412 481.15 715.311 480.609 715.109 480.141C714.914 479.672 714.634 479.281 714.27 478.969C713.911 478.656 713.479 478.422 712.971 478.266C712.463 478.103 711.896 478.021 711.271 478.021C710.464 478.021 709.712 478.178 709.016 478.49C708.326 478.796 707.704 479.206 707.15 479.721L708.41 481.342C708.794 480.977 709.201 480.688 709.631 480.473C710.061 480.251 710.526 480.141 711.027 480.141C711.32 480.141 711.581 480.189 711.809 480.287C712.036 480.378 712.225 480.505 712.375 480.668C712.525 480.824 712.639 481.013 712.717 481.234C712.795 481.449 712.834 481.677 712.834 481.918C712.834 482.211 712.805 482.494 712.746 482.768C712.688 483.041 712.564 483.34 712.375 483.666C712.193 483.985 711.929 484.35 711.584 484.76C711.245 485.17 710.793 485.658 710.227 486.225L707.209 489.242ZM719.205 489.242V491H727.867V488.803H722.486L724.342 487.035C724.83 486.573 725.263 486.133 725.641 485.717C726.025 485.3 726.347 484.883 726.607 484.467C726.868 484.05 727.066 483.624 727.203 483.188C727.34 482.745 727.408 482.27 727.408 481.762C727.408 481.15 727.307 480.609 727.105 480.141C726.91 479.672 726.63 479.281 726.266 478.969C725.908 478.656 725.475 478.422 724.967 478.266C724.459 478.103 723.893 478.021 723.268 478.021C722.46 478.021 721.708 478.178 721.012 478.49C720.322 478.796 719.7 479.206 719.146 479.721L720.406 481.342C720.79 480.977 721.197 480.688 721.627 480.473C722.057 480.251 722.522 480.141 723.023 480.141C723.316 480.141 723.577 480.189 723.805 480.287C724.033 480.378 724.221 480.505 724.371 480.668C724.521 480.824 724.635 481.013 724.713 481.234C724.791 481.449 724.83 481.677 724.83 481.918C724.83 482.211 724.801 482.494 724.742 482.768C724.684 483.041 724.56 483.34 724.371 483.666C724.189 483.985 723.925 484.35 723.58 484.76C723.242 485.17 722.789 485.658 722.223 486.225L719.205 489.242Z" fill="#F8F8F8" fill-opacity="0.6" shape-rendering="crispEdges"/>
</g>
<defs>
<filter id="filter0_d_1445_1171" x="263.021" y="293.879" width="748.672" height="159.863" filterUnits="userSpaceOnUse" color-interpolation-filters="sRGB">
<feFlood flood-opacity="0" result="BackgroundImageFix"/>
<feColorMatrix in="SourceAlpha" type="matrix" values="0 0 0 0 0 0 0 0 0 0 0 0 0 0 0 0 0 0 127 0" result="hardAlpha"/>
<feOffset dy="20"/>
<feGaussianBlur stdDeviation="10"/>
<feComposite in2="hardAlpha" operator="out"/>
<feColorMatrix type="matrix" values="0 0 0 0 0.992157 0 0 0 0 0.164706 0 0 0 0 0.309804 0 0 0 0.2 0"/>
<feBlend mode="normal" in2="BackgroundImageFix" result="effect1_dropShadow_1445_1171"/>
<feBlend mode="normal" in="SourceGraphic" in2="effect1_dropShadow_1445_1171" result="shape"/>
</filter>
<filter id="filter1_d_1445_1171" x="501" y="459" width="277" height="95" filterUnits="userSpaceOnUse" color-interpolation-filters="sRGB">
<feFlood flood-opacity="0" result="BackgroundImageFix"/>
<feColorMatrix in="SourceAlpha" type="matrix" values="0 0 0 0 0 0 0 0 0 0 0 0 0 0 0 0 0 0 127 0" result="hardAlpha"/>
<feOffset dy="20"/>
<feGaussianBlur stdDeviation="10"/>
<feComposite in2="hardAlpha" operator="out"/>
<feColorMatrix type="matrix" values="0 0 0 0 0.992157 0 0 0 0 0.164706 0 0 0 0 0.309804 0 0 0 0.2 0"/>
<feBlend mode="normal" in2="BackgroundImageFix" result="effect1_dropShadow_1445_1171"/>
<feBlend mode="normal" in="SourceGraphic" in2="effect1_dropShadow_1445_1171" result="shape"/>
</filter>
<linearGradient id="paint0_linear_1445_1171" x1="0" y1="360" x2="1280" y2="360" gradientUnits="userSpaceOnUse">
<stop stop-color="#FD7C50"/>
<stop offset="1" stop-color="#FD294F"/>
</linearGradient>
</defs>
</svg>
