<svg width="779" height="623" viewBox="0 0 779 623" fill="none" xmlns="http://www.w3.org/2000/svg">
<path d="M65.7317 98.283C65.1206 97.9039 64.3798 97.7797 63.6796 97.6616C63.0639 97.5578 62.4513 97.5328 61.8288 97.5348C61.1124 97.537 60.4419 97.5673 59.792 97.8826C58.8677 98.331 58.4914 99.2442 58.2102 100.178C58.13 100.444 58.0191 100.71 57.9608 100.983C57.9076 101.232 57.9346 101.504 57.9346 101.757C57.9346 102.701 57.9119 103.632 58.2146 104.54C58.4375 105.209 59.025 105.408 59.6913 105.354C60.6524 105.275 61.5688 104.887 62.5332 104.789C63.0678 104.735 63.6446 104.855 64.0602 104.446C64.3178 104.192 64.4896 103.862 64.6247 103.531C64.928 102.788 65.1812 102.004 65.3488 101.219C65.4859 100.577 65.5176 99.9175 65.5763 99.2652C65.6494 98.4539 65.7549 97.6445 65.7929 96.8303C65.8407 95.8063 65.7596 94.7772 65.817 93.7544C65.8785 92.657 66.1433 91.571 66.2348 90.4728C66.2905 89.8051 66.3566 89.0804 66.213 88.4163C66.172 88.2268 66.21 87.7835 66.1648 88.2807" stroke="black" stroke-width="2" stroke-linecap="round"/>
<path d="M73.3318 96.8257C72.7649 99.1708 72.7021 101.702 73.0802 104.087C73.1732 104.673 73.2512 105.289 73.4412 105.852C73.4918 106.002 73.5847 106.316 73.765 106.316" stroke="black" stroke-width="2" stroke-linecap="round"/>
<path d="M73.2929 91.0371C73.2929 91.1664 73.3169 91.3235 73.2689 91.4462C73.2049 91.6097 72.8752 91.5622 72.7438 91.5403C72.6625 91.5267 72.3172 91.3608 72.4047 91.2252C72.5234 91.0413 72.8226 90.9774 73.0173 90.9189" stroke="black" stroke-width="2" stroke-linecap="round"/>
<path d="M78.373 97.574C78.4566 99.9977 79.1126 102.353 79.7601 104.671C79.9974 105.521 80.2053 106.381 80.4733 107.222C80.5103 107.338 80.5953 107.641 80.6592 107.537C80.8466 107.232 80.8984 106.761 81.0202 106.426C81.3455 105.531 81.6855 104.636 82.1863 103.822C83.3689 101.901 84.815 100.114 86.192 98.331C86.8935 97.4227 87.6032 96.508 88.3622 95.6467C88.6923 95.272 89.0284 94.8454 89.478 94.6206" stroke="black" stroke-width="2" stroke-linecap="round"/>
<path d="M88.4811 129.653C88.4412 135.436 88.418 152.787 88.418 147.003" stroke="black" stroke-width="2" stroke-linecap="round"/>
<path d="M88.9231 130.284C88.9801 129.286 90.4185 128.805 91.2365 128.671C92.2815 128.5 93.5235 128.782 94.5383 128.994C95.4125 129.176 96.2323 129.546 96.9569 130.066C97.3805 130.371 97.5872 130.741 97.8612 131.174C98.1177 131.58 98.5349 131.996 98.6884 132.457C98.7946 132.775 98.9352 133.115 98.8742 133.456C98.768 134.051 98.3806 134.696 97.8788 135.033C97.4909 135.294 96.9783 135.468 96.5503 135.661C95.6863 136.05 94.7167 136.35 93.7847 136.519C92.9596 136.669 92.1216 136.666 91.3066 136.88C90.9773 136.967 90.6484 137.057 90.3146 137.126C89.8588 137.22 89.1852 137.23 88.7969 136.972" stroke="black" stroke-width="2" stroke-linecap="round"/>
<path d="M59.6574 184.146C59.5088 188.264 59.2971 192.382 58.9576 196.489C58.8831 197.39 58.8418 198.287 58.8418 199.19" stroke="black" stroke-width="2" stroke-linecap="round"/>
<path d="M55.8965 184.056C56.5353 183.35 57.1604 182.762 58.0211 182.334C59.1652 181.765 60.4458 181.284 61.7066 181.06C63.9213 180.667 65.9841 181.468 67.9849 182.344C68.3514 182.505 68.722 182.668 69.0749 182.858C69.168 182.908 69.2928 182.959 69.309 183.079C69.3444 183.34 69.3034 183.621 69.3191 183.885C69.3672 184.689 69.3715 185.41 69.1379 186.193C68.7248 187.577 67.494 188.634 66.1447 189.063C65.4982 189.268 64.8409 189.443 64.1887 189.629C63.5819 189.803 62.97 190.019 62.341 190.095C61.1086 190.243 59.9799 189.851 59.0231 189.086" stroke="black" stroke-width="2" stroke-linecap="round"/>
<path d="M73.6152 189.267C74.4795 188.356 75.9003 187.875 77.0892 188.469C77.9605 188.905 78.0802 189.829 78.2825 190.707C78.4688 191.516 78.6494 192.314 78.7532 193.139C78.8485 193.896 78.8366 194.667 78.869 195.43C78.8797 195.681 78.8715 195.934 78.8715 196.185C78.8715 196.818 78.8715 197.45 78.8715 198.083C78.8715 198.446 78.8715 197.356 78.8715 196.993C78.8715 195.97 78.8012 194.961 78.7356 193.944C78.7131 193.596 78.2094 193.402 77.93 193.323C77.5188 193.206 77.0744 193.228 76.6512 193.199C76.2101 193.169 75.7803 193.119 75.3371 193.119C75.0365 193.119 74.7331 193.092 74.446 193.199C73.8553 193.42 73.441 194.018 73.0589 194.491C72.8049 194.805 72.5209 195.101 72.3566 195.475C72.1155 196.023 72.1163 196.589 72.1199 197.177C72.1244 197.899 72.437 198.595 73.2074 198.795C74.2829 199.075 75.3197 198.904 76.3944 198.748C76.6325 198.713 76.9484 198.748 77.1723 198.644C77.4341 198.524 77.6965 198.027 77.8595 197.801C78.0406 197.55 78.1554 197.51 78.4184 197.378" stroke="black" stroke-width="2" stroke-linecap="round"/>
<path d="M84.9434 190.128C85.3399 191.75 85.3987 193.487 85.613 195.138C85.7217 195.975 85.87 196.797 85.8899 197.643C85.9012 198.125 85.8949 198.608 85.8949 199.09C85.8949 199.127 85.8949 199.493 85.8949 199.37C85.8949 199.12 85.8768 198.875 85.8496 198.627C85.7141 197.392 85.7033 196.163 85.6784 194.921C85.6506 193.531 85.5834 192.022 86.1215 190.707C86.3106 190.245 86.6204 189.83 87.0731 189.61C87.7128 189.298 88.4917 189.131 89.2028 189.131" stroke="black" stroke-width="2" stroke-linecap="round"/>
<path d="M93.8685 189.403C95.5396 188.59 98.4506 187.726 99.7138 189.672C99.9343 190.012 100.022 190.409 100.086 190.803C100.212 191.571 100.251 192.352 100.351 193.124C100.601 195.068 100.686 197.05 100.708 199.009C100.718 199.912 100.711 202.621 100.711 201.718C100.711 201.113 100.714 200.495 100.572 199.903C100.468 199.468 100.3 199.053 100.197 198.617C100.045 197.97 99.9198 197.322 99.7465 196.681C99.6404 196.287 99.6165 195.912 99.4369 195.543C99.2955 195.252 99.0132 195.149 98.8076 194.921C98.4529 194.528 98.0434 194.337 97.5187 194.226C97.1058 194.139 96.6341 194.064 96.2096 194.07C95.8717 194.075 95.4657 194.443 95.2102 194.604C94.7023 194.923 94.0585 195.229 93.6671 195.701C93.2275 196.232 93.3461 197.197 93.3801 197.821C93.4343 198.817 94.0478 199.595 94.9006 200.087C95.6339 200.509 96.5882 200.641 97.423 200.641C98.1184 200.641 98.8181 200.615 99.4872 200.414" stroke="black" stroke-width="2" stroke-linecap="round"/>
<path d="M113.807 190.491C113.671 190.204 113.495 189.935 113.299 189.685C113.007 189.313 112.229 189.238 111.814 189.156C111.151 189.027 110.468 189.027 109.795 189.041C109.37 189.049 108.95 189.153 108.664 189.494C108.276 189.959 108.175 190.773 108.063 191.347C107.978 191.779 107.894 192.209 107.945 192.651C108.004 193.174 108.071 193.684 108.103 194.211C108.145 194.904 108.246 195.712 108.682 196.281C109.492 197.335 110.865 196.895 111.874 196.416C112.76 195.996 113.68 195.452 114.359 194.737C114.754 194.322 115.122 193.88 115.268 193.313C115.426 192.696 115.43 191.993 115.373 191.362C115.337 190.951 115.237 190.544 115.041 190.178C115.038 190.173 114.811 189.831 114.782 189.849C114.693 189.902 114.76 190.055 114.759 190.158C114.757 190.524 114.759 190.89 114.759 191.256C114.759 192.31 114.759 193.364 114.759 194.418C114.759 196.732 114.73 199.047 114.794 201.361C114.833 202.767 114.93 204.271 114.623 205.65C114.526 206.088 114.353 206.646 114.024 206.974C113.678 207.32 112.981 207.434 112.529 207.521C111.294 207.757 110.023 207.364 108.911 206.828C108.666 206.71 108.403 206.569 108.254 206.332C107.865 205.715 107.83 204.743 107.826 204.034C107.824 203.592 107.977 203.217 108.335 202.942C108.703 202.658 109.145 202.448 109.558 202.242C110.395 201.825 111.258 201.464 112.128 201.124C113.174 200.716 114.252 200.391 115.283 199.946C115.668 199.779 116.118 199.645 116.436 199.372" stroke="black" stroke-width="2" stroke-linecap="round"/>
<path d="M118.79 189.584C118.691 191.464 118.585 193.305 118.808 195.176C118.878 195.764 118.887 196.355 118.936 196.945C118.964 197.277 118.987 197.619 119.06 197.945C119.121 198.218 119.121 197.925 119.153 197.877" stroke="black" stroke-width="2" stroke-linecap="round"/>
<path d="M119.244 190.717C119.244 190.11 119.293 189.633 119.672 189.131C120.07 188.604 120.747 188.169 121.374 187.973C121.714 187.867 122.168 187.708 122.532 187.727C122.707 187.735 123 188.041 123.141 188.134" stroke="black" stroke-width="2" stroke-linecap="round"/>
<path d="M118.473 188.361C118.459 188.521 118.367 188.664 118.348 188.824C118.293 189.28 118.337 189.759 118.337 190.219" stroke="black" stroke-width="2" stroke-linecap="round"/>
<path d="M126.133 189.539C126.732 189.139 127.354 188.912 128.061 188.758C128.969 188.561 129.9 188.468 130.825 188.401C131.223 188.372 131.64 188.332 132.034 188.426C132.735 188.595 132.85 189.29 133.03 189.906C133.365 191.052 133.483 192.239 133.771 193.395C133.977 194.223 134.158 195.055 134.224 195.908C134.26 196.388 134.302 196.985 134.178 197.458C134.145 197.585 134.06 197.968 133.927 198.012" stroke="black" stroke-width="2" stroke-linecap="round"/>
<path d="M133.427 193.934C132.43 193.426 131.246 193.064 130.149 192.859C128.874 192.621 127.66 192.755 126.64 193.594C126.3 193.874 125.951 194.158 125.628 194.458C125.307 194.756 124.875 195.145 124.792 195.601C124.647 196.399 125.457 197.003 126.122 197.181C126.603 197.311 127.102 197.279 127.594 197.265C128.305 197.244 129.015 197.242 129.726 197.242C130.078 197.242 130.461 197.201 130.809 197.267C130.933 197.291 131.046 197.349 131.171 197.368C131.681 197.443 132.128 197.332 132.611 197.151" stroke="black" stroke-width="2" stroke-linecap="round"/>
<path d="M146.704 182.833C146.466 182.617 145.992 182.019 145.599 182.075C145.32 182.115 145.059 182.298 144.826 182.44C144.332 182.74 143.862 183.061 143.419 183.432C142.569 184.143 141.791 184.856 141.231 185.823C140.601 186.911 140.187 188.149 140.143 189.408C140.1 190.66 140.149 191.912 140.088 193.164C140.018 194.606 140.009 196.063 140.07 197.506C140.113 198.504 140.188 199.505 140.269 200.5C140.286 200.706 140.311 200.912 140.315 201.119C140.316 201.17 140.315 201.22 140.315 201.139" stroke="black" stroke-width="2" stroke-linecap="round"/>
<path d="M138.23 190.581C139.379 190.581 140.472 190.428 141.609 190.267C143.331 190.022 145.058 189.905 146.795 189.811" stroke="black" stroke-width="2" stroke-linecap="round"/>
<path d="M86.6973 275.998C87.5549 274.973 89.2449 274.661 90.5209 274.507C91.2276 274.422 91.7644 274.999 92.1909 275.488C93.4279 276.905 94.1539 278.522 94.4904 280.385C94.7492 281.818 94.5699 283.365 94.5699 284.825" stroke="black" stroke-width="2" stroke-linecap="round"/>
<path d="M93.1393 281.843C93.0848 280.862 91.7891 279.901 90.8465 279.934C89.2198 279.993 87.6523 281.667 87.6523 283.274C87.6523 284.638 91.7701 284.467 92.7815 284.467" stroke="black" stroke-width="2" stroke-linecap="round"/>
<path d="M91.8017 331.998C91.7753 335.67 91.6836 339.339 91.6836 343.011C91.6836 343.882 91.6836 344.753 91.6836 345.623" stroke="black" stroke-width="2" stroke-linecap="round"/>
<path d="M92.2734 339.283C92.6314 338.567 92.9302 337.833 93.8158 337.728C94.3703 337.662 94.8447 337.825 95.3647 338.001C95.9666 338.205 96.587 338.368 97.0602 338.82C97.5824 339.318 97.6685 340.228 97.769 340.898C97.8792 341.632 97.9163 342.378 97.9637 343.118C98.0046 343.756 98.0159 344.418 97.9615 345.055C97.944 345.26 97.9047 345.457 97.9047 345.663" stroke="black" stroke-width="2" stroke-linecap="round"/>
<path d="M101.135 339.008C101.424 339.994 101.694 340.999 101.887 342.009C102.035 342.783 102.067 343.579 102.119 344.363" stroke="black" stroke-width="2" stroke-linecap="round"/>
<path d="M101.605 339.244C101.658 338.997 101.701 338.745 101.77 338.502C101.888 338.081 102.168 337.768 102.491 337.483C103.067 336.975 103.786 336.629 104.55 336.535C105.216 336.454 105.867 336.501 106.519 336.649C107.031 336.765 107.538 336.885 108.064 336.92" stroke="black" stroke-width="2" stroke-linecap="round"/>
<path d="M110.389 339.992C110.553 340.284 110.715 340.582 110.977 340.799C111.562 341.285 112.409 341.312 113.13 341.361C113.943 341.417 114.741 341.426 115.525 341.175C115.942 341.042 116.009 340.906 116.018 340.486C116.035 339.668 116.003 338.784 115.523 338.089C115.099 337.474 114.237 337.319 113.592 337.666C112.688 338.153 112.05 339.144 111.588 340.031C111.373 340.442 111.409 340.884 111.413 341.335C111.418 342.089 111.482 342.83 111.592 343.575C111.697 344.289 111.865 345.353 112.59 345.715C113.129 345.985 113.494 345.782 113.972 345.505" stroke="black" stroke-width="2" stroke-linecap="round"/>
<path d="M127.281 333.298C126.908 332.893 126.559 332.462 126.156 332.086C125.909 331.855 125.554 331.465 125.202 331.408C125.05 331.383 124.973 331.611 124.931 331.71C124.557 332.588 124.468 333.564 124.41 334.508C124.24 337.314 124.896 340.118 125.279 342.884C125.419 343.893 125.58 344.901 125.664 345.917C125.69 346.234 125.712 346.553 125.736 346.871C125.745 346.983 125.708 346.409 125.706 346.372" stroke="black" stroke-width="2" stroke-linecap="round"/>
<path d="M122.596 339.835C123.557 339.719 124.493 339.606 125.464 339.559C126.008 339.532 126.718 339.611 127.242 339.401" stroke="black" stroke-width="2" stroke-linecap="round"/>
<path d="M134.662 338.479C134.599 338.479 134.553 338.485 134.533 338.411C134.527 338.386 134.525 338.232 134.525 338.274" stroke="black" stroke-width="2" stroke-linecap="round"/>
<path d="M134.868 345.974C134.708 345.831 134.704 345.597 135.005 345.597" stroke="black" stroke-width="2" stroke-linecap="round"/>
<path d="M146.196 334.783C146.184 336.251 146.048 337.715 146.029 339.183C146.01 340.594 146.025 342.007 146.025 343.419C146.025 343.974 146.025 344.529 146.025 345.084" stroke="black" stroke-width="2" stroke-linecap="round"/>
<path d="M152.423 335.365C152.251 336.716 152.215 338.094 152.102 339.452C152.021 340.425 152.013 341.397 152.013 342.373C152.013 343.724 152.101 345.106 151.979 346.453" stroke="black" stroke-width="2" stroke-linecap="round"/>
<path d="M143.047 337.521C146.269 337.521 149.491 337.583 152.713 337.589C153.568 337.591 154.421 337.562 155.276 337.555C155.383 337.554 155.478 337.568 155.572 337.521" stroke="black" stroke-width="2" stroke-linecap="round"/>
<path d="M143.73 343.475C145.756 343.855 147.85 343.718 149.896 343.626C151.627 343.547 153.355 343.434 155.085 343.335C155.588 343.306 156.093 343.27 156.598 343.27" stroke="black" stroke-width="2" stroke-linecap="round"/>
<path d="M38.9668 135.271H69.5503" stroke="black" stroke-width="2" stroke-linecap="round"/>
<path d="M39.793 135.271V249.339" stroke="black" stroke-width="2" stroke-linecap="round"/>
<path d="M38.9668 248.512H714.284" stroke="black" stroke-width="2" stroke-linecap="round"/>
<path d="M714.283 134.444V249.339" stroke="black" stroke-width="2" stroke-linecap="round"/>
<path d="M116.664 133.617H712.629" stroke="black" stroke-width="2" stroke-linecap="round"/>
<path d="M36.4863 279.096H67.8964" stroke="black" stroke-width="2" stroke-linecap="round"/>
<path d="M36.4863 277.442V402.256" stroke="black" stroke-width="2" stroke-linecap="round"/>
<path d="M37.3125 402.256H718.416" stroke="black" stroke-width="2" stroke-linecap="round"/>
<path d="M718.416 279.922V402.256" stroke="black" stroke-width="2" stroke-linecap="round"/>
<path d="M111.705 279.922H716.763" stroke="black" stroke-width="2" stroke-linecap="round"/>
<path d="M83.6016 322.078V358.448" stroke="black" stroke-width="2" stroke-linecap="round"/>
<path d="M82.7754 358.447H372.906" stroke="black" stroke-width="2" stroke-linecap="round"/>
<path d="M372.904 322.904V360.1" stroke="black" stroke-width="2" stroke-linecap="round"/>
<path d="M83.6016 322.904H372.905" stroke="black" stroke-width="2" stroke-linecap="round"/>
<path d="M2.5957 103.86H35.659" stroke="black" stroke-width="2" stroke-linecap="round"/>
<path d="M2.5957 103.86V431.187" stroke="black" stroke-width="2" stroke-linecap="round"/>
<path d="M1.76953 431.187H776.276" stroke="black" stroke-width="2" stroke-linecap="round"/>
<path d="M773.797 101.381V428.707" stroke="black" stroke-width="2" stroke-linecap="round"/>
<path d="M105.092 100.554H777.103" stroke="black" stroke-width="2" stroke-linecap="round"/>
<path d="M9.78945 605.311C9.4614 606.322 9.19711 607.328 8.77997 608.308C8.31026 609.412 7.93309 610.535 7.57069 611.676C7.19885 612.848 6.81808 614.008 6.3544 615.147C5.99014 616.041 5.55574 616.859 5.12058 617.716C4.73633 618.472 4.32289 619.136 3.87274 619.85C3.63584 620.226 3.42682 620.632 3.24181 621.035C3.19141 621.145 2.82661 621.732 3.1016 621.526" stroke="black" stroke-width="2" stroke-linecap="round"/>
<path d="M10.6738 606.194C11.0127 609.263 11.6613 612.22 12.7068 615.133C13.1294 616.309 13.7383 617.402 14.186 618.568C14.3048 618.877 14.3152 619.179 14.3963 619.493C14.4716 619.785 14.5389 620.43 14.838 620.58" stroke="black" stroke-width="2" stroke-linecap="round"/>
<path d="M7.70898 614.27C8.70897 614.19 9.66906 613.891 10.6744 613.891C11.3286 613.891 12.0623 613.797 12.6933 613.955" stroke="black" stroke-width="2" stroke-linecap="round"/>
<path d="M22.9766 604.301C23.2829 609.066 23.3551 613.849 23.3551 618.623" stroke="black" stroke-width="2" stroke-linecap="round"/>
<path d="M23.0399 604.238C24.0291 603.911 25.0202 603.538 26.0508 603.362C27.2879 603.151 28.5757 603.146 29.8259 603.194C31.0189 603.24 32.1268 603.479 33.2434 603.895C34.1143 604.219 35.1955 604.568 35.7917 605.328C36.6909 606.475 36.4787 608.14 36.4787 609.493C36.4787 610.496 36.4876 611.5 36.4787 612.503C36.4676 613.751 36.2406 614.845 35.7847 616.009C35.2611 617.345 34.3188 618.851 33.0016 619.556C31.6093 620.301 29.7282 620.361 28.189 620.387C27.1337 620.404 25.523 620.611 24.6312 619.913C23.7728 619.242 23.1007 618.407 22.5352 617.488" stroke="black" stroke-width="2" stroke-linecap="round"/>
<path d="M41.5254 605.563C41.6519 607.335 41.8191 609.104 41.9285 610.877C42.0413 612.706 42.0301 614.534 42.0301 616.366C42.0301 617.495 42.0301 618.623 42.0301 619.752C42.0301 619.912 42.0052 620.048 41.967 620.201" stroke="black" stroke-width="2" stroke-linecap="round"/>
<path d="M41.4004 604.743C41.7716 604.428 42.2486 604.256 42.6938 604.074C43.9265 603.568 45.2064 603.298 46.5284 603.148C47.5259 603.035 48.7656 602.861 49.7427 603.19C50.582 603.473 51.2224 604.279 51.8598 604.855C52.4554 605.393 52.9923 605.941 53.4091 606.632C53.777 607.243 53.9401 607.921 54.1487 608.595C54.5058 609.75 54.8624 610.813 54.4396 611.999C53.324 615.129 50.5433 617.73 47.3241 618.56C46.7355 618.712 46.1485 618.792 45.5505 618.89C45.1132 618.962 44.614 619.085 44.1765 618.946C43.5249 618.739 42.9532 618.286 42.2837 618.119" stroke="black" stroke-width="2" stroke-linecap="round"/>
<path d="M59.709 454.948C59.7589 460.088 60.3851 465.227 60.3851 470.363" stroke="black" stroke-width="2" stroke-linecap="round"/>
<path d="M59.9785 455.489C60.4438 454.389 62.1281 454.001 63.2238 454.001C63.9979 454.001 64.8126 453.96 65.515 454.347C66.1127 454.676 66.5412 455.274 67.1452 455.624C68.005 456.122 68.6626 457.307 68.873 458.253C69.0078 458.86 69.1528 460.674 68.8204 461.228C67.779 462.964 65.8871 463.196 64.1027 463.196C63.1726 463.196 62.2544 462.791 61.3307 462.791" stroke="black" stroke-width="2" stroke-linecap="round"/>
<path d="M31.5547 509.524V523.12" stroke="black" stroke-width="2" stroke-linecap="round"/>
<path d="M29.0293 507.971C29.5615 507.589 30.0384 507.488 30.691 507.436C32.2103 507.316 33.7601 507.237 35.2823 507.345C36.4302 507.426 38.4793 507.504 39.2316 508.569C39.5819 509.066 39.8524 509.595 40.138 510.129C40.219 510.28 40.4544 510.522 40.4833 510.695C40.6131 511.474 39.9539 512.527 39.4528 513.058C38.6859 513.872 37.4826 514.158 36.4747 514.531C36.0362 514.693 35.5192 515.112 35.0503 515.157C33.7485 515.281 32.4764 515.351 31.1658 515.351" stroke="black" stroke-width="2" stroke-linecap="round"/>
<path d="M45.7871 514.953C46.8623 514.571 47.9439 514.127 49.0632 513.886C49.2656 513.842 49.6696 513.716 49.8851 513.783C50.084 513.845 50.2313 514.353 50.3017 514.496C50.6332 515.17 50.9695 515.854 51.3633 516.494C51.6438 516.95 51.8131 517.18 51.7971 517.738C51.7756 518.485 51.3802 519.074 51.2292 519.779C51.185 519.984 51.0835 520.141 51.0494 520.355C50.9929 520.71 50.9271 521.064 50.9238 521.425C50.9167 522.213 50.9238 524.576 50.9238 523.788" stroke="black" stroke-width="2" stroke-linecap="round"/>
<path d="M51.181 519.422C50.5612 518.829 50.012 518.384 49.1434 518.252C48.4067 518.139 47.6451 518.115 46.9004 518.143C46.0874 518.175 45.3114 518.398 44.5717 518.731C43.9527 519.01 43.9836 519.507 44.0295 520.138C44.1077 521.211 44.3115 522.234 45.2224 522.858C46.1941 523.523 47.3612 523.685 48.5099 523.685" stroke="black" stroke-width="2" stroke-linecap="round"/>
<path d="M56.2656 516.237C56.3141 518.307 56.6252 520.502 56.6252 522.504" stroke="black" stroke-width="2" stroke-linecap="round"/>
<path d="M56.7793 517.008C56.7793 516.569 56.7907 516.169 57.0304 515.78C57.3427 515.274 57.8319 514.886 58.3032 514.536C58.5476 514.355 58.82 514.156 59.1251 514.091C59.782 513.951 60.5051 514.028 61.174 514.028C61.3674 514.028 61.4913 514.089 61.6592 514.182" stroke="black" stroke-width="2" stroke-linecap="round"/>
<path d="M64.7402 515.569C65.4803 515.151 66.2356 514.619 67.0603 514.379C67.8861 514.14 68.9227 514.04 69.6258 514.625C70.3869 515.257 70.7033 516.229 70.9271 517.156C71.0746 517.767 71.0593 518.404 71.047 519.028C71.0264 520.069 71.007 521.109 71.007 522.15C71.007 522.538 71.007 522.926 71.007 523.314C71.007 523.339 71.0422 523.727 70.9956 523.782C70.9329 523.856 70.9088 523.608 70.8757 523.517C70.8099 523.335 70.7574 523.15 70.6988 522.966" stroke="black" stroke-width="2" stroke-linecap="round"/>
<path d="M70.545 520.089C69.6337 519.651 68.713 519.231 67.6884 519.173C66.7511 519.121 65.7219 519.228 64.809 519.444C64.3404 519.556 63.8532 519.776 63.7217 520.278C63.5359 520.986 63.9738 521.946 64.3838 522.498C64.6676 522.88 64.9398 523.12 65.414 523.12C66.0366 523.12 66.5998 523.032 67.1975 522.869C67.5831 522.764 67.9434 522.76 68.3362 522.76" stroke="black" stroke-width="2" stroke-linecap="round"/>
<path d="M84.5684 515.98C84.0895 515.316 82.965 515.134 82.2169 515.067C80.6142 514.923 78.6493 514.978 77.28 515.969C75.6937 517.117 76.6914 519.664 78.5071 519.821C79.4618 519.904 80.5012 519.874 81.415 519.576C81.6564 519.497 82.0195 519.415 82.1998 519.216C82.4587 518.93 82.6389 518.573 82.8762 518.269C83.1016 517.98 83.5532 517.669 83.6324 517.293C83.6573 517.174 83.6438 516.682 83.6438 516.745C83.6438 517.799 83.6638 518.847 83.7437 519.898C83.8673 521.526 83.7567 523.162 83.8578 524.792C83.9072 525.588 84.0191 526.377 84.0776 527.172C84.1613 528.311 84.1791 529.451 84.2317 530.591C84.2583 531.168 84.4014 531.827 84.2031 532.389C84.0852 532.723 83.7684 532.876 83.4669 533.022C82.5842 533.45 81.668 533.446 80.733 533.202C80.135 533.046 79.5082 532.809 79.055 532.372C78.4348 531.774 78.0351 530.85 77.845 530.026C77.4727 528.413 77.6117 526.789 78.8096 525.591C79.6782 524.723 80.8703 524.188 81.8973 523.531" stroke="black" stroke-width="2" stroke-linecap="round"/>
<path d="M91.6055 516.186C91.6726 517.796 91.7882 519.398 91.9308 521.003C92.0113 521.908 92.1191 522.827 92.1191 523.737" stroke="black" stroke-width="2" stroke-linecap="round"/>
<path d="M91.9648 517.367C92.2615 516.598 92.6963 515.955 93.346 515.432C93.7801 515.083 94.3022 514.817 94.8014 514.576C95.0578 514.453 95.3131 514.341 95.6005 514.337C95.9611 514.332 96.3105 514.449 96.6678 514.479C97.0323 514.511 97.4038 514.491 97.7693 514.491" stroke="black" stroke-width="2" stroke-linecap="round"/>
<path d="M100.955 514.388C101.548 513.902 102.483 513.647 103.152 514.085C104.214 514.782 104.998 516.039 105.413 517.219C105.799 518.317 105.772 519.563 105.724 520.712C105.675 521.886 105.232 522.987 105.116 524.148" stroke="black" stroke-width="2" stroke-linecap="round"/>
<path d="M105.115 519.011C103.915 517.735 102.273 517.859 100.732 518.383C100.248 518.548 99.8173 518.787 99.4017 519.082C99.1378 519.27 98.7978 519.471 98.7054 519.804C98.5007 520.544 98.6918 521.512 99.0308 522.19C99.4853 523.099 100.659 523.275 101.571 523.275C102.291 523.275 102.836 523.652 103.42 523.069" stroke="black" stroke-width="2" stroke-linecap="round"/>
<path d="M118.266 508.943C117.698 508.52 116.7 507.516 115.883 507.756C115.454 507.882 115.145 508.216 114.876 508.555C114.491 509.039 114.149 509.577 113.803 510.09C113.529 510.497 113.313 510.951 113.098 511.389C112.629 512.342 112.155 513.321 111.879 514.351C111.514 515.712 111.543 517.22 111.537 518.617C111.53 520.162 111.54 521.723 111.691 523.263C111.728 523.644 111.845 524.016 111.845 524.399C111.845 524.488 111.828 524.73 111.896 524.661" stroke="black" stroke-width="2" stroke-linecap="round"/>
<path d="M109.637 516.083C110.711 516.146 111.759 516.326 112.841 516.337C113.484 516.344 114.159 516.39 114.773 516.186" stroke="black" stroke-width="2" stroke-linecap="round"/>
<path d="M2 460.751H40.8157" stroke="black" stroke-width="2" stroke-linecap="round"/>
<path d="M2 463.986V571.808" stroke="black" stroke-width="2" stroke-linecap="round"/>
<path d="M3.07812 571.808H643.536" stroke="black" stroke-width="2" stroke-linecap="round"/>
<path d="M643.537 458.595V562.104" stroke="black" stroke-width="2" stroke-linecap="round"/>
<path d="M80.709 458.595H643.536" stroke="black" stroke-width="2" stroke-linecap="round"/>
<path d="M643.537 563.182V573.964" stroke="black" stroke-width="2" stroke-linecap="round"/>
<path d="M4.79102 2.47998V33.4033" stroke="black" stroke-width="2" stroke-linecap="round"/>
<path d="M3.62305 33.793H24.2645" stroke="black" stroke-width="2" stroke-linecap="round"/>
<path d="M3 1H22.6289" stroke="black" stroke-width="2" stroke-linecap="round"/>
<path d="M4.79102 16.9678H15.696" stroke="black" stroke-width="2" stroke-linecap="round"/>
<path d="M36.9609 12.0605C37.712 13.0447 38.3765 14.0886 39.116 15.081C40.9287 17.5141 42.9514 19.7812 44.7329 22.2385C45.8183 23.7357 46.6781 25.402 47.5543 27.0245C47.9011 27.6667 48.2829 28.3511 48.5669 29.0238C48.7141 29.3723 48.9708 29.6849 49.0689 30.0494C49.2319 30.6548 49.4581 31.2472 49.6574 31.8452" stroke="black" stroke-width="2" stroke-linecap="round"/>
<path d="M34.8574 32.9358C35.4541 32.6706 35.9028 31.8778 36.3936 31.4558C37.4555 30.5428 38.5767 29.7016 39.6262 28.7729C42.4065 26.3124 44.7106 23.314 47.1038 20.4903C48.2711 19.1131 49.5851 17.9019 50.834 16.6043C51.7002 15.7044 52.5256 14.7647 53.3785 13.8521C53.9587 13.2314 54.9766 12.4362 55.1873 11.5933" stroke="black" stroke-width="2" stroke-linecap="round"/>
<path d="M63.1328 18.5257C63.1328 17.7408 63.1682 17.0189 63.4877 16.2928C63.7074 15.7933 63.8588 15.3016 64.2233 14.8821C64.6242 14.4207 65.1411 13.9868 65.6254 13.6185C66.2877 13.1148 67.131 12.3599 68.0054 12.29C68.3498 12.2624 68.6588 12.0883 69.0137 12.1429C69.7114 12.2502 70.3449 12.7589 71.0389 12.9131C71.5978 13.0373 72.3452 13.2602 72.5578 13.8868C72.9251 14.9695 73.4921 16.05 73.6872 17.1756C73.9234 18.538 74.353 19.8363 74.4662 21.2173C74.5803 22.61 74.4213 24.0137 74.5224 25.4062C74.579 26.1863 74.6609 26.9306 74.6609 27.717C74.6609 28.7556 74.6609 29.7941 74.6609 30.8327" stroke="black" stroke-width="2" stroke-linecap="round"/>
<path d="M74.2709 21.9533C73.9992 21.7654 73.6054 21.3512 73.2367 21.4297C72.5165 21.5829 71.8355 21.8976 71.1552 22.1697C70.2382 22.5365 69.3204 22.8281 68.5242 23.4333C67.0934 24.5207 65.7107 25.8462 65.9537 27.7909C66.1627 29.4627 67.8543 29.9822 69.2771 30.1666C70.0712 30.2696 71.2351 30.2845 71.7005 29.5089" stroke="black" stroke-width="2" stroke-linecap="round"/>
<path d="M90.707 14.0078C90.8499 17.6752 91.3785 21.3051 91.4686 24.982C91.508 26.587 91.4263 28.2023 91.5812 29.8027C91.6068 30.0678 91.5981 30.6331 91.7975 30.8326" stroke="black" stroke-width="2" stroke-linecap="round"/>
<path d="M91.4062 19.6164C91.4597 19.1111 91.4885 18.6214 91.7351 18.1667C92.2727 17.1755 93.2157 16.2909 94.0503 15.553C95.1437 14.5862 96.6632 13.9126 98.0877 13.636C99.182 13.4234 100.535 13.2861 101.519 13.9086C102.322 14.4164 103.115 14.8643 104.008 15.2025C104.536 15.4026 105.131 15.5527 105.578 15.9165C106.432 16.6097 106.419 18.3329 106.439 19.3221C106.476 21.1235 106.829 22.8866 106.829 24.6967C106.829 26.6797 106.82 28.66 106.768 30.6425C106.74 31.7066 106.751 32.7716 106.751 33.8361C106.751 34.448 106.751 33.6296 106.751 33.4812" stroke="black" stroke-width="2" stroke-linecap="round"/>
<path d="M106.83 17.3575C106.122 16.5611 108.027 15.6954 108.5 15.315C108.844 15.0383 109.222 14.9725 109.634 14.8476C110.416 14.6105 111.2 14.3881 111.984 14.1552C113.511 13.7012 114.962 13.4828 116.549 13.5451C117.319 13.5753 118.195 13.788 118.877 14.1552C119.168 14.3121 119.132 14.5054 119.154 14.813C119.29 16.6678 119.37 18.5179 119.37 20.378C119.37 22.4707 119.604 24.5523 119.604 26.644C119.604 27.6249 119.604 28.6057 119.604 29.5866" stroke="black" stroke-width="2" stroke-linecap="round"/>
<path d="M136.195 15.1763C136.195 17.9109 136.28 20.5999 136.542 23.3247C136.686 24.827 136.849 26.3227 136.81 27.8338C136.767 29.521 136.663 31.1989 136.663 32.8881C136.663 35.6983 136.793 38.5537 136.55 41.3568C136.515 41.7622 136.351 42.1938 136.351 42.5944" stroke="black" stroke-width="2" stroke-linecap="round"/>
<path d="M137.131 16.8903C137.131 15.5474 138.711 14.5521 139.792 14.0775C142.114 13.0581 144.475 12.8399 146.997 12.8399C147.73 12.8399 148.576 12.7266 149.278 12.9827C150.077 13.2744 150.683 13.9073 151.03 14.666C152.087 16.9759 152.02 19.5842 152.008 22.0745C152.004 23.012 151.967 23.9484 151.628 24.8353C151.081 26.2619 150.08 27.4369 149.347 28.7602C148.936 29.5031 148.743 30.3826 148.036 30.9109C147.196 31.5385 146.06 31.8274 145.067 32.1096C144.044 32.4004 142.868 32.662 141.822 32.3303C141.169 32.1235 140.465 31.9159 139.857 31.612" stroke="black" stroke-width="2" stroke-linecap="round"/>
<path d="M163.691 2.7915C163.963 5.27742 164.08 7.75823 164.08 10.2605C164.08 11.9258 163.889 13.5761 163.786 15.237C163.653 17.3787 163.662 19.5161 163.595 21.6588C163.546 23.2406 163.345 24.8114 163.284 26.3929C163.234 27.6752 163.033 28.9204 162.929 30.1923C162.873 30.8758 162.756 31.5505 162.756 32.2348" stroke="black" stroke-width="2" stroke-linecap="round"/>
<path d="M177.166 21.8751C177.605 22.0244 178.024 22.0369 178.486 22.0265C179.843 21.996 181.195 21.8917 182.554 21.8794C183.96 21.8667 185.245 21.8729 186.608 21.5549C187.231 21.4095 187.809 21.142 188.434 21.0183C189.034 20.8997 189.653 20.8679 190.261 20.8019C190.515 20.7743 190.539 20.7661 190.641 20.5509C190.877 20.0539 191.149 19.5587 191.303 19.032C191.57 18.1269 191.275 16.92 190.871 16.111C189.988 14.3446 187.798 13.4029 185.938 13.0905C184.402 12.8327 182.43 12.6252 181.009 13.3805C179.924 13.9568 178.909 14.8552 178.213 15.8601C177.449 16.9626 177.385 18.5675 177.4 19.8672C177.419 21.5761 177.883 23.2728 178.451 24.8783C178.868 26.0574 179.33 27.1954 180.035 28.2363C180.495 28.9156 181 29.6574 181.615 30.2096C182.226 30.7594 183.13 31.4677 183.977 31.6116C184.918 31.7714 186.034 31.7853 186.946 31.4732C187.343 31.3373 187.758 31.3053 188.175 31.3001C188.504 31.2959 188.502 31.292 188.616 30.9885" stroke="black" stroke-width="2" stroke-linecap="round"/>
<path d="M225.537 1.31152V31.7675" stroke="black" stroke-width="2" stroke-linecap="round"/>
<path d="M212.297 1.62305H238.469" stroke="black" stroke-width="2" stroke-linecap="round"/>
<path d="M244.699 21.7975C246.107 21.7975 247.544 21.8812 248.94 21.6764C249.896 21.5361 250.814 21.3467 251.787 21.3302C253.342 21.3038 254.876 21.0965 256.426 21.0965C256.532 21.0965 256.752 21.1515 256.768 21.0013C256.819 20.5404 256.786 20.0343 256.764 19.5733C256.701 18.2593 256.54 16.9083 255.916 15.7392C255.491 14.9445 254.973 14.1781 254.116 13.8179C253.266 13.4612 252.242 13.4928 251.342 13.5842C250.202 13.6998 249.01 13.6623 247.893 13.9304C246.901 14.1684 246.396 15.0502 246.075 15.9556C245.655 17.1409 245.871 18.2406 245.677 19.4348C245.413 21.0664 245.273 22.7589 245.491 24.4069C245.897 27.4769 246.427 31.1852 249.68 32.5726C250.314 32.8429 250.987 32.8527 251.666 32.8583C252.529 32.8653 253.425 32.9188 254.271 32.7198C254.876 32.5776 254.747 32.4566 254.747 31.8456" stroke="black" stroke-width="2" stroke-linecap="round"/>
<path d="M267.055 13.1514C267.523 13.4634 267.902 13.925 268.301 14.3154C269.262 15.2555 270.336 15.9852 271.438 16.7517C272.633 17.5822 273.838 18.3984 274.827 19.478C275.925 20.6778 276.686 22.1344 277.752 23.3639C278.405 24.1176 279.098 24.8378 279.76 25.5839C280.011 25.8672 280.326 26.1609 280.491 26.5099C280.66 26.8658 280.746 27.2578 280.842 27.6394" stroke="black" stroke-width="2" stroke-linecap="round"/>
<path d="M282.321 12.3721C281.028 13.4839 279.838 14.6127 278.738 15.9205C278.235 16.5191 277.791 17.1757 277.267 17.7553C276.799 18.2732 276.224 18.6527 275.809 19.2223C274.482 21.0434 273.243 22.9856 272.308 25.0253C271.878 25.9639 271.486 27.0187 271.343 28.0458C271.301 28.3445 271.244 28.7004 271.131 28.9805C270.84 29.7005 270.716 30.6765 270.248 31.2999" stroke="black" stroke-width="2" stroke-linecap="round"/>
<path d="M297.667 6.53027C297.034 8.15966 296.496 9.90686 296.338 11.6582C296.076 14.5719 296.109 17.4774 296.109 20.3995C296.109 22.7019 296.175 24.993 296.26 27.2929C296.278 27.76 296.27 28.1639 296.511 28.5868C297.032 29.4988 298.126 30.4366 299.051 30.9712C299.439 31.1953 299.985 31.4447 300.41 31.577C301.242 31.8361 301.274 30.9444 301.405 30.2875" stroke="black" stroke-width="2" stroke-linecap="round"/>
<path d="M291.668 13.4629C291.794 13.5662 291.939 13.6032 292.101 13.6143C292.937 13.672 293.802 13.5938 294.637 13.5797C297.775 13.5269 300.914 13.5408 304.053 13.5408" stroke="black" stroke-width="2" stroke-linecap="round"/>
</svg>
