<svg width="1280" height="996" viewBox="0 0 1280 996" fill="none" xmlns="http://www.w3.org/2000/svg">
<rect width="1280" height="996" fill="#F2F2F2"/>
<path d="M1234 54C1239.5 54 1244 49.5 1244 44C1244 38.5 1239.5 34 1234 34C1228.5 34 1224 38.5 1224 44C1224 49.5 1228.5 54 1234 54Z" stroke="#5D60EF" stroke-width="1.5" stroke-linecap="round" stroke-linejoin="round"/>
<path d="M1231.17 46.8299L1236.83 41.1699" stroke="#5D60EF" stroke-width="1.5" stroke-linecap="round" stroke-linejoin="round"/>
<path d="M1236.83 46.8299L1231.17 41.1699" stroke="#5D60EF" stroke-width="1.5" stroke-linecap="round" stroke-linejoin="round"/>
<rect x="903" y="18" width="358" height="960" rx="10" fill="#2C2C2C"/>
<rect x="37.5" y="150.5" width="829" height="487" rx="9.5" stroke="#2C2C2C"/>
<rect x="82.5" y="333.5" width="745" height="105" rx="9.5" stroke="#2C2C2C"/>
<path d="M37.5 160C37.5 154.753 41.7533 150.5 47 150.5H857C862.247 150.5 866.5 154.753 866.5 160V194.5H37.5V160Z" fill="#2C2C2C" stroke="#2C2C2C"/>
<path d="M922.948 52V41.0909H927.252C928.08 41.0909 928.784 41.2489 929.367 41.565C929.949 41.8775 930.393 42.3125 930.699 42.87C931.007 43.424 931.162 44.0632 931.162 44.7876C931.162 45.5121 931.006 46.1513 930.693 46.7053C930.381 47.2592 929.928 47.6907 929.335 47.9996C928.745 48.3086 928.032 48.4631 927.194 48.4631H924.45V46.6147H926.821C927.265 46.6147 927.63 46.5384 927.918 46.3857C928.209 46.2294 928.426 46.0146 928.568 45.7411C928.713 45.4641 928.786 45.1463 928.786 44.7876C928.786 44.4254 928.713 44.1094 928.568 43.8395C928.426 43.5661 928.209 43.3548 927.918 43.2056C927.627 43.0529 927.257 42.9766 926.81 42.9766H925.255V52H922.948ZM934.731 52.1545C934.209 52.1545 933.744 52.0639 933.335 51.8828C932.927 51.6982 932.604 51.4265 932.366 51.0678C932.131 50.7056 932.014 50.2546 932.014 49.7148C932.014 49.2603 932.098 48.8786 932.265 48.5696C932.431 48.2607 932.659 48.0121 932.946 47.8239C933.234 47.6357 933.561 47.4936 933.926 47.3977C934.296 47.3018 934.683 47.2344 935.088 47.1953C935.564 47.1456 935.947 47.0994 936.238 47.0568C936.529 47.0107 936.741 46.9432 936.872 46.8544C937.004 46.7656 937.069 46.6342 937.069 46.4602V46.4283C937.069 46.0909 936.963 45.8299 936.75 45.6452C936.54 45.4606 936.242 45.3683 935.855 45.3683C935.446 45.3683 935.121 45.4588 934.88 45.6399C934.638 45.8175 934.479 46.0412 934.401 46.3111L932.302 46.1406C932.408 45.6435 932.618 45.2138 932.93 44.8516C933.243 44.4858 933.646 44.2053 934.14 44.0099C934.637 43.8111 935.212 43.7116 935.865 43.7116C936.32 43.7116 936.755 43.7649 937.17 43.8714C937.589 43.978 937.961 44.1431 938.284 44.3668C938.61 44.5906 938.868 44.8782 939.056 45.2298C939.244 45.5778 939.338 45.995 939.338 46.4815V52H937.186V50.8654H937.123C936.991 51.1211 936.815 51.3466 936.595 51.5419C936.375 51.7337 936.11 51.8846 935.801 51.9947C935.493 52.1012 935.136 52.1545 934.731 52.1545ZM935.381 50.5884C935.714 50.5884 936.009 50.5227 936.265 50.3913C936.521 50.2564 936.721 50.0753 936.867 49.848C937.012 49.6207 937.085 49.3633 937.085 49.0756V48.2074C937.014 48.2536 936.917 48.2962 936.792 48.3352C936.672 48.3707 936.535 48.4045 936.382 48.4364C936.229 48.4648 936.077 48.4915 935.924 48.5163C935.771 48.5376 935.633 48.5572 935.509 48.5749C935.242 48.614 935.01 48.6761 934.811 48.7614C934.612 48.8466 934.457 48.962 934.347 49.1076C934.237 49.2496 934.182 49.4272 934.182 49.6403C934.182 49.9492 934.294 50.1854 934.518 50.3487C934.745 50.5085 935.033 50.5884 935.381 50.5884ZM944.785 55.2386C944.05 55.2386 943.42 55.1374 942.894 54.935C942.372 54.7362 941.956 54.4645 941.648 54.12C941.339 53.7756 941.138 53.3885 941.046 52.9588L943.144 52.6765C943.208 52.8398 943.309 52.9925 943.448 53.1346C943.586 53.2766 943.769 53.3903 943.997 53.4755C944.227 53.5643 944.508 53.6087 944.838 53.6087C945.332 53.6087 945.738 53.4879 946.058 53.2464C946.381 53.0085 946.543 52.609 946.543 52.0479V50.5511H946.447C946.347 50.7784 946.198 50.9933 945.999 51.1957C945.801 51.3981 945.545 51.5632 945.232 51.6911C944.92 51.8189 944.547 51.8828 944.114 51.8828C943.499 51.8828 942.94 51.7408 942.436 51.4567C941.935 51.169 941.536 50.7305 941.237 50.141C940.943 49.5479 940.795 48.7987 940.795 47.8931C940.795 46.9663 940.946 46.1921 941.248 45.5707C941.55 44.9492 941.951 44.484 942.452 44.1751C942.956 43.8661 943.508 43.7116 944.108 43.7116C944.567 43.7116 944.95 43.7898 945.259 43.946C945.568 44.0987 945.817 44.2905 946.005 44.5213C946.197 44.7486 946.344 44.9723 946.447 45.1925H946.532V43.8182H948.785V52.0799C948.785 52.7759 948.615 53.3583 948.274 53.8271C947.933 54.2958 947.461 54.6474 946.857 54.8817C946.257 55.1197 945.566 55.2386 944.785 55.2386ZM944.833 50.1783C945.199 50.1783 945.508 50.0877 945.76 49.9066C946.015 49.7219 946.211 49.4592 946.346 49.1183C946.484 48.7738 946.553 48.3619 946.553 47.8825C946.553 47.4031 946.486 46.9876 946.351 46.636C946.216 46.2809 946.021 46.0057 945.765 45.8104C945.509 45.6151 945.199 45.5174 944.833 45.5174C944.46 45.5174 944.146 45.6186 943.89 45.821C943.634 46.0199 943.441 46.2969 943.309 46.652C943.178 47.0071 943.112 47.4173 943.112 47.8825C943.112 48.3548 943.178 48.7631 943.309 49.1076C943.444 49.4485 943.638 49.7131 943.89 49.9013C944.146 50.0859 944.46 50.1783 944.833 50.1783ZM954.32 52.1598C953.478 52.1598 952.754 51.9893 952.146 51.6484C951.543 51.304 951.078 50.8175 950.751 50.1889C950.424 49.5568 950.261 48.8093 950.261 47.9464C950.261 47.1048 950.424 46.3661 950.751 45.7305C951.078 45.0948 951.537 44.5994 952.131 44.2443C952.727 43.8892 953.427 43.7116 954.229 43.7116C954.769 43.7116 955.271 43.7987 955.737 43.9727C956.205 44.1431 956.614 44.4006 956.962 44.745C957.313 45.0895 957.587 45.5227 957.782 46.0447C957.977 46.5632 958.075 47.1705 958.075 47.8665V48.4897H951.166V47.0835H955.939C955.939 46.7567 955.868 46.4673 955.726 46.2152C955.584 45.9631 955.387 45.766 955.135 45.6239C954.886 45.4783 954.597 45.4055 954.267 45.4055C953.922 45.4055 953.617 45.4854 953.35 45.6452C953.088 45.8015 952.882 46.0128 952.732 46.2791C952.583 46.5419 952.507 46.8349 952.503 47.158V48.495C952.503 48.8999 952.578 49.2496 952.727 49.5444C952.88 49.8391 953.095 50.0664 953.372 50.2262C953.649 50.386 953.977 50.4659 954.357 50.4659C954.609 50.4659 954.84 50.4304 955.05 50.3594C955.259 50.2884 955.438 50.1818 955.588 50.0398C955.737 49.8977 955.85 49.7237 955.928 49.5178L958.027 49.6562C957.921 50.1605 957.702 50.6009 957.372 50.9773C957.045 51.3501 956.623 51.6413 956.104 51.8509C955.589 52.0568 954.994 52.1598 954.32 52.1598ZM968.988 44.2283C968.946 43.7987 968.763 43.4648 968.44 43.2269C968.116 42.989 967.678 42.87 967.124 42.87C966.747 42.87 966.43 42.9233 966.17 43.0298C965.911 43.1328 965.712 43.2766 965.574 43.4613C965.439 43.646 965.371 43.8555 965.371 44.0898C965.364 44.2852 965.405 44.4556 965.494 44.6012C965.586 44.7468 965.712 44.8729 965.872 44.9794C966.032 45.0824 966.217 45.1729 966.426 45.2511C966.636 45.3256 966.859 45.3896 967.097 45.4428L968.077 45.6772C968.553 45.7837 968.99 45.9258 969.388 46.1033C969.785 46.2809 970.13 46.4993 970.421 46.7585C970.712 47.0178 970.938 47.3232 971.098 47.6747C971.261 48.0263 971.344 48.4293 971.348 48.8839C971.344 49.5515 971.174 50.1303 970.837 50.6204C970.503 51.1069 970.02 51.4851 969.388 51.755C968.759 52.0213 968.001 52.1545 967.113 52.1545C966.233 52.1545 965.465 52.0195 964.812 51.7496C964.162 51.4798 963.654 51.0803 963.289 50.5511C962.926 50.0185 962.736 49.3597 962.719 48.5749H964.951C964.975 48.9407 965.08 49.2461 965.265 49.4911C965.453 49.7326 965.703 49.9155 966.016 50.0398C966.332 50.1605 966.689 50.2209 967.087 50.2209C967.477 50.2209 967.816 50.1641 968.104 50.0504C968.395 49.9368 968.621 49.7788 968.78 49.5763C968.94 49.3739 969.02 49.1413 969.02 48.8786C969.02 48.6335 968.947 48.4276 968.802 48.2607C968.66 48.0937 968.45 47.9517 968.173 47.8345C967.9 47.7173 967.564 47.6108 967.166 47.5149L965.979 47.2166C965.059 46.9929 964.333 46.6431 963.8 46.1673C963.267 45.6914 963.003 45.0504 963.006 44.2443C963.003 43.5838 963.179 43.0067 963.534 42.5131C963.892 42.0195 964.384 41.6342 965.009 41.3572C965.634 41.0803 966.344 40.9418 967.14 40.9418C967.949 40.9418 968.656 41.0803 969.26 41.3572C969.867 41.6342 970.339 42.0195 970.677 42.5131C971.014 43.0067 971.188 43.5785 971.199 44.2283H968.988ZM976.585 52.1598C975.744 52.1598 975.019 51.9893 974.412 51.6484C973.808 51.304 973.343 50.8175 973.017 50.1889C972.69 49.5568 972.526 48.8093 972.526 47.9464C972.526 47.1048 972.69 46.3661 973.017 45.7305C973.343 45.0948 973.803 44.5994 974.396 44.2443C974.993 43.8892 975.692 43.7116 976.495 43.7116C977.035 43.7116 977.537 43.7987 978.002 43.9727C978.471 44.1431 978.879 44.4006 979.227 44.745C979.579 45.0895 979.852 45.5227 980.048 46.0447C980.243 46.5632 980.341 47.1705 980.341 47.8665V48.4897H973.432V47.0835H978.205C978.205 46.7567 978.134 46.4673 977.992 46.2152C977.85 45.9631 977.653 45.766 977.4 45.6239C977.152 45.4783 976.862 45.4055 976.532 45.4055C976.188 45.4055 975.882 45.4854 975.616 45.6452C975.353 45.8015 975.147 46.0128 974.998 46.2791C974.849 46.5419 974.773 46.8349 974.769 47.158V48.495C974.769 48.8999 974.844 49.2496 974.993 49.5444C975.145 49.8391 975.36 50.0664 975.637 50.2262C975.914 50.386 976.243 50.4659 976.623 50.4659C976.875 50.4659 977.106 50.4304 977.315 50.3594C977.525 50.2884 977.704 50.1818 977.853 50.0398C978.002 49.8977 978.116 49.7237 978.194 49.5178L980.293 49.6562C980.186 50.1605 979.968 50.6009 979.638 50.9773C979.311 51.3501 978.888 51.6413 978.37 51.8509C977.855 52.0568 977.26 52.1598 976.585 52.1598ZM986.173 43.8182V45.5227H981.246V43.8182H986.173ZM982.365 41.858H984.634V49.4858C984.634 49.6953 984.666 49.8587 984.73 49.9759C984.794 50.0895 984.883 50.1694 984.996 50.2156C985.113 50.2617 985.248 50.2848 985.401 50.2848C985.508 50.2848 985.614 50.2759 985.721 50.2582C985.827 50.2369 985.909 50.2209 985.966 50.2102L986.323 51.8988C986.209 51.9343 986.049 51.9751 985.843 52.0213C985.637 52.071 985.387 52.1012 985.092 52.1119C984.545 52.1332 984.066 52.0604 983.654 51.8935C983.246 51.7266 982.928 51.4673 982.7 51.1158C982.473 50.7642 982.361 50.3203 982.365 49.7841V41.858ZM992.004 43.8182V45.5227H987.076V43.8182H992.004ZM988.195 41.858H990.464V49.4858C990.464 49.6953 990.496 49.8587 990.56 49.9759C990.624 50.0895 990.713 50.1694 990.826 50.2156C990.944 50.2617 991.078 50.2848 991.231 50.2848C991.338 50.2848 991.444 50.2759 991.551 50.2582C991.657 50.2369 991.739 50.2209 991.796 50.2102L992.153 51.8988C992.039 51.9343 991.879 51.9751 991.673 52.0213C991.467 52.071 991.217 52.1012 990.922 52.1119C990.375 52.1332 989.896 52.0604 989.484 51.8935C989.076 51.7266 988.758 51.4673 988.531 51.1158C988.303 50.7642 988.191 50.3203 988.195 49.7841V41.858ZM993.482 52V43.8182H995.751V52H993.482ZM994.622 42.7635C994.284 42.7635 993.995 42.6516 993.753 42.4279C993.515 42.2006 993.396 41.929 993.396 41.6129C993.396 41.3004 993.515 41.0323 993.753 40.8086C993.995 40.5813 994.284 40.4677 994.622 40.4677C994.959 40.4677 995.247 40.5813 995.485 40.8086C995.726 41.0323 995.847 41.3004 995.847 41.6129C995.847 41.929 995.726 42.2006 995.485 42.4279C995.247 42.6516 994.959 42.7635 994.622 42.7635ZM999.838 47.2699V52H997.569V43.8182H999.731V45.2617H999.827C1000.01 44.7859 1000.31 44.4094 1000.74 44.1325C1001.16 43.8519 1001.68 43.7116 1002.29 43.7116C1002.86 43.7116 1003.35 43.8359 1003.77 44.0845C1004.2 44.3331 1004.53 44.6882 1004.76 45.1499C1004.99 45.608 1005.11 46.1548 1005.11 46.7905V52H1002.84V47.1953C1002.85 46.6946 1002.72 46.304 1002.46 46.0234C1002.2 45.7393 1001.84 45.5973 1001.39 45.5973C1001.08 45.5973 1000.81 45.663 1000.58 45.7944C1000.35 45.9258 1000.17 46.1175 1000.03 46.3697C999.907 46.6183 999.841 46.9183 999.838 47.2699ZM1010.59 55.2386C1009.85 55.2386 1009.22 55.1374 1008.69 54.935C1008.17 54.7362 1007.76 54.4645 1007.45 54.12C1007.14 53.7756 1006.94 53.3885 1006.85 52.9588L1008.95 52.6765C1009.01 52.8398 1009.11 52.9925 1009.25 53.1346C1009.39 53.2766 1009.57 53.3903 1009.8 53.4755C1010.03 53.5643 1010.31 53.6087 1010.64 53.6087C1011.13 53.6087 1011.54 53.4879 1011.86 53.2464C1012.18 53.0085 1012.34 52.609 1012.34 52.0479V50.5511H1012.25C1012.15 50.7784 1012 50.9933 1011.8 51.1957C1011.6 51.3981 1011.35 51.5632 1011.03 51.6911C1010.72 51.8189 1010.35 51.8828 1009.91 51.8828C1009.3 51.8828 1008.74 51.7408 1008.24 51.4567C1007.74 51.169 1007.34 50.7305 1007.04 50.141C1006.74 49.5479 1006.6 48.7987 1006.6 47.8931C1006.6 46.9663 1006.75 46.1921 1007.05 45.5707C1007.35 44.9492 1007.75 44.484 1008.25 44.1751C1008.76 43.8661 1009.31 43.7116 1009.91 43.7116C1010.37 43.7116 1010.75 43.7898 1011.06 43.946C1011.37 44.0987 1011.62 44.2905 1011.81 44.5213C1012 44.7486 1012.14 44.9723 1012.25 45.1925H1012.33V43.8182H1014.59V52.0799C1014.59 52.7759 1014.42 53.3583 1014.07 53.8271C1013.73 54.2958 1013.26 54.6474 1012.66 54.8817C1012.06 55.1197 1011.37 55.2386 1010.59 55.2386ZM1010.63 50.1783C1011 50.1783 1011.31 50.0877 1011.56 49.9066C1011.82 49.7219 1012.01 49.4592 1012.15 49.1183C1012.28 48.7738 1012.35 48.3619 1012.35 47.8825C1012.35 47.4031 1012.29 46.9876 1012.15 46.636C1012.02 46.2809 1011.82 46.0057 1011.57 45.8104C1011.31 45.6151 1011 45.5174 1010.63 45.5174C1010.26 45.5174 1009.95 45.6186 1009.69 45.821C1009.44 46.0199 1009.24 46.2969 1009.11 46.652C1008.98 47.0071 1008.91 47.4173 1008.91 47.8825C1008.91 48.3548 1008.98 48.7631 1009.11 49.1076C1009.25 49.4485 1009.44 49.7131 1009.69 49.9013C1009.95 50.0859 1010.26 50.1783 1010.63 50.1783ZM1023.2 46.1513L1021.12 46.2791C1021.09 46.1016 1021.01 45.9418 1020.89 45.7997C1020.78 45.6541 1020.62 45.5387 1020.43 45.4535C1020.24 45.3647 1020.02 45.3203 1019.75 45.3203C1019.4 45.3203 1019.1 45.3949 1018.86 45.544C1018.62 45.6896 1018.5 45.8849 1018.5 46.13C1018.5 46.3253 1018.58 46.4904 1018.74 46.6254C1018.89 46.7603 1019.16 46.8686 1019.54 46.9503L1021.02 47.2486C1021.82 47.4119 1022.41 47.6747 1022.8 48.0369C1023.19 48.3991 1023.39 48.875 1023.39 49.4645C1023.39 50.0007 1023.23 50.4712 1022.91 50.8761C1022.6 51.2809 1022.17 51.5969 1021.62 51.8242C1021.08 52.0479 1020.45 52.1598 1019.74 52.1598C1018.66 52.1598 1017.8 51.9343 1017.15 51.4833C1016.51 51.0288 1016.14 50.4109 1016.03 49.6296L1018.26 49.5124C1018.33 49.8427 1018.49 50.0948 1018.75 50.2688C1019.01 50.4393 1019.34 50.5245 1019.75 50.5245C1020.15 50.5245 1020.47 50.4482 1020.71 50.2955C1020.95 50.1392 1021.08 49.9386 1021.08 49.6935C1021.08 49.4876 1020.99 49.3189 1020.82 49.1875C1020.65 49.0526 1020.39 48.9496 1020.03 48.8786L1018.61 48.5962C1017.81 48.4364 1017.22 48.1594 1016.83 47.7653C1016.44 47.3711 1016.25 46.8686 1016.25 46.2578C1016.25 45.7322 1016.39 45.2795 1016.67 44.8995C1016.96 44.5195 1017.36 44.2266 1017.88 44.0206C1018.41 43.8146 1019.02 43.7116 1019.72 43.7116C1020.75 43.7116 1021.56 43.93 1022.16 44.3668C1022.75 44.8036 1023.1 45.3984 1023.2 46.1513Z" fill="#F2F2F2"/>
<line x1="904" y1="71.5" x2="1261" y2="71.5" stroke="#F2F2F2"/>
<line x1="38" y1="194.5" x2="867" y2="194.5" stroke="#2C2C2C"/>
<rect x="936.5" y="911.5" width="292" height="45" rx="9.5" stroke="#F2F2F2"/>
<path d="M1019.1 932.5H1017.78C1017.7 932.12 1017.56 931.786 1017.37 931.499C1017.18 931.211 1016.94 930.969 1016.67 930.774C1016.39 930.575 1016.09 930.426 1015.75 930.327C1015.42 930.227 1015.07 930.178 1014.71 930.178C1014.05 930.178 1013.45 930.344 1012.92 930.678C1012.38 931.012 1011.96 931.504 1011.64 932.154C1011.33 932.804 1011.17 933.601 1011.17 934.545C1011.17 935.49 1011.33 936.287 1011.64 936.937C1011.96 937.587 1012.38 938.079 1012.92 938.413C1013.45 938.746 1014.05 938.913 1014.71 938.913C1015.07 938.913 1015.42 938.864 1015.75 938.764C1016.09 938.665 1016.39 938.517 1016.67 938.322C1016.94 938.123 1017.18 937.88 1017.37 937.592C1017.56 937.301 1017.7 936.967 1017.78 936.591H1019.1C1019 937.148 1018.82 937.647 1018.56 938.088C1018.29 938.528 1017.97 938.903 1017.58 939.212C1017.19 939.517 1016.75 939.75 1016.26 939.909C1015.78 940.069 1015.26 940.149 1014.71 940.149C1013.78 940.149 1012.95 939.922 1012.23 939.467C1011.5 939.013 1010.93 938.366 1010.52 937.528C1010.1 936.69 1009.89 935.696 1009.89 934.545C1009.89 933.395 1010.1 932.401 1010.52 931.562C1010.93 930.724 1011.5 930.078 1012.23 929.624C1012.95 929.169 1013.78 928.942 1014.71 928.942C1015.26 928.942 1015.78 929.022 1016.26 929.181C1016.75 929.341 1017.19 929.576 1017.58 929.885C1017.97 930.19 1018.29 930.563 1018.56 931.003C1018.82 931.44 1019 931.939 1019.1 932.5ZM1024.39 940.17C1023.65 940.17 1023 939.995 1022.44 939.643C1021.89 939.292 1021.46 938.8 1021.14 938.168C1020.83 937.536 1020.68 936.797 1020.68 935.952C1020.68 935.099 1020.83 934.355 1021.14 933.72C1021.46 933.084 1021.89 932.591 1022.44 932.239C1023 931.887 1023.65 931.712 1024.39 931.712C1025.13 931.712 1025.77 931.887 1026.33 932.239C1026.88 932.591 1027.32 933.084 1027.63 933.72C1027.94 934.355 1028.09 935.099 1028.09 935.952C1028.09 936.797 1027.94 937.536 1027.63 938.168C1027.32 938.8 1026.88 939.292 1026.33 939.643C1025.77 939.995 1025.13 940.17 1024.39 940.17ZM1024.39 939.041C1024.95 939.041 1025.41 938.897 1025.77 938.61C1026.13 938.322 1026.4 937.944 1026.58 937.475C1026.75 937.006 1026.84 936.499 1026.84 935.952C1026.84 935.405 1026.75 934.895 1026.58 934.423C1026.4 933.951 1026.13 933.569 1025.77 933.278C1025.41 932.987 1024.95 932.841 1024.39 932.841C1023.83 932.841 1023.36 932.987 1023 933.278C1022.64 933.569 1022.37 933.951 1022.2 934.423C1022.02 934.895 1021.94 935.405 1021.94 935.952C1021.94 936.499 1022.02 937.006 1022.2 937.475C1022.37 937.944 1022.64 938.322 1023 938.61C1023.36 938.897 1023.83 939.041 1024.39 939.041ZM1031.27 935.078V940H1030.01V931.818H1031.23V933.097H1031.33C1031.53 932.681 1031.82 932.347 1032.21 932.095C1032.6 931.839 1033.1 931.712 1033.72 931.712C1034.28 931.712 1034.76 931.825 1035.18 932.053C1035.59 932.276 1035.91 932.617 1036.14 933.075C1036.38 933.53 1036.49 934.105 1036.49 934.801V940H1035.23V934.886C1035.23 934.244 1035.07 933.743 1034.73 933.384C1034.4 933.022 1033.94 932.841 1033.36 932.841C1032.96 932.841 1032.6 932.928 1032.28 933.102C1031.97 933.276 1031.72 933.53 1031.54 933.864C1031.36 934.197 1031.27 934.602 1031.27 935.078ZM1045.19 931.818L1042.16 940H1040.88L1037.86 931.818H1039.22L1041.48 938.338H1041.56L1043.82 931.818H1045.19ZM1049.98 940.17C1049.19 940.17 1048.51 939.996 1047.94 939.648C1047.37 939.297 1046.94 938.807 1046.63 938.178C1046.32 937.546 1046.17 936.811 1046.17 935.973C1046.17 935.135 1046.32 934.396 1046.63 933.757C1046.94 933.114 1047.37 932.614 1047.92 932.255C1048.47 931.893 1049.12 931.712 1049.85 931.712C1050.28 931.712 1050.7 931.783 1051.12 931.925C1051.53 932.067 1051.91 932.298 1052.25 932.617C1052.59 932.933 1052.86 933.352 1053.07 933.874C1053.27 934.396 1053.37 935.039 1053.37 935.803V936.335H1047.06V935.249H1052.09C1052.09 934.787 1052 934.375 1051.81 934.013C1051.63 933.651 1051.37 933.365 1051.04 933.155C1050.7 932.946 1050.31 932.841 1049.85 932.841C1049.35 932.841 1048.92 932.965 1048.55 933.214C1048.19 933.459 1047.91 933.778 1047.72 934.173C1047.52 934.567 1047.43 934.989 1047.43 935.44V936.165C1047.43 936.783 1047.53 937.306 1047.75 937.736C1047.96 938.162 1048.26 938.487 1048.65 938.711C1049.03 938.931 1049.47 939.041 1049.98 939.041C1050.31 939.041 1050.61 938.995 1050.88 938.903C1051.15 938.807 1051.38 938.665 1051.58 938.477C1051.77 938.285 1051.92 938.047 1052.03 937.763L1053.24 938.104C1053.11 938.516 1052.9 938.878 1052.6 939.19C1052.3 939.499 1051.92 939.741 1051.48 939.915C1051.04 940.085 1050.54 940.17 1049.98 940.17ZM1055.28 940V931.818H1056.5V933.054H1056.58C1056.73 932.649 1057 932.321 1057.39 932.069C1057.78 931.816 1058.22 931.69 1058.71 931.69C1058.81 931.69 1058.92 931.692 1059.06 931.696C1059.2 931.699 1059.3 931.705 1059.37 931.712V932.99C1059.33 932.979 1059.23 932.963 1059.08 932.942C1058.93 932.917 1058.77 932.905 1058.61 932.905C1058.21 932.905 1057.85 932.988 1057.54 933.155C1057.23 933.319 1056.99 933.546 1056.81 933.837C1056.63 934.125 1056.54 934.453 1056.54 934.822V940H1055.28ZM1064.93 931.818V932.884H1060.69V931.818H1064.93ZM1061.93 929.858H1063.19V937.656C1063.19 938.011 1063.24 938.278 1063.34 938.455C1063.45 938.629 1063.58 938.746 1063.75 938.807C1063.91 938.864 1064.09 938.892 1064.27 938.892C1064.41 938.892 1064.53 938.885 1064.61 938.871C1064.7 938.853 1064.77 938.839 1064.83 938.828L1065.08 939.957C1065 939.989 1064.88 940.021 1064.73 940.053C1064.57 940.089 1064.38 940.107 1064.15 940.107C1063.79 940.107 1063.44 940.03 1063.1 939.877C1062.76 939.725 1062.48 939.492 1062.26 939.18C1062.04 938.867 1061.93 938.473 1061.93 937.997V929.858ZM1074.6 931.818V932.884H1070.36V931.818H1074.6ZM1071.6 929.858H1072.86V937.656C1072.86 938.011 1072.91 938.278 1073.01 938.455C1073.12 938.629 1073.25 938.746 1073.41 938.807C1073.58 938.864 1073.76 938.892 1073.94 938.892C1074.08 938.892 1074.19 938.885 1074.28 938.871C1074.37 938.853 1074.44 938.839 1074.5 938.828L1074.75 939.957C1074.67 939.989 1074.55 940.021 1074.39 940.053C1074.24 940.089 1074.05 940.107 1073.81 940.107C1073.46 940.107 1073.11 940.03 1072.77 939.877C1072.43 939.725 1072.15 939.492 1071.93 939.18C1071.71 938.867 1071.6 938.473 1071.6 937.997V929.858ZM1079.73 940.17C1078.99 940.17 1078.34 939.995 1077.79 939.643C1077.23 939.292 1076.8 938.8 1076.49 938.168C1076.18 937.536 1076.02 936.797 1076.02 935.952C1076.02 935.099 1076.18 934.355 1076.49 933.72C1076.8 933.084 1077.23 932.591 1077.79 932.239C1078.34 931.887 1078.99 931.712 1079.73 931.712C1080.47 931.712 1081.11 931.887 1081.67 932.239C1082.23 932.591 1082.66 933.084 1082.97 933.72C1083.28 934.355 1083.44 935.099 1083.44 935.952C1083.44 936.797 1083.28 937.536 1082.97 938.168C1082.66 938.8 1082.23 939.292 1081.67 939.643C1081.11 939.995 1080.47 940.17 1079.73 940.17ZM1079.73 939.041C1080.29 939.041 1080.75 938.897 1081.11 938.61C1081.48 938.322 1081.74 937.944 1081.92 937.475C1082.09 937.006 1082.18 936.499 1082.18 935.952C1082.18 935.405 1082.09 934.895 1081.92 934.423C1081.74 933.951 1081.48 933.569 1081.11 933.278C1080.75 932.987 1080.29 932.841 1079.73 932.841C1079.17 932.841 1078.71 932.987 1078.34 933.278C1077.98 933.569 1077.71 933.951 1077.54 934.423C1077.37 934.895 1077.28 935.405 1077.28 935.952C1077.28 936.499 1077.37 937.006 1077.54 937.475C1077.71 937.944 1077.98 938.322 1078.34 938.61C1078.71 938.897 1079.17 939.041 1079.73 939.041ZM1089.74 929.091H1091.32L1095.03 938.146H1095.16L1098.86 929.091H1100.44V940H1099.21V931.712H1099.1L1095.69 940H1094.5L1091.09 931.712H1090.98V940H1089.74V929.091ZM1106.46 940H1103.09V929.091H1106.61C1107.66 929.091 1108.57 929.309 1109.32 929.746C1110.07 930.179 1110.65 930.803 1111.05 931.616C1111.45 932.425 1111.65 933.395 1111.65 934.524C1111.65 935.661 1111.45 936.639 1111.05 937.459C1110.64 938.276 1110.05 938.904 1109.28 939.345C1108.51 939.782 1107.56 940 1106.46 940ZM1104.41 938.828H1106.37C1107.27 938.828 1108.02 938.654 1108.61 938.306C1109.21 937.958 1109.65 937.463 1109.94 936.82C1110.23 936.177 1110.38 935.412 1110.38 934.524C1110.38 933.643 1110.23 932.885 1109.95 932.25C1109.66 931.61 1109.23 931.12 1108.66 930.779C1108.08 930.435 1107.37 930.263 1106.52 930.263H1104.41V938.828ZM1114.33 929.091L1117.15 933.629H1117.23L1120.04 929.091H1121.6L1118.17 934.545L1121.6 940H1120.04L1117.23 935.547H1117.15L1114.33 940H1112.78L1116.29 934.545L1112.78 929.091H1114.33Z" fill="#F2F2F2"/>
<path d="M1217 932L1211.24 937.512C1210.56 938.163 1209.44 938.163 1208.76 937.512L1203 932" stroke="#F2F2F2" stroke-width="1.5" stroke-miterlimit="10" stroke-linecap="round" stroke-linejoin="round"/>
<line x1="1186.5" y1="911" x2="1186.5" y2="957" stroke="#F2F2F2"/>
<path d="M398.523 67V37.9091H408.352C410.634 37.9091 412.5 38.321 413.949 39.1449C415.407 39.9593 416.487 41.0625 417.188 42.4545C417.888 43.8466 418.239 45.3996 418.239 47.1136C418.239 48.8277 417.888 50.3854 417.188 51.7869C416.496 53.1884 415.426 54.3059 413.977 55.1392C412.528 55.9631 410.672 56.375 408.409 56.375H401.364V53.25H408.295C409.858 53.25 411.113 52.9801 412.06 52.4403C413.007 51.9006 413.693 51.1714 414.119 50.2528C414.555 49.3248 414.773 48.2784 414.773 47.1136C414.773 45.9489 414.555 44.9072 414.119 43.9886C413.693 43.0701 413.002 42.3504 412.045 41.8295C411.089 41.2992 409.82 41.0341 408.239 41.0341H402.045V67H398.523ZM429.879 67.5114C428.497 67.5114 427.242 67.2509 426.115 66.7301C424.988 66.1998 424.093 65.4375 423.43 64.4432C422.768 63.4394 422.436 62.2273 422.436 60.8068C422.436 59.5568 422.682 58.5436 423.175 57.767C423.667 56.9811 424.325 56.3655 425.149 55.9205C425.973 55.4754 426.882 55.1439 427.876 54.9261C428.88 54.6989 429.889 54.5189 430.902 54.3864C432.228 54.2159 433.303 54.0881 434.126 54.0028C434.96 53.9081 435.566 53.7519 435.945 53.5341C436.333 53.3163 436.527 52.9375 436.527 52.3977V52.2841C436.527 50.8826 436.143 49.7936 435.376 49.017C434.619 48.2405 433.468 47.8523 431.925 47.8523C430.324 47.8523 429.07 48.2027 428.161 48.9034C427.251 49.6042 426.612 50.3523 426.243 51.1477L423.061 50.0114C423.629 48.6856 424.387 47.6534 425.334 46.9148C426.29 46.1667 427.332 45.6458 428.459 45.3523C429.595 45.0492 430.713 44.8977 431.811 44.8977C432.512 44.8977 433.317 44.983 434.226 45.1534C435.144 45.3144 436.03 45.6506 436.882 46.1619C437.744 46.6733 438.459 47.4451 439.027 48.4773C439.595 49.5095 439.879 50.892 439.879 52.625V67H436.527V64.0455H436.357C436.129 64.5189 435.75 65.0256 435.22 65.5653C434.69 66.1051 433.984 66.5644 433.104 66.9432C432.223 67.322 431.148 67.5114 429.879 67.5114ZM430.391 64.5C431.716 64.5 432.834 64.2396 433.743 63.7188C434.661 63.1979 435.353 62.5256 435.817 61.7017C436.29 60.8778 436.527 60.0114 436.527 59.1023V56.0341C436.385 56.2045 436.072 56.3608 435.589 56.5028C435.116 56.6354 434.567 56.7538 433.942 56.858C433.326 56.9527 432.725 57.0379 432.138 57.1136C431.56 57.1799 431.091 57.2367 430.732 57.2841C429.86 57.3977 429.046 57.5824 428.288 57.8381C427.54 58.0843 426.934 58.4583 426.47 58.9602C426.016 59.4527 425.788 60.125 425.788 60.9773C425.788 62.142 426.219 63.0227 427.081 63.6193C427.952 64.2064 429.055 64.5 430.391 64.5ZM454.805 75.6364C453.185 75.6364 451.793 75.428 450.629 75.0114C449.464 74.6042 448.493 74.0644 447.717 73.392C446.95 72.7292 446.339 72.0189 445.884 71.2614L448.555 69.3864C448.858 69.7841 449.241 70.2386 449.705 70.75C450.169 71.2708 450.804 71.7206 451.609 72.0994C452.423 72.4877 453.488 72.6818 454.805 72.6818C456.566 72.6818 458.02 72.2557 459.165 71.4034C460.311 70.5511 460.884 69.2159 460.884 67.3977V62.9659H460.6C460.354 63.3636 460.004 63.8561 459.549 64.4432C459.104 65.0208 458.46 65.5369 457.617 65.9915C456.784 66.4366 455.657 66.6591 454.237 66.6591C452.475 66.6591 450.894 66.2424 449.492 65.4091C448.1 64.5758 446.997 63.3636 446.183 61.7727C445.378 60.1818 444.975 58.25 444.975 55.9773C444.975 53.7424 445.368 51.7964 446.154 50.1392C446.94 48.4725 448.034 47.1847 449.435 46.2756C450.837 45.357 452.456 44.8977 454.293 44.8977C455.714 44.8977 456.841 45.1345 457.674 45.608C458.517 46.072 459.161 46.6023 459.606 47.1989C460.06 47.786 460.411 48.2689 460.657 48.6477H460.998V45.1818H464.237V67.625C464.237 69.5 463.81 71.0246 462.958 72.1989C462.115 73.3826 460.979 74.2491 459.549 74.7983C458.129 75.357 456.547 75.6364 454.805 75.6364ZM454.691 63.6477C456.036 63.6477 457.172 63.34 458.1 62.7244C459.028 62.1089 459.734 61.2235 460.217 60.0682C460.7 58.9129 460.941 57.5303 460.941 55.9205C460.941 54.3485 460.704 52.9612 460.231 51.7585C459.757 50.5559 459.057 49.6136 458.129 48.9318C457.201 48.25 456.055 47.9091 454.691 47.9091C453.271 47.9091 452.087 48.2689 451.14 48.9886C450.202 49.7083 449.497 50.6742 449.023 51.8864C448.559 53.0985 448.327 54.4432 448.327 55.9205C448.327 57.4356 448.564 58.7756 449.038 59.9403C449.521 61.0956 450.231 62.0047 451.168 62.6676C452.115 63.321 453.29 63.6477 454.691 63.6477ZM479.521 67.4545C477.418 67.4545 475.605 66.9905 474.08 66.0625C472.565 65.125 471.396 63.8182 470.572 62.142C469.757 60.4564 469.35 58.4962 469.35 56.2614C469.35 54.0265 469.757 52.0568 470.572 50.3523C471.396 48.6383 472.541 47.303 474.009 46.3466C475.487 45.3807 477.21 44.8977 479.18 44.8977C480.316 44.8977 481.438 45.0871 482.546 45.4659C483.654 45.8447 484.663 46.4602 485.572 47.3125C486.481 48.1553 487.205 49.2727 487.745 50.6648C488.285 52.0568 488.555 53.7708 488.555 55.8068V57.2273H471.737V54.3295H485.146C485.146 53.0985 484.899 52 484.407 51.0341C483.924 50.0682 483.233 49.3059 482.333 48.7472C481.443 48.1884 480.392 47.9091 479.18 47.9091C477.844 47.9091 476.689 48.2405 475.714 48.9034C474.748 49.5568 474.004 50.4091 473.484 51.4602C472.963 52.5114 472.702 53.6383 472.702 54.8409V56.7727C472.702 58.4205 472.987 59.8172 473.555 60.9631C474.132 62.0994 474.933 62.9659 475.955 63.5625C476.978 64.1496 478.166 64.4432 479.521 64.4432C480.401 64.4432 481.197 64.3201 481.907 64.0739C482.627 63.8182 483.247 63.4394 483.768 62.9375C484.289 62.4261 484.691 61.7917 484.975 61.0341L488.214 61.9432C487.873 63.0417 487.3 64.0076 486.495 64.8409C485.69 65.6648 484.696 66.3087 483.512 66.7727C482.328 67.2273 480.998 67.4545 479.521 67.4545ZM503.768 41.0341V37.9091H525.586V41.0341H516.438V67H512.915V41.0341H503.768ZM530.568 67V45.1818H533.92V67H530.568ZM532.273 41.5455C531.619 41.5455 531.056 41.3229 530.582 40.8778C530.118 40.4328 529.886 39.8977 529.886 39.2727C529.886 38.6477 530.118 38.1127 530.582 37.6676C531.056 37.2225 531.619 37 532.273 37C532.926 37 533.485 37.2225 533.949 37.6676C534.422 38.1127 534.659 38.6477 534.659 39.2727C534.659 39.8977 534.422 40.4328 533.949 40.8778C533.485 41.3229 532.926 41.5455 532.273 41.5455ZM549.549 45.1818V48.0227H538.242V45.1818H549.549ZM541.538 39.9545H544.89V60.75C544.89 61.697 545.027 62.4072 545.302 62.8807C545.586 63.3447 545.946 63.6572 546.381 63.8182C546.826 63.9697 547.295 64.0455 547.788 64.0455C548.157 64.0455 548.46 64.0265 548.697 63.9886C548.933 63.9413 549.123 63.9034 549.265 63.875L549.947 66.8864C549.719 66.9716 549.402 67.0568 548.995 67.142C548.588 67.2367 548.072 67.2841 547.447 67.2841C546.5 67.2841 545.572 67.0805 544.663 66.6733C543.763 66.2661 543.015 65.6458 542.418 64.8125C541.831 63.9792 541.538 62.928 541.538 61.6591V39.9545ZM558.413 37.9091V67H555.06V37.9091H558.413ZM573.7 67.4545C571.598 67.4545 569.785 66.9905 568.26 66.0625C566.745 65.125 565.575 63.8182 564.751 62.142C563.937 60.4564 563.53 58.4962 563.53 56.2614C563.53 54.0265 563.937 52.0568 564.751 50.3523C565.575 48.6383 566.721 47.303 568.189 46.3466C569.666 45.3807 571.39 44.8977 573.359 44.8977C574.496 44.8977 575.618 45.0871 576.726 45.4659C577.834 45.8447 578.842 46.4602 579.751 47.3125C580.661 48.1553 581.385 49.2727 581.925 50.6648C582.464 52.0568 582.734 53.7708 582.734 55.8068V57.2273H565.916V54.3295H579.325C579.325 53.0985 579.079 52 578.587 51.0341C578.104 50.0682 577.412 49.3059 576.513 48.7472C575.623 48.1884 574.571 47.9091 573.359 47.9091C572.024 47.9091 570.869 48.2405 569.893 48.9034C568.928 49.5568 568.184 50.4091 567.663 51.4602C567.143 52.5114 566.882 53.6383 566.882 54.8409V56.7727C566.882 58.4205 567.166 59.8172 567.734 60.9631C568.312 62.0994 569.112 62.9659 570.135 63.5625C571.158 64.1496 572.346 64.4432 573.7 64.4432C574.581 64.4432 575.376 64.3201 576.087 64.0739C576.806 63.8182 577.427 63.4394 577.947 62.9375C578.468 62.4261 578.871 61.7917 579.155 61.0341L582.393 61.9432C582.053 63.0417 581.48 64.0076 580.675 64.8409C579.87 65.6648 578.875 66.3087 577.692 66.7727C576.508 67.2273 575.178 67.4545 573.7 67.4545Z" fill="black"/>
<path d="M1234 57C1239.5 57 1244 52.5 1244 47C1244 41.5 1239.5 37 1234 37C1228.5 37 1224 41.5 1224 47C1224 52.5 1228.5 57 1234 57Z" stroke="#F2F2F2" stroke-width="1.5" stroke-linecap="round" stroke-linejoin="round"/>
<path d="M1231.17 49.8299L1236.83 44.1699" stroke="#F2F2F2" stroke-width="1.5" stroke-linecap="round" stroke-linejoin="round"/>
<path d="M1236.83 49.8299L1231.17 44.1699" stroke="#F2F2F2" stroke-width="1.5" stroke-linecap="round" stroke-linejoin="round"/>
<path d="M922.724 101.263V100.091H930.906V101.263H927.476V111H926.155V101.263H922.724ZM932.775 111V102.818H934.032V111H932.775ZM933.414 101.455C933.169 101.455 932.957 101.371 932.78 101.204C932.606 101.037 932.519 100.837 932.519 100.602C932.519 100.368 932.606 100.167 932.78 100C932.957 99.8335 933.169 99.75 933.414 99.75C933.659 99.75 933.868 99.8335 934.042 100C934.22 100.167 934.309 100.368 934.309 100.602C934.309 100.837 934.22 101.037 934.042 101.204C933.868 101.371 933.659 101.455 933.414 101.455ZM939.892 102.818V103.884H935.652V102.818H939.892ZM936.888 100.858H938.145V108.656C938.145 109.011 938.197 109.278 938.3 109.455C938.406 109.629 938.541 109.746 938.705 109.807C938.871 109.864 939.047 109.892 939.232 109.892C939.37 109.892 939.484 109.885 939.573 109.871C939.662 109.853 939.733 109.839 939.786 109.828L940.042 110.957C939.956 110.989 939.837 111.021 939.685 111.053C939.532 111.089 939.338 111.107 939.104 111.107C938.749 111.107 938.401 111.03 938.06 110.877C937.723 110.725 937.442 110.492 937.218 110.18C936.998 109.867 936.888 109.473 936.888 108.997V100.858ZM943.216 100.091V111H941.959V100.091H943.216ZM948.949 111.17C948.161 111.17 947.481 110.996 946.909 110.648C946.341 110.297 945.902 109.807 945.593 109.178C945.288 108.546 945.135 107.811 945.135 106.973C945.135 106.135 945.288 105.396 945.593 104.757C945.902 104.114 946.332 103.614 946.882 103.255C947.436 102.893 948.083 102.712 948.821 102.712C949.247 102.712 949.668 102.783 950.084 102.925C950.499 103.067 950.877 103.298 951.218 103.617C951.559 103.933 951.831 104.352 952.033 104.874C952.236 105.396 952.337 106.039 952.337 106.803V107.335H946.03V106.249H951.059C951.059 105.787 950.966 105.375 950.782 105.013C950.6 104.651 950.341 104.365 950.004 104.155C949.67 103.946 949.276 103.841 948.821 103.841C948.321 103.841 947.887 103.965 947.522 104.214C947.159 104.459 946.881 104.778 946.685 105.173C946.49 105.567 946.392 105.989 946.392 106.44V107.165C946.392 107.783 946.499 108.306 946.712 108.736C946.929 109.162 947.229 109.487 947.612 109.711C947.996 109.931 948.441 110.041 948.949 110.041C949.279 110.041 949.578 109.995 949.844 109.903C950.114 109.807 950.347 109.665 950.542 109.477C950.737 109.285 950.888 109.047 950.995 108.763L952.209 109.104C952.081 109.516 951.866 109.878 951.565 110.19C951.263 110.499 950.89 110.741 950.446 110.915C950.002 111.085 949.503 111.17 948.949 111.17Z" fill="#F2F2F2"/>
<rect x="922" y="131" width="322" height="39" rx="5" fill="#F2F2F2"/>
<path d="M923.321 200V189.091H929.862V190.263H924.642V193.949H929.372V195.121H924.642V200H923.321ZM931.866 200V191.818H933.081V193.054H933.166C933.315 192.649 933.585 192.321 933.976 192.069C934.366 191.816 934.807 191.69 935.297 191.69C935.389 191.69 935.505 191.692 935.643 191.696C935.782 191.699 935.886 191.705 935.957 191.712V192.99C935.915 192.979 935.817 192.963 935.664 192.942C935.515 192.917 935.357 192.905 935.19 192.905C934.793 192.905 934.437 192.988 934.125 193.155C933.816 193.319 933.571 193.546 933.39 193.837C933.212 194.125 933.123 194.453 933.123 194.822V200H931.866ZM940.522 200.17C939.784 200.17 939.136 199.995 938.578 199.643C938.024 199.292 937.591 198.8 937.278 198.168C936.969 197.536 936.815 196.797 936.815 195.952C936.815 195.099 936.969 194.355 937.278 193.72C937.591 193.084 938.024 192.591 938.578 192.239C939.136 191.887 939.784 191.712 940.522 191.712C941.261 191.712 941.907 191.887 942.461 192.239C943.019 192.591 943.452 193.084 943.761 193.72C944.073 194.355 944.23 195.099 944.23 195.952C944.23 196.797 944.073 197.536 943.761 198.168C943.452 198.8 943.019 199.292 942.461 199.643C941.907 199.995 941.261 200.17 940.522 200.17ZM940.522 199.041C941.083 199.041 941.545 198.897 941.907 198.61C942.269 198.322 942.538 197.944 942.712 197.475C942.886 197.006 942.973 196.499 942.973 195.952C942.973 195.405 942.886 194.895 942.712 194.423C942.538 193.951 942.269 193.569 941.907 193.278C941.545 192.987 941.083 192.841 940.522 192.841C939.961 192.841 939.5 192.987 939.137 193.278C938.775 193.569 938.507 193.951 938.333 194.423C938.159 194.895 938.072 195.405 938.072 195.952C938.072 196.499 938.159 197.006 938.333 197.475C938.507 197.944 938.775 198.322 939.137 198.61C939.5 198.897 939.961 199.041 940.522 199.041ZM947.406 195.078V200H946.149V191.818H947.363V193.097H947.47C947.661 192.681 947.953 192.347 948.343 192.095C948.734 191.839 949.238 191.712 949.856 191.712C950.41 191.712 950.895 191.825 951.31 192.053C951.726 192.276 952.049 192.617 952.28 193.075C952.51 193.53 952.626 194.105 952.626 194.801V200H951.369V194.886C951.369 194.244 951.202 193.743 950.868 193.384C950.534 193.022 950.076 192.841 949.494 192.841C949.093 192.841 948.734 192.928 948.418 193.102C948.105 193.276 947.858 193.53 947.677 193.864C947.496 194.197 947.406 194.602 947.406 195.078ZM958.481 191.818V192.884H954.241V191.818H958.481ZM955.477 189.858H956.734V197.656C956.734 198.011 956.786 198.278 956.889 198.455C956.995 198.629 957.13 198.746 957.293 198.807C957.46 198.864 957.636 198.892 957.821 198.892C957.959 198.892 958.073 198.885 958.162 198.871C958.25 198.853 958.321 198.839 958.375 198.828L958.63 199.957C958.545 199.989 958.426 200.021 958.274 200.053C958.121 200.089 957.927 200.107 957.693 200.107C957.338 200.107 956.99 200.03 956.649 199.877C956.312 199.725 956.031 199.492 955.807 199.18C955.587 198.867 955.477 198.473 955.477 197.997V189.858ZM960.718 189.091H962.295L966.003 198.146H966.13L969.838 189.091H971.415V200H970.179V191.712H970.072L966.663 200H965.47L962.061 191.712H961.954V200H960.718V189.091ZM976.3 200.192C975.782 200.192 975.311 200.094 974.889 199.899C974.466 199.7 974.131 199.414 973.882 199.041C973.634 198.665 973.509 198.21 973.509 197.678C973.509 197.209 973.602 196.829 973.786 196.538C973.971 196.243 974.218 196.012 974.527 195.845C974.836 195.678 975.176 195.554 975.549 195.472C975.926 195.387 976.304 195.32 976.684 195.27C977.181 195.206 977.584 195.158 977.893 195.126C978.206 195.091 978.433 195.032 978.575 194.95C978.721 194.869 978.793 194.727 978.793 194.524V194.482C978.793 193.956 978.65 193.548 978.362 193.256C978.078 192.965 977.646 192.82 977.067 192.82C976.467 192.82 975.997 192.951 975.656 193.214C975.315 193.477 975.075 193.757 974.937 194.055L973.744 193.629C973.957 193.132 974.241 192.745 974.596 192.468C974.955 192.187 975.345 191.992 975.768 191.882C976.194 191.768 976.613 191.712 977.025 191.712C977.288 191.712 977.589 191.744 977.93 191.808C978.275 191.868 978.607 191.994 978.926 192.186C979.25 192.377 979.518 192.667 979.731 193.054C979.944 193.441 980.05 193.96 980.05 194.609V200H978.793V198.892H978.729C978.644 199.07 978.502 199.26 978.303 199.462C978.104 199.664 977.84 199.837 977.51 199.979C977.179 200.121 976.776 200.192 976.3 200.192ZM976.492 199.062C976.989 199.062 977.408 198.965 977.749 198.77C978.094 198.574 978.353 198.322 978.527 198.013C978.705 197.704 978.793 197.379 978.793 197.038V195.888C978.74 195.952 978.623 196.01 978.442 196.064C978.264 196.113 978.058 196.158 977.824 196.197C977.593 196.232 977.368 196.264 977.147 196.293C976.931 196.317 976.755 196.339 976.62 196.357C976.293 196.399 975.988 196.468 975.704 196.564C975.423 196.657 975.196 196.797 975.022 196.985C974.852 197.17 974.766 197.422 974.766 197.741C974.766 198.178 974.928 198.509 975.251 198.732C975.578 198.952 975.991 199.062 976.492 199.062ZM985.903 191.818V192.884H981.663V191.818H985.903ZM982.899 189.858H984.156V197.656C984.156 198.011 984.207 198.278 984.31 198.455C984.417 198.629 984.552 198.746 984.715 198.807C984.882 198.864 985.058 198.892 985.243 198.892C985.381 198.892 985.495 198.885 985.584 198.871C985.672 198.853 985.743 198.839 985.797 198.828L986.052 199.957C985.967 199.989 985.848 200.021 985.695 200.053C985.543 200.089 985.349 200.107 985.115 200.107C984.76 200.107 984.412 200.03 984.071 199.877C983.733 199.725 983.453 199.492 983.229 199.18C983.009 198.867 982.899 198.473 982.899 197.997V189.858ZM991.352 191.818V192.884H987.112V191.818H991.352ZM988.348 189.858H989.605V197.656C989.605 198.011 989.657 198.278 989.76 198.455C989.866 198.629 990.001 198.746 990.165 198.807C990.331 198.864 990.507 198.892 990.692 198.892C990.83 198.892 990.944 198.885 991.033 198.871C991.122 198.853 991.193 198.839 991.246 198.828L991.502 199.957C991.416 199.989 991.297 200.021 991.145 200.053C990.992 200.089 990.798 200.107 990.564 200.107C990.209 200.107 989.861 200.03 989.52 199.877C989.183 199.725 988.902 199.492 988.678 199.18C988.458 198.867 988.348 198.473 988.348 197.997V189.858ZM996.586 200.17C995.797 200.17 995.117 199.996 994.546 199.648C993.978 199.297 993.539 198.807 993.23 198.178C992.925 197.546 992.772 196.811 992.772 195.973C992.772 195.135 992.925 194.396 993.23 193.757C993.539 193.114 993.969 192.614 994.519 192.255C995.073 191.893 995.719 191.712 996.458 191.712C996.884 191.712 997.305 191.783 997.72 191.925C998.136 192.067 998.514 192.298 998.855 192.617C999.196 192.933 999.468 193.352 999.67 193.874C999.872 194.396 999.974 195.039 999.974 195.803V196.335H993.667V195.249H998.695C998.695 194.787 998.603 194.375 998.418 194.013C998.237 193.651 997.978 193.365 997.641 193.155C997.307 192.946 996.913 192.841 996.458 192.841C995.957 192.841 995.524 192.965 995.158 193.214C994.796 193.459 994.517 193.778 994.322 194.173C994.127 194.567 994.029 194.989 994.029 195.44V196.165C994.029 196.783 994.136 197.306 994.349 197.736C994.565 198.162 994.865 198.487 995.249 198.711C995.632 198.931 996.078 199.041 996.586 199.041C996.916 199.041 997.214 198.995 997.481 198.903C997.751 198.807 997.983 198.665 998.179 198.477C998.374 198.285 998.525 198.047 998.631 197.763L999.846 198.104C999.718 198.516 999.503 198.878 999.201 199.19C998.899 199.499 998.527 199.741 998.083 199.915C997.639 200.085 997.14 200.17 996.586 200.17ZM1001.89 200V191.818H1003.1V193.054H1003.19C1003.33 192.649 1003.6 192.321 1004 192.069C1004.39 191.816 1004.83 191.69 1005.32 191.69C1005.41 191.69 1005.52 191.692 1005.66 191.696C1005.8 191.699 1005.91 191.705 1005.98 191.712V192.99C1005.93 192.979 1005.84 192.963 1005.68 192.942C1005.53 192.917 1005.38 192.905 1005.21 192.905C1004.81 192.905 1004.46 192.988 1004.14 193.155C1003.84 193.319 1003.59 193.546 1003.41 193.837C1003.23 194.125 1003.14 194.453 1003.14 194.822V200H1001.89Z" fill="#F2F2F2"/>
<rect x="922" y="220" width="322" height="387" rx="5" fill="#F2F2F2"/>
<path d="M74 169.27V165.23C74 163.64 73.36 163 71.77 163H67.73C66.14 163 65.5 163.64 65.5 165.23V169.27C65.5 170.86 66.14 171.5 67.73 171.5H71.77C73.36 171.5 74 170.86 74 169.27Z" stroke="#F2F2F2" stroke-width="1.5" stroke-linecap="round" stroke-linejoin="round"/>
<path d="M62.5 169.52V164.98C62.5 163.57 61.86 163 60.27 163H56.23C54.64 163 54 163.57 54 164.98V169.51C54 170.93 54.64 171.49 56.23 171.49H60.27C61.86 171.5 62.5 170.93 62.5 169.52Z" stroke="#F2F2F2" stroke-width="1.5" stroke-linecap="round" stroke-linejoin="round"/>
<path d="M62.5 180.77V176.73C62.5 175.14 61.86 174.5 60.27 174.5H56.23C54.64 174.5 54 175.14 54 176.73V180.77C54 182.36 54.64 183 56.23 183H60.27C61.86 183 62.5 182.36 62.5 180.77Z" stroke="#F2F2F2" stroke-width="1.5" stroke-linecap="round" stroke-linejoin="round"/>
<path d="M66.5 178.5H72.5" stroke="#F2F2F2" stroke-width="1.5" stroke-linecap="round"/>
<path d="M69.5 181.5V175.5" stroke="#F2F2F2" stroke-width="1.5" stroke-linecap="round"/>
<path d="M850 167.98C846.67 167.65 843.32 167.48 839.98 167.48C838 167.48 836.02 167.58 834.04 167.78L832 167.98" stroke="#FF0000" stroke-width="1.5" stroke-linecap="round" stroke-linejoin="round"/>
<path d="M837.5 166.97L837.72 165.66C837.88 164.71 838 164 839.69 164H842.31C844 164 844.13 164.75 844.28 165.67L844.5 166.97" stroke="#FF0000" stroke-width="1.5" stroke-linecap="round" stroke-linejoin="round"/>
<path d="M847.85 171.14L847.2 181.21C847.09 182.78 847 184 844.21 184H837.79C835 184 834.91 182.78 834.8 181.21L834.15 171.14" stroke="#FF0000" stroke-width="1.5" stroke-linecap="round" stroke-linejoin="round"/>
<path d="M839.33 178.5H842.66" stroke="#FF0000" stroke-width="1.5" stroke-linecap="round" stroke-linejoin="round"/>
<path d="M838.5 174.5H843.5" stroke="#FF0000" stroke-width="1.5" stroke-linecap="round" stroke-linejoin="round"/>
<rect x="38.5" y="670.5" width="158" height="40" rx="9.5" fill="#2C2C2C" stroke="#2C2C2C"/>
<path d="M83.7685 696H82.3835L86.3892 685.091H87.7528L91.7585 696H90.3736L87.1136 686.817H87.0284L83.7685 696ZM84.2798 691.739H89.8622V692.911H84.2798V691.739ZM96.3768 696.17C95.695 696.17 95.093 695.998 94.571 695.654C94.049 695.306 93.6406 694.816 93.3459 694.184C93.0511 693.548 92.9038 692.797 92.9038 691.93C92.9038 691.071 93.0511 690.325 93.3459 689.693C93.6406 689.061 94.0508 688.573 94.5763 688.228C95.1019 687.884 95.7092 687.712 96.3981 687.712C96.9308 687.712 97.3516 687.8 97.6605 687.978C97.973 688.152 98.2109 688.351 98.3743 688.575C98.5412 688.795 98.6708 688.976 98.7631 689.118H98.8697V685.091H100.127V696H98.9123V694.743H98.7631C98.6708 694.892 98.5394 695.08 98.369 695.308C98.1985 695.531 97.9553 695.732 97.6392 695.909C97.3232 696.083 96.9023 696.17 96.3768 696.17ZM96.5472 695.041C97.0515 695.041 97.4776 694.91 97.8256 694.647C98.1737 694.381 98.4382 694.013 98.6193 693.544C98.8004 693.072 98.891 692.527 98.891 691.909C98.891 691.298 98.8022 690.764 98.6246 690.306C98.4471 689.844 98.1843 689.485 97.8363 689.23C97.4883 688.971 97.0586 688.841 96.5472 688.841C96.0146 688.841 95.5707 688.978 95.2156 689.251C94.864 689.521 94.5994 689.888 94.4219 690.354C94.2479 690.815 94.1609 691.334 94.1609 691.909C94.1609 692.491 94.2496 693.021 94.4272 693.496C94.6083 693.969 94.8746 694.345 95.2262 694.626C95.5813 694.903 96.0217 695.041 96.5472 695.041ZM105.693 696.17C105.011 696.17 104.409 695.998 103.887 695.654C103.365 695.306 102.957 694.816 102.662 694.184C102.368 693.548 102.22 692.797 102.22 691.93C102.22 691.071 102.368 690.325 102.662 689.693C102.957 689.061 103.367 688.573 103.893 688.228C104.418 687.884 105.026 687.712 105.714 687.712C106.247 687.712 106.668 687.8 106.977 687.978C107.289 688.152 107.527 688.351 107.691 688.575C107.858 688.795 107.987 688.976 108.08 689.118H108.186V685.091H109.443V696H108.229V694.743H108.08C107.987 694.892 107.856 695.08 107.685 695.308C107.515 695.531 107.272 695.732 106.956 695.909C106.64 696.083 106.219 696.17 105.693 696.17ZM105.864 695.041C106.368 695.041 106.794 694.91 107.142 694.647C107.49 694.381 107.755 694.013 107.936 693.544C108.117 693.072 108.207 692.527 108.207 691.909C108.207 691.298 108.119 690.764 107.941 690.306C107.763 689.844 107.501 689.485 107.153 689.23C106.805 688.971 106.375 688.841 105.864 688.841C105.331 688.841 104.887 688.978 104.532 689.251C104.18 689.521 103.916 689.888 103.738 690.354C103.564 690.815 103.477 691.334 103.477 691.909C103.477 692.491 103.566 693.021 103.744 693.496C103.925 693.969 104.191 694.345 104.543 694.626C104.898 694.903 105.338 695.041 105.864 695.041ZM124.96 685.091V696H123.681L117.737 687.435H117.63V696H116.309V685.091H117.588L123.554 693.678H123.66V685.091H124.96ZM130.863 696.17C130.075 696.17 129.395 695.996 128.823 695.648C128.255 695.297 127.816 694.807 127.507 694.178C127.202 693.546 127.049 692.811 127.049 691.973C127.049 691.135 127.202 690.396 127.507 689.757C127.816 689.114 128.246 688.614 128.796 688.255C129.35 687.893 129.997 687.712 130.735 687.712C131.161 687.712 131.582 687.783 131.998 687.925C132.413 688.067 132.791 688.298 133.132 688.617C133.473 688.933 133.745 689.352 133.947 689.874C134.15 690.396 134.251 691.039 134.251 691.803V692.335H127.944V691.249H132.973C132.973 690.787 132.88 690.375 132.696 690.013C132.514 689.651 132.255 689.365 131.918 689.155C131.584 688.946 131.19 688.841 130.735 688.841C130.235 688.841 129.801 688.965 129.436 689.214C129.073 689.459 128.795 689.778 128.599 690.173C128.404 690.567 128.306 690.989 128.306 691.44V692.165C128.306 692.783 128.413 693.306 128.626 693.736C128.843 694.162 129.143 694.487 129.526 694.711C129.91 694.931 130.355 695.041 130.863 695.041C131.193 695.041 131.492 694.995 131.758 694.903C132.028 694.807 132.261 694.665 132.456 694.477C132.651 694.285 132.802 694.047 132.909 693.763L134.123 694.104C133.995 694.516 133.78 694.878 133.479 695.19C133.177 695.499 132.804 695.741 132.36 695.915C131.916 696.085 131.417 696.17 130.863 696.17ZM138.017 696L135.524 687.818H136.845L138.614 694.082H138.699L140.446 687.818H141.788L143.514 694.061H143.599L145.368 687.818H146.689L144.196 696H142.96L141.17 689.714H141.043L139.253 696H138.017ZM152.143 686.263V685.091H160.325V686.263H156.895V696H155.574V686.263H152.143ZM163.488 696.192C162.969 696.192 162.499 696.094 162.076 695.899C161.654 695.7 161.318 695.414 161.07 695.041C160.821 694.665 160.697 694.21 160.697 693.678C160.697 693.209 160.789 692.829 160.974 692.538C161.158 692.243 161.405 692.012 161.714 691.845C162.023 691.678 162.364 691.554 162.737 691.472C163.113 691.387 163.491 691.32 163.871 691.27C164.369 691.206 164.772 691.158 165.081 691.126C165.393 691.091 165.62 691.032 165.762 690.95C165.908 690.869 165.981 690.727 165.981 690.524V690.482C165.981 689.956 165.837 689.548 165.549 689.256C165.265 688.965 164.834 688.82 164.255 688.82C163.655 688.82 163.184 688.951 162.843 689.214C162.502 689.477 162.263 689.757 162.124 690.055L160.931 689.629C161.144 689.132 161.428 688.745 161.783 688.468C162.142 688.187 162.533 687.992 162.955 687.882C163.381 687.768 163.8 687.712 164.212 687.712C164.475 687.712 164.777 687.744 165.118 687.808C165.462 687.868 165.794 687.994 166.114 688.186C166.437 688.377 166.705 688.667 166.918 689.054C167.131 689.441 167.238 689.96 167.238 690.609V696H165.981V694.892H165.917C165.832 695.07 165.69 695.26 165.491 695.462C165.292 695.664 165.027 695.837 164.697 695.979C164.367 696.121 163.964 696.192 163.488 696.192ZM163.68 695.062C164.177 695.062 164.596 694.965 164.937 694.77C165.281 694.574 165.54 694.322 165.714 694.013C165.892 693.704 165.981 693.379 165.981 693.038V691.888C165.928 691.952 165.81 692.01 165.629 692.064C165.452 692.113 165.246 692.158 165.011 692.197C164.781 692.232 164.555 692.264 164.335 692.293C164.118 692.317 163.942 692.339 163.808 692.357C163.481 692.399 163.175 692.468 162.891 692.564C162.611 692.657 162.384 692.797 162.21 692.985C162.039 693.17 161.954 693.422 161.954 693.741C161.954 694.178 162.115 694.509 162.439 694.732C162.765 694.952 163.179 695.062 163.68 695.062ZM172.835 699.239C172.228 699.239 171.706 699.161 171.269 699.004C170.832 698.852 170.468 698.649 170.177 698.397C169.889 698.148 169.66 697.882 169.49 697.598L170.491 696.895C170.605 697.044 170.749 697.214 170.923 697.406C171.097 697.602 171.335 697.77 171.636 697.912C171.942 698.058 172.341 698.131 172.835 698.131C173.495 698.131 174.041 697.971 174.47 697.651C174.9 697.332 175.115 696.831 175.115 696.149V694.487H175.008C174.916 694.636 174.785 694.821 174.614 695.041C174.447 695.258 174.206 695.451 173.89 695.622C173.577 695.789 173.155 695.872 172.622 695.872C171.961 695.872 171.368 695.716 170.843 695.403C170.321 695.091 169.907 694.636 169.602 694.04C169.3 693.443 169.149 692.719 169.149 691.866C169.149 691.028 169.296 690.299 169.591 689.677C169.886 689.052 170.296 688.569 170.821 688.228C171.347 687.884 171.954 687.712 172.643 687.712C173.176 687.712 173.598 687.8 173.911 687.978C174.227 688.152 174.468 688.351 174.635 688.575C174.806 688.795 174.937 688.976 175.03 689.118H175.157V687.818H176.372V696.234C176.372 696.938 176.212 697.509 175.892 697.95C175.576 698.393 175.15 698.718 174.614 698.924C174.081 699.134 173.488 699.239 172.835 699.239ZM172.792 694.743C173.297 694.743 173.723 694.627 174.071 694.397C174.419 694.166 174.683 693.834 174.864 693.401C175.046 692.967 175.136 692.449 175.136 691.845C175.136 691.256 175.047 690.735 174.87 690.284C174.692 689.833 174.429 689.48 174.081 689.224C173.733 688.969 173.304 688.841 172.792 688.841C172.26 688.841 171.816 688.976 171.461 689.246C171.109 689.516 170.845 689.878 170.667 690.332C170.493 690.787 170.406 691.291 170.406 691.845C170.406 692.413 170.495 692.916 170.672 693.353C170.853 693.786 171.12 694.127 171.471 694.375C171.826 694.62 172.267 694.743 172.792 694.743Z" fill="#F2F2F2"/>
<g clip-path="url(#clip0_1165_789)">
<path d="M56 694H53.43C51.14 694 50 692.86 50 690.57V683.43C50 681.14 51.14 680 53.43 680H58C60.29 680 61.43 681.14 61.43 683.43" stroke="#F2F2F2" stroke-width="1.5" stroke-linecap="round" stroke-linejoin="round"/>
<path d="M66.5703 700H62.0003C59.7103 700 58.5703 698.86 58.5703 696.57V689.43C58.5703 687.14 59.7103 686 62.0003 686H66.5703C68.8603 686 70.0003 687.14 70.0003 689.43V696.57C70.0003 698.86 68.8603 700 66.5703 700Z" stroke="#F2F2F2" stroke-width="1.5" stroke-linecap="round" stroke-linejoin="round"/>
<path d="M62.8701 693H66.1301" stroke="#F2F2F2" stroke-width="1.5" stroke-linecap="round" stroke-linejoin="round"/>
<path d="M64.5 694.63V691.37" stroke="#F2F2F2" stroke-width="1.5" stroke-linecap="round" stroke-linejoin="round"/>
</g>
<rect x="72.5" y="544.5" width="158" height="40" rx="9.5" fill="#2C2C2C" stroke="#2C2C2C"/>
<path d="M117.768 570H116.384L120.389 559.091H121.753L125.759 570H124.374L121.114 560.817H121.028L117.768 570ZM118.28 565.739H123.862V566.911H118.28V565.739ZM130.377 570.17C129.695 570.17 129.093 569.998 128.571 569.654C128.049 569.306 127.641 568.816 127.346 568.184C127.051 567.548 126.904 566.797 126.904 565.93C126.904 565.071 127.051 564.325 127.346 563.693C127.641 563.061 128.051 562.573 128.576 562.228C129.102 561.884 129.709 561.712 130.398 561.712C130.931 561.712 131.352 561.8 131.661 561.978C131.973 562.152 132.211 562.351 132.374 562.575C132.541 562.795 132.671 562.976 132.763 563.118H132.87V559.091H134.127V570H132.912V568.743H132.763C132.671 568.892 132.539 569.08 132.369 569.308C132.199 569.531 131.955 569.732 131.639 569.909C131.323 570.083 130.902 570.17 130.377 570.17ZM130.547 569.041C131.051 569.041 131.478 568.91 131.826 568.647C132.174 568.381 132.438 568.013 132.619 567.544C132.8 567.072 132.891 566.527 132.891 565.909C132.891 565.298 132.802 564.764 132.625 564.306C132.447 563.844 132.184 563.485 131.836 563.23C131.488 562.971 131.059 562.841 130.547 562.841C130.015 562.841 129.571 562.978 129.216 563.251C128.864 563.521 128.599 563.888 128.422 564.354C128.248 564.815 128.161 565.334 128.161 565.909C128.161 566.491 128.25 567.021 128.427 567.496C128.608 567.969 128.875 568.345 129.226 568.626C129.581 568.903 130.022 569.041 130.547 569.041ZM139.693 570.17C139.011 570.17 138.409 569.998 137.887 569.654C137.365 569.306 136.957 568.816 136.662 568.184C136.368 567.548 136.22 566.797 136.22 565.93C136.22 565.071 136.368 564.325 136.662 563.693C136.957 563.061 137.367 562.573 137.893 562.228C138.418 561.884 139.026 561.712 139.714 561.712C140.247 561.712 140.668 561.8 140.977 561.978C141.289 562.152 141.527 562.351 141.691 562.575C141.858 562.795 141.987 562.976 142.08 563.118H142.186V559.091H143.443V570H142.229V568.743H142.08C141.987 568.892 141.856 569.08 141.685 569.308C141.515 569.531 141.272 569.732 140.956 569.909C140.64 570.083 140.219 570.17 139.693 570.17ZM139.864 569.041C140.368 569.041 140.794 568.91 141.142 568.647C141.49 568.381 141.755 568.013 141.936 567.544C142.117 567.072 142.207 566.527 142.207 565.909C142.207 565.298 142.119 564.764 141.941 564.306C141.763 563.844 141.501 563.485 141.153 563.23C140.805 562.971 140.375 562.841 139.864 562.841C139.331 562.841 138.887 562.978 138.532 563.251C138.18 563.521 137.916 563.888 137.738 564.354C137.564 564.815 137.477 565.334 137.477 565.909C137.477 566.491 137.566 567.021 137.744 567.496C137.925 567.969 138.191 568.345 138.543 568.626C138.898 568.903 139.338 569.041 139.864 569.041ZM158.96 559.091V570H157.681L151.737 561.435H151.63V570H150.309V559.091H151.588L157.554 567.678H157.66V559.091H158.96ZM164.863 570.17C164.075 570.17 163.395 569.996 162.823 569.648C162.255 569.297 161.816 568.807 161.507 568.178C161.202 567.546 161.049 566.811 161.049 565.973C161.049 565.135 161.202 564.396 161.507 563.757C161.816 563.114 162.246 562.614 162.796 562.255C163.35 561.893 163.997 561.712 164.735 561.712C165.161 561.712 165.582 561.783 165.998 561.925C166.413 562.067 166.791 562.298 167.132 562.617C167.473 562.933 167.745 563.352 167.947 563.874C168.15 564.396 168.251 565.039 168.251 565.803V566.335H161.944V565.249H166.973C166.973 564.787 166.88 564.375 166.696 564.013C166.514 563.651 166.255 563.365 165.918 563.155C165.584 562.946 165.19 562.841 164.735 562.841C164.235 562.841 163.801 562.965 163.436 563.214C163.073 563.459 162.795 563.778 162.599 564.173C162.404 564.567 162.306 564.989 162.306 565.44V566.165C162.306 566.783 162.413 567.306 162.626 567.736C162.843 568.162 163.143 568.487 163.526 568.711C163.91 568.931 164.355 569.041 164.863 569.041C165.193 569.041 165.492 568.995 165.758 568.903C166.028 568.807 166.261 568.665 166.456 568.477C166.651 568.285 166.802 568.047 166.909 567.763L168.123 568.104C167.995 568.516 167.78 568.878 167.479 569.19C167.177 569.499 166.804 569.741 166.36 569.915C165.916 570.085 165.417 570.17 164.863 570.17ZM172.017 570L169.524 561.818H170.845L172.614 568.082H172.699L174.446 561.818H175.788L177.514 568.061H177.599L179.368 561.818H180.689L178.196 570H176.96L175.17 563.714H175.043L173.253 570H172.017ZM186.143 560.263V559.091H194.325V560.263H190.895V570H189.574V560.263H186.143ZM197.488 570.192C196.969 570.192 196.499 570.094 196.076 569.899C195.654 569.7 195.318 569.414 195.07 569.041C194.821 568.665 194.697 568.21 194.697 567.678C194.697 567.209 194.789 566.829 194.974 566.538C195.158 566.243 195.405 566.012 195.714 565.845C196.023 565.678 196.364 565.554 196.737 565.472C197.113 565.387 197.491 565.32 197.871 565.27C198.369 565.206 198.772 565.158 199.081 565.126C199.393 565.091 199.62 565.032 199.762 564.95C199.908 564.869 199.981 564.727 199.981 564.524V564.482C199.981 563.956 199.837 563.548 199.549 563.256C199.265 562.965 198.834 562.82 198.255 562.82C197.655 562.82 197.184 562.951 196.843 563.214C196.502 563.477 196.263 563.757 196.124 564.055L194.931 563.629C195.144 563.132 195.428 562.745 195.783 562.468C196.142 562.187 196.533 561.992 196.955 561.882C197.381 561.768 197.8 561.712 198.212 561.712C198.475 561.712 198.777 561.744 199.118 561.808C199.462 561.868 199.794 561.994 200.114 562.186C200.437 562.377 200.705 562.667 200.918 563.054C201.131 563.441 201.238 563.96 201.238 564.609V570H199.981V568.892H199.917C199.832 569.07 199.69 569.26 199.491 569.462C199.292 569.664 199.027 569.837 198.697 569.979C198.367 570.121 197.964 570.192 197.488 570.192ZM197.68 569.062C198.177 569.062 198.596 568.965 198.937 568.77C199.281 568.574 199.54 568.322 199.714 568.013C199.892 567.704 199.981 567.379 199.981 567.038V565.888C199.928 565.952 199.81 566.01 199.629 566.064C199.452 566.113 199.246 566.158 199.011 566.197C198.781 566.232 198.555 566.264 198.335 566.293C198.118 566.317 197.942 566.339 197.808 566.357C197.481 566.399 197.175 566.468 196.891 566.564C196.611 566.657 196.384 566.797 196.21 566.985C196.039 567.17 195.954 567.422 195.954 567.741C195.954 568.178 196.115 568.509 196.439 568.732C196.765 568.952 197.179 569.062 197.68 569.062ZM206.835 573.239C206.228 573.239 205.706 573.161 205.269 573.004C204.832 572.852 204.468 572.649 204.177 572.397C203.889 572.148 203.66 571.882 203.49 571.598L204.491 570.895C204.605 571.044 204.749 571.214 204.923 571.406C205.097 571.602 205.335 571.77 205.636 571.912C205.942 572.058 206.341 572.131 206.835 572.131C207.495 572.131 208.041 571.971 208.47 571.651C208.9 571.332 209.115 570.831 209.115 570.149V568.487H209.008C208.916 568.636 208.785 568.821 208.614 569.041C208.447 569.258 208.206 569.451 207.89 569.622C207.577 569.789 207.155 569.872 206.622 569.872C205.961 569.872 205.368 569.716 204.843 569.403C204.321 569.091 203.907 568.636 203.602 568.04C203.3 567.443 203.149 566.719 203.149 565.866C203.149 565.028 203.296 564.299 203.591 563.677C203.886 563.052 204.296 562.569 204.821 562.228C205.347 561.884 205.954 561.712 206.643 561.712C207.176 561.712 207.598 561.8 207.911 561.978C208.227 562.152 208.468 562.351 208.635 562.575C208.806 562.795 208.937 562.976 209.03 563.118H209.157V561.818H210.372V570.234C210.372 570.938 210.212 571.509 209.892 571.95C209.576 572.393 209.15 572.718 208.614 572.924C208.081 573.134 207.488 573.239 206.835 573.239ZM206.792 568.743C207.297 568.743 207.723 568.627 208.071 568.397C208.419 568.166 208.683 567.834 208.864 567.401C209.046 566.967 209.136 566.449 209.136 565.845C209.136 565.256 209.047 564.735 208.87 564.284C208.692 563.833 208.429 563.48 208.081 563.224C207.733 562.969 207.304 562.841 206.792 562.841C206.26 562.841 205.816 562.976 205.461 563.246C205.109 563.516 204.845 563.878 204.667 564.332C204.493 564.787 204.406 565.291 204.406 565.845C204.406 566.413 204.495 566.916 204.672 567.353C204.853 567.786 205.12 568.127 205.471 568.375C205.826 568.62 206.267 568.743 206.792 568.743Z" fill="#F2F2F2"/>
<g clip-path="url(#clip1_1165_789)">
<path d="M90 568H87.43C85.14 568 84 566.86 84 564.57V557.43C84 555.14 85.14 554 87.43 554H92C94.29 554 95.43 555.14 95.43 557.43" stroke="#F2F2F2" stroke-width="1.5" stroke-linecap="round" stroke-linejoin="round"/>
<path d="M100.57 574H96.0003C93.7103 574 92.5703 572.86 92.5703 570.57V563.43C92.5703 561.14 93.7103 560 96.0003 560H100.57C102.86 560 104 561.14 104 563.43V570.57C104 572.86 102.86 574 100.57 574Z" stroke="#F2F2F2" stroke-width="1.5" stroke-linecap="round" stroke-linejoin="round"/>
<path d="M96.8701 567H100.13" stroke="#F2F2F2" stroke-width="1.5" stroke-linecap="round" stroke-linejoin="round"/>
<path d="M98.5 568.63V565.37" stroke="#F2F2F2" stroke-width="1.5" stroke-linecap="round" stroke-linejoin="round"/>
</g>
<path d="M89.2869 169.818C89.223 169.278 88.9638 168.859 88.5092 168.561C88.0547 168.263 87.4972 168.114 86.8366 168.114C86.3537 168.114 85.9311 168.192 85.5689 168.348C85.2102 168.504 84.9297 168.719 84.7273 168.993C84.5284 169.266 84.429 169.577 84.429 169.925C84.429 170.216 84.4982 170.466 84.6367 170.676C84.7788 170.882 84.9599 171.054 85.18 171.192C85.4002 171.327 85.631 171.439 85.8725 171.528C86.114 171.613 86.3359 171.683 86.5384 171.736L87.6463 172.034C87.9304 172.109 88.2464 172.212 88.5945 172.343C88.946 172.474 89.2816 172.654 89.6012 172.881C89.9244 173.105 90.1907 173.392 90.4002 173.744C90.6097 174.096 90.7145 174.527 90.7145 175.038C90.7145 175.628 90.56 176.161 90.2511 176.636C89.9457 177.112 89.4982 177.49 88.9087 177.771C88.3228 178.051 87.6108 178.192 86.7727 178.192C85.9915 178.192 85.315 178.066 84.7433 177.814C84.1751 177.561 83.7276 177.21 83.4009 176.759C83.0778 176.308 82.8949 175.784 82.8523 175.188H84.2159C84.2514 175.599 84.3899 175.94 84.6314 176.21C84.8764 176.477 85.1854 176.675 85.5582 176.807C85.9347 176.935 86.3395 176.999 86.7727 176.999C87.277 176.999 87.7298 176.917 88.131 176.754C88.5323 176.587 88.8501 176.356 89.0845 176.061C89.3189 175.763 89.4361 175.415 89.4361 175.017C89.4361 174.655 89.3349 174.36 89.1325 174.133C88.93 173.906 88.6637 173.721 88.3335 173.579C88.0032 173.437 87.6463 173.312 87.2628 173.206L85.9205 172.822C85.0682 172.577 84.3935 172.228 83.8963 171.773C83.3991 171.319 83.1506 170.724 83.1506 169.989C83.1506 169.378 83.3157 168.845 83.646 168.391C83.9798 167.933 84.4272 167.577 84.9883 167.325C85.5529 167.07 86.1832 166.942 86.8793 166.942C87.5824 166.942 88.2074 167.068 88.7543 167.32C89.3011 167.569 89.7344 167.909 90.054 168.343C90.3771 168.776 90.5476 169.268 90.5653 169.818H89.2869ZM96.1464 178.17C95.358 178.17 94.678 177.996 94.1063 177.648C93.5381 177.297 93.0995 176.807 92.7906 176.178C92.4852 175.546 92.3325 174.811 92.3325 173.973C92.3325 173.135 92.4852 172.396 92.7906 171.757C93.0995 171.114 93.5292 170.614 94.0796 170.255C94.6336 169.893 95.2799 169.712 96.0186 169.712C96.4447 169.712 96.8655 169.783 97.281 169.925C97.6965 170.067 98.0747 170.298 98.4156 170.617C98.7565 170.933 99.0281 171.352 99.2306 171.874C99.433 172.396 99.5342 173.039 99.5342 173.803V174.335H93.2274V173.249H98.2558C98.2558 172.787 98.1634 172.375 97.9788 172.013C97.7977 171.651 97.5384 171.365 97.2011 171.155C96.8673 170.946 96.4731 170.841 96.0186 170.841C95.5178 170.841 95.0846 170.965 94.7188 171.214C94.3566 171.459 94.0779 171.778 93.8825 172.173C93.6872 172.567 93.5896 172.989 93.5896 173.44V174.165C93.5896 174.783 93.6961 175.306 93.9092 175.736C94.1258 176.162 94.4259 176.487 94.8094 176.711C95.1929 176.931 95.6386 177.041 96.1464 177.041C96.4767 177.041 96.7749 176.995 97.0413 176.903C97.3112 176.807 97.5438 176.665 97.7391 176.477C97.9344 176.285 98.0853 176.047 98.1919 175.763L99.4063 176.104C99.2785 176.516 99.0637 176.878 98.7618 177.19C98.46 177.499 98.0871 177.741 97.6432 177.915C97.1993 178.085 96.7004 178.17 96.1464 178.17ZM104.77 178.17C104.003 178.17 103.343 177.989 102.789 177.627C102.235 177.265 101.809 176.766 101.51 176.13C101.212 175.495 101.063 174.768 101.063 173.952C101.063 173.121 101.216 172.387 101.521 171.752C101.83 171.113 102.26 170.614 102.81 170.255C103.364 169.893 104.01 169.712 104.749 169.712C105.324 169.712 105.843 169.818 106.304 170.031C106.766 170.244 107.144 170.543 107.439 170.926C107.734 171.31 107.917 171.757 107.988 172.268H106.731C106.635 171.896 106.422 171.565 106.091 171.278C105.765 170.987 105.324 170.841 104.77 170.841C104.28 170.841 103.851 170.969 103.481 171.224C103.116 171.477 102.83 171.833 102.624 172.295C102.421 172.753 102.32 173.291 102.32 173.909C102.32 174.541 102.419 175.092 102.618 175.56C102.821 176.029 103.105 176.393 103.471 176.652C103.84 176.912 104.273 177.041 104.77 177.041C105.097 177.041 105.394 176.984 105.66 176.871C105.926 176.757 106.152 176.594 106.336 176.381C106.521 176.168 106.652 175.912 106.731 175.614H107.988C107.917 176.097 107.741 176.532 107.46 176.919C107.183 177.302 106.816 177.608 106.358 177.835C105.903 178.059 105.374 178.17 104.77 178.17ZM113.384 169.818V170.884H109.144V169.818H113.384ZM110.379 167.858H111.636V175.656C111.636 176.011 111.688 176.278 111.791 176.455C111.897 176.629 112.032 176.746 112.196 176.807C112.363 176.864 112.538 176.892 112.723 176.892C112.862 176.892 112.975 176.885 113.064 176.871C113.153 176.853 113.224 176.839 113.277 176.828L113.533 177.957C113.448 177.989 113.329 178.021 113.176 178.053C113.023 178.089 112.83 178.107 112.595 178.107C112.24 178.107 111.892 178.03 111.551 177.877C111.214 177.725 110.933 177.492 110.71 177.18C110.489 176.867 110.379 176.473 110.379 175.997V167.858ZM115.275 178V169.818H116.532V178H115.275ZM115.914 168.455C115.669 168.455 115.457 168.371 115.28 168.204C115.106 168.037 115.019 167.837 115.019 167.602C115.019 167.368 115.106 167.167 115.28 167C115.457 166.833 115.669 166.75 115.914 166.75C116.159 166.75 116.368 166.833 116.542 167C116.72 167.167 116.809 167.368 116.809 167.602C116.809 167.837 116.72 168.037 116.542 168.204C116.368 168.371 116.159 168.455 115.914 168.455ZM122.158 178.17C121.419 178.17 120.771 177.995 120.214 177.643C119.66 177.292 119.227 176.8 118.914 176.168C118.605 175.536 118.451 174.797 118.451 173.952C118.451 173.099 118.605 172.355 118.914 171.72C119.227 171.084 119.66 170.591 120.214 170.239C120.771 169.887 121.419 169.712 122.158 169.712C122.897 169.712 123.543 169.887 124.097 170.239C124.654 170.591 125.088 171.084 125.397 171.72C125.709 172.355 125.865 173.099 125.865 173.952C125.865 174.797 125.709 175.536 125.397 176.168C125.088 176.8 124.654 177.292 124.097 177.643C123.543 177.995 122.897 178.17 122.158 178.17ZM122.158 177.041C122.719 177.041 123.181 176.897 123.543 176.61C123.905 176.322 124.173 175.944 124.347 175.475C124.521 175.006 124.608 174.499 124.608 173.952C124.608 173.405 124.521 172.895 124.347 172.423C124.173 171.951 123.905 171.569 123.543 171.278C123.181 170.987 122.719 170.841 122.158 170.841C121.597 170.841 121.135 170.987 120.773 171.278C120.411 171.569 120.143 171.951 119.969 172.423C119.795 172.895 119.708 173.405 119.708 173.952C119.708 174.499 119.795 175.006 119.969 175.475C120.143 175.944 120.411 176.322 120.773 176.61C121.135 176.897 121.597 177.041 122.158 177.041ZM129.041 173.078V178H127.784V169.818H128.999V171.097H129.105C129.297 170.681 129.588 170.347 129.979 170.095C130.37 169.839 130.874 169.712 131.492 169.712C132.046 169.712 132.53 169.825 132.946 170.053C133.361 170.276 133.685 170.617 133.915 171.075C134.146 171.53 134.262 172.105 134.262 172.801V178H133.005V172.886C133.005 172.244 132.838 171.743 132.504 171.384C132.17 171.022 131.712 170.841 131.13 170.841C130.728 170.841 130.37 170.928 130.054 171.102C129.741 171.276 129.494 171.53 129.313 171.864C129.132 172.197 129.041 172.602 129.041 173.078Z" fill="#F2F2F2"/>
<path d="M778 169V163H772" stroke="#F2F2F2" stroke-width="1.5" stroke-linecap="round" stroke-linejoin="round"/>
<path d="M760 175V181H766" stroke="#F2F2F2" stroke-width="1.5" stroke-linecap="round" stroke-linejoin="round"/>
<path d="M778 163L770.5 170.5" stroke="#F2F2F2" stroke-width="1.5" stroke-linecap="round" stroke-linejoin="round"/>
<path d="M767.5 173.5L760 181" stroke="#F2F2F2" stroke-width="1.5" stroke-linecap="round" stroke-linejoin="round"/>
<rect x="71.5" y="214.5" width="762" height="316" rx="9.5" stroke="#2C2C2C"/>
<path d="M71.5 224C71.5 218.753 75.7533 214.5 81 214.5H824C829.247 214.5 833.5 218.753 833.5 224V258.5H71.5V224Z" fill="#2C2C2C" stroke="#2C2C2C"/>
<path d="M108 233.27V229.23C108 227.64 107.36 227 105.77 227H101.73C100.14 227 99.5 227.64 99.5 229.23V233.27C99.5 234.86 100.14 235.5 101.73 235.5H105.77C107.36 235.5 108 234.86 108 233.27Z" stroke="#F2F2F2" stroke-width="1.5" stroke-linecap="round" stroke-linejoin="round"/>
<path d="M96.5 233.52V228.98C96.5 227.57 95.86 227 94.27 227H90.23C88.64 227 88 227.57 88 228.98V233.51C88 234.93 88.64 235.49 90.23 235.49H94.27C95.86 235.5 96.5 234.93 96.5 233.52Z" stroke="#F2F2F2" stroke-width="1.5" stroke-linecap="round" stroke-linejoin="round"/>
<path d="M96.5 244.77V240.73C96.5 239.14 95.86 238.5 94.27 238.5H90.23C88.64 238.5 88 239.14 88 240.73V244.77C88 246.36 88.64 247 90.23 247H94.27C95.86 247 96.5 246.36 96.5 244.77Z" stroke="#F2F2F2" stroke-width="1.5" stroke-linecap="round" stroke-linejoin="round"/>
<path d="M100.5 242.5H106.5" stroke="#F2F2F2" stroke-width="1.5" stroke-linecap="round"/>
<path d="M103.5 245.5V239.5" stroke="#F2F2F2" stroke-width="1.5" stroke-linecap="round"/>
<path d="M822 230.98C818.67 230.65 815.32 230.48 811.98 230.48C810 230.48 808.02 230.58 806.04 230.78L804 230.98" stroke="#FF0000" stroke-width="1.5" stroke-linecap="round" stroke-linejoin="round"/>
<path d="M809.5 229.97L809.72 228.66C809.88 227.71 810 227 811.69 227H814.31C816 227 816.13 227.75 816.28 228.67L816.5 229.97" stroke="#FF0000" stroke-width="1.5" stroke-linecap="round" stroke-linejoin="round"/>
<path d="M819.85 234.14L819.2 244.21C819.09 245.78 819 247 816.21 247H809.79C807 247 806.91 245.78 806.8 244.21L806.15 234.14" stroke="#FF0000" stroke-width="1.5" stroke-linecap="round" stroke-linejoin="round"/>
<path d="M811.33 241.5H814.66" stroke="#FF0000" stroke-width="1.5" stroke-linecap="round" stroke-linejoin="round"/>
<path d="M810.5 237.5H815.5" stroke="#FF0000" stroke-width="1.5" stroke-linecap="round" stroke-linejoin="round"/>
<path d="M123.287 233.818C123.223 233.278 122.964 232.859 122.509 232.561C122.055 232.263 121.497 232.114 120.837 232.114C120.354 232.114 119.931 232.192 119.569 232.348C119.21 232.504 118.93 232.719 118.727 232.993C118.528 233.266 118.429 233.577 118.429 233.925C118.429 234.216 118.498 234.466 118.637 234.676C118.779 234.882 118.96 235.054 119.18 235.192C119.4 235.327 119.631 235.439 119.873 235.528C120.114 235.613 120.336 235.683 120.538 235.736L121.646 236.034C121.93 236.109 122.246 236.212 122.594 236.343C122.946 236.474 123.282 236.654 123.601 236.881C123.924 237.105 124.191 237.392 124.4 237.744C124.61 238.096 124.714 238.527 124.714 239.038C124.714 239.628 124.56 240.161 124.251 240.636C123.946 241.112 123.498 241.49 122.909 241.771C122.323 242.051 121.611 242.192 120.773 242.192C119.991 242.192 119.315 242.066 118.743 241.814C118.175 241.561 117.728 241.21 117.401 240.759C117.078 240.308 116.895 239.784 116.852 239.188H118.216C118.251 239.599 118.39 239.94 118.631 240.21C118.876 240.477 119.185 240.675 119.558 240.807C119.935 240.935 120.339 240.999 120.773 240.999C121.277 240.999 121.73 240.917 122.131 240.754C122.532 240.587 122.85 240.356 123.085 240.061C123.319 239.763 123.436 239.415 123.436 239.017C123.436 238.655 123.335 238.36 123.132 238.133C122.93 237.906 122.664 237.721 122.333 237.579C122.003 237.437 121.646 237.312 121.263 237.206L119.92 236.822C119.068 236.577 118.393 236.228 117.896 235.773C117.399 235.319 117.151 234.724 117.151 233.989C117.151 233.378 117.316 232.845 117.646 232.391C117.98 231.933 118.427 231.577 118.988 231.325C119.553 231.07 120.183 230.942 120.879 230.942C121.582 230.942 122.207 231.068 122.754 231.32C123.301 231.569 123.734 231.909 124.054 232.343C124.377 232.776 124.548 233.268 124.565 233.818H123.287ZM130.146 242.17C129.358 242.17 128.678 241.996 128.106 241.648C127.538 241.297 127.1 240.807 126.791 240.178C126.485 239.546 126.332 238.811 126.332 237.973C126.332 237.135 126.485 236.396 126.791 235.757C127.1 235.114 127.529 234.614 128.08 234.255C128.634 233.893 129.28 233.712 130.019 233.712C130.445 233.712 130.866 233.783 131.281 233.925C131.696 234.067 132.075 234.298 132.416 234.617C132.756 234.933 133.028 235.352 133.231 235.874C133.433 236.396 133.534 237.039 133.534 237.803V238.335H127.227V237.249H132.256C132.256 236.787 132.163 236.375 131.979 236.013C131.798 235.651 131.538 235.365 131.201 235.155C130.867 234.946 130.473 234.841 130.019 234.841C129.518 234.841 129.085 234.965 128.719 235.214C128.357 235.459 128.078 235.778 127.883 236.173C127.687 236.567 127.59 236.989 127.59 237.44V238.165C127.59 238.783 127.696 239.306 127.909 239.736C128.126 240.162 128.426 240.487 128.809 240.711C129.193 240.931 129.639 241.041 130.146 241.041C130.477 241.041 130.775 240.995 131.041 240.903C131.311 240.807 131.544 240.665 131.739 240.477C131.934 240.285 132.085 240.047 132.192 239.763L133.406 240.104C133.278 240.516 133.064 240.878 132.762 241.19C132.46 241.499 132.087 241.741 131.643 241.915C131.199 242.085 130.7 242.17 130.146 242.17ZM138.77 242.17C138.003 242.17 137.343 241.989 136.789 241.627C136.235 241.265 135.809 240.766 135.51 240.13C135.212 239.495 135.063 238.768 135.063 237.952C135.063 237.121 135.216 236.387 135.521 235.752C135.83 235.113 136.26 234.614 136.81 234.255C137.364 233.893 138.01 233.712 138.749 233.712C139.324 233.712 139.843 233.818 140.304 234.031C140.766 234.244 141.144 234.543 141.439 234.926C141.734 235.31 141.917 235.757 141.988 236.268H140.731C140.635 235.896 140.422 235.565 140.091 235.278C139.765 234.987 139.324 234.841 138.77 234.841C138.28 234.841 137.851 234.969 137.481 235.224C137.116 235.477 136.83 235.833 136.624 236.295C136.421 236.753 136.32 237.291 136.32 237.909C136.32 238.541 136.419 239.092 136.618 239.56C136.821 240.029 137.105 240.393 137.471 240.652C137.84 240.912 138.273 241.041 138.77 241.041C139.097 241.041 139.394 240.984 139.66 240.871C139.926 240.757 140.152 240.594 140.336 240.381C140.521 240.168 140.652 239.912 140.731 239.614H141.988C141.917 240.097 141.741 240.532 141.46 240.919C141.183 241.302 140.816 241.608 140.358 241.835C139.903 242.059 139.374 242.17 138.77 242.17ZM147.384 233.818V234.884H143.144V233.818H147.384ZM144.379 231.858H145.636V239.656C145.636 240.011 145.688 240.278 145.791 240.455C145.897 240.629 146.032 240.746 146.196 240.807C146.363 240.864 146.538 240.892 146.723 240.892C146.862 240.892 146.975 240.885 147.064 240.871C147.153 240.853 147.224 240.839 147.277 240.828L147.533 241.957C147.448 241.989 147.329 242.021 147.176 242.053C147.023 242.089 146.83 242.107 146.595 242.107C146.24 242.107 145.892 242.03 145.551 241.877C145.214 241.725 144.933 241.492 144.71 241.18C144.489 240.867 144.379 240.473 144.379 239.997V231.858ZM149.275 242V233.818H150.532V242H149.275ZM149.914 232.455C149.669 232.455 149.457 232.371 149.28 232.204C149.106 232.037 149.019 231.837 149.019 231.602C149.019 231.368 149.106 231.167 149.28 231C149.457 230.833 149.669 230.75 149.914 230.75C150.159 230.75 150.368 230.833 150.542 231C150.72 231.167 150.809 231.368 150.809 231.602C150.809 231.837 150.72 232.037 150.542 232.204C150.368 232.371 150.159 232.455 149.914 232.455ZM156.158 242.17C155.419 242.17 154.771 241.995 154.214 241.643C153.66 241.292 153.227 240.8 152.914 240.168C152.605 239.536 152.451 238.797 152.451 237.952C152.451 237.099 152.605 236.355 152.914 235.72C153.227 235.084 153.66 234.591 154.214 234.239C154.771 233.887 155.419 233.712 156.158 233.712C156.897 233.712 157.543 233.887 158.097 234.239C158.654 234.591 159.088 235.084 159.397 235.72C159.709 236.355 159.865 237.099 159.865 237.952C159.865 238.797 159.709 239.536 159.397 240.168C159.088 240.8 158.654 241.292 158.097 241.643C157.543 241.995 156.897 242.17 156.158 242.17ZM156.158 241.041C156.719 241.041 157.181 240.897 157.543 240.61C157.905 240.322 158.173 239.944 158.347 239.475C158.521 239.006 158.608 238.499 158.608 237.952C158.608 237.405 158.521 236.895 158.347 236.423C158.173 235.951 157.905 235.569 157.543 235.278C157.181 234.987 156.719 234.841 156.158 234.841C155.597 234.841 155.135 234.987 154.773 235.278C154.411 235.569 154.143 235.951 153.969 236.423C153.795 236.895 153.708 237.405 153.708 237.952C153.708 238.499 153.795 239.006 153.969 239.475C154.143 239.944 154.411 240.322 154.773 240.61C155.135 240.897 155.597 241.041 156.158 241.041ZM163.041 237.078V242H161.784V233.818H162.999V235.097H163.105C163.297 234.681 163.588 234.347 163.979 234.095C164.37 233.839 164.874 233.712 165.492 233.712C166.046 233.712 166.53 233.825 166.946 234.053C167.361 234.276 167.685 234.617 167.915 235.075C168.146 235.53 168.262 236.105 168.262 236.801V242H167.005V236.886C167.005 236.244 166.838 235.743 166.504 235.384C166.17 235.022 165.712 234.841 165.13 234.841C164.728 234.841 164.37 234.928 164.054 235.102C163.741 235.276 163.494 235.53 163.313 235.864C163.132 236.197 163.041 236.602 163.041 237.078Z" fill="#F2F2F2"/>
<path d="M750 232V226H744" stroke="#F2F2F2" stroke-width="1.5" stroke-linecap="round" stroke-linejoin="round"/>
<path d="M732 238V244H738" stroke="#F2F2F2" stroke-width="1.5" stroke-linecap="round" stroke-linejoin="round"/>
<path d="M750 226L742.5 233.5" stroke="#F2F2F2" stroke-width="1.5" stroke-linecap="round" stroke-linejoin="round"/>
<path d="M739.5 236.5L732 244" stroke="#F2F2F2" stroke-width="1.5" stroke-linecap="round" stroke-linejoin="round"/>
<rect x="79.5" y="278.5" width="745" height="44" rx="9.5" fill="#2C2C2C" stroke="#2C2C2C"/>
<path d="M811 294.98C807.67 294.65 804.32 294.48 800.98 294.48C799 294.48 797.02 294.58 795.04 294.78L793 294.98" stroke="#FF0000" stroke-width="1.5" stroke-linecap="round" stroke-linejoin="round"/>
<path d="M798.5 293.97L798.72 292.66C798.88 291.71 799 291 800.69 291H803.31C805 291 805.13 291.75 805.28 292.67L805.5 293.97" stroke="#FF0000" stroke-width="1.5" stroke-linecap="round" stroke-linejoin="round"/>
<path d="M808.85 298.14L808.2 308.21C808.09 309.78 808 311 805.21 311H798.79C796 311 795.91 309.78 795.8 308.21L795.15 298.14" stroke="#FF0000" stroke-width="1.5" stroke-linecap="round" stroke-linejoin="round"/>
<path d="M800.33 305.5H803.66" stroke="#FF0000" stroke-width="1.5" stroke-linecap="round" stroke-linejoin="round"/>
<path d="M799.5 301.5H804.5" stroke="#FF0000" stroke-width="1.5" stroke-linecap="round" stroke-linejoin="round"/>
<path d="M126.408 301.078V306H125.151V295.091H126.408V299.097H126.514C126.706 298.674 126.994 298.338 127.377 298.09C127.764 297.838 128.279 297.712 128.922 297.712C129.479 297.712 129.968 297.824 130.387 298.047C130.806 298.267 131.131 298.607 131.362 299.065C131.596 299.519 131.713 300.098 131.713 300.801V306H130.456V300.886C130.456 300.237 130.287 299.734 129.95 299.379C129.616 299.02 129.153 298.841 128.56 298.841C128.148 298.841 127.778 298.928 127.452 299.102C127.129 299.276 126.873 299.53 126.685 299.864C126.5 300.197 126.408 300.602 126.408 301.078ZM133.992 306V305.041L137.592 301.099C138.015 300.638 138.363 300.237 138.636 299.896C138.91 299.551 139.112 299.228 139.244 298.926C139.379 298.621 139.446 298.301 139.446 297.967C139.446 297.584 139.354 297.252 139.169 296.971C138.988 296.691 138.739 296.474 138.423 296.321C138.107 296.169 137.752 296.092 137.358 296.092C136.939 296.092 136.573 296.179 136.261 296.353C135.952 296.524 135.712 296.763 135.542 297.072C135.375 297.381 135.291 297.744 135.291 298.159H134.034C134.034 297.52 134.182 296.959 134.476 296.476C134.771 295.993 135.172 295.616 135.68 295.347C136.191 295.077 136.765 294.942 137.401 294.942C138.04 294.942 138.606 295.077 139.1 295.347C139.593 295.616 139.981 295.98 140.261 296.439C140.542 296.897 140.682 297.406 140.682 297.967C140.682 298.369 140.609 298.761 140.464 299.145C140.321 299.525 140.073 299.949 139.718 300.418C139.366 300.883 138.878 301.451 138.253 302.122L135.803 304.743V304.828H140.874V306H133.992Z" fill="#F2F2F2"/>
<path d="M728 296V290H722" stroke="#F2F2F2" stroke-width="1.5" stroke-linecap="round" stroke-linejoin="round"/>
<path d="M710 302V308H716" stroke="#F2F2F2" stroke-width="1.5" stroke-linecap="round" stroke-linejoin="round"/>
<path d="M728 290L720.5 297.5" stroke="#F2F2F2" stroke-width="1.5" stroke-linecap="round" stroke-linejoin="round"/>
<path d="M717.5 300.5L710 308" stroke="#F2F2F2" stroke-width="1.5" stroke-linecap="round" stroke-linejoin="round"/>
<path d="M92 333.5H818C823.247 333.5 827.5 337.753 827.5 343V377.5H82.5V343C82.5 337.753 86.7533 333.5 92 333.5Z" fill="#2C2C2C" stroke="#2C2C2C"/>
<path d="M128.151 364.068V352.818H129.365V354.118H129.514C129.607 353.976 129.734 353.795 129.898 353.575C130.065 353.351 130.303 353.152 130.612 352.978C130.924 352.8 131.347 352.712 131.879 352.712C132.568 352.712 133.175 352.884 133.701 353.228C134.227 353.573 134.637 354.061 134.931 354.693C135.226 355.325 135.374 356.071 135.374 356.93C135.374 357.797 135.226 358.548 134.931 359.184C134.637 359.816 134.228 360.306 133.706 360.654C133.184 360.998 132.582 361.17 131.901 361.17C131.375 361.17 130.954 361.083 130.638 360.909C130.322 360.732 130.079 360.531 129.908 360.308C129.738 360.08 129.607 359.892 129.514 359.743H129.408V364.068H128.151ZM129.386 356.909C129.386 357.527 129.477 358.072 129.658 358.544C129.839 359.013 130.104 359.381 130.452 359.647C130.8 359.91 131.226 360.041 131.73 360.041C132.256 360.041 132.694 359.903 133.046 359.626C133.401 359.345 133.667 358.969 133.845 358.496C134.026 358.021 134.116 357.491 134.116 356.909C134.116 356.334 134.028 355.815 133.85 355.354C133.676 354.888 133.412 354.521 133.056 354.251C132.705 353.978 132.263 353.841 131.73 353.841C131.219 353.841 130.789 353.971 130.441 354.23C130.093 354.485 129.83 354.844 129.653 355.306C129.475 355.764 129.386 356.298 129.386 356.909Z" fill="#F2F2F2"/>
<rect x="82.5" y="461.5" width="745" height="44" rx="9.5" fill="#2C2C2C" stroke="#2C2C2C"/>
<path d="M128.151 489V480.818H129.408V489H128.151ZM128.79 479.455C128.545 479.455 128.333 479.371 128.156 479.204C127.982 479.037 127.895 478.837 127.895 478.602C127.895 478.368 127.982 478.167 128.156 478C128.333 477.833 128.545 477.75 128.79 477.75C129.035 477.75 129.244 477.833 129.418 478C129.596 478.167 129.685 478.368 129.685 478.602C129.685 478.837 129.596 479.037 129.418 479.204C129.244 479.371 129.035 479.455 128.79 479.455ZM131.71 489V480.818H132.925V482.097H133.031C133.202 481.66 133.477 481.321 133.857 481.079C134.237 480.834 134.693 480.712 135.226 480.712C135.766 480.712 136.215 480.834 136.573 481.079C136.936 481.321 137.218 481.66 137.42 482.097H137.506C137.715 481.674 138.029 481.338 138.448 481.09C138.867 480.838 139.37 480.712 139.956 480.712C140.687 480.712 141.286 480.941 141.751 481.399C142.216 481.853 142.449 482.562 142.449 483.524V489H141.192V483.524C141.192 482.92 141.027 482.489 140.696 482.23C140.366 481.971 139.977 481.841 139.53 481.841C138.954 481.841 138.509 482.015 138.193 482.363C137.877 482.707 137.719 483.144 137.719 483.673V489H136.44V483.396C136.44 482.931 136.289 482.556 135.987 482.272C135.686 481.985 135.297 481.841 134.821 481.841C134.494 481.841 134.189 481.928 133.905 482.102C133.624 482.276 133.397 482.517 133.223 482.826C133.052 483.132 132.967 483.485 132.967 483.886V489H131.71ZM148.05 492.239C147.443 492.239 146.921 492.161 146.484 492.004C146.047 491.852 145.683 491.649 145.392 491.397C145.104 491.148 144.875 490.882 144.705 490.598L145.706 489.895C145.82 490.044 145.964 490.214 146.138 490.406C146.312 490.602 146.549 490.77 146.851 490.912C147.157 491.058 147.556 491.131 148.05 491.131C148.71 491.131 149.255 490.971 149.685 490.651C150.115 490.332 150.33 489.831 150.33 489.149V487.487H150.223C150.131 487.636 149.999 487.821 149.829 488.041C149.662 488.258 149.421 488.451 149.104 488.622C148.792 488.789 148.369 488.872 147.837 488.872C147.176 488.872 146.583 488.716 146.058 488.403C145.536 488.091 145.122 487.636 144.816 487.04C144.515 486.443 144.364 485.719 144.364 484.866C144.364 484.028 144.511 483.299 144.806 482.677C145.101 482.052 145.511 481.569 146.036 481.228C146.562 480.884 147.169 480.712 147.858 480.712C148.391 480.712 148.813 480.8 149.126 480.978C149.442 481.152 149.683 481.351 149.85 481.575C150.021 481.795 150.152 481.976 150.244 482.118H150.372V480.818H151.587V489.234C151.587 489.938 151.427 490.509 151.107 490.95C150.791 491.393 150.365 491.718 149.829 491.924C149.296 492.134 148.703 492.239 148.05 492.239ZM148.007 487.743C148.511 487.743 148.938 487.627 149.286 487.397C149.634 487.166 149.898 486.834 150.079 486.401C150.26 485.967 150.351 485.449 150.351 484.845C150.351 484.256 150.262 483.735 150.085 483.284C149.907 482.833 149.644 482.48 149.296 482.224C148.948 481.969 148.519 481.841 148.007 481.841C147.475 481.841 147.031 481.976 146.676 482.246C146.324 482.516 146.059 482.878 145.882 483.332C145.708 483.787 145.621 484.291 145.621 484.845C145.621 485.413 145.71 485.916 145.887 486.353C146.068 486.786 146.335 487.127 146.686 487.375C147.041 487.62 147.482 487.743 148.007 487.743Z" fill="#F2F2F2"/>
<path d="M91.9902 294.93V293.42C91.9902 292.4 92.8202 291.57 93.8402 291.57H106.76C107.78 291.57 108.61 292.4 108.61 293.42V294.93" stroke="#F2F2F2" stroke-width="1.5" stroke-linecap="round" stroke-linejoin="round"/>
<path d="M100.3 307.1V292.32" stroke="#F2F2F2" stroke-width="1.5" stroke-linecap="round" stroke-linejoin="round"/>
<path d="M96.9004 307.1H102.48" stroke="#F2F2F2" stroke-width="1.5" stroke-linecap="round" stroke-linejoin="round"/>
<path d="M103.68 299.34H110.69C111.42 299.34 112.01 299.93 112.01 300.66V301.46" stroke="#F2F2F2" stroke-width="1.5" stroke-linecap="round" stroke-linejoin="round"/>
<path d="M106.08 310.43V299.87" stroke="#F2F2F2" stroke-width="1.5" stroke-linecap="round" stroke-linejoin="round"/>
<path d="M103.94 310.43H108.22" stroke="#F2F2F2" stroke-width="1.5" stroke-linecap="round" stroke-linejoin="round"/>
<path d="M91.9902 349.93V348.42C91.9902 347.4 92.8202 346.57 93.8402 346.57H106.76C107.78 346.57 108.61 347.4 108.61 348.42V349.93" stroke="#F2F2F2" stroke-width="1.5" stroke-linecap="round" stroke-linejoin="round"/>
<path d="M100.3 362.1V347.32" stroke="#F2F2F2" stroke-width="1.5" stroke-linecap="round" stroke-linejoin="round"/>
<path d="M96.9004 362.1H102.48" stroke="#F2F2F2" stroke-width="1.5" stroke-linecap="round" stroke-linejoin="round"/>
<path d="M103.68 354.34H110.69C111.42 354.34 112.01 354.93 112.01 355.66V356.46" stroke="#F2F2F2" stroke-width="1.5" stroke-linecap="round" stroke-linejoin="round"/>
<path d="M106.08 365.43V354.87" stroke="#F2F2F2" stroke-width="1.5" stroke-linecap="round" stroke-linejoin="round"/>
<path d="M103.94 365.43H108.22" stroke="#F2F2F2" stroke-width="1.5" stroke-linecap="round" stroke-linejoin="round"/>
<path d="M101 422H107C112 422 114 420 114 415V409C114 404 112 402 107 402H101C96 402 94 404 94 409V415C94 420 96 422 101 422Z" stroke="#F2F2F2" stroke-width="1.5" stroke-linecap="round" stroke-linejoin="round"/>
<path d="M101 410C102.105 410 103 409.105 103 408C103 406.895 102.105 406 101 406C99.8954 406 99 406.895 99 408C99 409.105 99.8954 410 101 410Z" stroke="#F2F2F2" stroke-width="1.5" stroke-linecap="round" stroke-linejoin="round"/>
<path d="M94.6699 418.95L99.5999 415.64C100.39 415.11 101.53 415.17 102.24 415.78L102.57 416.07C103.35 416.74 104.61 416.74 105.39 416.07L109.55 412.5C110.33 411.83 111.59 411.83 112.37 412.5L114 413.9" stroke="#F2F2F2" stroke-width="1.5" stroke-linecap="round" stroke-linejoin="round"/>
<path d="M809 176C810.657 176 812 174.657 812 173C812 171.343 810.657 170 809 170C807.343 170 806 171.343 806 173C806 174.657 807.343 176 809 176Z" stroke="#F2F2F2" stroke-width="1.5" stroke-miterlimit="10" stroke-linecap="round" stroke-linejoin="round"/>
<path d="M799 173.88V172.12C799 171.08 799.85 170.22 800.9 170.22C802.71 170.22 803.45 168.94 802.54 167.37C802.02 166.47 802.33 165.3 803.24 164.78L804.97 163.79C805.76 163.32 806.78 163.6 807.25 164.39L807.36 164.58C808.26 166.15 809.74 166.15 810.65 164.58L810.76 164.39C811.23 163.6 812.25 163.32 813.04 163.79L814.77 164.78C815.68 165.3 815.99 166.47 815.47 167.37C814.56 168.94 815.3 170.22 817.11 170.22C818.15 170.22 819.01 171.07 819.01 172.12V173.88C819.01 174.92 818.16 175.78 817.11 175.78C815.3 175.78 814.56 177.06 815.47 178.63C815.99 179.54 815.68 180.7 814.77 181.22L813.04 182.21C812.25 182.68 811.23 182.4 810.76 181.61L810.65 181.42C809.75 179.85 808.27 179.85 807.36 181.42L807.25 181.61C806.78 182.4 805.76 182.68 804.97 182.21L803.24 181.22C802.33 180.7 802.02 179.53 802.54 178.63C803.45 177.06 802.71 175.78 800.9 175.78C799.85 175.78 799 174.92 799 173.88Z" stroke="#F2F2F2" stroke-width="1.5" stroke-miterlimit="10" stroke-linecap="round" stroke-linejoin="round"/>
<path d="M782 237C783.657 237 785 235.657 785 234C785 232.343 783.657 231 782 231C780.343 231 779 232.343 779 234C779 235.657 780.343 237 782 237Z" stroke="#F2F2F2" stroke-width="1.5" stroke-miterlimit="10" stroke-linecap="round" stroke-linejoin="round"/>
<path d="M772 234.88V233.12C772 232.08 772.85 231.22 773.9 231.22C775.71 231.22 776.45 229.94 775.54 228.37C775.02 227.47 775.33 226.3 776.24 225.78L777.97 224.79C778.76 224.32 779.78 224.6 780.25 225.39L780.36 225.58C781.26 227.15 782.74 227.15 783.65 225.58L783.76 225.39C784.23 224.6 785.25 224.32 786.04 224.79L787.77 225.78C788.68 226.3 788.99 227.47 788.47 228.37C787.56 229.94 788.3 231.22 790.11 231.22C791.15 231.22 792.01 232.07 792.01 233.12V234.88C792.01 235.92 791.16 236.78 790.11 236.78C788.3 236.78 787.56 238.06 788.47 239.63C788.99 240.54 788.68 241.7 787.77 242.22L786.04 243.21C785.25 243.68 784.23 243.4 783.76 242.61L783.65 242.42C782.75 240.85 781.27 240.85 780.36 242.42L780.25 242.61C779.78 243.4 778.76 243.68 777.97 243.21L776.24 242.22C775.33 241.7 775.02 240.53 775.54 239.63C776.45 238.06 775.71 236.78 773.9 236.78C772.85 236.78 772 235.92 772 234.88Z" stroke="#F2F2F2" stroke-width="1.5" stroke-miterlimit="10" stroke-linecap="round" stroke-linejoin="round"/>
<path d="M762 304C763.657 304 765 302.657 765 301C765 299.343 763.657 298 762 298C760.343 298 759 299.343 759 301C759 302.657 760.343 304 762 304Z" stroke="#F2F2F2" stroke-width="1.5" stroke-miterlimit="10" stroke-linecap="round" stroke-linejoin="round"/>
<path d="M752 301.88V300.12C752 299.08 752.85 298.22 753.9 298.22C755.71 298.22 756.45 296.94 755.54 295.37C755.02 294.47 755.33 293.3 756.24 292.78L757.97 291.79C758.76 291.32 759.78 291.6 760.25 292.39L760.36 292.58C761.26 294.15 762.74 294.15 763.65 292.58L763.76 292.39C764.23 291.6 765.25 291.32 766.04 291.79L767.77 292.78C768.68 293.3 768.99 294.47 768.47 295.37C767.56 296.94 768.3 298.22 770.11 298.22C771.15 298.22 772.01 299.07 772.01 300.12V301.88C772.01 302.92 771.16 303.78 770.11 303.78C768.3 303.78 767.56 305.06 768.47 306.63C768.99 307.54 768.68 308.7 767.77 309.22L766.04 310.21C765.25 310.68 764.23 310.4 763.76 309.61L763.65 309.42C762.75 307.85 761.27 307.85 760.36 309.42L760.25 309.61C759.78 310.4 758.76 310.68 757.97 310.21L756.24 309.22C755.33 308.7 755.02 307.53 755.54 306.63C756.45 305.06 755.71 303.78 753.9 303.78C752.85 303.78 752 302.92 752 301.88Z" stroke="#F2F2F2" stroke-width="1.5" stroke-miterlimit="10" stroke-linecap="round" stroke-linejoin="round"/>
<path d="M101 494H107C112 494 114 492 114 487V481C114 476 112 474 107 474H101C96 474 94 476 94 481V487C94 492 96 494 101 494Z" stroke="#F2F2F2" stroke-width="1.5" stroke-linecap="round" stroke-linejoin="round"/>
<path d="M101 482C102.105 482 103 481.105 103 480C103 478.895 102.105 478 101 478C99.8954 478 99 478.895 99 480C99 481.105 99.8954 482 101 482Z" stroke="#F2F2F2" stroke-width="1.5" stroke-linecap="round" stroke-linejoin="round"/>
<path d="M94.6699 490.95L99.5999 487.64C100.39 487.11 101.53 487.17 102.24 487.78L102.57 488.07C103.35 488.74 104.61 488.74 105.39 488.07L109.55 484.5C110.33 483.83 111.59 483.83 112.37 484.5L114 485.9" stroke="#F2F2F2" stroke-width="1.5" stroke-linecap="round" stroke-linejoin="round"/>
<path d="M95.7244 392.263V391.091H103.906V392.263H100.476V402H99.1548V392.263H95.7244ZM108.018 402.17C107.23 402.17 106.55 401.996 105.978 401.648C105.41 401.297 104.972 400.807 104.663 400.178C104.357 399.546 104.205 398.811 104.205 397.973C104.205 397.135 104.357 396.396 104.663 395.757C104.972 395.114 105.401 394.614 105.952 394.255C106.506 393.893 107.152 393.712 107.891 393.712C108.317 393.712 108.738 393.783 109.153 393.925C109.569 394.067 109.947 394.298 110.288 394.617C110.629 394.933 110.9 395.352 111.103 395.874C111.305 396.396 111.406 397.039 111.406 397.803V398.335H105.099V397.249H110.128C110.128 396.787 110.036 396.375 109.851 396.013C109.67 395.651 109.411 395.365 109.073 395.155C108.739 394.946 108.345 394.841 107.891 394.841C107.39 394.841 106.957 394.965 106.591 395.214C106.229 395.459 105.95 395.778 105.755 396.173C105.559 396.567 105.462 396.989 105.462 397.44V398.165C105.462 398.783 105.568 399.306 105.781 399.736C105.998 400.162 106.298 400.487 106.681 400.711C107.065 400.931 107.511 401.041 108.018 401.041C108.349 401.041 108.647 400.995 108.913 400.903C109.183 400.807 109.416 400.665 109.611 400.477C109.806 400.285 109.957 400.047 110.064 399.763L111.278 400.104C111.151 400.516 110.936 400.878 110.634 401.19C110.332 401.499 109.959 401.741 109.515 401.915C109.071 402.085 108.572 402.17 108.018 402.17ZM114.036 393.818L115.997 397.163L117.957 393.818H119.406L116.764 397.909L119.406 402H117.957L115.997 398.825L114.036 402H112.587L115.187 397.909L112.587 393.818H114.036ZM124.758 393.818V394.884H120.518V393.818H124.758ZM121.753 391.858H123.01V399.656C123.01 400.011 123.062 400.278 123.165 400.455C123.271 400.629 123.406 400.746 123.57 400.807C123.737 400.864 123.912 400.892 124.097 400.892C124.236 400.892 124.349 400.885 124.438 400.871C124.527 400.853 124.598 400.839 124.651 400.828L124.907 401.957C124.822 401.989 124.703 402.021 124.55 402.053C124.397 402.089 124.204 402.107 123.969 402.107C123.614 402.107 123.266 402.03 122.925 401.877C122.588 401.725 122.307 401.492 122.084 401.18C121.863 400.867 121.753 400.473 121.753 399.997V391.858ZM130.441 392.263V391.091H138.623V392.263H135.193V402H133.872V392.263H130.441ZM142.735 402.17C141.947 402.17 141.267 401.996 140.695 401.648C140.127 401.297 139.688 400.807 139.379 400.178C139.074 399.546 138.921 398.811 138.921 397.973C138.921 397.135 139.074 396.396 139.379 395.757C139.688 395.114 140.118 394.614 140.669 394.255C141.222 393.893 141.869 393.712 142.607 393.712C143.034 393.712 143.454 393.783 143.87 393.925C144.285 394.067 144.664 394.298 145.004 394.617C145.345 394.933 145.617 395.352 145.819 395.874C146.022 396.396 146.123 397.039 146.123 397.803V398.335H139.816V397.249H144.845C144.845 396.787 144.752 396.375 144.568 396.013C144.387 395.651 144.127 395.365 143.79 395.155C143.456 394.946 143.062 394.841 142.607 394.841C142.107 394.841 141.673 394.965 141.308 395.214C140.945 395.459 140.667 395.778 140.471 396.173C140.276 396.567 140.178 396.989 140.178 397.44V398.165C140.178 398.783 140.285 399.306 140.498 399.736C140.715 400.162 141.015 400.487 141.398 400.711C141.782 400.931 142.227 401.041 142.735 401.041C143.066 401.041 143.364 400.995 143.63 400.903C143.9 400.807 144.133 400.665 144.328 400.477C144.523 400.285 144.674 400.047 144.781 399.763L145.995 400.104C145.867 400.516 145.653 400.878 145.351 401.19C145.049 401.499 144.676 401.741 144.232 401.915C143.788 402.085 143.289 402.17 142.735 402.17ZM148.753 393.818L150.713 397.163L152.674 393.818H154.122L151.48 397.909L154.122 402H152.674L150.713 398.825L148.753 402H147.304L149.904 397.909L147.304 393.818H148.753ZM159.474 393.818V394.884H155.234V393.818H159.474ZM156.47 391.858H157.727V399.656C157.727 400.011 157.779 400.278 157.882 400.455C157.988 400.629 158.123 400.746 158.287 400.807C158.453 400.864 158.629 400.892 158.814 400.892C158.952 400.892 159.066 400.885 159.155 400.871C159.244 400.853 159.315 400.839 159.368 400.828L159.624 401.957C159.538 401.989 159.419 402.021 159.267 402.053C159.114 402.089 158.92 402.107 158.686 402.107C158.331 402.107 157.983 402.03 157.642 401.877C157.305 401.725 157.024 401.492 156.8 401.18C156.58 400.867 156.47 400.473 156.47 399.997V391.858ZM165.158 392.263V391.091H173.34V392.263H169.909V402H168.588V392.263H165.158ZM177.452 402.17C176.664 402.17 175.984 401.996 175.412 401.648C174.844 401.297 174.405 400.807 174.096 400.178C173.791 399.546 173.638 398.811 173.638 397.973C173.638 397.135 173.791 396.396 174.096 395.757C174.405 395.114 174.835 394.614 175.385 394.255C175.939 393.893 176.586 393.712 177.324 393.712C177.75 393.712 178.171 393.783 178.587 393.925C179.002 394.067 179.38 394.298 179.721 394.617C180.062 394.933 180.334 395.352 180.536 395.874C180.739 396.396 180.84 397.039 180.84 397.803V398.335H174.533V397.249H179.561C179.561 396.787 179.469 396.375 179.284 396.013C179.103 395.651 178.844 395.365 178.507 395.155C178.173 394.946 177.779 394.841 177.324 394.841C176.824 394.841 176.39 394.965 176.025 395.214C175.662 395.459 175.384 395.778 175.188 396.173C174.993 396.567 174.895 396.989 174.895 397.44V398.165C174.895 398.783 175.002 399.306 175.215 399.736C175.431 400.162 175.732 400.487 176.115 400.711C176.499 400.931 176.944 401.041 177.452 401.041C177.782 401.041 178.081 400.995 178.347 400.903C178.617 400.807 178.849 400.665 179.045 400.477C179.24 400.285 179.391 400.047 179.498 399.763L180.712 400.104C180.584 400.516 180.369 400.878 180.067 401.19C179.766 401.499 179.393 401.741 178.949 401.915C178.505 402.085 178.006 402.17 177.452 402.17ZM183.47 393.818L185.43 397.163L187.39 393.818H188.839L186.197 397.909L188.839 402H187.39L185.43 398.825L183.47 402H182.021L184.62 397.909L182.021 393.818H183.47ZM194.191 393.818V394.884H189.951V393.818H194.191ZM191.187 391.858H192.444V399.656C192.444 400.011 192.496 400.278 192.599 400.455C192.705 400.629 192.84 400.746 193.003 400.807C193.17 400.864 193.346 400.892 193.531 400.892C193.669 400.892 193.783 400.885 193.872 400.871C193.96 400.853 194.031 400.839 194.085 400.828L194.34 401.957C194.255 401.989 194.136 402.021 193.983 402.053C193.831 402.089 193.637 402.107 193.403 402.107C193.048 402.107 192.7 402.03 192.359 401.877C192.021 401.725 191.741 401.492 191.517 401.18C191.297 400.867 191.187 400.473 191.187 399.997V391.858Z" fill="black"/>
<defs>
<clipPath id="clip0_1165_789">
<rect width="24" height="24" fill="white" transform="translate(48 678)"/>
</clipPath>
<clipPath id="clip1_1165_789">
<rect width="24" height="24" fill="white" transform="translate(82 552)"/>
</clipPath>
</defs>
</svg>
